<?xml version="1.0" standalone="no"?>
<!DOCTYPE svg PUBLIC "-//W3C//DTD SVG 1.1//EN" "http://www.w3.org/Graphics/SVG/1.1/DTD/svg11.dtd" >
<svg xmlns="http://www.w3.org/2000/svg" xmlns:xlink="http://www.w3.org/1999/xlink" version="1.1">
<metadata></metadata>
<defs>
<font id="yinghuayuluouploaded_file" horiz-adv-x="846" >
<font-face units-per-em="2048" ascent="1638" descent="-410" />
<missing-glyph horiz-adv-x="455" />
<glyph unicode="&#xd;" horiz-adv-x="757" />
<glyph horiz-adv-x="0" />
<glyph horiz-adv-x="0" />
<glyph unicode=" "  horiz-adv-x="455" />
<glyph unicode="&#x09;" horiz-adv-x="455" />
<glyph unicode="&#xa0;" horiz-adv-x="455" />
<glyph unicode="!" horiz-adv-x="509" d="M241 1632q5 7 16 4q9 -2 16 -2q18 0 20.5 -60.5t2.5 -419.5q0 -355 -2.5 -424.5t-20.5 -99.5q-16 -36 -32 -18q-14 23 -13 453q-1 544 13 567zM132 478q18 16 50 -9t89 -32q23 -5 23 -9.5t-48 -3t-69 16.5q-20 18 -27 17t-4 -26q2 -27 -7 -44t-13.5 -17t-2.5 -21 q5 -18 0 -19t-16 8q-16 20 2 59q14 25 14 48q0 27 9 32zM400 460q0 2 8 1t8 -24q0 -16 3 -46q0 -23 -12 -41q-11 -18 -11 -27t-29.5 -51t-41.5 -47q-20 -9 -25 -2q-2 2 12 9q2 7 7 7q16 7 31 34q16 32 14 36.5t-29 -11.5q-23 -11 -29 -11t-6 -3q0 -9 -13 -29q-23 -36 -7 -37 q20 0 2 -9q-5 -2 -11 -2q-18 -7 -36.5 -16t-41 -9t-36.5 16q-41 34 -41 86q0 14 3.5 23t12.5 7q2 -5 2 -25q0 -36 25 -64q16 -18 37 -18q36 0 68 41q16 32 27 36q9 5 21 14q14 11 17 11t24 14q16 14 31.5 41t11.5 46q-2 7 -18 6q-14 -2 -39 1.5t-25 8t18 4.5q14 0 37.5 11.5 t30.5 18.5zM353 394q36 11 36 2q0 -5 -18 -25.5t-30 -24.5q-75 -43 -72 -32q5 5 8 5t36 21.5t35 28.5t-2.5 9t-6.5 0q-11 -9 -66 -12h-16l9 3q60 14 87 25z" />
<glyph unicode="&#x22;" horiz-adv-x="539" d="M405 1732q20 23 34 2q9 -20 -4 -127q-27 -168 -41 -303q-11 -89 -14 -93q-14 -27 -36 25q-2 14 -7 27q-7 30 0 100q29 328 68 369zM152 1720q11 14 25 9q25 -16 16 -111q-14 -134 -36 -328q-7 -39 -15 -54.5t-19 -11.5q-32 14 -7 221q7 71 14 157q8 109 22 118z" />
<glyph unicode="#" horiz-adv-x="1506" d="M988 1620q7 18 22 7q14 -5 21 -30q2 -32 2 -132t-2 -186l-9 -98l184 -2q146 -2 173 -9t27 -32q0 -18 -9 -32t-25 -14h-22q-21 0 -59.5 -1t-73.5 -1q-121 0 -159.5 -7t-44.5 -27q-5 -30 -15 -127.5t-10 -125.5q5 -46 29.5 -51.5t156.5 1.5q18 0 50 2q130 7 151.5 6 t26.5 -17q0 -2 2 -7q11 -36 -33 -48.5t-231 -24.5q-132 -7 -146 -15q-11 -5 -15.5 -48t-9.5 -228q-2 -146 -5.5 -181t-14.5 -44q-11 -16 -24 -9t-17 27q-7 14 -7 244q0 225 -4 229q-11 5 -124 7.5t-136 -0.5q-25 -7 -32 -26t-16 -106q-9 -82 0 -125q9 -36 -1 -73.5 t-33 -56.5q-43 -34 -52 28q-9 55 4 220q5 112 -2 119q-14 11 -100 14.5t-173 -7.5q-89 -9 -115 -4.5t-26 29.5q0 14 4.5 19.5t22.5 9.5q55 14 253 30q102 7 125 11.5t30 22.5t11 175v27q2 123 -9 143.5t-84 23.5h-16q-89 9 -155 9q-75 0 -100 9q-16 5 -21.5 9t-5.5 18 q0 20 13 25q11 2 191 9q180 5 182 7q7 7 16 182q5 173 7 187q5 16 18.5 19t20.5 -10q5 -9 11 -191q7 -180 12 -187q7 -5 80.5 -16t146.5 -14q89 -7 100 5q18 25 28 255q11 166 16 184zM808 1092q-132 16 -146 21q-27 2 -34 -7q-11 -14 -20.5 -182.5t2.5 -179.5 q7 -9 122 -11.5t144 2.5q23 7 26.5 13.5t9.5 50.5q11 84 18.5 176t2.5 97q-9 6 -125 20z" />
<glyph unicode="$" horiz-adv-x="1014" d="M516.5 1622.5q9.5 6.5 22.5 -2.5q27 -14 44 -91q7 -57 13.5 -61.5t74.5 -8.5q61 -5 80.5 -13t19.5 -26q0 -16 -9 -21q-9 -7 -79 -6q-68 0 -80 -7q-9 -9 -14 -37q-5 -34 -11.5 -189.5t-4.5 -171.5q2 -14 15 -18.5t76 -20.5q134 -32 196 -87q64 -55 64 -95 q0 -80 -32 -141.5t-89 -97.5t-179 -77q-34 -9 -39 -21q-5 -9 -16 -107t-21 -109q-7 -14 -30.5 -12.5t-30.5 14.5q-9 11 -12.5 102.5t-10.5 100.5q-5 9 -15 11t-60 14q-55 11 -123 36t-86 39q-34 32 -61.5 77.5t-20.5 65.5q14 34 91 -36q114 -107 241 -107q30 0 35.5 26 t5.5 170v175l-55 13q-132 32 -177 112q-11 20 -19 65.5t-6 80.5q5 68 70.5 136t172.5 116l50 23v89q0 91 9.5 97.5zM494 1331q-2 20 -19.5 19t-55.5 -26q-112 -73 -123.5 -175t86.5 -150q30 -18 63 -20.5t40 11.5q9 23 13.5 166t-4.5 175zM696 856q-107 34 -113 20 q-9 -23 -22 -163t-6 -160q2 -18 16 -30q9 -7 20.5 -5.5t63.5 21.5q71 27 110 62q52 46 68 94.5t-7 82.5q-37 46 -130 78z" />
<glyph unicode="%" horiz-adv-x="1126" d="M981 1634q14 23 32 19.5t20 -31.5q2 -30 -105 -233t-241 -415q-14 -27 -76.5 -127.5t-87.5 -141.5q-77 -130 -189.5 -300.5t-140.5 -204.5q-34 -41 -66 -41q-20 0 -28 6t-8 16t8 22.5t24 33.5q39 52 52 77q5 7 33.5 48t41.5 61q59 86 189 298q114 180 180 283 q59 86 298 518q55 101 64 112zM421 1545q34 11 91 9q84 -7 118 -46.5t34 -126.5q0 -64 -20 -108t-98 -122q-57 -59 -73 -68t-50 -4q-46 5 -73 34q-25 20 -29.5 40.5t-6.5 109.5q-2 116 9 161q16 80 98 121zM555 1461q-16 23 -48 25q-34 2 -68 -25q-32 -32 -43 -64t-11 -107 t7.5 -100t35.5 -25q18 0 75 61.5t68 93.5q11 30 5.5 74t-21.5 67zM717 619q43 48 56.5 57t47.5 9q143 0 151 -143q5 -89 -49 -208.5t-113 -151.5q-27 -11 -69 -11t-72 9q-43 20 -54.5 52t-11.5 123q2 77 6.5 101t20.5 54q26 50 87 109zM856 592q-18 11 -48 18q-32 5 -46 -18 q-84 -116 -84 -251q0 -46 21 -63q36 -36 88 2q41 34 77.5 134t18.5 141q-7 21 -27 37z" />
<glyph unicode="&#x26;" horiz-adv-x="1176" d="M485 1563q57 16 101 7t106 -48q91 -61 102 -100q7 -39 -34 -157q-16 -43 -54.5 -93t-136.5 -150q-125 -130 -125 -144q0 -39 79 -127q71 -80 91 -80q14 0 37 132q30 191 41 212q11 20 42 50t56 41q34 18 64.5 22.5t32.5 -8.5q5 -11 -50 -64q-55 -48 -63 -66 q-18 -34 -46.5 -216t-19.5 -198q16 -32 145 -116q86 -61 203 -85q18 -5 22.5 -9t6.5 -20q0 -25 -18 -41q-34 -34 -127 0q-86 27 -166 89q-41 34 -69 52q-18 14 -22.5 14t-15.5 -9q-11 -14 -59 -96q-36 -86 -91 -121.5t-125.5 -38t-120.5 19.5t-96 74q-46 48 -63 82 q-20 34 -21 102q0 130 34 205q39 77 109 143q25 27 48 55l27 30l-29 66q-43 109 -37 291q2 71 14 101.5t41 71.5q75 100 187 127zM605 1475q-105 46 -207 -53q-39 -32 -51 -70.5t-17 -111.5q-2 -82 15 -167t40 -85q11 0 78 61t131 127q55 57 76.5 92.5t25.5 80.5q7 36 -4 55 q-9 18 -36.5 42t-50.5 29zM471 671q-114 123 -125 123q-16 0 -66 -55.5t-66 -87.5q-20 -34 -25 -75q-9 -34 -9 -91t9 -75q5 -16 40 -52.5t60 -52.5q30 -20 77 -21q98 0 137 44q27 32 60 110.5t29 98.5q-5 18 -121 134z" />
<glyph unicode="(" horiz-adv-x="630" d="M332 1438q50 50 73 50q55 0 25 -48q-14 -20 -43 -54q-93 -105 -157 -301q-30 -96 -38 -149t-8 -203q0 -137 1.5 -165.5t14.5 -66.5q66 -175 146 -205q27 -11 84 -23q96 -16 107 -50q2 -14 -14 -25q-18 -7 -79.5 -7t-95.5 12q-75 20 -116 57.5t-84 133.5 q-34 71 -45.5 135.5t-11.5 189.5q0 114 7 167.5t43 173.5q41 141 83 223t108 155z" />
<glyph unicode=")" horiz-adv-x="555" d="M105 1506q7 14 33 9.5t67 -27.5t77 -57q43 -41 87 -129q43 -86 59 -144q36 -141 25 -425q-2 -105 -18 -164t-69 -164q-77 -159 -129 -196q-18 -14 -57 -26t-66 -12q-23 0 -14 16q7 9 21 16q20 11 70 66q118 125 178 368q16 77 6.5 245.5t-36.5 271.5q-20 66 -54.5 130.5 t-61.5 92.5q-125 115 -118 129z" />
<glyph unicode="*" horiz-adv-x="1042" d="M482 1324q11 11 25 0q23 -14 32 -57t12 -150q0 -66 2 -82q5 -30 30 -13q16 11 61 54q173 164 246 164q61 0 -25 -73q-52 -48 -96 -88q-48 -46 -61 -50q-48 -25 -114 -91q-43 -39 -36 -71q18 -55 68 -148q96 -168 95 -200q0 -9 -6 -27q-16 -27 -48 -7q-23 18 -41 57 q-18 52 -74 167t-65 119q-7 9 -11 3q-7 -14 -48 -69q-43 -61 -98 -148.5t-73 -103.5q-16 -20 -37.5 -20.5t-32.5 13.5q-11 16 -8 28.5t24 39.5q25 30 59 80q116 168 141 200q18 32 4 32q-16 0 -98 29q-48 16 -118 67.5t-89 83.5q-11 20 -2 29q18 32 93 -16q46 -27 71 -38 q68 -32 141 -55q11 -2 36 -14q25 -14 27.5 -8t0.5 165q-2 121 0 152.5t13 45.5z" />
<glyph unicode="+" horiz-adv-x="1169" d="M601 1447q14 9 29 -2q27 -23 28 -246q0 -143 4 -191l7 -39h193h196l12 -31q9 -36 2 -41q-7 -9 -164 -19q-152 -5 -189 -9q-23 -5 -27.5 -9t-6.5 -36q-7 -48 -14 -226q-9 -189 -13 -216q-2 -23 -7 -27.5t-23 -4.5q-25 -5 -45 16q-14 14 -15 35.5t1 140.5q14 294 -5 314 q-14 14 -209 18q-200 2 -218 16q-46 27 13 38q30 9 103 14q105 9 213 14l103 4l7 48q5 59 11 239q3 195 14 200z" />
<glyph unicode="," horiz-adv-x="464" d="M273 416q16 20 27 -2q5 -11 14 -18q9 -2 21 -21q11 -20 27 -97q11 -50 -2 -66q-5 -9 -10 -25q-2 -14 -9 -32q-11 -20 -11 -23q0 -2 -15 -22.5t-19 -20.5q-2 -2 -9 -12q-23 -27 -94 -36q-27 -2 -31.5 -5.5t-30.5 -8t-31 -0.5q-9 18 14 62q23 55 23 111q0 86 15 105 q7 9 7 4q5 -5 -2 -18q-5 -20 -2 -91q2 -68 -12 -100q-5 -18 -8 -27t-3 -15t2.5 -8t6.5 -2q9 0 11 7q16 18 55 18q25 0 34 16t9 61q0 34 5 37q18 18 18 54q0 11 5 18q27 27 27 69q0 32 -5 47q-14 27 -34 12q-11 -11 -34 -23q-27 -9 -41 -18q-14 -11 -14 -5q0 18 44 34 q25 7 52 41zM344 280q-7 18 -9 18t-32 -32q-14 -14 -25 -48q-11 -32 -9 -54q5 -23 4 -50q-5 -32 0 -32t21 14q34 32 50 109q11 45 0 75zM273 348q14 20 21 5q2 -11 -14 -73q-5 0 -7 16q0 23 -7 23l-7 -12q-7 -11 -13.5 -17t-13.5 -26q-14 -39 -20 -39q0 16 18 63t25 47 q9 -1 18 13z" />
<glyph unicode="-" d="M601 908q57 14 78.5 12.5t39.5 -21.5q36 -34 11 -57q-20 -18 -143 -39q-68 -7 -269.5 -9t-215.5 7q-11 11 -7.5 26t19.5 26t141 16q191 5 346 39z" />
<glyph unicode="." horiz-adv-x="298" d="M118 237q30 30 52.5 10.5t34.5 -56.5q2 -18 -2 -29q-11 -18 -40 -29.5t-45 -5.5q-9 5 -18 23t-9 32q0 30 27 55z" />
<glyph unicode="/" horiz-adv-x="832" d="M687 1673q27 16 37 -10q18 -48 -103 -380q-16 -48 -25 -70q-114 -319 -164 -428q-43 -96 -116 -300q-118 -325 -159 -364q-14 -14 -22 -13t-23 19q-20 16 -16 35.5t29 65.5q73 146 121 284q9 32 18 52q2 5 27 64q18 52 28 73q9 14 9 18q0 2 16 41q18 41 18 42t13 35 q39 77 144 362q5 20 19.5 62.5t21.5 56.5q36 107 70 216q34 125 57 139z" />
<glyph unicode="0" horiz-adv-x="1135" d="M677 1502q47 -9 77.5 -28.5t69.5 -58.5q41 -50 44.5 -54.5t16.5 9.5q27 30 82 25q32 -2 41 -11q5 -5 2.5 -5t-13.5 2q-23 2 -55 3q-18 0 -42 -19.5t-24 -33.5l-7 -16v9q0 20 -20 0q-7 -9 -46 -38q-36 -27 -36 -34q0 -2 -8 -2.5t-8 -4.5q0 -7 8 -7t20.5 3.5t23.5 7.5 q18 9 44 37q23 25 22 18q0 -27 -50 -59q-32 -23 -50 -21q-16 5 -23 9q-7 5 -6 -4q0 -20 37.5 -30.5t71.5 -1.5q25 9 41 11q14 2 66 55q52 50 63 50q27 0 11.5 19.5t-6.5 21.5q9 5 27 -16q16 -20 9.5 -34t-20.5 -14q-48 0 -68 -25q-18 -18 -28 -34q-7 -16 -13 -23 q-2 -2 0 -41q2 -41 -7 -109q-20 -168 -80 -353q-64 -180 -70 -191q2 -2 43 5t52 13q20 9 25 6t5 -37q0 -50 -15 -80t-60 -57q-32 -16 -57 -16l-18 2l2 5q9 5 23 5q20 0 18 11q0 2 -26 -6t-40 -28t-28.5 -20.5t-29.5 -22t-42.5 -51t-61.5 -46.5t-77 -17t-72.5 11.5 t-50.5 26.5q-25 18 -40 14t-15 0.5t20.5 17t39.5 41.5q16 27 9 30q-11 0 -32 -12q-16 -9 -27 -9q-20 0 22 21q2 2 9 7q41 18 57 54q18 46 3 55q-23 -7 -118.5 -1.5t-107 12.5t-25.5 18q-18 14 -22.5 9.5t-2.5 -24.5q5 -46 -20 -64q-7 -9 -5 -27q2 -14 -1 -16.5t-17 11.5 q-23 20 2 59q11 18 12 43q0 34 20.5 42t47.5 -14q34 -27 43 -19q2 5 -7 39q-27 105 -22.5 226.5t21.5 194.5t43.5 161.5t83 187.5t119.5 155t119.5 68.5t103.5 3.5zM699 1395q-59 30 -119 0q-109 -46 -195 -271q-39 -86 -60.5 -176t-33.5 -211q-7 -86 5 -129 q7 -52 26 -104.5t31 -57.5q5 -2 31 8t37 19q16 14 18 -16q2 -16 2 -52q0 -27 -9 -41q-27 -36 -4 -64q59 -64 136 5q50 55 91 155q59 150 102.5 302.5t59.5 241.5q18 93 18 147q0 14 -2 15t-23 1q-59 2 -75 30q-9 14 -25 32q-14 16 -7 24t21 -1q14 -5 27 9q16 14 30 25t6 25 q-11 20 -38 47.5t-50 36.5zM874 505h-27.5t-52 -2t-39.5 -5q-7 -2 -17 -7.5t-14.5 -11.5t-2.5 -8t-6 -25q-7 -18 -7 -23q2 -5 10 -4.5t20.5 4t16.5 7.5q18 16 43.5 32t34.5 16t25 10t16 17zM878 457q0 16 -16 9q-11 -7 -38 -11q-32 -9 -59 -29q-36 -27 -37 -23l5 7q2 7 0 4 q-5 0 -9 -2q-9 -7 -18.5 -29.5t-6.5 -32.5q2 0 5.5 2.5t7 3.5t9.5 6q18 11 34 13q18 7 19 12q0 14 23.5 33t44.5 19q36 0 36 18zM851 412q11 14 10 16t-14 2q-41 -7 -60 -32q-9 -11 -7.5 -12t21.5 1q34 0 50 25zM373 410q27 7 34 2q2 -2 -10 -16t-29.5 -30t-30.5 -18 q-20 -5 -41 -16q-23 -11 -23 -9q-2 0 1.5 3.5t8 6t10 7t11.5 6.5l5 2q2 0 30 16q34 23 25 27h-9q-77 -18 -86 -16l40 16q9 5 21 5zM100 316q14 30 21 -20q5 -43 38 -68q16 -16 41 -10q41 5 69 46q18 30 27 32q14 7 13 -2q0 -7 -13 -28q-27 -34 -9 -34q27 0 -16 -18 q-43 -16 -78 -18q-30 -2 -47 11q-25 18 -40 53.5t-6 55.5z" />
<glyph unicode="1" horiz-adv-x="455" d="M284 1495q5 16 32.5 13.5t31.5 -22.5q9 -20 9 -173q0 -189 -25 -307q-20 -118 -38 -257q-2 -23 -16 -93.5t-16 -97.5q0 -7 -7 -43.5t-9 -52.5q-18 -114 -34 -203q-9 -36 -16 -49.5t-30 -22.5q-43 -14 -57 9q-11 20 16 161q2 11 16 94q14 80 23 132q9 48 20 116 q34 191 48 252q25 125 34 289q9 223 18 255z" />
<glyph unicode="2" horiz-adv-x="1121" d="M148 1577q14 9 52.5 9t52.5 -9q43 -16 66 -57q11 -23 13.5 -87.5t-4.5 -64.5t-7 36q2 52 -27 112q-20 43 -39 31q-9 -9 -15 -2t-8 5q-2 -5 9 -19q50 -50 53 -102l2 -25l-12 32q-14 34 -29 52q-14 20 -34.5 38.5t-27 18.5t-25.5 -23q-14 -14 -13.5 -18t9.5 -11 q14 -11 16 -23q9 -16 -32 -55q-14 -20 -17.5 -28t6.5 -33q5 -25 40 -51t64 -26q39 2 48 16q-9 5 -65 41t-51 38q2 7 27 -9q59 -34 89 -39h14l-32 32q-39 36 -55 48q-27 14 -27 25q-2 2 7 -2q7 -5 11 -9q5 -7 18 -7q14 0 32 -18q64 -57 78 -57q2 0 1 9t38.5 45.5t73.5 54.5 q59 36 119.5 51t133.5 8t134.5 -48t86.5 -128.5t-10 -205.5q-18 -52 -18 -55q2 -2 28 -9q41 -7 79 9q34 14 34 -20q0 -18 5 -28q14 -14 -16 -116q-11 -30 -27 -62.5t-25 -32.5q-2 0 -25 -18q-41 -39 -94 -64q-43 -18 -118 -7q-23 2 -27.5 0t-13.5 -18q-34 -64 -173 -239 q-105 -132 -111 -150q0 -14 38 -14q32 0 198 14q223 18 292 16q43 -2 54 -21q16 -32 -7 -57q-18 -14 -40.5 -15t-169.5 -9t-218.5 -14.5t-178.5 -18.5q-216 -23 -203 -2q9 16 32 39q32 32 23 32l-9 -3q-16 -2 -32 -9q-14 -7 -32 -7t-41 19q-14 16 -22 38.5t-3 34.5 q11 18 18 -14q5 -36 32 -57q11 -7 31.5 -1t32.5 21q36 41 38 37q7 -5 -9 -23q-9 -16 -11 -19.5t9 -5.5q9 -2 13.5 4.5t11.5 6.5q16 0 39 41q9 11 9 12.5t-9 1.5t-18 -9q-20 -7 -25 -2q2 2 29 16q16 11 34.5 33.5t15.5 36.5q-2 7 -34 7q-27 -2 -32 5q2 5 12 4q14 0 38 11 q20 14 25 12q5 -7 7 -59l2 -12q5 5 35 37q55 66 161 216q82 109 82 114.5t-20 15.5q-48 16 22 66q46 32 68.5 56.5t68.5 113.5q30 61 49 105.5t27 93.5t-7 106t-70.5 87.5t-122.5 27.5t-124 -29.5t-125 -94.5q-66 -80 -84.5 -109.5t-37.5 -55.5t-41 1.5t19 113.5q0 5 -3.5 6 t-12.5 1q-52 0 -118 86q-32 43 0 80q14 11 14 14q5 7 -14 -5q-14 -7 -15 -4.5t8 29.5q11 25 5 46q-11 23 0 44.5t34 32.5zM155 1531q9 20 9 21q-5 2 -15 -8t-10 -19q0 -30 16 6zM143 1450q5 7 0 13q-2 7 -6 -4q-2 -9 0 -14q-1 -2 6 5zM942 1042q-27 5 -43 7q-9 0 -35.5 -5.5 t-37.5 -14.5q-46 -39 -102 -153q-9 -14 -28 -32q-34 -32 -48.5 -47.5t-12.5 -18.5q2 -7 32 -7t43.5 -9t31.5 -16q34 -5 73 62q23 30 47 52q23 14 37 34q9 16 18 14q7 -5 26.5 6.5t30.5 25.5q36 41 34 77q-2 16 -5.5 19.5t-14.5 1.5q-16 -1 -46 4zM997 908q0 2 -4.5 2 t-14 -3.5t-18.5 -5.5q-14 -5 -25 -7q-11 0 -43 -32q-55 -43 -55 -68q0 -5 -22 -34q-20 -27 -20.5 -30.5t7.5 -3.5t18.5 1t21.5 3q48 16 107 82q39 39 45 64q3 27 3 32zM960 1001q25 14 28 -7q0 -5 -16 -24t-33 -37t-19.5 -14.5t11.5 28.5t11 27q-5 0 -18 -9q-16 -9 -24 -9 t-31 -18q-25 -23 -36 -28q-9 -7 -11.5 -7t6.5 9q18 27 60.5 57t55.5 25q5 -2 16 7zM200 1493h5q9 -11 22.5 -35t13.5 -34q0 -23 -16 12q-5 7 -7 18q-13 28 -18 39zM990 548q9 2 34 3l27 -3v-36q0 -39 -11 -55q-34 -43 -93 -43q-43 0 -89 30l-16 13l23 12q27 14 59 43 q34 32 48 34q16 2 18 2zM1019 532q-5 2 -24 3.5t-28 -3.5q-23 -9 -50 -40q-20 -25 -36 -28q-11 -5 -11.5 -7t13.5 -11q32 -25 59 -2q7 11 45.5 31.5t41.5 27.5l-14 -5q-39 -27 -46 -18l3 1q2 1 6.5 3.5t9.5 4.5q20 9 25 16q7 5 -3 5h-9q-34 -7 -70 -39l-16 -14q0 7 16 21 q27 32 75 43l23 5q-8 4 -10 6zM1040 482q0 9 -2 10q-9 0 -47 -23t-44 -30q-5 -9 -19 -11q-5 -7 16 -7q27 0 46 9q18 9 34 25t16 27zM102 469q5 5 21 2.5t25 -11.5q32 -25 80 -25q14 0 13.5 -4.5t-41.5 -2.5q-39 2 -59 13l-20 14l-5 -25q0 -30 -9 -40t-5 -24q0 -11 -2 -12 t-14 8q-18 18 3 45q11 18 11 39t2 23zM294 403q30 11 29.5 4t-13 -18t-21.5 -20l-64 -25h3q25 18 36 22q27 20 25 25q-2 2 -30 -2q-27 -9 -38 -9l20 11q33 7 53 12z" />
<glyph unicode="3" horiz-adv-x="873" d="M495 1508.5q69 -2.5 121.5 -19.5t105 -64.5t68.5 -130.5t-15 -166.5t-99 -160.5q-55 -59 -52.5 -71.5t56.5 -60.5q48 -41 77.5 -91t40 -112.5t3.5 -118.5t-23 -102.5t-43 -88.5t-63.5 -70.5t-93.5 -51.5t-150 -27.5t-200 32.5q-75 27 -121 93q-32 66 -9 87q9 9 16 9 q25 0 68 -59q25 -30 57 -47t66 -25t103.5 -8t148 34t115 117t33.5 158q-2 68 -38 139q-39 68 -94 93q-27 14 -88 14q-68 0 -105 -4q-46 -9 -75 -10q-30 0 -43 12q-18 16 -3 36q16 20 87 34q112 23 173 58.5t114 105.5q66 82 72 198q-7 80 -62.5 125.5t-105.5 52.5 q-52 7 -107 0q-198 -27 -296 -162q-18 -23 -27 -28.5t-23 8.5q-16 14 -13.5 42t22.5 53q18 27 69.5 69.5t113 67.5t106 34t113.5 6.5z" />
<glyph unicode="4" horiz-adv-x="985" d="M444 1502q11 9 41 7q57 -7 73 -32q16 -36 2 -446q-5 -189 -3.5 -250.5t10.5 -68.5q5 -5 66 -7q71 -2 232 16q23 5 34 -9q16 -16 17 -44.5t-15 -32.5q-27 -9 -191 -18q-80 -2 -102.5 -8t-29.5 -20q-11 -14 -9 -198q0 -137 -1 -162.5t-10 -32.5q-9 -11 -31 -13.5t-33 4.5 q-11 9 -19.5 202.5t-10.5 202.5t-11 9q-50 -2 -250 -32q-96 -11 -117 4q-18 18 5 78q11 30 59 128.5t64 123.5q36 59 105.5 210.5t90 213t20.5 116.5q3 50 14 59zM487 1283q0 25 -5 28l-2 -9q-5 -9 -32 -73q-36 -93 -152 -330q-80 -159 -80 -162q0 -2 -13 -27 q-11 -32 -8 -36.5t33 -4.5q41 0 102 7q57 5 102 9l37 2l2 173q5 173 9 225q9 93 7 198z" />
<glyph unicode="5" horiz-adv-x="1196" d="M837 1566q5 5 20 3.5t26 -8.5q27 -25 73 -25q14 0 13.5 -4.5t-38.5 -2.5q-36 2 -57 16l-16 11l-5 -27q-2 -23 -10 -33t-6 -24q2 -9 -1 -10t-10 8q-16 16 0 39q9 16 9 35.5t2 21.5zM1036.5 1543.5q19.5 12.5 23.5 10.5q7 0 7 -52q0 -14 -9 -27q-9 -14 -9 -18.5t-9 -20.5 q-9 -11 -9 -27q5 -30 -6.5 -47t-61.5 -24q-55 -9 -146 -20q-109 -14 -182 -25q-5 -14 -18 -62q-18 -61 -39 -125q-36 -127 -43 -155q41 11 114 5q57 -14 70.5 -8.5t56.5 44.5q41 34 59 37q14 5 39 2.5t34 -9.5q14 -9 4 -9q-5 0 -9 2q-14 5 -41 4q-30 0 -52 -20 q-30 -20 -25 -27q2 -11 0 -16q-5 -2 -7 1t-2 6q0 11 -1 11t-8 -9q-9 -9 -41 -34q-30 -20 -39 -30q-7 -9 -18 -14q-5 -5 9 -6q30 -7 75 38q23 23 23 21q0 -23 -43 -57q-30 -18 -48 -16t-18 7q-7 7 -12 -5q0 -11 21 -22q39 -20 91 -5q23 9 36 9q11 2 25 16q68 73 82 82 q9 5 21 4q14 0 2 23q-11 9 -7 16q5 5 14 -4.5t19 -20.5t10 -16q0 -20 -47 -25q-25 -2 -39 -16q-14 -16 -14 -20q0 -2 21 -28q68 -68 73 -195q5 -93 -20.5 -182t-73.5 -154t-120 -103q-100 -50 -242 -46q-89 5 -158 38t-103 79.5t-37 60.5q0 16 -18 36l-18 18l11 -4 q14 -7 44 -41q27 -30 37 -35.5t35 -10.5q25 -2 23 5q0 5 -11 7t-37 31q-20 23 -43 46q-16 16 -10 16t42 -39q36 -43 55 -48l18 -2q2 0 -2.5 4.5t-11.5 12.5t-16 17q-20 20 -27 30l2 2q9 -9 34 -30q39 -41 59 -43q39 -9 82 34q27 27 28 30q0 5 -3.5 2.5t-9.5 -3.5t-12 -4 q-25 -14 -62 -13q-25 0 -36.5 3.5t-45.5 23.5q-48 27 -66 27q-43 7 -91 -13q-5 -2 -7 -1t3 3q0 11 30.5 20.5t55.5 11.5t39 -2.5t50 -29.5q50 -36 84 -25q9 7 -18 23q-23 20 -34 25l-37 22q5 0 46 -19t55 -31q9 -7 20 -6.5t11 6.5q0 5 -30.5 22t-53.5 28q-30 9 -54 23 q-27 16 -69 21h-43l43 2q46 0 71 -14q27 -16 54 -25q34 -11 62 -27q46 -20 59 -5q7 9 4.5 10.5t-22.5 5.5q-14 5 -73 44q-80 55 -139 54l-23 5h10q16 5 52 0t82 -30q98 -61 127 -61q27 0 12 -18q-7 -14 -7 -19q0 -11 -17 -35t-33 -40q-39 -36 -82 -36l-48 -5q5 -5 27 -16 q48 -20 130 -31q93 -11 166 18t111.5 68t65 93.5t35.5 129.5q14 82 0 143q-11 57 -46 89q-23 20 -38 18q-20 -2 -37 -11q-30 -9 -59.5 -2.5t-47.5 29.5q-16 20 -25 25t-45.5 5t-77.5 -9l-47 -12l-32 -6q2 16 7.5 42t37.5 153q41 152 57 209t32 153q5 41 9.5 63.5t13.5 30.5 t15.5 8t20.5 -4q27 -14 32 -82v-43q71 9 118.5 14.5t70.5 7.5l-5 19q-4 18 3 27q16 16 16 -11q0 -34 27 -55q11 -7 29.5 -2.5t31.5 20.5q32 39 37 32q5 -2 -10 -21.5t-4 -21.5t30.5 11.5t33.5 38.5q7 9 7 10t-7 1q-9 0 -23 -9q-16 -5 -21 -2q2 2 28 16q18 9 33 31.5t12 34.5 q-2 7 -29 7q-27 -2 -30 2q2 5 7 4q18 0 37.5 12.5zM1017 1509q27 9 27 3t-11 -18.5t-20 -18.5l-62 -23h5q23 18 32 20q27 18 25 23q-2 2 -28 -5q-25 -5 -36 -4l23 9q25 5 45 14zM196 826l7 2q16 -2 29 -2q9 0 10 -3.5t-1 -16.5q-9 -50 -48 -71l-20 -7q5 2 18 14q41 27 16 32 q-27 0 -41 -25q-5 -2 -16 -14q-5 -5 -4.5 -6t9.5 -5l-5 -3q-14 0 -27 7q-14 7 -27 14q-9 5 -14 9l-5 4q5 5 23 16q18 9 41 32q20 23 25 23t-27 -33t-37.5 -33t-5.5 -5.5t9 -5.5q7 0 13 -7q14 -14 39 11q20 16 39 25q14 5 26 18.5t8 18.5q-2 2 -12 4q-8 0 -22 7zM184 799.5 q7 3.5 16 5t16 1.5t7 -2.5t-10 -11.5t-15 -9t2 6.5t-3 6.5t-15 -5.5t-9 -0.5q0 2 2 4t9 5.5zM1083 742h5h32q7 0 8 -3.5t-2 -17.5q-5 -52 -45 -70l-21 -7q5 2 21 11q39 30 11 32q-25 0 -41 -23q-2 -2 -11 -13q-9 -5 -9 -6t9 -6l-5 -4q-14 0 -25 9q-14 7 -29 14q-7 2 -13 6 l-5 5q5 7 22 18q18 9 44 32q20 23 23.5 23t-27.5 -34t-37.5 -34t-6.5 -5t11 -5q7 0 14 -6q11 -14 38 11q23 16 39 25q18 5 28.5 17.5t5.5 18.5q-2 2 -11 3q-5 2 -23 9zM1071.5 714.5q4.5 4.5 14 5.5t16 1t6.5 -2t-10 -11t-13.5 -10.5t2 5.5t-4.5 7t-13.5 -4.5t-10.5 -0.5 l4 3q5 2 9.5 6.5zM209 551l9 -3l10 5q0 2 -7 2q-7 1 -12 -4zM118 517q32 18 30 13q0 -5 -27 -18q-43 -25 -39 -46q7 -16 30 -2q7 5 8 5t1 -7q-2 -11 5.5 -22.5t14.5 -11.5t7 -9q0 -16 -25 0q-5 2 -9 9q-14 11 -23 14.5t-16 12.5t7 27q13 21 36 35z" />
<glyph unicode="6" horiz-adv-x="885" d="M635 1504q50 -16 -25 -59q-57 -30 -120.5 -84.5t-104.5 -104.5q-46 -59 -103 -173t-84 -239q-20 -73 -32 -211q0 -123 23 -189t116 -137q73 -36 149 -35t146.5 52t99 133t29.5 143.5t-30.5 103.5t-77 61.5t-98 25t-94.5 -11.5t-78.5 -42t-56.5 -50q-32 -39 -60 -32 q-9 2 -20 18t-11 30q0 34 79.5 91t144.5 73t112.5 11.5t89.5 -20.5t94.5 -57t73 -89t19.5 -123t-22 -143q-32 -96 -77.5 -146t-113.5 -81.5t-171 -34.5q-86 5 -166 34q-68 36 -102 77.5t-59 98.5q-36 75 -32 234q7 175 68.5 365t190.5 343q66 75 122 116t98 52t83 0z" />
<glyph unicode="7" horiz-adv-x="1044" d="M803 1602q9 16 50 -2q18 -7 48 -5q32 2 34.5 -5.5t-0.5 -17.5q-7 -7 -1 -16t-8 -40q-11 -32 -11 -39q0 -2 23 -5q36 -7 37 -26t-26 -76q-20 -39 -32 -64q0 -5 -3.5 -12.5t-7 -13.5t-3.5 -10q-98 -212 -177 -528q-20 -84 -21.5 -84t-1.5 -1.5t2.5 -2.5t9 -1h17h16h10t7 -2 t-2.5 -7v-27q0 -23 -11 -41q-30 -32 -66 -32q-14 0 -14 -1t-36.5 -148t-40.5 -161q-7 -18 -18 -36q-11 -16 -30 -16q-20 2 -28 11.5t-8 29.5q0 30 45 184q27 105 39 146q9 39 11 48l13 49q12 49 21 85q30 125 48 196q16 71 51.5 174t87.5 210q14 32 23 49t13.5 27.5 t3.5 11.5t-1 3l-48 -22q-84 -41 -139 -21q-25 11 -41 25t-25 14h-23q-32 -2 -84 -5q-93 -5 -166 -7q-48 0 -59 12q-16 16 -11 34q9 30 72 32q264 16 289 21.5t75 55.5q46 48 60 48q16 0 -21 -34q-30 -27 -50 -55q-20 -30 -48 -43q-41 -27 -41 -32q-2 -2 19 -5q18 -5 36 -18 q14 -14 25 -13q27 0 55 34q14 20 34 29q23 11 34 23q14 14 18 9q11 -9 42 17t38 45q2 16 -1.5 20.5t-14.5 4.5q-16 0 -40 9t-38 9q-2 0 -6.5 1t-2.5 8zM883 1475h-11l-23 -3q-20 -2 -50 -19t-39 -30.5t-27 -32.5q-16 -16 -16 -20q0 -2 20 -2q30 0 77.5 29.5t61.5 56.5z M731.5 639.5q5.5 4.5 -12.5 4.5t-26 -4.5t-29 -27.5q-30 -32 -35 -32t-1 -4q11 -7 26 -8t20 8q7 5 20 13q11 5 9 7q-7 5 12 16l11 7q-7 7 -46 -21l-22 -13q0 7 6 13q9 14 32 24.5t41 10.5q-2 0 -6.5 1t1 5.5zM728 608q9 7 10.5 6.5t-12.5 -11.5q-9 -5 -9 -2q2 0 11 7z M749 601v2q-7 0 -32 -15t-34 -19q-9 -14 -15 -14h-6l4 -1q3 -1 13 0t22 4q14 2 31 18t17 25zM810 1536q16 9 35.5 12.5t32 2.5t12.5 -10q0 -7 -21.5 -25.5t-33.5 -22.5q-9 -2 -9 2l2 5q5 11 16 20t9 11l-4 -2q-14 -7 -23 -7q-11 0 -36 -13q-25 -14 -30 -14q-16 0 14 18 q16 12 36 23zM143 1322q48 9 85 -14q52 -27 59 -84q5 -16 4.5 -38.5t-4 -43t-7.5 -20.5q-5 0 -7 39q0 41 -11 72q-11 32 -22.5 40t-30.5 8h-11l14 -14q46 -57 45 -93q0 -16 -3.5 -16t-12.5 25q-16 52 -64 84q-18 11 -23.5 11.5t-19.5 -20.5q-11 -14 -7 -18q23 -18 23 -36 q0 -7 -25 -32t-25 -32q0 -36 23 -59q59 -50 109 -34q16 7 14 7q0 2 -3 2q-16 0 -95 59l-14 14q11 2 48 -16q66 -34 77 -30q-2 2 -35 33l-33 31q-7 0 -20 11q-27 18 -19 21q5 2 16 -3q7 -7 23 -9q16 -5 32 -22q46 -48 77 -48q36 0 5 -18q-7 -7 -2 -9q27 -14 -21 -37 q-64 -25 -116 -4q-16 2 -42 27t-42 45q-11 18 -10 40t14 31q14 11 14 12.5t-11 -8.5q-14 -9 -18 -2q-2 2 4 27q11 23 4.5 46t2.5 39q13 29 61 36zM121 1272q7 18 6 16q0 2 -5.5 -1.5t-7.5 -10t-2 -9.5q0 -20 9 5zM112.5 1198q3.5 3 -0.5 8q-2 2 -3 0q-5 -7 -2.5 -9t6 1z M166 1224q-11 16 -7.5 16t12.5 -7q11 -9 23.5 -34t4.5 -31.5t-17 20.5q-5 22 -16 36zM278 432q5 5 21.5 4t25.5 -8q27 -25 73 -25q16 0 16 -7t-41 -2q-36 2 -57 13l-13 9l-5 -20q-2 -25 -10 -35.5t-6 -21.5t-2.5 -12.5t-13.5 8.5q-18 14 0 40q9 14 9.5 33t2.5 24zM479 410.5 q19 10.5 24 10.5q7 0 9 -55q0 -14 -9 -27q-11 -11 -11 -20q0 -7 -25.5 -35.5t-36.5 -30.5h-9q-23 2 5 9q18 7 36 41q7 9 2 9q-9 0 -20 -9q-18 -5 -25 2q7 2 27 14q18 11 33 31.5t13 31.5q-2 5 -28 5q-27 -2 -34 4q5 9 16 9q14 0 33 10.5zM460 375q30 11 29.5 3.5t-13 -20 t-21.5 -19.5l-50 -18h-9q25 16 32 20q27 14 25 16t-25 -4q-25 -5 -50 -5l34 14q28 4 48 13zM271 316q16 2 20 -16q0 -34 28 -52q11 -9 28 -3.5t28 21.5q34 39 41 32q9 -2 -6.5 -21.5t-9.5 -19.5q25 -9 -18 -23q-59 -18 -82 0q-11 9 -22.5 31t-11.5 31q0 11 5 20z" />
<glyph unicode="8" horiz-adv-x="919" d="M527.5 1503q70.5 -6 125.5 -31q43 -20 71 -59q48 -61 54 -139q9 -102 -45 -184q-57 -84 -137 -148q-39 -25 -48 -41q30 -14 89 -59q107 -82 162 -168q34 -55 43 -88t9 -86.5t-24 -111.5t-91 -111.5t-153 -83.5q-86 -25 -187 -4q-218 50 -291 227q-36 75 -14 155 q41 141 182 248q55 36 87 64q0 14 -78 50q-32 18 -59 36.5t-55 59.5q-30 43 -34 104q0 59 16 114q30 71 55 106t78.5 76t113.5 60.5t130.5 13.5zM585 1415q-68 25 -141 7q-48 -11 -99 -48.5t-86 -108.5q-91 -166 53 -257q39 -23 85.5 -40t62.5 -12q9 5 27 18.5t59 42.5 q121 107 132 171q11 66 3.5 108t-26 68t-70.5 51zM460 842q-16 0 -160 -127q-57 -66 -84 -112q-30 -48 -32 -85.5t30 -103.5q39 -64 89 -98t132 -52q41 -9 66 -5.5t77 25.5q84 32 127 103q39 61 43.5 101t-3.5 70.5t-33 74t-74 93.5t-98.5 79.5t-79.5 36.5z" />
<glyph unicode="9" horiz-adv-x="951" d="M346 1522q64 14 114 -20q18 -9 20 -9q80 43 147 42t115 -24q64 -32 102.5 -83t38.5 -88q0 -50 -102 -302q-71 -175 -103 -310q-9 -34 -16 -52q-7 -20 -4 -21q2 -2 11 5q30 23 118 23q66 0 72 -6t-3 -22q-7 -16 -5 -27q5 -9 5 -33t-7 -35q-30 -59 -130 -91q-30 -11 -82 -9 q-50 2 -54 -3q-2 -9 -32 -100q-46 -139 -78 -159q-18 -14 -41 -14q-30 0 -32 14t14 64q14 39 41 116q30 82 37 100q9 30 4 34q-2 5 -20.5 11.5t-18.5 11.5q0 2 30 13q25 9 33 20.5t22 57.5q9 27 31 100q27 102 28 123q0 16 -37 -5q-36 -18 -77 -28t-96 -1q-166 43 -198 195 q-20 71 -4 157.5t54 143.5q32 46 46 43q2 0 2 17t14 27.5t14 13.5t-14 -3.5t-14 0t9 22.5q7 16 3 28q-11 20 2.5 39t40.5 24zM341 1484q5 11 5 16t-14 -7q-16 -16 -4 -21q2 -2 5 2.5t8 9.5zM451 1490q-20 20 -21 5q0 -5 -11 -2h-7q0 -2 7 -12q46 -43 47 -72l3 -21l-12 21 q-11 23 -25 41q-14 16 -34 30.5t-27 14.5q-2 0 -16 -16q-11 -11 -12.5 -14.5t5.5 -10.5q16 -11 15 -22.5t-19 -27.5q-23 -18 -26.5 -27t3.5 -23q11 -25 52 -48q39 -20 80 -9q11 5 12 7t-8 4q-11 0 -54 28l-46 29v0q2 2 34 -11q34 -18 62 -23l27 -9l-29 30q-32 25 -55 36 q-23 9 -25 16t4 5q2 0 7 -7q16 -9 25 -9t43.5 -25t54.5 -25t18 -10q0 -2 -9 -4q-7 -9 5 -16q7 -5 4.5 -8t-22.5 -10q-23 -11 -60 -16q-52 -2 -81 16q-9 5 -16 8l-7 3q-5 -7 -22 -29.5t-31 -65.5q-43 -132 12 -233q23 -34 56 -55.5t94 -25.5q73 9 137 61q91 82 125 187 q27 80 43 132q14 43 16 72.5t-9 43.5q-18 34 -59 52q-71 25 -137 5q-43 -14 -53.5 -22t-10.5 -35t-4 -30q-7 -7 -7 27q0 66 -36 100zM332 1424q2 7 -2 7q-7 2 -9 -4q-2 -5 2 -7q4 -1 9 4zM330 1316.5q0 3.5 -13.5 15t-13.5 6.5t13.5 -15t13.5 -6.5zM783 662q-36 0 -53 2 q-57 7 -134 -81q-34 -36 -75 -44l-23 -2l30 -20q52 -32 93 -14q23 5 30 14q9 11 41 29q100 46 111.5 52.5t8.5 9.5q-5 2 -25 -10q-9 -7 -31.5 -16t-39.5 -14.5t-17 -3.5q0 5 43 23q64 30 29 27h-4q-68 -7 -137 -54q-27 -23 -36 -23l7 11q9 9 27 23q43 34 48 34q9 0 13 5 q11 7 50 17t57 10q30 0 30 7h-7l-11 5h-21q-16 0 -4 6q5 5 18 5q9 0 -2 0q-5 2 -16 2zM828 580q0 11 -6.5 11.5t-6.5 -3t-62 -28.5q-64 -30 -91 -52.5t-43 -22.5t-18 -5q-9 -9 50 -7h11q89 5 134 50q32 37 32 57zM378 1454l4 2q7 -7 19.5 -24t12.5 -23q0 -23 -14 6 q-2 5 -4 7q-9 21 -18 32zM209 321l-27 4l27 -2q25 0 55 -16q57 -30 80 -29q11 0 11 -4.5t-11 -27.5q-16 -25 -39 -36.5t-66 -13.5q-34 -2 -45.5 1t-36.5 26q-11 16 -14 18q0 5 28 -18q23 -23 41 -23h13q-2 0 -18 16q-14 11 -11 7h4q23 -16 27.5 -13.5t-18.5 22.5 q-2 2 -2 4.5t16 -13.5q30 -23 39 -23q11 0 29 9t25 14q7 11 5 11t-21 -4q-34 -9 -86 16q-20 11 -31.5 11t-50.5 -4q-9 -2 -9 -1t9 5q18 7 39 9q23 2 54 -11q34 -16 48 -16t14 1t-9 6q-16 11 -25 16q-11 7 0 4q9 -2 25 -11q14 -9 22 -9q9 0 0 9q-18 9 -56.5 22.5t-59.5 18.5 l-25 2l25 2q23 0 41 -9q89 -39 103 -34q9 7 0 12q-9 0 -50 22q-39 23 -69 30zM71.5 276.5q3.5 7.5 4.5 0t12.5 -5.5t13.5 -7t8 -9t6 -5q0 -11 -18 3q-2 5 -16 11q-14 5 -10.5 12.5z" />
<glyph unicode=":" horiz-adv-x="496" d="M191 1336q55 9 100.5 -12.5t65.5 -67.5q11 -23 14 -84q5 -86 -7 -87q-7 0 -7 46q0 48 -13 82q-23 68 -48 82q-7 2 -12.5 -5t-17.5 0q-14 7 -12.5 0t19.5 -25q50 -64 57 -109q2 -25 -2.5 -25t-9 24t-22.5 51q-14 20 -39 46.5t-39 30.5q-14 7 -25 -4t-22 -25q-7 -16 0 -21 q9 -5 17 -19.5t8 -25.5q0 -14 -28 -41q-41 -36 -29 -71q5 -18 4 -25q0 -5 27.5 -26t47.5 -35q23 -14 50.5 -11.5t45.5 11.5l16 4l-14 10q-14 5 -22 6q-2 5 -57 39q-55 36 -55 41q0 11 18 -2q32 -18 84.5 -41t59.5 -16l-2 2q-1 2 -5.5 5.5t-8.5 8.5q-20 14 -39 36 q-23 23 -39 32q-36 16 -45 39q-5 7 0 4l7 -4q14 -9 16 -12q9 -5 25 -9q16 -2 41 -27q61 -57 91 -57q18 0 18 -5q0 -14 -18 -20q-9 -2 5.5 -9t12.5 -11q-5 -20 -66 -39q-23 -9 -62 -9q-41 0 -66 12.5t-54 46.5q-52 59 -53 89q0 20 16 38q20 18 14 23q-2 0 -14 -9 q-14 -9 -16 -5q-11 5 12 37q5 11 2 32q-7 61 9 84q18 25 66 32zM166 1274q11 23 5 23q-2 0 -15 -9t-10 -23q4 -27 20 9zM152 1188q0 11 -2 11q-5 0 -8 -10t-1 -15q9 0 11 14zM214 1224q-7 11 -3.5 10t14.5 -12q11 -9 25 -36.5t14 -34.5q-5 -20 -14 -4q-2 5 -2 7 q-16 52 -34 70zM259 517q43 30 87 -21q36 -39 -11 -80q-16 -16 -44 -13q-43 5 -57 34q-25 50 25 80z" />
<glyph unicode=";" horiz-adv-x="621" d="M375 1386q20 7 57 -9q18 -7 55 -5q27 2 35 -2.5t4 -17.5q-7 -9 -1.5 -21.5t-4.5 -39t-10 -30.5q0 -9 -24 -45.5t-35 -48.5q-14 -14 -30 -22q-18 -7 -25 -14q-5 -7 -9 -7q-9 0 -25 -9q-39 -23 -80 -23q-25 0 -54.5 12.5t-43.5 26.5q-11 14 -29 17t-39 17q-25 14 -23 21 q0 16 50 41q61 30 80 50q89 98 112 93q7 0 -16 -23q-27 -18 -55 -52q-59 -71 -87 -84q-16 -9 -31 -19q-14 -11 -9 -18q5 -5 20 -4q20 0 48 -25q27 -20 50 -7q23 14 50 45q16 23 20 23q20 0 53 30q14 14 22 11q7 -5 27.5 4.5t34.5 18.5q30 32 36 59q2 16 -3.5 19.5t-21.5 3.5 t-42 11t-40 11q-11 5 -16 12zM471 1233q0 7 -39 3q-16 -7 -22 -3q-5 2 -37 -20q-61 -32 -61 -55q0 -5 -21 -25q-23 -18 -22 -23q0 -5 25 -4q52 0 122 52q32 25 44 48q11 18 11 27zM382 1302q48 23 55 18t17 -0.5t17 0.5q14 -11 -16 -32q-18 -11 -32 -23q-18 -11 -20.5 -7.5 t15 21.5t16 20.5t-17.5 -4.5q-14 -5 -20 -2q-7 2 -41 -16q-32 -16 -34 -14t13.5 13.5t47.5 25.5zM284 608q30 18 69 -16q20 -20 20 -46q0 -48 -107 -207q-84 -116 -109 -107q-11 18 5 62q14 34 27 61q2 7 23 50q48 107 47 159q0 28 25 44z" />
<glyph unicode="&#x3c;" horiz-adv-x="1014" d="M762 1377q14 23 30 21.5t23 -24.5q18 -55 -62 -154q-39 -55 -211 -239q-284 -294 -284.5 -307.5t277.5 -136.5q61 -27 107 -59q96 -64 259 -155q16 -9 19.5 -16t-1.5 -23q-5 -27 -18 -41q-18 -18 -55.5 -2t-178.5 107q-57 34 -241.5 128.5t-238.5 115.5q-96 34 -96 70 q0 14 55 55q48 34 197 179.5t249 254.5q118 130 170 226z" />
<glyph unicode="=" horiz-adv-x="1105" d="M876 1099q7 0 17 1t13 1q14 2 33 -14.5t19 -30.5q0 -18 -15 -33t-28 -19q-27 -7 -274 -22t-359 -17q-159 -5 -170 4q-20 25 0 48q20 18 204 27q284 16 451 41q63 7 109 14zM956 758q5 5 18.5 3.5t22.5 -6.5q11 -9 16 -52l2 -43l-84 -5q-462 -18 -608 -47q-39 -9 -114 -12 q-71 -2 -90 3.5t-19 33.5q0 18 16 24.5t77 18.5q57 7 178 27q148 25 382 39q201 14 203 16z" />
<glyph unicode="&#x3e;" horiz-adv-x="1203" d="M155 1338q11 9 29.5 9t31.5 -11q23 -14 331.5 -166.5t390.5 -188.5q123 -52 147 -80q27 -34 11.5 -59t-97.5 -73q-173 -107 -291 -196q-5 -5 -32 -25t-77.5 -58.5t-86.5 -66.5q-196 -146 -230 -170q-57 -43 -86 -44q-105 0 18 91q30 23 107 89q71 57 125 93 q118 82 298 226q41 30 71 50q39 18 82 59l41 41l-26 23q-23 20 -56 31q-39 16 -103 53q-127 68 -391 207q-77 41 -119.5 66t-68.5 45.5t-27 30.5t8 24z" />
<glyph unicode="?" horiz-adv-x="755" d="M294 1582q86 27 184 15q121 -18 153.5 -95.5t5.5 -160.5t-82 -190q-114 -175 -149 -269.5t-62 -283.5q-16 -102 -25 -113t-25 -3.5t-25 30.5q-23 43 15 225q20 109 48 181t91 174q121 200 148 280q11 71 -19.5 105t-64.5 41t-73 7t-89 -9.5t-108 -52.5t-55 -152 q2 -50 -6 -68.5t-22 -18.5q-16 0 -29.5 23t-13.5 85.5t39 134.5t164 115zM214 419q57 16 108 -3.5t74 -62.5q9 -16 17 -82t1 -84q-7 -32 -14 0q-2 14 -2 38q0 41 -13.5 84.5t-31.5 56.5q-7 7 -20.5 10.5t-24 3.5t-10.5 -5q0 -2 14 -15q16 -14 36.5 -51.5t22.5 -55.5 q0 -9 1 -15t1 -8v-2q-2 0 -23 45q-18 34 -52 69.5t-48 35.5q-9 0 -27 -25q-14 -16 -14 -22t14 -22q20 -18 15.5 -34t-31.5 -38q-20 -23 -25 -32t-2 -28q7 -46 63 -84q59 -41 112 -13q11 9 12.5 10t-12.5 3q-14 7 -59 39q-55 36 -62 39q-11 5 -6 11q5 2 56 -25q55 -27 76 -34 q20 -2 19 2.5t-33 31.5q-36 39 -68 57q-30 18 -30 27t16 -2q14 -11 27 -11q11 0 62 -44q48 -41 70 -41q18 0 23 -6.5t-11 -15.5q-11 -7 0 -19q11 -7 8.5 -10t-15.5 -12q-36 -27 -88.5 -30.5t-89.5 11.5q-30 16 -63 60q-61 71 -21 116q23 18 11 18q-5 0 -15 -12 q-14 -18 -14 0q-2 11 4 26q11 27 7 66q-7 41 14 59q16 20 41 25zM207 362q11 18 5.5 21.5t-19.5 -14.5q-14 -14 -4 -21q7 -9 18 14zM195.5 264q4.5 5 0.5 14q-2 9 -7 0q-7 -9 0 -14q2 -5 6.5 0zM278 273q-14 39 -8.5 39t20.5 -27.5t15 -41.5q0 -32 -21 21q-1 4 -6 9z" />
<glyph unicode="@" horiz-adv-x="1290" d="M671 1572q100 25 186.5 -3t189.5 -122q75 -66 102 -145.5t30 -236.5q0 -109 -12.5 -168.5t-58.5 -152.5q-71 -148 -161 -191q-43 -20 -75 -13.5t-76 49.5l-45 46l-66 -50q-177 -132 -273 -30q-41 43 -55 160q-27 200 121 377q50 57 92 83t101 36q75 14 108 3.5t74 -56.5 q43 -48 44.5 -84t-35.5 -182q-25 -102 -29.5 -130.5t4.5 -56.5q9 -36 31 -58.5t42 -18.5q23 7 60.5 51.5t62.5 94.5q84 157 62 391q-11 105 -23 132q-11 30 -53.5 73t-92.5 80q-43 32 -64.5 36t-101.5 4t-103.5 -4.5t-83.5 -33.5q-80 -41 -159 -121q-68 -68 -101 -126 t-74 -181q-34 -102 -44.5 -161.5t-10.5 -157.5q0 -100 12.5 -151t58.5 -149q39 -80 98 -126.5t161 -75.5q75 -23 176.5 -14t196.5 45q77 32 178 185q36 55 52 66t30 -7q18 -23 -19.5 -93.5t-105.5 -145.5q-39 -43 -71 -63.5t-84 -41.5q-55 -18 -214 -18q-121 0 -150.5 4.5 t-81.5 25.5q-75 30 -112.5 54.5t-67.5 63.5q-34 46 -75 132t-59 152q-14 50 -15 81t6 126q7 96 15 137t44 148q48 141 91 216t121 148q129 122 302 168zM778 1149q-64 25 -143 -13q-41 -20 -92 -78.5t-88 -124.5q-23 -41 -25 -61.5t0 -100.5q2 -105 21.5 -143.5t67.5 -38.5 q27 0 73.5 27.5t78.5 61.5q32 36 52.5 87.5t54.5 187.5q27 107 27 146t-27 50z" />
<glyph unicode="A" horiz-adv-x="1142" d="M512 1493q14 16 46 2q30 -14 60.5 -82t86.5 -259q84 -289 153 -476q139 -362 180 -439q14 -27 13.5 -33t-11.5 -15q-16 -11 -36 -11q-25 0 -43.5 21.5t-34.5 76.5q-27 80 -101 266t-85 191q-9 9 -78 5q-168 -9 -250 -30q-64 -14 -81 -26.5t-37 -66.5q-77 -164 -119 -310 q-14 -46 -23 -59.5t-22 -10.5q-20 9 -29.5 28t-7.5 44q5 48 71 176q23 43 125 352q27 82 96 267q105 278 109 334q4 41 18 55zM571 1315q-16 20 -26 8t-51 -117q-59 -152 -104.5 -279.5t-36.5 -132.5q2 -5 144 9t174 23q36 5 37.5 20.5t-62.5 235t-75 233.5z" />
<glyph unicode="B" horiz-adv-x="1199" d="M446 1475q39 16 75.5 22.5t99.5 4.5q102 -5 159 -34.5t80 -62.5t35.5 -61.5t9 -63.5t-14.5 -65q-16 -64 -82 -143q-43 -48 -49 -60.5t6.5 -19.5t35.5 -7q32 -5 76.5 -17t84 -35t60 -44.5t36.5 -46.5q50 -96 -57 -255q-36 -59 -101 -124t-126 -106q-27 -18 -99 -55.5 t-113 -53.5q-71 -30 -164 -50q-89 -16 -139 -9t-63 41q-5 9 -12 9t-29 -11q-30 -14 -47 -7t-12 16q14 32 104 464q25 137 43 316q27 184 37 266q14 82 20 144q-2 27 12 43q25 27 57 -2l20 -16zM578 1435q-55 -1 -109 -15q-46 -14 -64 -19.5t-24 -13.5t-8 -26 q-11 -43 -17 -119.5t-49 -383.5q9 -5 65 11t108 39q75 32 157 91q80 68 109.5 103.5t49.5 80.5q43 84 25 132q-14 55 -70 84q-41 20 -79.5 28.5t-93.5 7.5zM860 897q-34 11 -75 9q-61 0 -127 -19.5t-201 -71.5q-100 -43 -138 -55q-32 -11 -34.5 -19t-22.5 -106 q-32 -168 -48 -240t0 -99q43 -36 92 -36.5t133 22.5q57 16 125.5 47t120.5 60q59 41 105 82q89 77 145.5 159t56.5 132q0 34 -18 62q-34 53 -114 73z" />
<glyph unicode="C" horiz-adv-x="1231" d="M155 1595q25 11 56.5 10t52.5 -12q20 -9 41 -32q14 -16 17 -28.5t3 -53.5q5 -57 -2 -57t-7 37.5t-18 69.5q-9 27 -19 36.5t-29 9.5q-14 0 -15 -2.5t13 -13.5q16 -16 32 -47t16 -44q0 -11 -5 -5q0 2 -7 14q-18 52 -63 82q-18 9 -21.5 9t-17.5 -12q-25 -30 -9 -29 q7 0 11 -14q14 -23 -27 -57q-16 -14 -14 -34q5 -27 39 -54.5t61 -27.5q27 7 48 21q-7 0 -34 14.5t-51 31.5l-24 17q2 2 41 -15q41 -18 59 -23l21 -2q-5 2 -28 25q-34 27 -54 43q-23 11 -23 16q0 9 8 1t16 -8t8 7q0 11 -14 36q-14 23 -7 23q11 -7 22.5 -31t9.5 -31 q-2 -9 39 -39.5t55.5 -30.5t18 -4.5t-9.5 -13.5q-11 -5 0 -7q20 -7 -14 -25q-5 0 -9 -5q-73 -32 -125 -2q-20 11 -50 46q-55 59 -16 79q11 9 11 13.5t-9 -1.5q-14 -11 -16 -3q0 7 5 21q9 20 6 38q-8 50 28 64zM166 1559q5 11 2.5 15.5t-13.5 -6.5q-16 -14 0 -25q2 0 4 9z M157 1500q-9 14 -9 -7q0 -7 7 -3q4 3 2 10zM676 1490q50 11 134 0t148 -40q48 -23 34 -37q-7 -9 -125 5q-100 11 -131 10t-83 -29q-73 -34 -114 -91q-91 -127 -163.5 -347.5t-72.5 -368.5q0 -41 3 -57t19 -48q18 -30 25 -38t21 -8q20 -2 23 -9q5 -5 -7 -6h-7q-20 -5 -62.5 2 t-64.5 20q-25 16 -30 16q-7 0 -2 -34q2 -34 -16 -50t-12 -27q9 -23 0 -23q-11 0 -22.5 12.5t-11.5 21.5q0 16 14 32q14 20 16 45q5 46 32 46q7 0 8 4.5t-1 25.5q-14 80 9 216q32 171 103.5 360.5t135.5 269.5q77 93 200 127zM951 1361q0 2 12.5 3t28.5 0t27 -5q25 -11 66 -7 q32 2 42.5 -5t1.5 -20q-7 -14 0 -25q11 -16 -41 -107q-20 -48 -44.5 -67.5t-90.5 -48.5q-57 -27 -117 -25t-101 36q-16 14 -41 18q-20 2 -40.5 17t-20.5 24q0 11 12.5 20.5t62.5 34.5q61 30 87 60.5t60.5 56.5t47.5 26q14 0 -27 -34q-46 -39 -75 -77q-34 -36 -68 -55 q-34 -18 -46 -27q-14 -11 -4.5 -17t26.5 -6t46 -23q30 -18 48 -14.5t53 37.5q34 32 63 48q30 14 43.5 24t43.5 14q30 5 57 35q50 48 34 75q-2 2 -25 2t-52.5 12.5t-49 12.5t-19.5 7zM1058 1179q9 20 3.5 23.5t-42.5 -1.5q-43 -7 -89.5 -34t-48.5 -47q0 -5 -25 -28 q-27 -20 -21 -25q7 -9 37.5 -3t60.5 17q100 48 125 98zM967 1277q39 20 47 21t12.5 -4.5t17 0t19.5 3.5q20 -11 -30 -48q-39 -25 -41 -16q-2 0 12 14q16 18 14.5 21.5t-24.5 -1.5q-27 -5 -68 -22l-32 -12q2 2 9 5q18 19 64 39zM1013 455q36 48 61 32q14 -7 10.5 -36.5 t-21.5 -54.5q-30 -41 -114 -107t-125 -80q-71 -23 -160 -22q-93 0 -161 29q-27 11 -36.5 12.5t-22.5 -3.5q-27 -14 -32 -7q-5 5 14 12q16 11 39.5 37.5t23.5 35.5q0 14 -48 -12q-20 -9 -44 -33t-24 -33t12 -9q27 0 -19 -18q-9 -2 -22 -7q-59 -18 -89 -10t-57 44 q-18 30 -16 57q2 25 11 30q5 0 7 -7q2 -5 3 -14q7 -41 34 -68q16 -20 24 -22.5t28 -0.5q30 5 43.5 15t31.5 38q23 30 35.5 29.5t12.5 4t41 27.5q32 14 53.5 41t19.5 48q0 11 -4.5 13.5t-18.5 -0.5q-61 -2 -75 12q5 5 28.5 4.5t50.5 15.5t34 14t7 -18q0 -23 5 -39 q9 -16 -3.5 -41t-21.5 -32q-7 -5 -7 -18.5t43 -33.5q43 -18 112 -18q68 0 109 18q52 23 119.5 75t108.5 100zM460 391q55 16 54 5q0 -7 -20.5 -25t-36.5 -27q-23 -11 -57 -24t-34 -8l53 27q52 27 52 32q0 11 -50 -2q-50 -11 -57 -7l23 9q14 4 73 20z" />
<glyph unicode="D" horiz-adv-x="1221" d="M339 1418q0 71 2.5 82t15.5 11q27 0 40 -15t15 -51q7 -36 9 -68q0 -30 5.5 -30t12.5 30q7 16 11.5 20.5t25.5 11.5q34 18 111 15.5t153 -18.5q98 -16 195 -68q73 -39 113 -82t53 -70q18 -30 24 -81t0.5 -104.5t-19.5 -88.5q-52 -146 -155 -259q-96 -109 -173 -175 t-191 -141q-132 -82 -219.5 -114t-160.5 -40t-100 6q-16 5 -15 14t20 54q18 48 34 102.5t45 175.5q30 127 48 212.5t27 137.5q18 82 45.5 262t27.5 271zM669 1340q-96 11 -134 3l-16 -1q-16 -2 -27 -2q-68 -11 -87 -75q-11 -32 -25 -139q-27 -209 -58 -345.5t-76 -325.5 q-16 -59 -24 -95.5t-8 -60.5t3.5 -32t16.5 -8q36 0 134 41t160 82q102 68 230.5 187.5t192.5 206.5q34 43 62.5 133t28.5 151q0 77 -36 121q-27 32 -102.5 76.5t-134.5 62.5q-36 13 -100 20z" />
<glyph unicode="E" horiz-adv-x="1171" d="M257 1654q20 9 78 9q46 0 71.5 -6.5t64.5 -31.5q43 -30 64 -82l9 -27l130 -3q127 -5 143 -7q25 -9 4 -27q-14 -9 -223 -23l-50 -2l3 -36q7 -77 -14 -78q-9 0 -9 64q0 57 -16 98q-30 75 -57 98q-25 23 -34 4q-5 -5 -21 -2q-25 11 -15 -2q2 -5 18 -18q39 -36 68.5 -93.5 t17.5 -79.5q-2 -9 -9 4q-5 7 -7 21q-11 32 -29 61q-18 27 -57 62.5t-57 42.5q-18 5 -28.5 -2t-32.5 -35q-14 -18 -14 -21.5t9 -10.5q34 -23 34 -54q0 -16 -41 -55q-41 -36 -45 -50q-2 -16 10 -45.5t31 -49.5q23 -18 59 -40t54 -26q52 -11 103 13q20 9 7 12q-20 7 -112 61 q-16 7 -32 17t-28.5 17t-12.5 9q-11 5 -7 12q5 7 23 -5q80 -46 141 -61q50 -14 50 -9q2 2 -50 47q-64 57 -84 64q-11 7 -25 18.5t-23 20.5l-9 9q5 5 24 -9t42 -18q25 -2 68 -39q86 -73 126 -71q25 2 27 -5.5t-16 -21.5l-20 -9l20 -11q16 -5 16 -12t-35.5 -25t-57.5 -25 q-20 -5 -62 -11q-34 0 -39.5 -9t-21.5 -98q-14 -75 -30 -123q-25 -77 -13.5 -87.5t91.5 14.5q50 18 150 46q75 20 104 27q36 11 84 11t62 -9q18 -16 0 -48q-14 -16 -41 -18q-114 -16 -288 -61.5t-192 -65.5q-34 -41 -75 -298q-16 -102 -23 -139q-9 -41 -9 -52.5t11 -20.5 q14 -9 28 -7q18 2 70 7q41 2 49 4.5t10 18.5q0 16 4.5 19.5t18.5 3.5q18 2 30 -5q34 -25 129 -25q71 0 87 7q16 11 25 0q5 -5 155 -2h116t62 -6t23 -17.5t-3 -27.5q-11 -25 -36.5 -29.5t-159.5 -1.5q-127 5 -153.5 1t-26.5 -20q0 -9 -30.5 -42t-44.5 -37q-11 -2 -18 -3 q-7 2 9 12q25 9 50 45q9 16 0 16q-11 -2 -25 -11q-25 -9 -27 -2q2 2 32 16q25 14 44 37.5t12 34.5q-2 11 -13 12q-9 -2 -98 2q-86 5 -112 21l-25 11l-2 -30q-2 -30 -13.5 -38.5t-4.5 -20.5q2 -11 -11 -14q-16 -2 -121 -2q-132 0 -139 7q-9 9 5 52q30 107 47 217 q16 93 35 184q66 291 82 346q11 34 22.5 125t4.5 95q-66 57 -109 112q-18 25 -19 57q0 23 2.5 28.5t22.5 19.5q23 18 21 25q0 5 -21 -7q-23 -16 -27 -7q-9 7 -14 5q-11 -2 -25 6q-14 9 -13 28q0 25 25 34q23 7 28.5 4.5t3.5 -22.5v-25q2 2 11 18q11 16 0 86q-7 32 16 58 t59 33zM262 1591q14 20 8 23.5t-27 -12.5q-14 -7 -16 -23t10 -23q7 -7 6 3q1 9 19 32zM234 1459q7 7 5 20q-2 11 -3.5 11t-7.5 -9q-14 -23 -3 -25q2 1 9 3zM332 1518l-9 13l2 -2q27 -11 53 -59q30 -52 9 -52q-9 0 -25 42t-30 58zM897 828q20 9 66 -7q43 -18 84 -4 q9 5 21.5 -3t3.5 -20.5t-2.5 -24t-4.5 -38t-11 -28.5q0 -23 -53 -86q-25 -30 -118 -71q-39 -16 -93 -16q-55 0 -62 5q-9 7 -25 9t-29 18q-14 18 -28 18q-30 0 -68 28q-14 9 -6 22.5t67.5 38.5t77.5 46q98 98 123 97q11 0 12 -1t-12 -12q-43 -32 -91 -82q-43 -48 -87.5 -73 t-43.5 -29.5t28 -9.5q27 -7 41 -18q32 -27 57 -20q14 2 43.5 26t29.5 31t32 18q23 11 50 27q23 18 27 16q7 -2 32 2q23 7 49 32t28 46q7 20 2.5 24.5t-22.5 4.5q-20 0 -48.5 10.5t-42.5 10.5t-25 2q-9 6 -2 11zM1006 673.5q-2 4.5 -9 4.5t-11.5 -4.5t-32.5 -4.5 q-23 0 -66 -20.5t-52 -40.5q-14 -16 -39 -41q-27 -23 -27 -26.5t33 -3.5t70 18q75 30 109 66q11 11 19 29.5t6 23zM897 740q52 23 81 20q34 0 37 -7q2 -2 -7 -11t-48 -34q-30 -20 -32 -16t25 32q11 16 7 18q-7 0 -13 -5q-14 -7 -26.5 -7t-48.5 -15q-43 -20 -41 -12q0 2 9 5 q9 7 57 32zM598 228q34 7 34.5 1t-13.5 -19.5t-25 -18.5l-80 -32l3 3q34 18 45 25q32 20 30 25q-2 2 -34 -5q-32 -9 -46 -9l25 14q34 7 61 16zM362 157q14 2 16 -18q0 -36 38 -57q14 -11 39 -4.5t39 22.5q41 41 48 39q7 -5 -12.5 -27.5t-8.5 -25.5q23 -2 -23 -18 q-73 -20 -100 0q-14 9 -29.5 33t-15.5 38q0 9 9 18z" />
<glyph unicode="F" horiz-adv-x="1224" d="M621 1518q5 2 163 1t169 -10q5 -7 0 -21q-9 -14 -29 -23q-25 -9 -103 3q-36 7 -252 -9q-168 -11 -180 -23q-14 -11 -14 -91q0 -57 12 -80q25 -48 20 -136q0 -48 -7 -50q-5 0 -5.5 1t-2 6.5t-1.5 14.5v28q0 55 -16 84q-11 34 -30.5 60t-28.5 26q-14 2 -13.5 -3.5 t-15.5 -2.5q-14 2 -14 -0.5t21 -25.5q30 -32 47 -66q20 -34 16 -56l-2 -23l-7 29q-11 36 -46.5 78.5t-69.5 58.5q-16 5 -18 5t-14 -12q-27 -27 -29.5 -33t16.5 -24q16 -18 16 -36q0 -16 -35 -46q-30 -23 -34 -38.5t5 -43.5q11 -23 43 -47q75 -59 148 -37q36 11 11 16 q-16 0 -36 18q-18 14 -66 41q-50 27 -50 32q0 11 27 -4q32 -20 92.5 -42t66.5 -15q0 2 -11 11q-11 7 -50 41q-34 30 -50 41q-20 5 -35 17.5t-15 20.5t16 -4q14 -16 36 -18q20 -2 46 -25q27 -20 57.5 -42t56.5 -22q41 0 4 -25q-9 -5 -9 -8t9 -5q16 -5 16 -12q0 -11 -71 -36 q-20 -9 -24.5 -13.5t-6.5 -18.5q-7 -46 6 -46q5 0 55 14q132 34 261.5 55.5t211.5 30.5q68 2 82 -4.5t12 -29.5q-5 -25 -7 -29q-11 -11 -123 -21q-139 -11 -291 -41q-57 -11 -169 -32q-32 -5 -41 -16t-16 -68q-5 -20 -18 -98q0 -7 -4.5 -34t-8.5 -38q-25 -173 -51 -276 q-18 -96 -25 -102q-2 -5 -20 -5t-34 5q-11 5 -11.5 19.5t13.5 78.5q75 328 96 521q5 36 10.5 81.5t2.5 52.5q-2 2 -13 2q-46 0 -110 66q-39 39 -46.5 52.5t-7.5 34.5q0 25 18 43q20 20 21 25q0 2 -10 -4q-9 -9 -15 -10q-5 0 -7 -2q-2 -9 -7 -4q-7 7 7 38q14 30 7 53 q-18 61 29 91q20 11 64.5 15.5t72.5 -2.5l27 -7l-2 39q-2 41 -18 52.5t-71 18.5q-80 9 -100 25q-7 7 -7 16q0 18 33 20t231 7q248 2 250 7zM182 1304q0 7 -25 -11q-18 -14 -16 -23q7 -27 25 7q16 25 16 27zM157 1186q0 11 -7 11q-2 2 -7 -7q0 -2 -2 -6.5t-2 -7.5 q-2 -5 5.5 -2.5t10 3t2.5 9.5zM228 1224q-9 9 -10 12l23 -12q9 -11 25 -39.5t16 -35.5q0 -9 -7 -9t-22 36q-14 37 -25 48zM1010 760q9 5 39 -7q23 -5 48 -2q20 2 28 -1.5t-1 -12.5q-5 -9 0 -13q9 -16 -24 -74t-46 -58q-7 0 -19 -12q-43 -25 -91 -27q-48 -7 -88 25 q-14 14 -25 14q-7 0 -26.5 9t-19.5 13q0 11 55 37q36 18 79 57q39 41 51.5 41t1.5 -9q-2 -2 -7 -3q-41 -32 -68 -73q-11 -11 -44 -29q-32 -16 -34 -21q-2 -2 1.5 -3t7.5 -3q30 -7 46 -19q16 -11 23 -11q23 0 47 30q14 16 37 25q23 11 32 19t16 8q16 -5 46.5 18t30.5 46 q0 7 -3.5 10t-12.5 3q-16 0 -38.5 8t-36.5 8q-12 0 -5 7zM1081 653q-2 2 -7 2q-2 0 -25 -4q-25 -2 -59 -21.5t-34 -31.5q0 -7 -16 -20l-21 -20h23q32 0 77.5 26t54.5 49q9 18 7 20zM1017 701q36 16 41 11q2 -7 12 0q14 5 18 -4q2 -2 0 -5q-7 -9 -53 -34h-4q2 5 13 18 q11 9 3 9q-2 0 -12 -2q-18 -2 -43 -13.5t-27 -11.5l16 14q16 9 36 18zM537 426q59 14 116 -3q16 -5 55 -27q107 -61 143 -61q18 0 21.5 -3.5t-5.5 -15t-16 -29.5q-9 -27 -38.5 -57t-59.5 -41q-25 -7 -136 -18q-27 -5 -48 11q-18 14 -52 48q-27 34 -39 43l-12 7q9 0 31 -17 t35 -31q32 -43 80 -45q27 -5 27 2l-13 9q-25 7 -59 45q-14 20 -35 35q-18 16 -13 16q9 0 45 -37q55 -57 82 -57q9 0 2.5 6t-22.5 23t-28.5 31.5t-10.5 14.5q5 0 6 -3t46 -42q32 -30 42.5 -35.5t35.5 -1.5q48 5 89 53q18 20 15 23q-2 2 -11 -5q-7 -7 -41 -18q-39 -11 -65 -7 t-76 32q-57 27 -89 27t-54.5 -5.5t-31.5 -5.5t0 4q9 9 42 19.5t59 10.5t38.5 -6t62.5 -35q46 -27 87 -18q9 2 -12 16q-5 2 -11 4q-27 20 -55 34l-25 16q5 0 25 -9q18 -11 28 -11q5 0 36 -18q50 -30 62 -14q2 2 -21 13.5l-59 29.5q-32 11 -71 32q-39 16 -86 18l-36 5 q2 0 13 2q57 9 105 -18q30 -14 50 -18q25 -9 70 -30q50 -23 64 -16q30 16 0 23q-23 2 -84 41q-64 41 -84 50q-50 18 -112 7h-27q5 0 25 7zM462 405q14 2 19.5 5.5t9 3.5h4.5t1 -1t-30 -10q-66 -23 -79 -43q-9 -5 -14 -5q-16 0 23 18q34 23 66 32zM362 346q5 2 6 2t-2 -4 q-2 -9 5 -21q5 -7 10.5 -4.5t18.5 9.5l16 7q-11 -9 -5.5 -23t19.5 -21q16 -5 9 -9q-7 -2 -11 -2q-16 0 -28 11q-7 11 -27 21q-34 11 -11 34z" />
<glyph unicode="G" horiz-adv-x="1112" d="M548 1488q68 16 117.5 9t80.5 -18q80 -34 28 -91l-9 -2l-10 11q-66 30 -130.5 22t-116 -41t-89 -85.5t-73.5 -129.5q-46 -91 -88 -193.5t-59 -222t-5.5 -202.5t45.5 -151.5t111 -106.5q109 -14 178.5 36t108.5 95.5t68 109.5q34 98 39 173q5 41 14 54.5t27 13.5 t30.5 -14.5t12.5 -37.5q0 -32 -17 -114t-67 -173q-18 -30 -44 -65t-108 -96q-100 -59 -177.5 -65t-126.5 14.5t-82 53.5t-58 88.5t-41 116t-16 146t20.5 186.5t58 198t84 186.5t84 143t90 94.5t120.5 57zM849 912q93 18 121.5 16t39.5 -22t9 -65t-15 -197q-16 -171 -23 -291 q-9 -109 -16 -134.5t-30 -31.5q-27 -2 -31.5 4.5t2 166t16.5 275.5q18 168 0 191q-14 14 -52.5 10.5t-271.5 -51.5q-68 -14 -93 -14t-39 12q-27 25 16 45q23 9 158.5 42t208.5 44z" />
<glyph unicode="H" horiz-adv-x="1183" d="M1031 1488q5 9 18.5 10.5t22.5 -5.5q20 -20 -21 -385q-16 -123 -22 -355q-23 -546 -48 -562q-11 -5 -34 -2q-14 0 -17.5 9t-7.5 61q0 64 6 153q9 91 16 280q11 198 28 362q11 121 30.5 269.5t28.5 164.5zM214 1445q11 16 36 -11q11 -11 12.5 -29.5t-5.5 -121.5 q-2 -132 -11 -236q-9 -96 -9 -171q2 -48 4 -57t16 -9q23 2 107 32q91 32 230 64q146 36 200 57q132 39 141 -5q2 -11 -7 -28.5t-59 -33t-243 -61.5q-148 -36 -267.5 -75t-130.5 -57q-25 -36 -48 -348q-9 -121 -17 -144.5t-42 -23.5q-20 0 -25 3t-5 22q0 82 39 396 q46 344 70 696q7 134 14 141z" />
<glyph unicode="I" horiz-adv-x="841" d="M507 1497q75 11 82 -4q9 -20 -50 -62q-11 -9 -18 -11q-14 -20 -23 -116q0 -5 -2 -19.5t-3 -27t-4 -24.5q-5 -61 -4 -61q-5 -18 -9 -62q-9 -61 -10 -66l-6 -72q-7 -46 -16 -171q-5 -41 -7 -141v-100l11 11q14 16 14 44.5t15 56t21 27.5q7 0 -4 -23q-18 -39 0 -39q9 0 11 5 q11 5 14 -5q0 -5 0 -4q14 0 41 25q14 11 20 13q2 2 18 12q39 23 69 27q16 2 32 14q23 20 9 22q-2 0 -12.5 -4.5t-58.5 0.5q-52 2 -78.5 -5t-32.5 -16q-14 -11 -14 0t30.5 22.5t78.5 16.5q59 5 96 21q18 5 26 3.5t8 -47.5q0 -61 -18 -95q-23 -39 -107 -82q-18 -9 -48 -10.5 t-34 1.5q-9 5 11 9q7 2 19.5 3t20.5 3.5t12.5 6t2.5 5.5q-7 9 -39 -5q-9 -5 -16 -4q-25 0 -48 -37q-16 -25 -34 -25q-23 0 -29 28q-5 9 -5 -3q-2 -16 -2 -111q0 -127 1 -130.5t60 -6.5q50 0 66 -4.5t25 -17.5q32 -41 -16 -59q-32 -14 -120 -14q-32 0 -32 -2t2 -10 q9 -20 -16 -50q-9 -9 -11 -20t-39 -50q-27 -34 -50 -34q-18 0 9 16q18 9 37 32q18 23 15.5 27t-31.5 -7q-34 -18 -34 -9q0 2 22.5 14.5t27.5 12.5q14 0 36 34q16 32 7 41q0 5 -32 5q-132 0 -161 9q-16 0 -37 14q-20 11 -23 9q-5 0 -4 -23q5 -23 -7 -36q-9 -11 -12.5 -12.5 t-5.5 -9.5t2.5 -10.5t4.5 -9t-4.5 -6.5t-15 8t-10.5 21.5t11 31.5q14 14 14 33.5t7 25.5q20 18 43 0q11 -7 23 0q18 11 73 16q59 7 66 23q11 16 22.5 115t11.5 190q0 182 16 394q11 121 16 177q11 102 16 189q0 46 -5 52q-7 14 -16 16.5t-48 -4.5q-73 -14 -72 20q0 11 4 21 q14 20 116 36q61 9 87 14q13 2 31 4zM721 685q0 9 -9 11q-7 0 -13 -2q-20 -11 -55 -11q-32 0 -71 -30q-48 -39 -56 -36q-2 5 -3 7q0 9 -16 -3q-14 -9 -13 -25q-5 -18 -12 -26t-2 -15q2 -2 10 -2t13 9q34 27 130 36q27 2 40 12q11 7 23 20.5t12 18.5q0 2 -21 2 q-50 -5 -84 -41q-18 -18 -21 -14q-5 5 15 24t34.5 25t14.5 10.5t30 4.5q54 5 54 25zM357 168q9 0 16 2.5t13 -0.5l5 -2q0 -2 -9 -6q-25 -25 -38 -35q-30 -14 -78 -27l5 5q9 5 18 9q20 7 41 23q14 7 18.5 10t1.5 5q-2 5 -13 0q-48 -11 -75 -9h-5q-9 0 -2 0q2 0 16 5 q27 7 41 9q23 5 29.5 7t15.5 4zM109 96q16 7 16 -16q0 -34 37 -60q16 -11 43 -4q36 5 50 27q7 11 19.5 24t19.5 13q14 0 2 -14q-27 -27 -27 -36q0 -2 6 -7q27 -2 -9 -14q-25 -5 -38 -11q-14 -5 -39 -5q-23 0 -39 9q-27 18 -41 50.5t0 43.5z" />
<glyph unicode="J" horiz-adv-x="1149" d="M162 1839q23 9 55.5 9t46.5 -7q55 -20 73 -52q25 -34 25 -116q0 -55 -8 -55t-8 45q0 43 -14 78q-9 23 -19 40t-20.5 23.5t-14.5 4.5q-7 -7 -21 -2h-9q2 -7 16 -23l2 -2q50 -52 55 -100q2 -14 0 -18.5t-5 4.5q-5 9 -9 20q-9 30 -36.5 63t-49.5 44q-25 14 -48 -18 q-7 -14 -6 -17t13 -17q16 -18 12.5 -31.5t-30.5 -34.5q-27 -32 -28 -41q0 -59 75 -98q48 -30 94 -4l16 4l-14 7q-16 5 -41 21q-25 20 -55 36q-11 5 -18 10.5t-8 9t1 5.5t16 -7q52 -34 98 -43q18 -5 25 -5q20 -7 -54 55q-20 18 -35 25q-25 16 -31 27l-3 5q2 -2 14 -7 q20 -11 30.5 -11t35.5 -25q64 -55 91 -55q16 0 18 -5.5t-11 -14.5q-7 -5 2 -12t9 -11.5t-29 -17.5q-123 -61 -205 29q-50 52 -50 82q0 20 20 37q14 11 14 15.5t-18 -6.5q-30 -18 -9 25q9 23 6 38q-15 80 44 94zM173 1809q0 7 -18 -7q-9 -7 -10.5 -16t3.5 -13q5 0 9.5 5.5 t10 17t5.5 13.5zM148 1702q7 2 7 14q-2 9 -2.5 9t-6.5 -7q-7 -14 -3 -20q0 -1 5 4zM216 1736l-4 18l9 -6q9 -11 25 -38.5t11 -32.5q-7 -23 -18 16q-12 27 -23 43zM719 1509q27 16 43 0q20 -20 21 -89q-9 -143 -25 -280q-20 -155 -19 -150.5t28 27.5q55 52 73 46q5 0 -23 -21 q-30 -25 -59 -57q-64 -75 -98 -91q-16 -9 -34 -20q-16 -11 -9 -16q5 -9 20 -9q25 0 57 -25q27 -25 52 -7q27 11 57 48q18 20 25 20q20 0 57 37q18 11 25 6q9 -2 33 8.5t38 23.5q34 27 38 59q2 18 -2 23t-25 5q-16 0 -45.5 10t-46.5 10t-19 5q0 7 4 9q25 9 62 -9q25 -9 61 -7 q34 2 42 -1.5t-1 -19.5q-5 -14 2 -25t-7 -41q-11 -27 -11 -31q0 -9 -26 -49t-40 -51q-16 -16 -32 -23q-18 -7 -27 -16q-5 -9 -14 -9q-5 0 -25 -9q-32 -16 -74 -19.5t-74 7.5q-16 5 -18 5l-4 -25q-9 -82 -32 -223q-11 -80 -23 -128q-11 -43 -33 -103.5t-42 -82.5 q-34 -36 -87 -37q-41 0 -93 37q-93 66 -114 273q-9 89 16 102q18 11 31 -6t24 -73q34 -166 95 -217q30 -27 55 -13q39 20 89 264q20 91 27 148q5 18 8 50l4 32q7 32 4.5 38.5t-9.5 8.5q-11 2 -34 16q-20 14 -18 26.5t36 28.5q30 16 34 23q7 5 14 77q7 59 11 100 q18 139 25 266q2 84 8 106t24 38zM990 917q0 7 -41 0q-23 -2 -25 0q-7 5 -43 -20q-68 -36 -69 -60q0 -7 -25 -27t-25 -25t32 -4q55 0 137 54q34 27 45 50q14 25 14 32zM892 990q55 27 61 23q7 -7 19.5 -2.5t17.5 2.5q16 -14 -16 -37q-20 -11 -36 -23q-20 -14 -24 -10 t16.5 24.5t19.5 21.5t-19 -4q-18 -9 -25 -7t-44 -13q-39 -18 -38 -16q-7 2 13 14q19 11 55 27zM715 339q5 5 19.5 2.5t23.5 -11.5q30 -20 73 -21q14 0 13.5 -4.5t-38 -3t-53.5 12.5l-20 14l-3 -25q-2 -25 -10 -34.5t-5 -20.5q2 -11 -2.5 -12.5t-11.5 10.5q-16 11 0 38 q11 14 11.5 33.5t2.5 21.5zM914.5 314q20.5 11 25 11t7.5 -50q0 -14 -9 -25q-11 -16 -12 -20q0 -9 -25 -36.5t-34 -29.5q-16 -5 -16 2q2 2 7 5q23 9 41 38q9 11 0 12q-9 0 -21 -5l-22 -7q2 7 27 16q20 11 35 32t13 32q-5 9 -32 9q-27 -2 -32 2q2 2 14 3q13 0 33.5 11z M894 282q27 7 28 2q0 -16 -30 -34l-61 -25q25 18 36 23q27 16 25 21q-2 2 -27 -5q-27 -5 -39 -5l23 10q27 4 45 13zM705 221q11 2 14 -14q0 -34 30 -50q14 -9 33 -3.5t30 17.5q32 36 39 36q5 -2 -10 -22.5t-10 -20.5q23 -5 -16 -18q-57 -18 -80 0q-9 11 -21.5 30.5 t-12.5 30.5q-1 9 4 14z" />
<glyph unicode="K" horiz-adv-x="1028" d="M309 1490q5 14 9.5 17.5t16.5 3.5q27 0 32.5 -11.5t-1.5 -77.5q-7 -148 -54 -423q-32 -177 -25 -207q5 -20 22 -7q16 14 101 116q43 57 129 162q59 80 146 182q116 137 148 184q25 36 39 41q27 9 40 -16q11 -23 -61 -118q-300 -369 -337 -424q-2 0 -4 -4 q-18 -25 -11.5 -44.5t74.5 -110.5q14 -16 19 -25q96 -125 197 -275t119 -187q16 -34 23 -61.5t1 -43t-22 -15.5q-27 0 -70 82q-50 102 -292 439q-107 146 -118 145q-7 0 -85.5 -95.5t-85.5 -111.5q-7 -23 -18 -95q-11 -86 -35 -189t-40 -125q-9 -16 -30.5 -12.5t-33.5 23.5 q-11 14 3 57q43 141 93 476q20 157 39 245q43 269 54 369q9 97 18 136z" />
<glyph unicode="L" horiz-adv-x="1324" d="M969 1650q14 7 48 -5q27 -5 55 -4q25 2 31.5 -2.5t-2.5 -13.5q-2 -7 0 -18q11 -14 -26 -78t-53 -64q-5 0 -21 -11q-50 -30 -102 -34q-55 -5 -98 30q-18 16 -30 15q-9 0 -29.5 9.5t-20.5 15.5q0 11 57 41q46 20 91 64q50 46 64 46q7 0 6 -3.5t-17 -12.5q-43 -32 -78 -80 q-11 -11 -45 -29q-39 -20 -41 -26q0 -5 2 -5.5t11 -3.5q32 -7 48 -20q18 -11 25 -11q27 0 55 31q16 16 41 30q23 9 35.5 19.5t16.5 10.5q23 -5 55 21t32 47q0 11 -2.5 13.5t-13.5 2.5q-16 0 -43.5 9t-41.5 9q-4 7 -9 7zM1052.5 1533.5q-3.5 2.5 -5.5 2.5t-30 -5 q-27 -2 -64.5 -24.5t-37.5 -34.5q0 -5 -21 -25l-22 -18h25q36 0 87 27.5t63 54.5q9 20 5.5 22.5zM981 1588q39 16 43 9q7 -5 14 0q18 7 22 -2q2 -2 0 -4q-9 -11 -59 -39h-7q2 5 21 18q9 11 0 9h-11q-23 -2 -50.5 -14.5t-31.5 -12.5l16 14q18 11 43 22zM558 1497q2 14 29 14 t37 -7q14 -14 18 -82l7 -34l-28 9q-27 14 -79 12q-41 0 -57 -7t-53 -32q-23 -18 -26 -26t-3 -22q0 -23 -8 -23t-6 14q2 18 -3.5 18t-16.5 -11q-9 -9 -55 -39q-41 -32 -77 -59q-39 -32 -46 -32t-7 -4l28 -7q27 -2 57 11q23 11 58 36.5t35 34.5q0 5 9 15t16 10q20 0 -14 -48 q-14 -16 -32 -27q-98 -66 -123 -53q-9 5 -20 5q-14 0 -16 7q-9 9 -14 -7q0 -27 60 -50q18 -9 62.5 -9t64.5 9q20 11 55 11q64 11 88 52q11 20 18 20.5t43.5 32.5t38.5 38q2 14 26.5 23t41.5 9t19 4.5t-9 18.5q-30 34 -9 46q11 2 16 -9q7 -9 32 -32q23 -20 22.5 -27 t-13.5 -23q-14 -14 -46 -19q-27 0 -31.5 -4.5t-7.5 -26.5q-30 -187 -141 -510q-7 -20 -27 -98q-23 -84 -43 -141t-21 -66q0 -14 -16 -57q-18 -46 -9 -57t75 -7q184 9 358 25q18 0 44 3.5t43 6t24 2.5q48 7 66 -37q14 -30 -14 -52q-14 -9 -113 -14q-305 -14 -387 -25 q-150 -20 -207 -20q-32 0 -39 5.5t-7 21.5q0 36 44 123q52 105 84 225q20 71 54 166q66 187 119 394q16 71 6 68q-2 -5 -9 -18q-18 -41 -54 -61q-18 -5 -66 -14q-50 -7 -64 -14q-25 -11 -76 -5.5t-81 17.5q-14 9 -36 36q-25 34 -39 41q-11 7 -13.5 18.5t6.5 17.5 q14 11 48 -4q20 -9 16 -2q-5 14 41 36q18 7 103.5 69.5t119.5 92.5q27 23 44 29.5t54 6.5h34l-2 27q-2 27 0 41zM853 642q66 14 128 -7q23 -5 63 -30q121 -66 162 -66q18 0 22.5 -3.5t-5.5 -16t-17 -34.5q-11 -27 -44 -61.5t-70 -45.5q-27 -11 -150 -21q-32 -2 -55 14 q-23 11 -56 50q-34 39 -48 50l-9 7q9 0 34 -19.5t36 -35.5q39 -46 94 -50q30 -2 27 5l-14 7q-27 11 -66 52q-18 23 -38 41q-20 16 -14 16q7 0 50 -41q64 -61 95 -62q5 0 -2 6t-25 24t-31.5 35t-11.5 17q5 0 8 -4.5t51 -47.5q39 -32 48 -37.5t36 -1.5q55 5 103 57 q20 23 16 25q0 5 -9 -4q-9 -7 -48 -21q-43 -14 -74 -7t-86 37q-43 20 -57.5 26t-39.5 6q-36 0 -63.5 -9.5t-37 -9.5t-0.5 7q9 11 47 21.5t67.5 10.5t43 -5.5t70.5 -37.5q52 -30 96 -18q14 0 -9 16q-7 2 -10 4q-36 20 -68 41l-25 14q7 0 27 -12q23 -9 30 -9t41 -20 q59 -34 68 -16q5 5 -20 17t-66 28q-36 16 -82 39q-43 20 -98 21l-39 2h14q66 14 121 -14q32 -16 54 -25q30 -9 82 -32q57 -20 71 -13q32 14 0 20q-25 2 -94 48q-73 43 -95 55q-57 23 -125 9l-32 -3q4 3 29 12zM769 619q9 2 16 4.5t12.5 3.5t7 0t1.5 -2t-32 -13 q-73 -25 -94 -43q-7 -7 -13 -7q-16 0 27 23q39 20 75 34zM653 548q7 7 8 7t-1 -9q-5 -7 4 -20q9 -5 12.5 -5t19.5 11l21 7q-11 -9 -5.5 -25t21.5 -21.5t9 -12.5q-7 -2 -14 -2q-20 0 -27 16q-11 11 -34 18q-39 13 -14 36z" />
<glyph unicode="M" horiz-adv-x="1597" d="M1124 1497q25 27 62 -9q30 -27 82 -197.5t91 -355.5q18 -93 40 -177q34 -118 80 -371q27 -141 25 -173t-41 -30q-32 0 -38.5 32t-27.5 162q-48 257 -78.5 367.5t-47.5 198t-61.5 257t-60.5 148t-29 -49.5q-11 -30 -41 -127q-39 -121 -96 -362q-39 -162 -84.5 -334.5 t-58.5 -195.5q-11 -23 -23 -23q-25 0 -61.5 70.5t-63.5 173.5q-7 25 -27.5 95.5t-22.5 83.5q-27 96 -69.5 282.5t-58.5 284.5q-5 30 -20 46q-9 14 -12.5 13.5t-17.5 -18.5q-11 -18 -52 -152q-43 -152 -71 -233q-66 -214 -125 -439q-39 -155 -59 -199t-52 -33q-14 5 -14 23 t14 64q23 66 82 286q77 287 102 344q11 27 55 187q36 123 72.5 212.5t56.5 98.5q14 11 35.5 -13.5t39.5 -65.5q14 -36 69 -273q52 -239 105.5 -431.5t67.5 -210.5q18 -18 41 36q2 9 4 21q50 150 118 455q23 98 46 159q25 71 41 141q18 75 44 145.5t40 86.5z" />
<glyph unicode="N" horiz-adv-x="1203" d="M1058 1479q9 25 30 25q14 0 19.5 -7t5.5 -34t-25 -145q-23 -91 -44 -187q-34 -134 -102 -389q-86 -323 -95 -364q-46 -162 -62 -187q-11 -18 -32 -7q-34 11 -89 173q-66 191 -105.5 358.5t-92.5 463.5q-27 166 -31.5 170.5t-17 -4.5t-21.5 -25q-5 -14 -25 -119 q-48 -278 -89 -407q-64 -221 -91 -346q-34 -187 -66 -207q-9 -9 -23 0q-11 7 -9 62q16 164 110 475q52 175 109 467q30 148 54 195q25 52 69 44q14 -2 34 -21.5t25 -35.5q27 -82 68 -321q23 -134 52 -278q34 -150 76.5 -286.5t55.5 -143.5q5 -2 10.5 5t12.5 22.5t14 39.5 t16 58q18 84 32 123q50 146 109 385q93 391 118 448z" />
<glyph unicode="O" horiz-adv-x="1483" d="M341 1834q18 7 82 7q48 0 56 -3.5t8 -10.5q-2 -16 -2 -55.5t-7 -62.5t-37 -50q-61 -57 -145 -60.5t-153 51.5q-20 18 -25.5 18t-16 9t0.5 9q18 0 60.5 24t65.5 47q65 63 113 77zM430 1816q7 2 -4 4h-35q-61 2 -88 -15q-32 -20 -62 -60q-48 -59 -89 -59l-11 -4 q2 -2 25 -21q32 -23 48 -25q32 -9 80 32q20 16 63 39q23 9 43.5 21.5t32 21.5t8.5 11q-5 5 -22 -9q-16 -11 -51.5 -26t-37.5 -15l6 5q5 4 17.5 10t24.5 15q39 20 41 25q0 2 -16 4q-20 2 -64.5 -18t-74.5 -45q-23 -20 -32 -25h-2q7 9 34 34q66 64 139 75q59 2 54 11 q0 2 -11 3q-14 0 -27 4q-14 5 11 7zM460 1725q0 18 -6 18t-24 -11q-20 -14 -64 -34q-43 -18 -70 -44.5t-43 -26.5q-16 -2 -16 -7q5 -11 57 -5.5t79 14.5q30 9 58.5 42.5t28.5 53.5zM946.5 1526q61.5 -15 101.5 -38t84 -71.5t58 -96.5q11 -39 27 -39q9 -2 39 -16 q23 -9 70.5 -4.5t57.5 -6.5q5 -14 0 -27q-9 -11 0 -28q9 -11 -12 -63q-61 -157 -127 -185q-25 -9 -32 -21.5t-9 -57.5q-11 -130 -46.5 -258.5t-87 -219.5t-107 -147t-118 -64t-119.5 2.5t-93.5 33t-42 23.5t-17.5 -5q-20 -14 -29 -7q-16 2 2 7q32 14 59 59q9 11 9 13.5 t-9 2.5q-16 -2 -29 -9q-32 -16 -32 -5q2 5 36 21q30 16 51.5 45.5t17.5 42.5q-5 14 -19 14q-9 -5 -111 0q-68 5 -88.5 8t-36.5 15l-28 18l-4 -34q-2 -36 -16 -49t-7 -31q7 -30 -18 -7q-27 23 -2 57q11 16 13 48q2 23 7 28.5t23 7.5q23 0 34 -6q9 -11 35 -23t40 -12q9 0 5 14 q-20 68 -27.5 116t-12 113t1.5 210.5t43.5 270.5t130.5 237q77 96 175 117.5t159.5 6.5zM969 1440q-73 18 -145.5 6t-111.5 -49q-89 -77 -152 -246q-25 -68 -33 -142t-10.5 -203.5t8 -207t35.5 -141.5q11 -25 23.5 -27t44.5 16q32 16 36 14q5 -7 10 -71q0 -20 -16 -38.5 t-9 -29.5q2 -5 34 -30q23 -16 36.5 -19t58.5 -3q64 0 91.5 11t61.5 50q68 80 130.5 251.5t62.5 283.5q0 20 -3.5 22.5t-21.5 -2.5q-59 -14 -119.5 0t-85.5 41q-14 18 -45 23q-25 7 -57 23t-32 25q0 27 50 47q46 20 96 51t59 47q18 25 67 68.5t67 45.5t18 7t-13 39 q-20 55 -57 91t-78 47zM1252 1249q-86 32 -151 -9q-64 -43 -132 -134q-30 -36 -63 -57q-84 -43 -82 -55q0 -9 20 -11q41 -5 75 -32q32 -27 61.5 -20t77.5 57q32 41 43 41q9 0 53 27q48 34 52 27q9 -5 41 9t48 28q55 52 50 104q-2 7 -27 7t-66 18zM1304 1070q-7 5 -66 0 q-46 -9 -104 -45.5t-58 -57.5q0 -9 -29 -36q-34 -25 -28 -34q7 -11 43.5 -5.5t77.5 25.5q121 55 153 116q16 35 11 37zM1183 1165q68 32 75 23q5 -9 23 0q23 7 27 -5q9 -5 3 -16q-5 -9 -48 -37.5t-50 -28.5q-7 2 18 32q25 25 21 25q-5 0 -14 -2q-25 -5 -39 -5 q-18 -5 -59 -25q-43 -20 -50 -18q-2 2 10.5 10t32.5 20.5t50 26.5zM598 396q39 11 39 4.5t-13.5 -23.5t-31.5 -24l-85 -34v0q34 23 51 29q39 23 34 30q-5 5 -41 -5q-36 -9 -50 -9q-7 0 1 3.5t30 10.5q39 7 66 18zM330 309q16 9 18 -18q0 -18 12.5 -39.5t30.5 -35.5 q16 -9 43.5 -3.5t45.5 28.5q46 52 55 46q7 -2 -15 -29.5t-10 -27.5q30 -9 -25 -25q-82 -30 -114 -5q-16 16 -33 44.5t-17 46.5q0 11 9 18zM1145 270q-9 8 6.5 8t9 -8t-15.5 0zM1190 262l-14 9h12q14 2 68 -28q93 -55 112 -47q7 9 4 -3q-2 -41 -43 -84q-25 -23 -45.5 -30.5 t-70.5 -14.5q-59 -5 -73 7q-27 18 -55 61l-2 5q9 -2 30 -25q23 -30 63 -39h14l-20 16q-25 20 -32 34q-9 14 18 -9q43 -36 45 -25q0 2 -11 13l-25 32q5 -2 23 -20q39 -32 64 -32q18 0 43 13.5t36 31.5q2 9 0 9.5t-23 -9.5q-32 -14 -54.5 -11.5t-63.5 23.5q-39 23 -65 27.5 t-65 -9.5q-50 -14 -50 5q0 7 -18 13.5t-18 17.5q0 7 9 3q11 -11 21 -7q9 5 9 -5q0 -32 52 -11q73 23 125 -11q30 -23 64 -28q27 0 27 2.5t-34 22.5q-32 23 -32 25.5t8 -1t23 -9.5t21 -15q36 -23 41 -7q0 5 -27 21q-114 52 -150 57l5 2q34 2 157 -57q32 -16 43 -7 q14 5 11.5 12t-14.5 7q-14 0 -68 34q-52 36 -75 41z" />
<glyph unicode="P" horiz-adv-x="1026" d="M514 1502q20 7 21 7q5 0 54 -7q96 -11 187 -54.5t125 -91.5t32 -150q-2 -89 -41 -168q-82 -150 -300 -242q-123 -46 -228 -52q-48 -7 -58 -10.5t-19 -18.5q-14 -25 -48 -162t-52 -253q-14 -84 -23 -102q-7 -14 -12.5 -16t-30.5 -2q-23 2 -26.5 6.5t-3.5 29.5q0 50 80 351 q30 114 50 236q14 77 41 223q36 177 61 364q16 112 27 112q5 0 19 -21q14 -18 13 -66q0 -43 -13.5 -153.5t-27.5 -171.5q-5 -27 -25 -134q-5 -18 -9 -42t-5.5 -38t-3.5 -18q-2 -18 16 -39q20 -5 81.5 3.5t152.5 41.5t169 94q141 114 132 273q-2 48 -16 73t-48 55 q-80 64 -243 86q-50 5 -63 8t-15 12q0 11 13.5 23t36.5 14z" />
<glyph unicode="Q" horiz-adv-x="1260" d="M785 1505.5q98 -19.5 156 -97t80.5 -149t33 -153.5t-4.5 -214t-65 -236.5t-57 -118.5q-2 -27 2.5 -33t22.5 -19q34 -25 64 -44q34 -20 75 -57.5t50 -58.5q27 -55 0 -88q-11 -16 -24.5 -7t-50.5 59q-41 50 -54 61q-20 20 -69.5 46.5t-60.5 26.5q-14 0 -62 -63 q-86 -112 -168 -149.5t-177.5 -36.5t-177.5 44.5t-132 132t-67 166t-10 180t40 210.5t71.5 186.5t93 160.5t137.5 152.5t169.5 94.5t184.5 4.5zM677 1425.5q-63 -5.5 -131 -43t-155 -146.5q-30 -41 -75 -115t-74.5 -152.5t-44.5 -139t-24 -151.5t12.5 -174t82 -154.5 t160.5 -94.5q109 -16 183 25t132 103.5t56 92.5q-2 11 -17 23.5t-67 42.5q-64 36 -85.5 55.5t-8.5 32.5q18 16 132 -32q77 -27 96.5 -15.5t58.5 111.5q55 125 64 275q5 73 -17 187t-68.5 176.5t-96.5 80.5t-113 12.5z" />
<glyph unicode="R" horiz-adv-x="1415" d="M168 1650q25 11 60.5 10t58.5 -12q25 -11 43 -35q14 -16 18.5 -30.5t4.5 -57.5q5 -66 -3.5 -66t-8.5 42t-16 76q-14 27 -24 37.5t-30 10.5h-16l14 -16q18 -18 35 -50t17 -48q0 -9 -1 -9t-8 16q-23 59 -75 91q-16 14 -20.5 13.5t-18.5 -18.5q-30 -30 -9 -29q5 0 14 -16 q14 -25 -32 -59q-18 -16 -14 -41q7 -30 42 -57.5t70 -27.5q30 5 47 19q-5 0 -36.5 17t-57.5 34t-24 19q5 2 43 -16q43 -20 68 -25l16 -4q-2 7 -27 29q-36 30 -61 43q-18 14 -19 23q0 9 8 -1t16 -10t8 11q0 9 -16 37l-4 25v0q7 -9 20.5 -34t11.5 -32q-2 -9 42 -42t60 -33 t18.5 -6t-11.5 -15t0 -9q23 -11 -16 -27q-2 0 -7 -3q-80 -36 -136 -2q-20 11 -55 46q-57 66 -16 86q11 9 11 16t-9 -4q-14 -11 -16 0q0 9 5 20q11 23 7 43q-10 55 29 71zM180 1609q9 16 2 18q-2 0 -14 -5q-18 -23 -2 -29q0 -2 2.5 1t6 5.5t5.5 9.5zM171 1543q-9 16 -9 -5 q0 -11 4 -4q10 4 5 9zM435 1488q11 14 29 15t23 -13q2 -11 16 -12t102 10q232 5 337 -79q32 -34 45.5 -67.5t16 -80t-14.5 -102t-40 -93t-100.5 -117.5t-170.5 -132q-86 -57 -91 -66q-5 -5 18 -23q16 -11 150 -116q121 -100 130 -95q9 7 64 50q41 32 53.5 38.5t46.5 6.5 q50 0 57 -14q7 -7 0 -6q-5 2 -9 2q-25 5 -62 4q-20 -2 -47.5 -22.5t-27.5 -36.5l-7 -4q-2 9 -4 9t-55 -41q-52 -39 -66 -48q-14 -5 5 -11q41 -7 93 48q23 27 25 22t-4 -22q-9 -14 -43.5 -40t-47.5 -26q-14 0 -32 9q-18 7 -17 -2.5t21 -22.5q41 -30 107 -10q25 5 41 12 q18 2 80 57q55 57 73 57q14 0 16 2t-9 16q-14 25 -7 25q9 0 25 -16q27 -27 20 -39.5t-50 -15.5q-50 -5 -89 -72q-9 -16 -6.5 -22t29.5 -29q105 -73 171 -88q59 -14 77 -30t14 -43q-9 -25 -53.5 -33t-76.5 8q-77 36 -193 123q-55 41 -70 49t-37 8q-32 0 -53 6q-16 5 -49 35.5 t-33 42.5q0 7 17.5 8t23.5 -6l-41 43q-141 125 -218 162q-43 16 -93 14q-89 -7 -107 -37q-20 -41 -62 -221q-16 -75 -17 -88.5t13 -18.5q16 -7 38 -6q18 0 18.5 -7t-54.5 -5q-52 2 -80 21l-29 16l-2 -34q-5 -34 -17.5 -47t-5.5 -31q7 -30 -21 -7q-27 20 -2 55q14 16 16 50 q7 34 20 36q14 2 19.5 13.5t46.5 137.5q36 118 59 230.5t55 303.5q25 180 60.5 311t42.5 142zM755 1404q-61 14 -130.5 14t-103.5 -9q-34 -11 -48 -37q-32 -57 -63 -298q-11 -118 -28 -196q-11 -57 -11 -67t11 -19q16 -14 60.5 -14t67.5 14q46 20 148 96.5t156.5 131t76 92 t26.5 94.5q11 98 -22 139t-140 59zM430 313q27 15 32 15q9 0 14 -73q0 -18 -16 -37q-14 -18 -14 -27q0 -11 -37.5 -51t-51.5 -42q-16 -5 -20 0q-2 2 4 7q2 2 9 2q27 9 57 55q7 14 7 16t-7 2q-14 0 -29 -12q-34 -11 -34 -4q5 5 38 23q25 16 49 45.5t17 45.5q-2 9 -41 9 q-39 -2 -45 2q7 9 16 9q25 0 52 15zM403 264q34 14 34 6t-15 -25t-26 -27l-91 -34l4 3q34 23 48 29q41 23 37 27q-2 7 -41 -2q-34 -11 -53 -11q-9 0 5 7q11 5 25 6q41 12 73 21zM127 180q18 7 21 -21q0 -20 11.5 -40.5t31.5 -32.5q18 -11 44.5 -4t46.5 27q43 52 53 48 q7 -5 -14 -32t-9 -27q27 -9 -28 -25q-82 -25 -116 0q-16 11 -33 39.5t-17 44.5t9 23z" />
<glyph unicode="S" horiz-adv-x="1112" d="M671 1497q52 18 135.5 7t101.5 -39q9 -18 -14 -36q-34 -18 -63 0q-14 11 -81 11t-97 -16q-50 -25 -95.5 -78t-72.5 -110q-20 -43 -21 -110q0 -71 14 -95q20 -48 64.5 -69.5t156.5 -42.5q30 -5 37.5 -2.5t32.5 23.5q32 25 46 25t-12 -16q-48 -32 -77 -82q-14 -16 -52 -36 q-36 -23 -37.5 -26.5t27.5 -12.5q18 -2 37 -16q16 -14 25 -14q25 0 55 34q14 20 38 32q25 11 37.5 22.5t17.5 7.5q23 -5 57 22.5t34 52.5q0 9 -4.5 12.5t-13.5 3.5q-18 0 -45.5 10t-41.5 10l-11 5l9 2q9 7 41 -2q30 -9 61 -7q20 2 27 -1t3 -17q-7 -7 0 -18q9 -16 -27 -80 q-11 -18 -9 -25t24 -25q27 -30 35.5 -59.5t5.5 -86.5q-7 -157 -109 -295q-52 -68 -193 -137q-68 -32 -121 -36q-84 -5 -198 20q-9 2 -10 -9t-27 -38.5t-36.5 -37.5t-21.5 -6q-14 2 2 7q27 11 50 48q5 9 5 11t-5 2q-14 0 -25 -4q-25 -11 -27 -7q2 7 29 20q25 11 44.5 36.5 t17.5 39.5q-7 9 -19 4q-7 0 -95 5q-82 5 -107 18l-23 16l-2 -30q-2 -30 -12.5 -41t-5.5 -23q5 -25 -18 -6q-20 18 0 45q11 14 13 39q5 23 7 27.5t14 4.5q23 2 29 -9q32 -23 66 -23q14 0 2 11q-2 5 -9 12q-61 73 -61 113q0 39 64 -22q5 -2 6 -5q75 -71 106 -90t45 -8 q5 9 10.5 3.5t2.5 -14.5q-2 -5 1.5 -9.5t17.5 -6.5q30 -7 50 -11q27 -9 97 -10q61 0 82 7t82 46q105 68 153 168q57 109 59 178q0 32 -21 57q-16 27 -29 40q-11 9 -17 9.5t-24 -9.5q-109 -50 -180 7q-16 18 -27 19q-7 0 -31 10t-24 12q0 16 30 30q7 5 12.5 7t7.5 4l3 3 q0 5 -62 18q-121 30 -150 75q-16 23 -32 66q-11 46 -13.5 114t6.5 102q25 59 57 107q11 23 9 32q0 7 11.5 17t27.5 10q11 0 11 1t-9 15q-14 23 -2 23q2 0 11 -5q7 -9 30 7q61 45 127 68zM935 851q0 2 -7 2q-2 0 -29 -2q-27 -5 -66 -27.5t-39 -36.5q0 -7 -18 -25l-25 -22h27 q50 0 116 50q20 14 33 34t8 27zM339 1413q43 36 54.5 41t41.5 5q39 0 45 -9q7 -7 0 -7q-2 0 -9 4q-18 2 -50 3q-20 0 -42 -18.5t-22 -32.5q0 -16 -2 -6q-2 11 -7 11q-2 0 -45 -32q-41 -36 -55 -43q-9 -5 -9 -6t14 -5q34 -5 77 41q23 27 23 18q0 -5 -6 -17.5t-36.5 -34 t-42 -21.5t-25.5 9q-14 2 -13 -2q-2 -9 18 -23q18 -11 55 -9q52 7 69 10.5t35 23.5q20 23 41 36q16 11 14 7l-2 -4q-7 -11 -21 -21q-11 -9 -18 -25q-11 -27 -68 -41q-64 -11 -89 -5.5t-52 33.5q-23 30 -23 34q0 5 5.5 7t13.5 -1.5t15 -5.5q7 -9 7 2q0 7 27 25q25 13 82 59z M862 908q41 20 48 11q2 -2 14 0q14 9 23 -2q0 -2 -5 -5q-7 -11 -59 -43q-7 -2 -7 0q0 5 21 23q7 9 5.5 10t-17.5 -1q-23 -2 -51 -15.5t-31 -13.5q-7 0 12 9q20 16 47 27zM348 255q34 14 34 6t-13.5 -22t-24.5 -18l-78 -30l3 2q34 16 45 25q32 18 30 23q-5 5 -35 -4 q-32 -7 -43 -7l25 11q37 9 57 14zM849 232q27 9 36 7t9 -16q0 -61 -38 -91q-23 -20 -44.5 -28t-30.5 1q2 5 11 4q14 0 16 3q9 14 -23 0q-16 -2 -32 -21q-14 -16 -24 -13.5t-10 20.5q0 14 7 20q2 2 2 25q0 14 7 31t14 17t0 -11q-11 -20 1 -26t31 8q41 36 63 36q7 0 18 9 q7 9 -4 9h-34q-46 0 -55 -9q-11 -7 -11 -2.5t17 12.5t31 8q13 0 43 7zM869 175q16 9 -2 12q-5 0 -11 -3q-14 -5 -35 -4q-14 -5 -29 -21q-20 -14 -34 -13q-16 0 -23 -30q-5 -11 5 -11q9 0 9 4q0 11 54 21q43 5 53 18q5 9 2 11q-2 7 -26 -3t-29 -19q-9 -7 -8 1t21.5 20.5 t33 12t19.5 4.5zM121 184q14 7 13 -16q0 -36 39 -61q16 -9 38.5 -3.5t38.5 21.5q36 46 44 41q7 -5 -11.5 -27.5t-9.5 -22.5q27 -5 -20 -20q-71 -23 -96 0q-16 11 -30.5 35t-14.5 37q0 11 9 16z" />
<glyph unicode="T" horiz-adv-x="1167" d="M944 1500q32 2 75 0q39 0 48 -7t9 -39q0 -27 -11 -32q-14 -7 -162 -11q-152 -7 -159 -7q-14 -2 -14 -25q0 -11 -6 -80q-5 -84 -12 -134q-5 -100 -23 -264q-5 -20 -9 -75t-9 -80q-2 -18 -5.5 -65.5t-7.5 -61.5q-7 -75 -21 -266q-11 -130 -29 -153q-9 -9 -21 -18 q-16 -9 -29 0q-16 9 -16 32t16 143q5 43 15 150q0 14 5 43.5t6 53.5t3 35q2 18 6.5 66t7.5 66q16 148 16 160q25 228 32 334q7 102 2 119q-2 9 -8 11t-35 -2q-34 -2 -87 -9q-105 -18 -291 -19q-109 0 -123 12q-16 16 2 32q23 20 191 31q175 14 262 25q109 17 382 35z" />
<glyph unicode="U" horiz-adv-x="1055" d="M847 1493q30 25 49 12.5t35 -60.5q34 -118 14.5 -292.5t-46.5 -303t-59 -235.5t-89 -209q-48 -98 -98 -150q-64 -59 -114 -75t-119.5 -11.5t-125 41t-91 86.5t-51.5 89q-57 123 -61 548q0 166 3.5 214t17.5 132q11 55 18 87.5t14.5 52t17 20.5t22.5 -3q16 -9 18.5 -27.5 t-9.5 -81.5q-23 -116 -26 -181t-1 -263q2 -209 13.5 -286.5t41.5 -166.5q18 -46 35 -70.5t60 -63.5q73 -52 123 -53.5t108 28t136 164.5q43 75 60 126t42 172q23 102 41 195q52 228 48 330q-9 148 -39 196q-9 18 -7.5 21.5t19.5 17.5z" />
<glyph unicode="V" horiz-adv-x="1374" d="M264 1495q16 16 32 -7q25 -36 104 -348q23 -100 55 -250q30 -162 77 -278q11 -32 18.5 -38.5t16.5 -6.5q25 0 6 -28q-5 -11 48 -111q55 -96 66 -107q9 -11 21 4q9 11 34 73q20 64 77 273q7 18 14 41t13.5 46t6.5 32q39 130 32 129l-7 -2q-34 -11 -88.5 -8t-84.5 22 q-16 5 -38 38q-18 30 -39 41q-9 7 -12.5 22t8.5 22q11 9 33.5 -2.5t31.5 2.5q11 14 39 27q23 14 127.5 94.5t109.5 91.5q5 7 13 76q16 116 39 138q5 7 24 11.5t33 -11.5q11 -9 10 -26t-14 -92q-11 -57 -10 -61q5 -5 50 -5q48 -7 60 -16q23 -18 4 -18q-7 0 -18 7q-23 7 -77 7 q-55 -2 -78 -19q-25 -14 -25 -20q0 -5 -19 -16t-22 -32q-2 -27 -9 -32q-7 0 -4 9v5q5 18 -4.5 19t-23.5 -15q-9 -9 -84 -63q-73 -52 -73 -58t-16 -13q-34 -7 -2 -13q5 -2 14 -3q27 -2 59 14q27 11 63.5 39.5t36.5 35.5q0 5 10 15t17 10q16 0 -9 -39q-14 -25 -69.5 -63.5 t-75.5 -38.5q-30 0 -64 23q-7 -5 -9 -14q0 -18 29 -36q68 -41 164 -16q48 14 68 16q52 9 71 38q11 14 76 74.5t76.5 67t31.5 6.5q32 0 14 25q-30 39 -11 48q11 2 25 -16q25 -25 31 -34q16 -16 16 -25t-16 -25q-18 -16 -68 -18q-39 0 -49 -6t-37 -33q-34 -36 -53 -70 q-27 -46 -72 -62q-18 -9 -37 -86q-25 -100 -132 -458q-7 -34 -18 -73q-30 -98 -57 -132q-14 -16 -45.5 -16t-47.5 19.5t-68 122.5q-50 96 -64 116q-5 9 -9.5 7.5t-17.5 -12.5q-20 -16 -105 -25q-75 -7 -100 11q-9 9 -36.5 41t-27.5 35q0 16 30 -21q5 -5 6 -9q36 -46 82 -46 h21l-14 10q-14 5 -37.5 28.5t-23.5 27.5q0 7 27 -18q32 -30 45.5 -29.5t0.5 13.5q-5 2 -7 7q-27 27 -30 34l32 -25q48 -41 73 -41q18 0 46.5 15t42 33t12.5 20.5t-24 -11.5q-27 -9 -59 -14q-30 -2 -86 28q-50 27 -77.5 30.5t-84.5 -7.5q-34 -9 -42 -8t-19 10q-16 16 -30 23 q-11 2 -13.5 11t6.5 14q7 2 7 -5q0 -9 7 -13.5t16 4.5q7 5 10 3.5t10 -21.5q7 -14 19.5 -15t48.5 15q25 9 62 9q39 0 80 -25q46 -30 77.5 -30t31.5 3q0 2 -46 27q-41 27 -41 30.5t16 -3.5t34.5 -17t27.5 -12q9 -9 18 -11.5t14.5 -1.5t5.5 6q0 9 -52 32q-55 25 -84 38 q-34 16 -75 21l-44 4l41 3q41 0 89 -23q34 -16 100 -43q39 -20 47 -21.5t19.5 10t9 12.5t-16.5 3q-16 2 -86 48q-98 64 -159 55h-16l7 2q16 7 59 2.5t68 -18.5q27 -16 32 -16l-3 9q-2 9 -6.5 26t-8.5 35q-23 71 -23 92q0 14 -38.5 202.5t-59.5 261.5q-34 143 -41 189.5 t7 60.5zM981 658q11 11 43 -7q18 -14 48 -18q27 -2 29 -12l-13 -2q-50 0 -71 14q-16 11 -19.5 8.5t-3.5 -20.5q0 -20 -11 -27q-7 -9 -5 -21q2 -7 -2 -6q-11 -7 -16 6q-7 14 5 32q11 11 11 29.5t5 23.5zM1183 644q11 9 14 -11q0 -9 2 -16q2 -59 -54 -110q-16 -14 -25 -15 l-3 2q7 9 21 23q27 25 15.5 27t-20.5 -5q-14 -9 -16 0q0 5 21 14q43 16 43 52q0 7 -4.5 10.5t-20.5 3.5h-30l28 7q20 9 29 18zM1140 596q34 16 34 9q0 -9 -13 -22q-30 -25 -51 -25q-9 0 16 13q27 16 16 21q-2 2 -11 0q-5 -5 0 2q2 0 9 2zM1101 587l14 5v-5q-5 -7 -16 -4 q-12 -1 2 4zM974 542q2 11 7 6q9 -5 2 -9q-2 -9 9.5 -29.5t22.5 -27.5q30 -14 68 28q20 25 27 20q2 -2 -9 -13t-9 -25q0 -9 -21.5 -17.5t-46.5 -8.5q-18 0 -38.5 28t-11.5 48z" />
<glyph unicode="W" horiz-adv-x="1611" d="M1454 1488q11 11 18 11.5t25 -11.5q23 -14 17.5 -107t-33.5 -189q-36 -109 -91 -386q-30 -157 -85.5 -341.5t-87.5 -239.5q-20 -32 -56.5 -40t-70.5 15q-27 20 -66 94.5t-71 167.5q-57 166 -91 380q-46 275 -61 300q-7 11 -16 -4q-25 -34 -59 -342q-52 -460 -73 -553 q-5 -25 -27 -25q-20 0 -34 14q-20 18 -124 199t-111 211q-14 43 -59 143q-30 68 -118.5 358.5t-88.5 321.5q0 16 18 20.5t32 -8.5q14 -11 50.5 -120.5t65.5 -223.5q50 -198 164 -444q36 -77 93 -171.5t71 -94.5q20 0 39 135q30 191 61 466q2 43 29.5 167t34.5 136 q7 9 26 6.5t37 -15.5q55 -39 119 -419q30 -198 94.5 -394t110.5 -216q16 -9 20 -5q11 9 44 99t49 154q9 27 44 164q14 55 47 216q27 150 57 246q27 96 39 205q7 106 18 120z" />
<glyph unicode="X" horiz-adv-x="1153" d="M1004 1493q41 18 52 0q7 -16 -155 -260q-30 -41 -182 -268q-91 -130 -93 -146q-7 -20 75 -133t209 -260q121 -137 125 -148q9 -11 9 -41q0 -77 -77 -19q-30 25 -68 82q-43 61 -89 114q-39 46 -116 141q-100 130 -125 148q-9 9 -13.5 4.5t-27.5 -31.5q-114 -150 -237 -335 q-80 -114 -118 -145q-11 -9 -30.5 -10.5t-28.5 7.5q-18 14 1 49.5t101 144.5q34 36 68 91q96 143 132 186q68 86 85 148q5 16 -32 78q-11 18 -38.5 62.5t-36.5 62.5q-39 61 -69 100q-32 52 -61 96q-36 55 -102 125q-61 66 -69 82q-2 11 7 26t21 15q27 0 93 -71 q107 -109 259 -353q52 -82 69.5 -104.5t28.5 -22.5q7 0 52.5 59t56.5 82q9 16 39 52q52 73 168 248q90 133 117 144z" />
<glyph unicode="Y" horiz-adv-x="1565" d="M1190 1481q39 36 57 12q11 -9 -7 -41q-20 -32 -43 -66q-23 -30 -23 -39q0 -5 -18 -14q-46 -23 -134 -127q-43 -50 -105 -82q-57 -30 -59 -41q-2 -20 48 -20q20 0 45 -21q27 -20 46 -27q41 -16 107 55q34 36 68 52q30 11 61.5 34t38.5 18q14 -2 45.5 10.5t50.5 28.5 q52 46 54 86q2 18 -2.5 21.5t-31.5 8.5q-39 5 -66 16t-57 11q-32 5 -32 12q0 11 32 8.5t57 -11.5q32 -11 89 -9q41 0 47.5 -1t6.5 -19q-5 -27 0 -48q9 -27 -47 -134q-55 -98 -105 -119q-27 -9 -41 -20q-20 -18 -87.5 -37.5t-105.5 -19.5q-30 0 -78 17t-70 38q-20 20 -30 13 q-5 -2 -36 -34q-20 -23 -25 -37.5t-7 -69.5q-9 -134 -32 -252q-14 -68 -27 -192q-20 -175 -30.5 -218t-35.5 -43q-43 0 -44 52q0 32 28.5 267.5t40.5 287.5q18 100 -34 162q-20 25 -73 109q-50 80 -162 230q-80 112 -92 133.5t-6 37.5q5 20 13 23.5t20.5 -4.5t32.5 -31 q30 -32 118.5 -152.5t129.5 -181.5q61 -93 85 -94q9 0 36 19q16 11 17 15.5t-15 16.5q-14 11 -15 14.5t6 14.5q9 18 66 44.5t80 42.5q46 39 193 232q37 43 57 63zM1379 1156q0 5 -13.5 8t-22.5 -3q-2 -2 -35 -5q-34 0 -91 -30q-84 -46 -84 -75q0 -7 -36.5 -36.5t-31.5 -38.5 q9 -7 45.5 -3.5t65.5 17.5q64 23 117.5 58t69.5 67t16 41zM1238 1256q61 27 105 27q46 0 45.5 -11t-23.5 -27q-5 -2 -24 -17t-26 -17q-32 -25 -37.5 -20.5t21.5 33.5q25 25 25 32l-6 -1q-7 -1 -19 -8q-25 -5 -41 -5t-45 -18q-27 -16 -50 -20q-14 -7 -15 -7t13 14 q16 13 77 45zM1097 496q25 9 32 7q9 -2 9 -45.5t-9 -68.5q-11 -27 -26 -44t-56 -40q-41 -25 -73 -23q-46 0 -2 9q9 2 20 7q9 2 9 7q-7 2 -38.5 -6t-45.5 -30q-14 -18 -30 -28q-14 -5 -25 9q-14 11 -13.5 29.5t12 25.5t11.5 39q0 48 25 75q5 7 6 -3q2 -7 -4 -22 q-20 -30 13 -30q20 0 46 16q20 18 55.5 34t46.5 16q9 0 23 10.5t14 19.5q0 5 -64 4.5t-89 -13.5q-25 -9 -25 -5q9 25 103 34q48 7 75 16zM1110 410q-2 9 -26 6.5t-62.5 -17t-63.5 -33.5q-25 -16 -43 -18q-14 0 -18.5 -6.5t-11.5 -27.5q-9 -27 -7 -32q5 -2 28 12q25 16 45 20 q18 5 32 25t39 34t43 14q45 0 45 23zM1083 366q0 9 -10 9t-27 -5.5t-31 -14.5q-20 -27 -5 -30q32 0 52.5 18t20.5 23zM152 489q27 20 65 -8t113 -35q36 -5 41 -9l-21 -7h-38q-75 5 -102.5 20.5t-34.5 15.5q-9 -5 -2 -36q2 -30 -16 -48t-16 -38q7 -16 0 -18.5t-23 11.5 q-27 25 5 63q16 25 15.5 52.5t13.5 36.5zM521 466q11 20 21 -4q2 -9 2 -16l4 -46q9 -27 -44 -105.5t-92 -89.5q-25 -7 -25 0q0 2 9 11q30 14 57 42.5t23 41.5q-2 5 -43.5 -11t-63.5 -48q-32 -41 -10.5 -41t-14.5 -13q-55 -20 -98 -25q-30 -7 -53 9q-32 20 -52 55.5t-14 62.5 q5 14 9.5 17t10 -2.5t5.5 -19.5q0 -23 10 -45q11 -16 36 -37.5t36 -19.5q16 5 37 7q27 5 43 25q52 61 59 61t37 16q32 20 50 25q16 9 37.5 39t21.5 48q0 16 -4.5 18t-20.5 0q-55 -5 -82 9q2 7 25 7q18 0 48.5 11t35.5 18zM441 391q25 7 48 7h19.5t-7.5 -11q-39 -43 -114 -68 l-30 -7l3 2q9 11 13 11q7 0 46 23q50 27 22 27q-16 0 -68 -11q-18 -2 -18 2q5 9 32 9q34 5 54 16z" />
<glyph unicode="Z" horiz-adv-x="1137" d="M596 1490q30 5 210 7q125 0 151 -1t37 -8q20 -20 0 -77q-27 -57 -157 -207q-41 -46 -72 -94q-27 -46 -50 -79q-27 -36 -82 -119q-34 -55 -130 -191q-77 -102 -139 -220q-36 -71 -59 -107q-55 -100 -48 -105q2 0 369 -5q284 -2 345.5 -6.5t68.5 -18.5q7 -9 3.5 -26 t-14.5 -24q-7 -5 -324 -4q-323 0 -391 -7q-64 -7 -134 -11q-61 -5 -73 6q-16 11 -8 28.5t65 106.5q43 71 125 204q162 264 198 310q43 52 143 214q66 107 132 191q127 175 128 193q-5 5 -50.5 4t-127.5 -9t-168 -24q-234 -36 -269 -16q-30 16 -35.5 30.5t15.5 19.5 q14 7 100 16q86 7 148 14q84 15 93 15z" />
<glyph unicode="[" horiz-adv-x="737" d="M448 1643q82 16 112 7q57 -20 16 -71q-11 -11 -25 -14.5t-73 -8.5q-100 -7 -166 -15q-16 -2 -62.5 -8t-60.5 -8l-43 -3l22 -91q20 -66 22.5 -127.5t2.5 -363.5q0 -403 -11 -526q-5 -102 -3.5 -130.5t14.5 -33.5q11 -7 192 -13q239 -14 252 -25q9 -9 7 -26.5t-16 -30.5 q-14 -11 -41 -14.5t-175 2.5q-196 2 -239 7q-55 11 -67.5 50t-0.5 173q7 118 10 516.5t-3 446.5q-2 25 -16 120l-5 69l30 29q25 25 60 36.5t122 27.5q23 5 76 12.5t69 12.5z" />
<glyph unicode="]" horiz-adv-x="803" d="M621 1661q2 2 34 2t37 -13q20 -32 -3 -82q-25 -57 -34 -225q-20 -307 -22 -824q-2 -171 11 -194q11 -20 9 -30.5t-20 -35.5q-16 -18 -26.5 -20t-46.5 0q-173 11 -321 -11q-80 -11 -109 -12q-20 0 -26 1t-8 13q-5 16 9 29q23 25 123 44.5t223 28.5q59 2 70 4.5t16 25.5 q14 84 36 1022l3 168h-207q-150 0 -182 1t-41 10q-34 39 31 57q32 11 194 16q234 9 250 25z" />
<glyph unicode="^" horiz-adv-x="928" d="M405 1504q18 7 55 5q30 -2 44.5 -11.5t41.5 -47.5q39 -57 78 -157q18 -50 22 -64q11 -23 21 -39q20 -52 34 -82q27 -55 27 -57l23 -52q86 -187 59 -221q-7 -9 -25 -9t-30 12q-9 7 -43 93q-27 77 -61 152q-34 61 -59 123q-23 55 -30 68q-7 16 -18 48q-41 102 -68 130 q-23 25 -62 -23q-27 -34 -78.5 -141t-80.5 -193q-20 -48 -32 -87q-50 -146 -91 -168q-27 -16 -34 18q-7 39 34 134q16 41 45 121q46 123 135 300q39 82 56 109.5t37 38.5z" />
<glyph unicode="`" horiz-adv-x="482" d="M107 1711q16 14 28.5 3.5t53.5 -66.5q34 -52 34 -53.5t14 -26.5q14 -20 29 -46q11 -20 25 -38q27 -50 62 -105q20 -27 29 -46q9 -18 0 -22q-16 -9 -45 0q-32 9 -59 54q-9 14 -35 55q-27 41 -30.5 50t-41.5 71q-55 91 -67.5 121.5t3.5 48.5z" />
<glyph unicode="a" horiz-adv-x="823" d="M400 1172q18 7 62 7q48 -2 136 -48q84 -41 98 -55q18 -25 0 -179q-32 -262 7 -526q9 -61 21 -82q7 -23 6 -52q2 -84 -77 -25q-27 23 -38.5 50t-20.5 88q-11 80 -16 82q-11 9 -57 -50q-91 -132 -124 -158t-92 -26q-52 0 -80.5 16t-65.5 61q-39 55 -49 80t-12 89 q-7 191 25 318q9 50 51 132t81 132q63 89 145 146zM560 1051q-14 7 -21 7q-2 -7 -38 -9q-91 -14 -128 -45q-48 -48 -100 -167q-46 -91 -51.5 -129.5t-5.5 -184.5q0 -127 1 -151t13 -37q20 -18 39 -30q18 -9 43 9q32 20 80.5 81.5t85.5 127.5q30 57 57 139t25 100q-5 11 4 82 q23 164 16.5 183t-20.5 24z" />
<glyph unicode="b" horiz-adv-x="841" d="M282 1404q7 14 12.5 14t24.5 -14q11 -9 12 -26t1 -106q-5 -125 -11 -175q-25 -177 -43 -278q-14 -68 -7 -73.5t66 23.5q116 55 184 62q66 5 107 -21.5t77 -108.5q46 -91 37 -180q-11 -116 -112 -216q-61 -61 -150 -105q-43 -20 -89.5 -20t-172.5 34l-22 11q-11 9 -26 9 t-18 -6q-7 -7 -23.5 -5t-23.5 11q-14 11 -9 66q5 57 16 100q39 141 52 221q2 14 17 94.5t24 126.5q36 203 50 396q16 146 27 166zM583 717q-75 41 -187 -30q-84 -55 -130 -152q-23 -46 -45.5 -113t-22.5 -85q0 -20 84 -57q50 -23 89 -23t82 23q196 107 196 284 q0 112 -66 153z" />
<glyph unicode="c" horiz-adv-x="1385" d="M198 1320q102 20 184 -34q46 -32 62 -73t20 -139q2 -77 -2 -89q-18 -20 -21 19v45q2 61 -13 109q-46 116 -78 112q-7 0 -9 -9q-9 -7 -22 0q-20 9 -12 -3q2 -7 16 -22q27 -30 52 -74.5t30 -73.5q7 -43 0 -44q-7 5 -11 32q-11 32 -25 55q-23 43 -67.5 86.5t-67.5 43.5 q-5 0 -31 -32l-23 -32l20 -23q39 -43 21 -68q-7 -9 -41 -43q-32 -32 -37.5 -49t5.5 -51t41 -57q77 -73 139 -66q23 2 50 11t27 14q0 2 -18 7q-14 2 -59 34l-82 54q-59 34 -32 34q9 0 25 -9q61 -46 125 -63q52 -16 52 -10.5t-50 51.5q-59 59 -77 66q-9 5 -22.5 16t-24 21 t-8.5 15q5 5 23 -11q23 -18 30 -16q23 9 63 -35q18 -23 60 -52q36 -30 66 -29q50 0 18 -28q-18 -16 -17 -18t17 -9q18 -11 11 -21q-5 -2 -8 -2t-31 -18q-48 -30 -113.5 -35.5t-106.5 17.5q-39 18 -94 82q-34 43 -44 61t-10 43q0 20 2 27t23 28q32 27 20 27q-7 0 -22 -11 q-20 -16 -23 -11q-7 5 16 66q11 25 0 52q-14 50 7.5 85.5t76.5 46.5zM184 1238q16 34 7 34q-2 0 -14 -9q-23 -16 -22 -36q2 -35 29 11zM168 1120q0 9 -4.5 15.5t-8.5 -6.5q-7 -25 2 -23t11 2v12zM250 1176q-5 7 -4 7q-2 2 11 -9q18 -11 38.5 -48.5t20.5 -53.5 q-5 -11 -10.5 -13.5t-7.5 13.5q-7 16 -24 56.5t-24 47.5zM874 1108q39 7 75 0q30 -5 65 -21.5t46.5 -32.5t9.5 -35q-7 -57 -57 -20q-71 55 -153 11q-30 -14 -82 -65t-86 -103q-116 -164 -144 -332q-11 -80 5 -91q64 -43 98 -44q11 0 12 -3t-8 -19q-16 -41 7 -53 q30 -20 77.5 -21t88.5 10q66 23 123 86q107 112 109 23q0 -43 -47 -98q-20 -23 -57 -50t-53 -36q-73 -25 -132 -25q-89 0 -195 43q-36 14 -82 9q-48 -7 -64 2q-11 5 -37.5 35.5t-23.5 33.5q5 2 17 -11.5t12 -20.5q0 -2 21.5 -14.5t35.5 -17.5h12.5t-1.5 9q0 9 9.5 10.5 t-2.5 16.5q-11 11 -9 14q2 2 25 -20q23 -20 48 -21q34 0 66 32q18 23 11 23q-5 0 -18 -5q-18 -9 -52 -11q-34 0 -73 25q-30 20 -40 22.5t-35 0.5q-39 -2 -43 -7q-7 -2 -30 -5q-25 0 -35 11.5t-22 13.5q-14 5 -13.5 11.5t6 8t7.5 -7.5q2 -2 14 0q11 0 20 -14q16 -23 41 -9 q48 27 87 18q16 -2 50 -27q39 -23 64 -23q34 0 9 16q-2 2 -12 5q-34 20 -13 20q5 0 27 -14q30 -18 34 -18q11 0 2 14q-2 5 -6 7l-53 31q18 0 68 -29q16 -5 23 0q23 9 -4 20q-14 7 -64 37q-52 30 -77 41l-30 9l14 54q30 175 104 305q39 61 98 132t107 110q55 43 105 54z M1140 901q20 9 59 -11q14 -5 49 -2.5t40 -4.5q2 -9 -5 -21q-5 -9 0 -20q11 -18 -27 -100q-23 -43 -42 -61.5t-65 -41.5q-55 -30 -57 -29q-14 0 3 11q5 2 6 7q39 16 78 46q48 36 48 68q0 11 -14 7q-18 -5 -32 -5q-20 -2 -32 -7q-59 -32 -77 -63q-11 -20 -25 -32 q-18 -11 -14 -25q2 -9 -1 -10.5t-17 1.5q-41 5 -73 36q-16 16 -27 16q-30 0 -57 25q-11 11 -3.5 21.5t42.5 30.5q77 39 100 71q11 16 38.5 41t43.5 34q11 5 11 2q2 -9 -23 -32q-30 -23 -61 -63q-34 -48 -87 -75q-46 -27 -2 -32q23 -5 46 -23q20 -18 31 -18q9 0 32 17t34 30 q14 20 30 28q14 5 39 23q23 16 43 22q30 2 56 26t30 54q2 14 -3.5 19.5t-25.5 5.5q-16 0 -41 11.5t-36.5 11.5t-13.5 7q-5 2 2 4zM1140 817q23 11 44.5 17t35 3.5t13.5 -9.5q0 -9 -31.5 -35t-34.5 -19q-5 2 12 20l13 18l-25 -4q-23 -2 -45 -14q-20 -16 -30 -16q-18 0 23 28 q11 4 25 11zM1047 608q9 -2 16 0l-3 2h-9q-2 -2 -4 -2zM476 391q7 -2 11 5l-9 2zM501 385q9 -5 11 0l-7 2zM430 291q0 11 21 -7q14 -18 9 -18q-7 0 -18.5 11.5t-11.5 13.5z" />
<glyph unicode="d" horiz-adv-x="869" d="M696 1388q41 18 66 0q16 -9 16 -43q0 -41 -36 -191q-5 -30 -48 -203q-52 -203 -62.5 -284.5t5.5 -190.5q14 -86 30 -121.5t73 -101.5q32 -39 31.5 -50.5t-30 -16t-67.5 2.5q-64 11 -98 75q-14 30 -44 125q-7 34 -12.5 34t-42 -44t-86.5 -93t-70 -56q-39 -20 -103 -5 q-46 11 -81 63.5t-37 111.5q-9 107 57 273.5t143 243.5q23 20 61.5 42t59.5 22q27 0 63.5 -29.5t32.5 -43.5q-2 -5 -62 -9q-39 -2 -50 -7t-34 -27q-61 -57 -114 -169q-93 -198 -77 -293q7 -23 25 -50.5t36 -38.5q23 -7 43 0q48 23 124.5 132t105.5 193q7 32 23 201 q14 180 26.5 247t50.5 149q25 57 32 79q16 55 50 73z" />
<glyph unicode="e" horiz-adv-x="1219" d="M523 1149q20 5 112 9q71 0 84.5 -3.5t31.5 -16.5q23 -18 36 -41q11 -23 3 -53q-14 -61 -57.5 -154.5t-74.5 -134.5q-123 -159 -312 -186q-32 -2 -43.5 -13.5t-13.5 -36.5q-7 -59 20 -89q11 -16 15 -17t17 6q5 5 14 8t14.5 3t5.5 -4.5t-22 -20.5q-20 -16 -75 -80 q-55 -66 -85.5 -81.5t-44.5 -27.5q-11 -7 -2 -16q11 -9 23.5 -9t27.5 -5.5t15 -12.5q0 -5 21.5 -17.5t38.5 -4.5t53 42q34 39 64 53q30 16 41 29q11 7 23 7q39 -2 79 43q46 52 26 78q-5 9 -21 7q-14 -5 -48 11q-34 14 -54 14q-14 0 -11.5 6.5t25 5.5t40.5 -10q20 -11 57 -5 q41 2 46 -6q9 -7 0 -23q-5 -11 0 -23q9 -14 -3 -41q-14 -25 -13 -39q0 -11 27 -9q98 14 159 64q36 32 59 9q41 -43 -22 -107q-27 -30 -57 -34q-77 -20 -164 -20q-57 0 -71 -14q-32 -32 -96.5 -58t-105.5 -26q-25 0 -58 13.5t-54 29.5q-20 20 -34 20t-38 16q-30 16 -30 30 q2 14 52 41q89 46 100 66q5 7 -9 25q-68 75 -43 284q32 225 216 421q77 84 116 98zM678 1083q-32 16 -86 -9q-61 -34 -99 -66t-83 -96q-64 -84 -87 -179q-14 -48 -8 -58.5t45 -7.5q52 2 95 27t100 84q55 52 77.5 91t47.5 116q16 55 16 71t-18 27zM530 266q0 9 -54 0 q-34 -5 -82 -35.5t-48 -48.5q0 -5 -25 -32q-27 -25 -23 -32q2 -2 27 -2q41 0 108.5 42t85.5 76q11 25 11 32zM951 901q66 9 91 -7q16 -9 12.5 -12.5t-23.5 3.5q-46 14 -87 -2q-16 -7 -45 -34q-27 -27 -34 -28q-5 0 -12 -11q-9 -9 -41 -32q-96 -71 -95 -91q0 -9 16 -23 q20 -14 68 -11q109 0 141 36q18 20 23 28l8 7q8 6 17 16.5t20 17.5q39 41 55 41q32 0 11 32q-11 14 -3 21.5t31 -21.5q20 -23 22.5 -29t-6.5 -17q-11 -16 -37 -16q-34 0 -49 -7t-35 -29q-23 -27 -32 -48q-16 -34 -80 -50q-43 -11 -92 -12.5t-62 7.5q-14 9 -41.5 42t-27.5 40 q0 23 30 12q14 -7 27 6q7 5 66 53q52 39 98 79q46 39 66 39zM851 767q25 32 25 18q0 -9 -9 -27q-18 -36 -82 -66q-18 -11 -39 -5q-18 9 -17 15t24 6q20 0 50 17t48 42zM426 348q43 20 75 21q34 0 34 -5q0 -11 -64 -61q-11 -9 -14 -5q-2 5 12 23q20 25 9 25q-2 0 -9 -2 q-14 -9 -25 -9t-37 -12q-25 -14 -38 -18q-9 -2 -10.5 -1t10.5 10q18 14 57 34z" />
<glyph unicode="f" horiz-adv-x="1105" d="M221 1682q9 5 45 0q32 0 69 -12q64 -27 85 -64.5t19 -119.5q0 -57 -9 -57q-7 0 -8 5.5t-1 42.5q0 52 -21 89q-39 80 -65 77q-5 -5 -10 -9q-5 -5 -18 0q-18 9 -18 4t20 -20q16 -16 41 -48t35 -48q2 -9 3 -20.5t0 -18t-4.5 -6.5t-15 29.5t-36.5 56.5q-48 55 -91 66 q-16 5 -27 -2q-7 -2 -17 -18t-17 -16q-11 0 16 -23q30 -25 22 -48q-5 -2 -38 -32q-32 -25 -37.5 -37.5t5.5 -39.5q9 -23 39 -45q32 -23 59 -37q32 -14 63 -9q59 5 71 18q0 2 -14 5q-16 0 -36 16q-18 11 -67 35t-56 28q-7 0 -7 5q0 14 32 0q91 -48 157 -57h18l-18 9 q-14 11 -51.5 41t-64.5 46q-16 2 -27.5 10t-17 15t-3.5 9q5 2 24.5 -8t25.5 -10q25 0 55 -25q11 -11 48.5 -35.5t49.5 -28.5q7 -5 27 -2q20 0 25 -3.5t-3 -11.5t-20 -10q-7 -2 -6.5 -3.5t13.5 -8.5q25 -11 0 -25q-18 -5 -23 -9q-7 -5 -41 -14q-32 -11 -83 -11t-83 11 q-34 16 -93 71q-41 39 -41 68q0 18 2.5 24t22.5 19q23 18 18 19q-7 2 -13.5 -3.5t-8.5 -5.5q-7 0 -9 -5q0 -2 -10 0q-11 0 10 34q18 30 6 53q-16 30 5 61q21 30 98 39zM196 1643q0 9 -28 -9q-32 -18 -9 -37q9 -7 9 1.5t14 24t14 20.5zM166 1531q0 25 -14 5q-7 -18 3 -18l9 2 q2 0 2 11zM662 1586q16 7 46 7q34 0 87.5 -4.5t55.5 -6.5q7 -5 7 -16q0 -16 -10.5 -19.5t-51.5 -1.5q-43 2 -61 -2.5t-41 -20.5q-32 -27 -43.5 -57.5t-20.5 -99.5q-2 -14 -5.5 -43t-3.5 -39q-5 -30 -7 -99t5 -78q7 -20 43 -11q52 11 121.5 14.5t90.5 -5.5q32 -16 32 -44 q-2 -11 -5.5 -14.5t-17.5 -10.5q-20 -5 -114 -11q-112 -9 -152 -18q-23 -14 -21 -34q-18 -216 -29.5 -302.5t-35.5 -207.5t-46 -180q-27 -84 -57 -102q-11 -7 -60 -8t-55 1t19 30q25 23 37 43q39 64 72 255q2 0 12 57q20 96 34 268q7 55 9 100q5 46 -1 50.5t-97 -16.5 q-198 -46 -239 -18q-18 14 -5.5 41t92.5 32q137 20 239 43q23 5 28.5 19.5t5.5 58.5q0 43 2 93q2 16 5.5 51t3.5 44q14 132 23 153q9 27 46.5 64.5t62.5 44.5zM241 1572q-9 7 -7 7q7 0 21 -9q14 -11 34 -43t14 -37q-7 -14 -23 14q-2 7 -5 14q-18 40 -34 54zM610 492h6h10 q16 2 41 -16q41 -27 127 -35q36 -5 37 -11q-2 -2 -52.5 -2t-70.5 4q-25 5 -53 19q-27 14 -29 13q-16 0 -7 -32q7 -30 -23 -52q-14 -11 -11 -23q2 -5 3 -11.5t1 -10t-1 -3.5t-15 3q-46 18 -9 68q18 20 19 43q0 39 27 46zM978 464q11 9 23 2.5t5 -18.5q-11 -18 0 -32 q9 -11 4.5 -32.5t-20.5 -35.5q-11 -9 -16 -23q-5 -18 -27 -43q-16 -11 -32 -32q-32 -30 -64 -29q-23 0 14 16q23 11 46.5 39.5t23.5 30.5q0 11 -52 -11q-36 -16 -36 -7q0 7 50 27q27 14 41 23q11 11 25.5 33t14.5 31q0 14 -6.5 16t-33.5 2q-73 -2 -78 7q0 5 27 7 q25 0 53.5 10t37.5 19zM931 400q34 5 34 -2q0 -5 -6 -8t-10 -10q-14 -23 -102 -55q-55 -16 -62 -16l55 26q36 18 68 36q9 5 3.5 9.5t-17.5 -0.5q-11 -5 -22 -5t-35 -4q-23 -9 -45 -5h-7q-11 0 -10 1.5t28 3.5q7 5 12 4q27 5 43 5q23 7 41 14q25 6 32 6zM578 307q18 9 20 -16 q0 -41 44 -73q23 -16 41 -15q68 0 93 38q9 14 29.5 31t29.5 15q14 -5 -7 -23q-11 -11 -22 -27l-14 -16h14q11 0 13 -5q2 -2 -1 -5.5t-29.5 -9t-48.5 -17.5q-48 -14 -87 -2q-34 11 -66 55q-34 52 -9 70z" />
<glyph unicode="g" horiz-adv-x="823" d="M620.5 1181q53.5 -20 76 -37.5t29.5 -33t7 -38.5q0 -25 -7 -46q-11 -36 -25 -82q-43 -141 -71 -478q-16 -175 -50 -282q-64 -191 -100 -248q-64 -96 -175 -113q-82 -16 -132 2q-43 16 -68 73q-14 32 2 31q34 5 82 -18q59 -34 123 -4q57 23 94.5 88.5t73.5 207.5 q30 96 54 301.5t10 219.5q-7 7 -68 -37q-43 -27 -66 -38q-59 -23 -126 6q-82 32 -81 178q0 77 34 141t104.5 128.5t148 81.5t131 -3zM587 1099q-34 20 -73 7q-25 -11 -84 -56.5t-84 -80.5q-55 -64 -55 -152q-2 -41 0.5 -51.5t22.5 -23.5q30 -18 43 -18q43 0 130 70 q52 39 71.5 67.5t35.5 71.5q11 27 18 69t5 52q-5 5 -7.5 17t-22.5 28z" />
<glyph unicode="h" horiz-adv-x="953" d="M335 1493q7 5 34 3.5t31 -10.5q14 -16 7 -99t-43 -315q-18 -105 -26 -157.5t-11.5 -86.5t-2.5 -40.5t6 -6.5q7 0 66 52q82 80 139 102q82 25 107 5t34 -51t9 -97q0 -73 -7 -132t-16 -146q-18 -173 1.5 -220.5t101.5 -50.5q61 0 76 -4.5t19 -24.5q2 -14 -10.5 -23 t-42 -12.5t-67 -4.5t-94.5 10.5t-79 54.5q-14 34 -12 152q0 125 9 210q25 212 3 223q-14 7 -50 -16q-43 -25 -106 -106t-99 -160q-59 -116 -107 -278q-14 -59 -25 -71q-9 -7 -36.5 -6.5t-40 8.5t-3.5 44q46 234 100 444q36 137 83 409.5t47 359.5q0 36 5 41z" />
<glyph unicode="i" horiz-adv-x="996" d="M391 1502q20 2 55 2q34 -2 66 -14q55 -23 75 -59q18 -30 21 -100v-34t-1.5 -19.5t-5 -8t-8 -1t-4.5 43.5t-9 65q-27 68 -52 86q-7 2 -16 2t-9 -6q-2 -5 -16 0q-11 7 -12.5 3.5t17.5 -22.5q50 -46 63 -84q2 -9 2.5 -18t0.5 -17t-3 -8q-2 0 -9 23q-11 27 -25 45 q-18 23 -46.5 46t-44.5 29q-16 7 -41 -22q-20 -20 -4 -25q25 -16 25 -39q0 -11 -21 -32q-20 -16 -32 -25q-23 -18 -11 -55q9 -20 29 -38q39 -30 80 -46q11 -2 37 -2q18 0 39.5 8t23.5 10q0 2 -13 7q-18 2 -35 14q-16 9 -61.5 32.5t-47.5 23.5t-2 7t8 5t19 -9q11 -9 53.5 -25 t55.5 -18q23 -5 30 -7q11 -2 11 0t-11 9q-11 9 -48 38q-34 27 -50 35q-11 5 -30.5 19.5t-19.5 16.5l8 -1t16 -7t13 -8q2 -2 13 -4q20 0 48 -23q23 -18 52 -37q32 -20 51.5 -20t24 -3.5t-2.5 -10.5t-16 -9t7 -9q14 -7 11 -11q0 -5 -31.5 -18.5t-52.5 -20.5q-27 -5 -66 -5 q-39 2 -66 12q-25 11 -77 57q-43 41 -43 70q0 18 20 34q30 23 21 23q-2 0 -18.5 -10t-22.5 -6q-5 5 11 32t7 46q-11 27 2 54q18 32 68 39zM389 1465q0 9 -23 -6q-14 -11 -13.5 -19.5t6 -14t5.5 -1.5q0 5 8 18.5t12.5 14.5t4.5 8zM363 1370q-3 7 -5.5 7t-7 -9t-2.5 -12 q0 -7 9 0t6 14zM423 1410q0 1 16 -9.5t30 -35.5q23 -39 9 -41q-5 0 -8.5 6t-16.5 35q-11 25 -21 34q-9 10 -9 11zM473 1063q14 14 30 3.5t41 -49.5t29.5 -56t4.5 -62q-2 -118 -25 -207q-7 -18 -2.5 -19.5t34.5 10.5q50 20 61 34q36 36 71 57q23 14 27 7q0 -2 -11 -10 q-32 -18 -71 -61q-27 -27 -66 -48q-9 -2 -16 -6.5t-10 -8t-1 -5.5q5 -2 20 -5q18 -2 23 -4q9 -5 21 -14q14 -11 22 -11q20 0 55 34q18 18 32 22q25 14 36 21q9 7 18 7q32 0 53 16q27 25 32 41q2 9 2 11q2 2 -3.5 6.5t-14.5 4.5q-11 -5 -37 7q-23 5 -34 5t-15.5 3.5t4.5 5.5 q11 7 38 -2q34 -11 64 -3q11 2 16 -2t5 -27q0 -20 -9 -41q-32 -77 -78 -93q-14 -7 -20 -14q-5 -2 -27.5 -11.5t-29.5 -9.5q-18 0 0 9q2 0 9 3q25 7 66 34q25 14 34 27q9 18 7 22.5t-14.5 2.5t-28.5 -4q-25 -2 -59.5 -21.5t-34.5 -28.5q0 -5 -20 -19q-16 -16 -15 -19t19 -6 l16 -2l-4 -2q-23 -7 -73 7q-20 7 -33 17t-26 15q-16 0 -27 6q-18 11 -19 -2q0 -5 -4 -23q-34 -123 -34 -225q0 -48 19 -77.5t47 -22.5q11 0 27 12.5t18 21.5q7 23 32 36q18 11 30 3q27 -25 27 -64q0 -18 -12 -30q-25 -32 -61 -47.5t-72.5 -18t-65 6.5t-49.5 37l-11 16 l-7 -12q-5 -14 -28.5 -29.5t-36 -20t-44.5 -7.5q-5 0 -15 -1t-17 -2t-11 -1q-30 -2 -59 27q-18 20 -23 21q-7 9 -2 9q5 5 26 -20.5t51 -27.5q11 0 14 2q0 5 -14 14q-16 5 -24 16t1 4q5 -2 16.5 -11t20.5 -9q9 -5 9 -2.5t-5 4.5q-2 7 -4 7q-2 2 -11.5 11t2 1t20.5 -17 q30 -27 66 -11q16 9 34 22.5t14 16.5q-2 2 -12 -5q-27 -14 -61 -9q-18 0 -50 16q-46 23 -82 16q-71 -11 -73 -2q-2 7 -18 12.5t-16 12.5q0 9 11 0q7 -7 12 -7q2 0 5.5 1t5.5 1q2 5 2 -2t6 -12.5t15 -5.5q7 0 26 9t49 9t55 -16q34 -18 59 -21q30 -2 11 9q-7 7 -25 16 q-14 5 -9 5q11 5 41 -14q25 -16 25 -4q0 5 -9 9q-5 5 -34 16q-27 11 -33 11h-10q-2 5 -21.5 14t-29.5 9q-11 -5 -22 0q-9 0 2 2h11q25 0 44 -7q14 -7 15 -10t8.5 -3t10 -2.5t23.5 -6.5q18 -7 40 -16q20 -9 32 -3q23 5 -7 12q-11 2 -54 27t-55.5 27.5t-37.5 6.5h-5l-20 3h15 q57 2 69 -10q7 -7 75 -34q32 -9 32 -2q-16 57 -16 114q0 71 16 152q5 25 25 119q23 84 22 168q0 30 -5.5 31t-23.5 -15t-52 -57q-41 -43 -56 -52t-40 -7q-36 2 -36 18q-5 23 100 141q98 109 109 141q0 12 11 21zM787 737q39 14 44 9q2 -5 13 0q16 5 18.5 -2t-11.5 -16 q-7 -2 -15 -7.5t-10 -10.5q-18 -11 -21.5 -9t12.5 16q9 11 9 16q-5 0 -9 -5q-7 0 -23 -2q-16 0 -27 -9q-5 0 -11.5 -4.5t-14.5 -6t-8 1.5q-1 9 54 29z" />
<glyph unicode="j" horiz-adv-x="987" d="M446 1495q20 5 59 5q41 -5 64 -12q73 -27 86 -82q5 -18 5 -67t-2 -51q-9 -2 -12 9v30q0 41 -11 61q-34 77 -64 77q-5 0 -8 -5.5t-15 -0.5q-16 7 -13 0q0 -2 7 -5q16 -11 41 -40.5t29 -45.5q2 -7 4.5 -17.5t-0.5 -16.5l-2 -7q-5 0 -4 2q0 27 -32 64q-11 16 -38.5 36.5 t-41.5 24.5q-16 7 -27 -2q-7 -7 -16 -17.5t-11 -10.5q-7 -5 2 -9q25 -18 30 -38q0 -9 -19 -25q-18 -16 -29 -23q-18 -9 -18 -25q0 -9 6.5 -28.5t11.5 -21.5q9 -5 18 -14q23 -18 64 -34q14 -5 38 -5q18 0 42 6t24 8t-13 7q-14 2 -48 20q-64 36 -84 44q-18 5 -5 11q2 0 23 -9 q66 -32 111 -41q27 -5 32 -5q2 0 -20.5 18.5t-50 35.5t-33.5 19q-11 5 -28.5 17.5t-17.5 16.5q0 2 18 -6q18 -11 25 -10q14 2 53 -25q23 -18 50 -32.5t48.5 -14.5t21.5 -5q0 -2 -8 -9t-12 -7q-16 0 9 -11q11 -5 7 -9q0 -5 -46 -25q-11 -2 -32 -9q-73 -11 -125 6 q-23 9 -77 55q-11 9 -25 24t-14 34t19.5 31.5t19.5 17.5q0 9 -12 -2q-7 -5 -10 -5t-3 -2t-8 -2t-6 6q5 11 9 23q18 25 7 43q-11 23 2 48q14 23 55 32zM451 1463q0 5 -2.5 5t-12.5 -7l-15 -10.5t-2.5 -11.5t4.5 -10q9 -5 12 2q0 9 8 19.5t8 12.5zM428 1374q0 18 -7 3 q-9 -11 0 -14q5 2 7 2v9zM494 1409q-11 7 11 -3q9 -7 25 -32t15 -30.5t-5.5 -6.5t-16.5 24q-18 37 -29 48zM583 1058q30 7 50 0q11 -2 13 -11q2 -7 2.5 -115t-2.5 -142q-2 -41 -4 -60l2 -29h2q32 7 91 14q75 5 121 25q23 7 32 -3q7 -7 2 -18t-1.5 -14.5t3.5 -27.5t-4 -38 q-14 -52 -59 -88q-41 -25 -80 -41q-9 -2 -19.5 -7t-32 -7t-39.5 -1t-18 6t38 9q43 5 44 16h-6h-16t-15 -3q-14 -7 -29 -6q-34 -7 -46 -23q-5 -9 -4 -23q-5 -18 -7 -30q-2 -9 -9 -43q-20 -112 -44 -175q-7 -30 -4.5 -35.5t27.5 -5.5q18 0 20.5 -1t2.5 -6q0 -9 -7 -13 q-7 -5 -11 -19q-16 -32 -62 -63q-25 -18 -32 -25q-5 -9 -16 -30q-32 -50 -58 -63.5t-94 -13.5q-46 0 -63 5.5t-23 21.5q-2 2 0 11t6 9h6h16h17q41 5 62 10q20 7 27 13q30 20 29 30q0 2 -13 0q-16 -2 -41 -2q-25 2 -42 12t-36 28q-43 43 -54 46l-5 2q5 5 27.5 -8.5 t34.5 -29.5q32 -32 75 -37q23 -5 29 -4q5 5 -2 9t-14 4t-36.5 24t-29.5 31q0 2 23 -16q36 -27 59 -34l16 -2l-9 9q-14 9 -18 16q-5 0 -10.5 4.5t-9 9t-10.5 8.5q-14 14 -12.5 15t44.5 -31t48 -34q9 -5 32 -4.5t32 4.5q41 18 63 44q14 14 10 13q-5 2 -10 -4q-16 -9 -55.5 -16 t-60.5 -3q-16 2 -100 44q-11 5 -46.5 4.5t-57.5 -4.5q-30 -9 -30 -5q0 9 37.5 17t64.5 8q39 5 76 -18q20 -14 40 -21q23 -9 46 -9q25 0 28.5 3.5t1.5 3.5q-5 0 -39 18t-43 23q-11 5 -21 7q-7 2 -11 2l27 -2q2 0 9 -2q18 -7 28 -9q11 -5 34 -16q34 -20 50 -12q5 2 0 7t-8.5 5 t-30.5 11q-39 18 -77 27q-7 0 -34.5 14t-77.5 14l-39 2q5 2 51 2q43 2 56 -7q32 -16 76 -27q32 -7 66 -20q30 -11 37.5 -12.5t23.5 7.5q18 9 -5 9q-18 0 -100 46q-68 36 -111 41q-41 5 -91 -5h-7q5 5 11.5 5t20.5 4q34 9 91 0q30 -5 70 -23q27 -11 30.5 -11t5 9t8.5 25 q25 100 41 200q5 16 4 32q0 18 5 28q7 9 16 95q11 100 16 143q14 116 -5 130q-7 5 -18 0q-20 -9 -34 -16q-75 -34 -101 -16q-9 7 -9 9q0 14 57 64q89 84 98 96q14 27 37 36zM774 696q-52 0 -66 3q-11 0 -38.5 -6t-36.5 -10q-11 -7 -21 -14q-9 -7 -14 -7q-11 0 -4 -9 q5 -7 -5 -25q-20 -41 -6 -43q5 0 11 4q20 5 20 -4q-2 -7 7 -5q0 2 5 5q16 7 34 20q41 32 55 32q5 0 16 6t13 6t16 5.5t31 6.5t37 17q25 20 7 21q-6 -3 -61 -3zM856 644q-9 11 -28 0q-16 -7 -59 -9q-57 -7 -102 -41q-36 -30 -55 -30q-2 0 -2 5q0 16 -23 0q-9 -7 -11 -11 q-7 -9 -8 -20.5t-8 -20.5q-5 -7 -2 -12q2 -16 29 2q20 11 57 21q55 16 98 18h27q5 0 24 15t26 22q11 14 10 17t-21 1q-55 -5 -105 -41q-23 -18 -25 -17t8 12.5t25 24t26 16.5q18 7 18 9.5t32 4.5q48 2 64 16q12 9 5 18zM223 246q5 -2 7 0h-5h-2zM200 239v-2q11 2 16 4l-2 2 q-7 1 -14 -4zM159 228q30 11 30 6q0 -2 -9 -4t-35.5 -14.5t-30.5 -17.5q-18 -14 -7 -25q9 -7 27 2q11 7 11.5 7t0.5 -7q-5 -20 22 -29q14 -5 9 -9q-9 -2 -20 -3q-11 2 -20.5 12.5t-19.5 13t-18 8t-8 7.5q0 7 11.5 19.5t22.5 17.5q14 7 34 16zM250 146q0 2 8 -1.5t14 -9 t8 -8.5l-18 10q-12 7 -12 9z" />
<glyph unicode="k" horiz-adv-x="1078" d="M435 1490q11 9 32.5 4.5t28.5 -15.5q5 -14 -32 -175q-11 -59 -16 -73q-11 -64 -68 -268q-109 -400 -98 -408q5 -5 9 -4q39 9 164 134q123 116 223 296q43 80 62 91q11 11 28 9t19 -14q11 -25 -41 -109q-143 -248 -286 -364q-64 -55 -62 -62q0 -14 21.5 -25t33 -11 t109.5 -48q237 -116 360 -159q39 -14 52.5 -26.5t13.5 -30.5q0 -52 -48 -50q-75 5 -228 91q-36 18 -129.5 59t-147.5 55q-57 18 -123 18q-64 0 -75 -9q-9 -11 -26.5 -69t-21.5 -90q-2 -39 -14.5 -49.5t-47.5 -10.5q-27 0 -31.5 2.5t-4.5 20.5q2 20 14 53q16 43 34 111 q0 5 38 139q34 114 62 232q39 143 43 159q48 152 71 242q23 86 25 104q30 132 34 169q9 72 23 81z" />
<glyph unicode="l" horiz-adv-x="828" d="M441 1495q11 11 27.5 5.5t20.5 -23.5q9 -11 9 -36.5t1.5 -25.5t7.5 7q11 11 27.5 18t18.5 3q2 0 0 -2.5t-6.5 -6t-11.5 -7.5q-27 -18 -69 -71q-34 -43 -70 -63q-55 -30 -23 -35q2 -2 7 -2q39 -7 39 -18l16 -9t18 -9q25 0 70 52q11 14 19 14q14 0 52 36q14 11 18.5 8 t23.5 2.5t35 16.5q27 30 32 55q2 18 -3.5 20.5t-19 2.5t-34 9t-40 11.5t-21.5 3.5t2 3q18 11 55 -4q25 -11 63 -3q14 2 21 -2q11 -7 2 -21q-7 -9 -1 -20t3 -18q-5 -16 -13 -37q-11 -36 -36.5 -70t-41.5 -43q-14 -7 -27 -14q-11 -7 -14 -7q-2 0 -20 -9q-16 -9 -36 -11 q-20 -7 -23 -9q-7 -2 -32 0q-23 2 -27.5 -0.5t-6.5 -22.5t-7 -32q-5 -36 -11 -66q-2 -14 -5 -36q-18 -75 -27 -119q-2 -11 -7 -38q-5 -7 -7 -22l-2 -15q0 -5 -10.5 -45.5t-10.5 -45.5t-2 -14t-5.5 -27t-8.5 -34q-5 -23 -6 -34q-14 -57 -30 -157q-2 -23 9 -27q2 0 1 -6 t-40 -6q-66 0 -102 21q-27 20 -31.5 15.5t1.5 -38.5q2 -20 -20 -46q-16 -16 -9 -27q2 -5 4.5 -12.5t-2.5 -7.5q-11 -5 -27 16q-7 7 -5 22q0 23 19 44q9 7 9 29.5t2 29.5q7 20 34 20q11 0 30 -13q34 -30 43 -23q5 2 4 9q2 18 7 29q7 68 18 114q0 2 3.5 18t5 23t6 20.5 t4.5 16.5q2 18 6 25q2 11 3 18q5 14 9 34q11 39 18 73q5 11 5 17t2 19q5 11 11 39l9 43q5 20 9 43q0 2 7 55q5 5 6 14t2 15.5t1 11.5q7 32 7 34t3.5 21.5t3.5 26.5q7 27 7 39q0 2 -1 4t-13 5q-16 2 -35 14.5t-19 21.5q5 18 38 32q41 18 46 25q5 5 16 73q11 82 22 93z M678 1318q-5 7 -25 0q-5 -2 -23 -2.5t-45 -18.5q-46 -25 -57 -48q-7 -14 -25 -29.5t-16 -20t25 -4.5t33 6.5t15 6.5q11 0 53 29.5t49 41.5q16 37 16 39zM626 1393q16 9 23 4q2 -7 13 0q20 7 21 -9q0 -7 -19.5 -20.5t-30.5 -22.5q-7 -7 -15 -7t1 7q11 14 18 20q5 9 3.5 11.5 t-11.5 -2t-21.5 -4.5t-38.5 -16t-32 -13.5t9 13.5q21 14 80 39zM451 473q7 9 15 7q9 -7 3 -27q-2 -11 5.5 -25t3.5 -23q-5 -32 -23 -52q-9 -9 -9 -14q0 -20 -25 -50q-14 -14 -8 -14t42 9q50 11 87 39q48 36 66 43q32 18 45 7q9 -9 10 -30.5t-8 -39.5q-14 -30 -54.5 -56 t-90.5 -42q-2 0 -13.5 -3.5t-14.5 -3.5q-52 -18 -132 -11q-48 0 -66 6.5t-36 0t-41 -6.5q-25 0 -39 6q-48 34 -56 87q-2 23 0 32q9 18 20 9q5 -2 5 -25q0 -43 34 -71q20 -16 40.5 -13.5t31.5 4.5q25 9 41 34q27 50 46 46q11 -5 -5 -23q-27 -32 -27 -41q0 -7 13.5 -7t23 7 t10.5 7t17 11q16 7 34 37q16 25 16 32q0 11 -43 -12q-25 -16 -29.5 -11.5t4.5 11.5t19 11.5t17 11.5q7 2 11 2q7 0 18.5 10.5t18.5 21.5q30 52 18 68q-5 7 -10.5 2.5t-39.5 -2.5q-43 5 -43 10.5t32 5.5t66 25zM407 410q32 9 32 0q0 -2 -7 -12l-13 -13q-16 -20 -53 -35 q-16 -9 -20 -9q-2 0 -37 -13q-14 -9 -18 -9l16 13q2 0 29.5 15t32.5 19q9 7 11 7q7 0 11.5 6t-0.5 8q-2 7 -6 4q-9 0 -23 -4q-16 -2 -30 -5l-54 -7v3q7 5 14.5 4.5t25 5.5t34.5 8t28 7t27 7z" />
<glyph unicode="m" horiz-adv-x="1267" d="M874 1158q25 11 38 12q16 2 48 -14t46 -27q25 -30 4 -253q-25 -266 -18 -350q7 -50 12.5 -64t37.5 -43q59 -52 80 -71q55 -43 20 -73q-30 -25 -91 3.5t-116 94.5q-25 32 -29.5 50t-2.5 103q0 275 28 432q5 48 -2 81t-28 37q-20 2 -80.5 -60.5t-90.5 -118.5 q-48 -84 -86 -324q-52 -303 -66 -320q-11 -14 -31.5 -13t-29.5 15q-7 16 -6 162.5t12 228.5q11 105 18 165.5t7 98t-4.5 47.5t-15.5 8q-30 -7 -90 -111.5t-122 -255.5q-143 -366 -164 -395q-23 -32 -42 -23t-19 50q0 34 36 143q98 282 98 494q0 86 -22 130q-18 34 -18.5 43 t8.5 20q18 18 29.5 15t36.5 -28q48 -50 48 -135q0 -39 9 -45q7 -5 55 50q139 166 209 166q25 0 36.5 -12.5t18.5 -51.5q9 -39 16 -46.5t18 2.5t46 54q73 93 159 129z" />
<glyph unicode="n" horiz-adv-x="1217" d="M162 1101q16 2 59 5q100 0 145 -82q11 -27 12 -107q0 -77 -7 -80q-2 0 -3.5 1.5t-1.5 7v17v24.5q0 55 -13 94q-39 98 -66 77q-7 -7 -16 0q-32 16 4 -23q57 -71 60 -123l6 -31l-18 36q-14 43 -36 68q-18 27 -44.5 50t-37.5 23q-7 0 -28 -29q-18 -27 -9 -32t19.5 -21 t10.5 -27t-35.5 -47.5t-35.5 -43.5q5 -48 44 -84q73 -71 141 -41l23 9l-26 16q-32 16 -78.5 47.5t-46.5 34.5q0 11 50 -19q77 -41 112 -40q2 0 -17.5 19t-49 45.5t-40.5 30.5q-30 20 -34 30q-2 7 1 8t10 -8q9 -5 18 -8.5t12.5 -2t3.5 5.5q0 11 -11 41t-18 43q-11 16 -10 16 t12 -11q20 -18 34 -50t5 -43q-5 -9 0 -10q7 0 38 -27q77 -68 82 -64q7 7 12.5 57t5.5 75q0 32 -11 57q-9 30 0 46q14 39 37 27q27 -9 38 -120q5 -52 16.5 -59t33.5 27q30 36 79 82.5t83 67.5q80 48 155 41q32 0 42 -3.5t24 -21.5q18 -16 20 -32t0 -89q-7 -132 -34 -300 q-5 -11 -5 -21v-11q5 0 21 14q20 18 32 18q14 0 -12 -21q-48 -36 -84 -91q-11 -18 -50 -41q-41 -23 -42 -28.5t33 -14.5q14 -2 34 -20q18 -14 25 -14q30 0 62 41q18 20 43 34t38.5 25t18.5 11q23 -9 59 23t36 59q0 11 -3.5 13.5t-16.5 2.5q-18 0 -46.5 12.5t-47.5 12.5 l-11 5l9 2q11 9 43 -2q39 -11 66 -7q23 2 30 -3.5t0 -19.5q-7 -9 0 -16q11 -20 -30 -97.5t-56 -77.5q-9 0 -23 -9q-57 -41 -121 -43h-36l-5 -52q-2 -55 16 -71q14 -20 39 -23q41 -7 39 -38q-7 -32 -105 -28q-55 2 -63 17t-8 86q0 80 3 118q7 36 -7 43q-46 14 -53 27 q-14 16 39 41q30 14 34.5 21t8.5 36q7 25 14 89q5 41 20 150q30 180 7 198q-18 16 -70.5 -6.5t-102.5 -68.5q-102 -98 -168 -259q-30 -66 -59.5 -166.5t-27.5 -113.5q5 -9 26.5 -9t21.5 -5q-2 -7 -19 -7t-43 6t-38 13q-16 11 -19.5 8.5t-3.5 -18.5q2 -20 -9 -36 q-5 -9 -6 -26t4 -26q7 -2 7 -24t16 -40q39 -34 86 20q30 30 55 44q23 9 41 33t16 35q-5 11 -22 6.5t-33 2.5q-11 5 -11 7t9 2q18 0 41 12q25 14 25 11q2 -5 4 -30q7 -27 -2 -43q-11 -16 -20 -34q-5 -16 -31 -43.5t-31 -27.5q-16 0 -7 7q2 7 12 7q9 2 26 25t12 27q0 2 -27 -6 q-11 -5 -25 -18.5t-19.5 -26t1.5 -16t-11 -8.5q-43 -20 -73 -13q-27 2 -30 -5q-7 -5 -20.5 -3.5t-22.5 12.5q-11 18 -6.5 54.5t40.5 166.5q9 41 25 112.5t27.5 127.5t8.5 56l-31 -9q-112 -34 -196 57q-34 39 -43 54.5t-9 38.5q0 25 20 43q23 23 18 23q-2 0 -18 -9 q-25 -18 -20 4q5 7 9 19q18 41 7 66t6 57.5t44 39.5zM162 1038q16 25 9 29q-2 2 -15 -13.5t-13 -24.5q0 -25 16 0q3 7 3 9zM148 938q9 9 0 13q-5 7 -9 -2q-2 -9 -2 -14q2 -6 11 3zM1061.5 521q-3.5 2 -7.5 2q-2 0 -32 -4q-27 -2 -69.5 -28.5t-42.5 -39.5q0 -7 -23 -30 l-22 -25h25q41 0 96.5 34t67.5 66q11 23 7.5 25zM983 587q43 23 48 11q7 -5 13 0q18 11 28 -2q0 -2 -2 -7q-9 -14 -64 -47l-7 2q5 7 20 23q11 11 0 11q-2 0 -13 -2q-23 -2 -51.5 -17t-35.5 -15q-5 0 12 11q20 16 52 32zM469 339q52 14 53 12.5t-3 -16.5q-11 -16 -62 -37 l-11 -2q2 5 23 16q20 11 23 20h-7q-9 -2 -39 -4q-25 -5 -2 2q9 2 25 9z" />
<glyph unicode="o" horiz-adv-x="928" d="M497 1169.5q40 6.5 94.5 2t117 -43t94.5 -96.5t33 -153.5t-33 -245.5q-32 -132 -85.5 -245t-155.5 -188q-55 -32 -113 -29.5t-95.5 11.5t-62.5 21q-116 61 -159 175q-41 137 -23 268.5t66 234.5q57 118 114 173.5t112.5 82t95.5 33zM495 1069.5q-58 -11.5 -131 -86.5 q-134 -137 -161 -385q-7 -139 27 -211q39 -64 86.5 -91t104.5 -27q77 -2 133 54.5t89 138.5t60 182t34 207q0 89 -16 126.5t-46.5 58t-76 33t-103.5 1z" />
<glyph unicode="p" horiz-adv-x="978" d="M214 25q66 266 80 492q0 5 13 248q9 137 7 152q-7 41 -57 2q-11 -7 -27 -22q-71 -61 -100 -62q-25 0 -32 13.5t7 36.5q11 18 68 82q68 77 109 148q9 11 15 14.5t28 3.5q30 0 39 -9t25 -45q20 -64 22.5 -159.5t-8.5 -314.5q-5 -80 -2.5 -106t15.5 -28q27 -5 98 36 q107 66 197 215.5t74 233.5q-16 61 -70 91q-34 16 -106 18t-115 -14q-55 -18 -71 12q-11 20 -7 32q20 34 105 43q46 7 71 7q107 2 175 -19q68 -20 102 -113q11 -27 14.5 -81t-5.5 -85q-16 -86 -113.5 -216t-181.5 -178q-50 -32 -162 -59q-20 -7 -26 -18.5t-15 -56.5 q-7 -39 -36 -189q-16 -89 -37 -150q-2 -9 -16 -60q-23 -98 -61 -95q-71 2 -16 200z" />
<glyph unicode="q" horiz-adv-x="1112" d="M559.5 1202.5q38.5 -3.5 67 -19.5t60.5 -41q32 -20 59 -32q27 5 46 -6q20 -11 -25 -137q-66 -177 -84 -357q-14 -143 -9 -146q5 0 18 11.5t34 11.5l14 -2q-2 -7 -32 -23q-36 -27 -137 -137q-18 -18 -54 -38q-32 -16 -60 -34q-18 -11 -19 -12.5t6 -8.5q9 -11 29 -11 q32 0 66 -23q20 -16 34 -21q43 -16 112 62q20 20 62.5 39.5t58.5 37.5q20 14 27 9q7 -9 37.5 2.5t51.5 27.5q48 43 50 82q5 18 0 22.5t-32 6.5q-27 0 -71 16q-41 14 -63 14l-16 2q0 5 4 7q27 16 84 -7q25 -11 42.5 -11t62.5 7q23 2 31 -5t1 -25q-9 -16 -1 -32t-6 -44 t-18 -44q-11 -36 -53.5 -87.5t-64.5 -58.5q-20 -9 -37 -18q-23 -18 -78.5 -36.5t-94.5 -18.5q-16 0 -19.5 -3.5t-5.5 -30.5q-2 -52 27 -125q41 -82 30 -123q-2 -16 -25 -16q-20 0 -32.5 9t-31.5 41q-57 89 -57 223q0 32 -4.5 40t-22.5 26q-36 32 -61 32q-16 0 -50 18 q-32 14 -32 30q0 23 59 43q27 11 71.5 35t51.5 29q9 11 27 243q9 121 -1 129t-28.5 -2.5t-43.5 -33.5q-55 -52 -123 -86q-36 -18 -66.5 -16t-57 27t-35.5 51.5t-14 85.5q5 91 44 177q57 102 113.5 164t101 88t83 22.5zM617 1097q-93 18 -153 -39q-48 -46 -95.5 -119.5 t-63.5 -132.5q-9 -34 -5 -64q14 -52 37 -59q7 -2 25 6q30 9 110.5 70.5t121.5 102.5q34 34 66 85.5t32 74.5q-7 52 -75 75zM933 309q-7 7 -52 0q-25 -5 -34 -2q-7 2 -55 -23t-66 -38q-18 -14 -25 -30t-36.5 -41t-26 -30.5t39.5 -5.5q71 0 180 73q48 34 64 63t11 34zM812 403 q46 20 56 22.5t19 -6.5q5 -5 19 4q11 5 22 3q36 -11 -18 -48q-36 -20 -52 -32q-18 -11 -21 -9q-2 7 21 32t20 25l-11 -3q-20 -5 -39 -4q-20 -2 -66 -23q-43 -18 -45 -16q-10 7 95 55zM141 125q20 18 66 -9q25 -18 80 -27q46 -9 43.5 -15t-59.5 1q-50 2 -75 18t-32 14 t-2.5 -27t-11.5 -44q-18 -18 -11 -34q2 -14 -5 -16t-22 12q-20 23 9 57q14 11 13.5 37t6.5 33zM441 98q30 11 35.5 10t3.5 -19q-5 -23 2 -23q5 -5 4 -22t-6 -33q-7 -5 -20 -34q-16 -25 -44.5 -55.5t-42.5 -37.5q-18 -7 -23 -5q-7 5 12 16q16 7 37.5 32t21.5 32q0 20 -59 -20 q-25 -16 -37 -30q-16 -30 -4 -30q23 0 -12 -11q-11 -7 -25 -11q-102 -36 -150 38q-11 25 -11 45.5t11 23.5q7 0 9.5 -2.5t2.5 -13.5q0 -18 11 -39q27 -46 66 -46t75 41q23 32 43 39q41 25 66 37q18 9 34 32.5t16 37.5q0 16 -6.5 16h-36.5q-43 0 -48 5q0 7 28 9q24 4 47 18z M403 43q61 23 34 -13q-5 -2 -7 -7q-36 -34 -91 -43q-18 -7 25 18q41 23 41 29h-10t-21.5 -2t-34.5 -7q-20 -7 -23 0l14 9q11 2 32 5q16 4 41 11z" />
<glyph unicode="r" horiz-adv-x="798" d="M676 1081q16 11 24 1t8 -44q0 -30 -6 -43.5t-31 -31.5q-66 -52 -84 -76q-64 -71 -125.5 -187.5t-83.5 -201.5q-11 -57 -16 -72q-5 -30 -7 -41q-7 -34 -9 -46q-30 -130 -52 -139q-9 -7 -23 -3.5t-22 25t1 201.5q7 239 -11 307q-16 59 -48 119.5t-66 110.5q-34 41 -18 53 q39 30 100 -48q39 -43 96 -162q32 -61 38.5 -69t29.5 33q9 9 29 39q71 109 117 154q61 64 104 87q11 7 28 20q7 2 14.5 8t12.5 6z" />
<glyph unicode="s" horiz-adv-x="1003" d="M189 1267q64 11 118 -20q25 -18 36.5 -42t18.5 -72q5 -55 -2 -70q-7 -11 -7 7q-2 7 -3 29q-7 71 -38 116q-18 27 -34 14q-5 -5 -16 0q-9 5 4 -12q5 -2 7 -4q16 -23 34 -50q25 -50 14 -68q-5 5 -5 15q0 20 -31.5 61.5t-56.5 50.5q-23 11 -44 -18q-7 -11 -7 -16t12 -16 q16 -18 16 -25q0 -11 -30 -37q-20 -23 -24.5 -33t4.5 -35q2 -16 26 -36.5t49 -33.5q32 -14 77 2q11 2 11.5 5.5t-11.5 8.5q-18 9 -46.5 26t-50.5 32l-21 14q5 2 54 -20q52 -25 73 -30h14q-2 5 -32 32q-34 32 -52 41q-30 18 -34 30q7 0 18 -5q11 -9 21.5 -9t35.5 -20 q55 -50 86 -53q16 -5 18.5 -6t-7 -10t-9.5 -10t9.5 -6.5t7 -8t-18.5 -11.5q-46 -27 -100 -27q-57 0 -109 52q-73 71 -30 105q16 14 12 18q0 2 -12 -5q-14 -7 -16 -4q-2 0 9 29q11 23 5 39q-14 32 2 54.5t55 31.5zM175 1217q11 18 9 19q-9 0 -19 -9.5t-10 -13.5q0 -23 18 0 q0 2 2 4zM160.5 1135.5q5.5 6.5 3.5 11.5q-7 2 -9 -11q0 -7 5.5 -0.5zM232 1151q-9 25 -4 25q7 -5 22.5 -35.5t13.5 -33.5t-8 1.5t-6 8.5t-18 34zM626 1124q91 11 143 5q39 -9 -2 -28q-18 -9 -48 -13q-36 -7 -92 -36.5t-90 -61.5q-41 -34 -69.5 -91t-28.5 -96 q0 -23 21.5 -40t92.5 -48q139 -68 177 -98q16 -14 16 -17.5t-9 -7.5q-43 -27 -84 -82q-14 -20 -48 -39q-36 -23 -38.5 -26.5t29.5 -9.5q16 -5 32 -19q14 -11 23 -11q25 0 54 34q14 18 37 30q25 11 37.5 21.5t14.5 7.5q23 -7 55 20.5t32 50.5q0 11 -3.5 13.5t-10.5 2.5 q-18 0 -44.5 10t-39.5 10q-11 0 -11.5 1.5t6.5 5.5q11 5 39 -4q32 -11 57 -5q25 2 31.5 -3.5t-2.5 -14.5q-2 -9 0 -16q9 -18 -27 -84t-53 -66t-31 -44q-23 -84 -109 -143q-41 -32 -70.5 -41t-91.5 -9q-96 0 -150 27q-20 11 -54.5 53.5t-41.5 65.5q-5 11 3 18q18 16 97 -41 q55 -34 80 -44.5t64 -12.5q41 0 63.5 9t54.5 46q59 64 55 70q-7 2 -34 5q-30 11 -50 29q-16 11 -28 12q-9 0 -30.5 11t-21.5 16q0 14 57 41q52 27 66 43q11 14 11 17.5t-9 7.5q-16 14 -161 87q-96 46 -119 65t-23 53q0 109 39 184q36 66 103.5 119.5t133.5 60.5z M854.5 489.5q-3.5 2.5 -5.5 2.5t-30 -3q-25 -7 -62.5 -27.5t-37.5 -33.5q0 -2 -18 -23l-25 -20h25q36 0 86 28t62 56q9 18 5.5 20.5zM783 546q41 18 45 9q5 -5 16 0q14 9 18 -2q5 -2 0 -2q-7 -11 -59 -41h-2q0 5 16 20q9 11 0 12q-2 -2 -11 -3q-23 -5 -49.5 -16t-28.5 -11 l18 16q17 7 37 18z" />
<glyph unicode="t" horiz-adv-x="862" d="M441 1472q9 9 25 9q32 0 38 -23.5t-9 -125t-17 -124.5q-16 -102 -21 -148v-22h57q64 2 148 20q55 11 82 7q11 0 19 -9t4 -18q-7 -20 -80 -57q-68 -30 -132 -39q-80 -9 -93 -20q-9 -9 -11 -28q-20 -86 -48 -316q0 -11 -3.5 -42t-3.5 -38q-11 -118 23 -168q7 -16 26 -31 t28 -15q14 0 42.5 20.5t46.5 43.5t73 118q20 39 32 51q18 20 36 14.5t18 -33.5q0 -34 -23.5 -91t-55.5 -98q-34 -50 -68.5 -80.5t-67.5 -37.5t-58 -2.5t-48 18.5q-52 34 -77 89q-20 41 -21.5 84t12.5 143q5 30 9 69q2 27 9 70q20 157 22.5 199t-1.5 45q-39 -2 -129 2t-101 7 q-32 7 -30 36q5 18 34.5 25t129.5 14q75 7 96 23q16 14 25 70q7 39 12 82l6 43q5 30 9.5 63t6.5 58q2 18 9 55q11 74 20 88z" />
<glyph unicode="u" horiz-adv-x="955" d="M203 1108q57 52 77 53q20 0 23.5 -15t-0.5 -67q-7 -59 -9 -69q0 -9 -12 -109q-11 -112 -10 -280t20.5 -271.5t73.5 -94.5q36 0 106 74t133 199q55 123 78 218q18 73 43 196q20 98 41 153q14 39 24 46.5t40 7.5q23 -2 27 -5.5t4 -14.5q2 -27 -20 -151q-64 -323 -64 -502 q-2 -107 9 -167q9 -50 3.5 -71.5t-22.5 -35t-43 -9t-42 40.5q-14 43 -19 112q-5 82 -19.5 65t-39.5 -47q-89 -114 -132 -155q-46 -41 -107 -41t-90.5 27.5t-52.5 84.5q-27 68 -25 200q-9 196 -2 331.5t7 153.5v48q-9 5 -55 -38.5t-51.5 0.5t106.5 133z" />
<glyph unicode="v" horiz-adv-x="1053" d="M831 1165q5 7 27 7q39 0 44.5 -29.5t-19.5 -113.5q-2 -14 -14 -60q-23 -102 -82 -280q-14 -41 -34 -111q-34 -107 -80.5 -202.5t-83.5 -122.5q-34 -32 -79 -32q-23 0 -49 16t-40 43t-23 16q-2 -5 -19 -10.5t-17 -1.5q-5 0 -0.5 5t13.5 7q14 9 37 36.5t18 31.5 q0 2 -34 -11q-32 -16 -52 -39q-25 -34 -5 -34q14 0 0 -7q-7 -2 -16 -7q-20 -2 -32 -11q-48 -20 -82 0q-50 32 -50 82q0 27 9 27q7 0 8 -2t1 -16q0 -36 32 -64q16 -11 44 -11q39 5 68 43q18 23 27 25t21 9q9 9 35 23t44 41t16 37.5t-32 10.5q-34 0 -102 4q-82 5 -105 16 q-23 18 -29.5 15t-4.5 -19q5 -20 -3 -37.5t-17 -17.5q-5 0 -3 -23q9 -32 -16 -9q-20 18 3 55q11 16 11 43q0 23 11 30q30 14 46 -3q23 -27 91 -36q20 0 18 7q0 5 -9 45q-5 59 -11 80q0 5 -6 43.5t-8 58.5q-11 75 -18 100q-5 23 -7 71q-11 75 -36 75q-7 0 -41 -32 q-30 -32 -44.5 -40t-26.5 4q-34 23 12 88q32 48 52 82q86 150 132 91q30 -34 48 -216l16 -111q0 -2 5.5 -43t7.5 -66q23 -184 34 -217q2 -20 25 -6q16 11 20.5 8.5t4.5 -22.5q-7 -18 0 -21q16 -7 -4 -50q-5 -14 4 -32q25 -39 41 -38q20 0 67 86.5t88 200.5q82 223 106 308 t44 210q1 18 3 23zM655 1149q11 7 44 -4q23 -7 52 -5q20 2 28 -2.5t2 -15.5q-7 -5 0 -14q7 -16 -27.5 -78.5t-50.5 -62.5q-7 0 -20 -9q-46 -30 -96 -32q-55 -7 -93 25q-18 16 -30 16q-9 0 -28.5 10.5t-19.5 12.5q0 16 57 41q43 20 87.5 63.5t57 43.5t-0.5 -9q-5 0 -9 -5 q-43 -32 -76 -77q-9 -14 -43 -32t-36 -25q-2 -2 1 -2t10 -3q32 -7 48 -20q16 -14 23 -14q27 0 52 34q14 16 39 28q23 9 34 19t14 10q20 -5 50.5 20.5t30.5 45.5q0 11 -1 12.5t-12 1.5q-14 0 -40 10t-40 10q-7 2 -7 7zM730.5 1034.5q-2.5 3.5 -4.5 3.5q-5 0 -27 -7 q-25 -2 -61.5 -22.5t-36.5 -32.5q0 -7 -18 -25l-21 -18h21q34 0 84 27.5t61 52.5q5 18 2.5 21.5zM662 1088q41 18 46 11q2 -7 11 0q14 2 21 -4q2 -2 0 -5q-7 -11 -57 -41q-7 -2 -5 0q0 7 16 23q11 9 2 9q-2 0 -11 -2q-20 -2 -47.5 -15t-29.5 -13l22 19q18 9 32 18zM407 437 q43 14 46 7q0 -9 -21 -25q-25 -25 -75 -44q-23 -9 -25 -9l25 19q16 9 28.5 15.5t19.5 13.5l7 7q-2 2 -27 0q-23 -5 -53 -7q-14 0 -18 -4q-5 0 7 4q5 2 20 5q32 7 66 18zM931 366q23 9 27.5 4.5t4.5 -29.5q0 -32 -5 -54q-5 -14 -27.5 -34.5t-47.5 -31.5q-36 -16 -57 -7 q2 7 21 7q14 0 18 2q0 7 -5 7q-7 0 -13 -5q-25 -2 -55 -36q-11 -16 -23 0q-9 7 -11.5 20.5t4.5 15.5q7 5 7 28q0 18 9 39.5t18 21.5q7 0 -2 -16q-9 -14 -7 -20q5 -7 23 -5t27 11q32 27 66 37q20 5 28 16q7 7 -7 7h-32q-46 0 -66 -7q-18 -5 -18 -2q0 14 73 22q34 7 50 9z M947 309q-7 5 -28 0q-7 -2 -34 -6q-23 -7 -48 -25q-23 -18 -30.5 -15t-14.5 -3.5t-7 -16.5q0 -11 -4 -20q-11 -7 0 -7q7 5 27 9q32 16 61 18q34 2 55 28q7 7 5.5 8t-14.5 1q-20 0 -46 -18q-20 -11 -20 -12q0 2 4 5q9 16 29.5 26t34.5 10q11 0 21.5 6.5t8.5 11.5z" />
<glyph unicode="w" horiz-adv-x="1287" d="M1083 1151q5 7 43 7q48 0 59.5 -22.5t11.5 -120.5q0 -212 -55 -435q-14 -57 -71.5 -190t-82.5 -165q-48 -59 -121 -43q-55 11 -82 43t-52 116q-18 48 -34 144q-20 93 -28 102q-11 18 -34 -34q-11 -30 -32 -87q-30 -91 -56 -146.5t-49.5 -83t-47.5 -27.5t-52 25 q-50 43 -83 119.5t-62 233.5q-23 148 -23 287q0 50 -41 -20.5t-65 -74t-30 10.5q-5 16 16.5 71.5t54.5 112.5t64 93.5t53 40.5q23 7 31 -19t13 -117q7 -100 18 -242.5t39 -278.5q39 -107 63 -98q23 7 112 268q71 218 93 344q5 50 39 46.5t43 -48.5q7 -36 20 -185 q18 -146 32 -232q11 -80 45.5 -175.5t52.5 -95.5q20 0 71.5 108.5t83.5 226.5q46 168 61.5 316t-11.5 194q-14 26 -7 31z" />
<glyph unicode="x" horiz-adv-x="1140" d="M344 1254q61 11 102 -14q36 -14 47.5 -40t11.5 -78q2 -52 -4.5 -54.5t-4.5 24.5q2 25 -9 61.5t-25 57.5q-11 16 -34 16l-21 -5l16 -16q50 -52 50 -91v-14l-9 21q-11 34 -45 69.5t-50 25.5q-7 -2 -19 -18q-9 -14 3 -25q25 -27 -12 -61q-18 -18 -20 -25t0 -25 q7 -36 48 -60.5t84 -12.5q18 7 9 14q-18 0 -96 56q-11 9 -9 10q9 2 34 -16q55 -27 80 -28q16 0 -48 53q-14 11 -23 13q-23 11 -25 23q-2 2 -1 4.5t11 -6.5q14 -9 22 -9q9 0 28 -12q64 -59 82 -52q11 2 13 -3.5t-7 -14.5q-11 -7 0 -12q18 -7 -25 -29q-32 -14 -68 -16h-34 l57 -59q59 -52 95 -96q34 -36 41 -36t25 25q68 93 155 179q71 71 82 76.5t28.5 -3.5t17.5 -18q0 -11 -46 -64q-118 -132 -184 -234q-23 -34 -18.5 -52.5t38.5 -83t40 -64.5t58 43q55 48 68 50q16 5 57 1.5t53 -10.5q18 -7 9 -9t-25 2q-66 20 -121 -25q-30 -20 -30 -41 q0 -20 -6.5 -20t-4.5 13.5t-4.5 13.5t-17 -13.5t-53.5 -43.5q-46 -32 -55 -39q-11 -16 -18 -16q-9 0 -9 -5.5t25 -5.5q52 0 105 59q25 30 29 23q0 -5 -6 -20q-11 -23 -64 -62q-43 -25 -75 -9q-20 9 -22.5 8t-2.5 -10q0 -14 21.5 -27.5t48.5 -16.5q34 -7 75 5q57 14 59 14 q16 2 30 16q96 102 118 113q14 2 28 3q11 0 11 3t-7 19q-20 27 -9 30q9 2 32 -20q20 -20 22.5 -29.5t-12.5 -22t-51 -12.5q-25 -2 -34 -7t-25 -23q-23 -25 -39 -48q-20 -41 -64 -52q-14 -5 10 -50q39 -82 16 -114q-11 -11 -31 -13.5t-33 9.5q-9 9 -39 75q-18 52 -26 59 t-24 11q-43 5 -60 15t-36 31q-25 34 -27 36q-9 5 -8 16.5t8 11.5q7 7 26.5 -3.5t19.5 -2.5t16 19q11 9 11 13.5t-14 29.5q-30 48 -44.5 57t-30.5 -9q-34 -43 -107 -157t-104 -168q-23 -41 -33.5 -51.5t-32.5 -10.5q-30 0 -49.5 20.5t-39.5 20.5q-25 0 -54.5 40t-16.5 58 q16 27 19 -13q9 -41 38 -60q16 -7 39 -1t39 24q39 43 47 39q7 -2 -12 -27.5t-10 -27.5q18 -2 42 16t42 46q11 14 0 13q-11 0 -27 -9q-23 -11 -26 -2q2 2 32 20q23 9 43.5 35.5t13.5 39.5q-2 11 -36 10q-32 -2 -41 2q2 7 11 9q18 0 30.5 13.5t49.5 70.5q75 114 90 151.5 t-4 67.5q-20 34 -65.5 84t-66.5 61q-80 48 -157 14q-39 -20 -54 -2q-20 20 4 52q43 48 125 48q48 0 66 -3q14 -2 13 0.5t-19 20.5l-3 5q-32 34 -41 43q-9 14 -6.5 34t13.5 29q14 11 12 16q-7 2 -16 -4q-11 -11 -12 -7q-2 9 7 23q9 18 4.5 51t11.5 49q16 14 30 16zM339 1206 q11 23 5 23q-2 0 -12 -9q-11 -11 -4 -23q2 -9 11 9zM332 1145q-9 14 -9 -3q0 -7 5.5 -4.5t3.5 7.5zM391 1154q-7 20 -4 20q9 -7 20.5 -28.5t11.5 -28.5t-7 -7q-5 2 -5 8t-16 36zM132 462q5 7 24 3.5t28 -12.5q36 -25 94 -25q18 0 18 -8t-50 -4q-46 2 -69 16l-25 16l-4 -29 q-2 -32 -12.5 -43.5t-5.5 -27.5q5 -23 -18 -4q-20 20 2 50q11 18 11 42t7 26zM355 389q34 11 34 4.5t-12.5 -20t-23.5 -20.5l-80 -30l2 2q32 16 44 23q34 23 31 27q-5 5 -36 -4q-30 -7 -45 -7l29 11q34 7 57 14z" />
<glyph unicode="y" horiz-adv-x="896" d="M719 1161q9 9 41 9q41 0 43.5 -19.5t-29.5 -117.5q-14 -48 -14 -57q-2 -7 -18 -61q-7 -27 -20.5 -98t-27.5 -191q-52 -505 -193 -703q-25 -36 -25 -43t-18.5 -19.5t-41.5 -17.5q-64 -23 -136 7q-27 14 -97.5 62.5t-80.5 64.5q-11 11 5 21q39 30 157 -39q80 -50 102 -43 q11 5 37.5 34.5t47.5 65.5q32 59 47 134q52 212 75 367q9 68 16 130.5t8 98t-1 37.5q-14 0 -75 -68q-27 -34 -69 -68.5t-63 -43.5q-16 -7 -21.5 -7t-26.5 7q-34 11 -45.5 53.5t-17.5 183.5q-5 130 -16 129q-9 0 -53 -27q-61 -36 -86 -27q-23 14 -2 48q11 18 52 61 q39 43 66 80q34 50 50 50q18 0 45.5 -33t36.5 -67q5 -14 4 -178q0 -171 14 -171q7 0 18 5q25 16 102.5 110.5t123.5 162.5q30 41 43 87q23 75 43 91z" />
<glyph unicode="z" horiz-adv-x="864" d="M512 1172q11 2 96 2q77 -2 91 -11q32 -23 20 -59q-23 -61 -125 -221q-269 -405 -339 -546q-11 -25 -18 -39t-7 -23t3.5 -12.5t14.5 -3.5q127 5 214 21q36 7 147.5 15t127.5 8q36 -7 34 -46q0 -23 -9 -34t-58 -20.5t-118 -11.5t-224 -4q-246 -5 -258.5 4t-12.5 21 q0 20 57 113q107 175 187 317q139 241 225 355q41 64 41 75q0 30 -55 29q-34 -5 -177 -29q-11 -2 -89 -21q-102 -25 -116 -2q-32 43 70 75q68 20 207 39z" />
<glyph unicode="{" horiz-adv-x="639" d="M464 1679q39 18 55 0q30 -27 -32 -70q-46 -30 -93 -87q-75 -89 -90 -159t18 -180.5t24 -168.5t-82 -145q-48 -59 -48 -66t34 -75q39 -82 49 -153.5t6 -280.5q-2 -175 1 -208.5t19 -49.5q18 -23 48 -31q61 -18 27 -39q-18 -11 -56 -14q-48 -2 -71 7t-36 41 q-18 41 -23 94.5t2 183.5q14 300 -23 377q-16 34 -56 64q-46 36 -42.5 58t64.5 90q105 116 105 193q0 39 -23 121q-27 82 -26 137.5t31 115.5q27 64 101 145.5t117 99.5z" />
<glyph unicode="}" horiz-adv-x="505" d="M139 1734q16 7 51 3.5t56 -12.5q50 -27 68 -87q16 -55 -11 -261q-27 -225 -12.5 -310.5t84.5 -117.5q34 -16 37 -30q2 -14 -25 -75q-23 -55 -26.5 -105t10.5 -181q25 -225 0 -335q-23 -107 -94.5 -199t-133.5 -85q-30 2 -31 6q-2 9 54 78q57 66 75 98q48 80 55 216 q7 77 -23 302q-14 107 -4 176q7 50 5.5 63.5t-21.5 45.5q-32 55 -42.5 89t-10.5 97q0 71 12 151q25 157 38 277q5 55 -16.5 87t-83.5 63q-59 30 -11 46z" />
<glyph unicode="~" horiz-adv-x="1333" d="M294 935q84 27 177 -13q46 -23 141 -94q93 -71 148 -98q39 -23 70.5 -30.5t80.5 -2t80 20.5t122 92q34 32 54.5 48t36.5 26t19.5 9t9.5 -6q9 -18 6 -46.5t-19 -50.5q-23 -27 -73 -70.5t-87 -66.5q-32 -18 -68 -28.5t-86 -13.5t-92.5 2.5t-89.5 28.5q-34 18 -144 100 q-175 130 -230 118q-96 -14 -177 -166q-14 -25 -22 -36.5t-16 -18t-13.5 -5.5t-12.5 8q-18 27 3.5 88.5t74.5 122.5q30 39 50.5 53.5t56.5 28.5z" />
<glyph unicode="&#xa2;" horiz-adv-x="1162" d="M660 1661q5 5 25 5t30.5 -4.5t12.5 -73.5q7 -89 21 -88q11 -2 31.5 -16t22.5 -25q18 -48 -48 -66q-27 -7 -34 -19q-2 -5 -13 -54q-9 -55 -28 -169q-5 -27 -13 -79q0 -9 -3.5 -33t-3.5 -31q-23 -130 -27 -164q0 -5 -7 -45.5t-9 -63.5q-11 -66 -21 -127q-7 -48 -7 -76 q-5 -27 5.5 -29t58.5 11q114 27 204 98t131 157q25 55 52 62q14 2 20 -7q11 -9 10 -46q-14 -139 -173 -250q-61 -41 -106 -60.5t-167 -60.5q-39 -11 -52.5 -21.5t-27.5 -37.5q-18 -43 -37 -173q-5 -27 -15 -34t-48 -7h-46v28q2 27 18 77q14 34 22 86.5t3 54.5q-2 7 -66 11 q-57 5 -85 16.5t-81 43.5q-82 55 -97 116q-18 52 -19.5 170.5t12.5 174.5q39 184 143 317q73 96 171 170q75 55 159 82q39 14 48 30t20 93q5 48 14 57zM610 1370q0 14 -2.5 16t-11.5 2q-25 2 -102.5 -44.5t-129.5 -91.5q-86 -80 -148 -244q-75 -203 -43 -348q16 -68 80 -121 q57 -50 125 -52q80 -2 91 18q34 77 79 394q2 11 4.5 29.5t7 45.5t7.5 41q14 86 25 186q7 73 13 107q5 51 5 62z" />
<glyph unicode="&#xa4;" horiz-adv-x="1520" d="M1329 1493q11 5 42 2.5t38 -9.5q14 -14 -76 -109q-71 -82 -83 -99t-5 -31q11 -20 54 -73q68 -86 89 -150t21 -198q0 -109 -10 -157q-16 -116 -122 -287q-32 -48 -32 -57q0 -20 84 -107q100 -102 68 -113q-9 -2 -25 -3q-25 0 -47.5 15t-82.5 67q-59 55 -72 59 q-9 7 -75 -20q-64 -27 -96 -36q-125 -36 -329 -9t-281 93q-27 23 -29 23q-11 0 -128 -132q-36 -39 -55.5 -50.5t-44.5 -6.5q-41 11 9 77q25 30 82 91q73 82 73 85.5t-41 64.5q-50 80 -78 201q-18 77 -9 186t39 198q25 66 98 171q41 55 41 63q0 25 -112 119q-50 41 -63.5 59 t-4.5 36q20 64 184 -82q14 -11 28 -25l41 -38l34 20q259 152 507 68q100 -36 164 -79q25 -16 46 9q36 41 93 100t66 64zM897 1324q-46 18 -72 19.5t-83 -5.5q-107 -14 -165 -36.5t-117 -77.5q-125 -118 -169 -232q-25 -66 -30.5 -182t12.5 -189q20 -109 114 -214 q50 -57 100 -82t141 -43q59 -11 175 -11t166 11q155 36 248 175q66 96 89 203q18 55 16 147t-18 146q-30 109 -103 189q-115 121 -304 182z" />
<glyph unicode="&#xa7;" horiz-adv-x="848" d="M389 1661q25 5 87.5 5t83 -7t20.5 -25q2 -18 -13.5 -25t-77.5 -7q-57 0 -100 -25q-36 -20 -71.5 -62.5t-42.5 -71.5q-14 -46 18 -71t155 -68q130 -41 192.5 -87.5t89.5 -117.5t3 -150q-20 -75 -70.5 -152.5t-86.5 -102.5q-25 -11 -25 -16q0 -9 57 -82q50 -64 59 -99 t4 -108q-9 -93 -75 -166q-68 -75 -183 -101t-176 21q-39 25 -84.5 68.5t-52.5 59.5q-9 23 -3.5 43.5t19.5 20.5t93 -55q84 -61 107 -64q57 -14 144 27q61 30 84 66.5t23 104.5q0 86 -55 137q-25 18 -100 61q-66 39 -128.5 96t-83.5 98q-18 36 -18 63q0 80 34 148 q18 32 76 93.5t95 81.5q14 7 21.5 15t7.5 13q-2 5 -91 34q-86 30 -104 50q-48 32 -48 100q0 27 25 80.5t52 90.5q20 23 63.5 50t75.5 36zM617 1120q-25 25 -69 22q-164 0 -252 -168l-25 -52l45 -41q46 -41 89 -71q116 -77 184 30q23 34 46 92t23 78q0 67 -41 110z" />
<glyph unicode="&#xa8;" horiz-adv-x="694" d="M107 1534q20 16 45 16q34 0 41 -34q2 -30 -10 -50.5t-35 -20.5q-20 0 -38.5 17t-18.5 38q0 14 16 34zM503 1543q7 7 40 7t46 -14q14 -14 9 -39q-2 -52 -31 -68q-23 -11 -41 18q-18 27 -25 57t2 39z" />
<glyph unicode="&#xad;" d="M601 908q57 14 78.5 12.5t39.5 -21.5q36 -34 11 -57q-20 -18 -143 -39q-68 -7 -269.5 -9t-215.5 7q-11 11 -7.5 26t19.5 26t141 16q191 5 346 39z" />
<glyph unicode="&#xb0;" horiz-adv-x="605" d="M407 1559q59 -32 83 -78.5t22 -94.5t-18 -85.5t-50 -81t-83 -66t-105 -5.5t-98 58t-54.5 95.5t7 112.5t73 106t114.5 56t109 -17zM210.5 1414.5q-44.5 -69.5 2 -128.5t110.5 -41t89 80.5t0 109t-91 48t-110.5 -68z" />
<glyph unicode="&#xb1;" horiz-adv-x="1140" d="M548 1529q11 14 18 13t28 -17q36 -32 48 -301l7 -145l177 6q125 5 153.5 4t39.5 -13q30 -25 3 -57q-11 -14 -33 -16t-115 -9q-141 -7 -166 -13q-27 -5 -33 -9.5t-8 -29.5q-5 -32 -18 -246q-11 -209 -18 -245.5t-29 -40t-31 5.5q-23 20 -11 317q9 232 2 236q-5 7 -109 -6 q-27 -2 -105.5 -13.5t-113.5 -14.5q-118 -16 -125 -13q-7 5 -12.5 23t-0.5 29q9 16 48.5 25t176.5 32q168 27 197.5 35t34.5 33q7 30 4.5 150.5t-9.5 184.5q-9 81 0 95zM826 348q143 7 173 -7q20 -7 23.5 -13.5t3.5 -29.5q0 -30 -18 -43q-23 -14 -150 -9q-134 7 -232 -5 q-291 -36 -383 -38q-66 -2 -87.5 4.5t-21.5 29.5q0 34 94 45q82 11 202 27q221 30 396 39z" />
<glyph unicode="&#xb7;" horiz-adv-x="316" d="M132 883q36 18 61 -14q32 -52 0 -79q-41 -34 -79 -5q-23 20 -17.5 50t35.5 48z" />
<glyph unicode="&#xd7;" horiz-adv-x="1269" d="M1024 1445q9 7 30.5 3.5t30.5 -8.5q14 -7 -0.5 -54.5t-49.5 -106.5q-41 -77 -136 -232q-150 -237 -141 -257q5 -18 85.5 -126.5t98.5 -124.5q18 -14 100 -117t103 -138q34 -46 31.5 -76.5t-34.5 -30.5q-25 0 -41 16t-59 73q-134 175 -202 246q-30 34 -66 82 q-66 89 -91 84q-14 -2 -68.5 -76t-113.5 -172q-127 -216 -164 -241q-14 -11 -35.5 -11.5t-28.5 11.5q-9 30 80 161q123 182 125 192q50 73 105 152q41 57 41 67t-198 203.5t-237 223.5q-98 73 -57 105q9 9 30 0q89 -36 396 -326q121 -109 122 -109q11 0 94 132 q173 278 220 398q25 52 30 57z" />
<glyph unicode="&#xf7;" horiz-adv-x="1247" d="M560 1233q16 9 26 8t26 -17q27 -30 17 -61.5t-51 -31.5q-18 0 -34 16q-43 45 16 86zM837 926q89 2 189 2q102 0 116 -9q14 -11 9 -36q-2 -27 -19 -33t-94 -6q-196 0 -371 -20q-77 -11 -310 -12q-164 0 -199 1.5t-49 10.5q-16 9 -17 25t13 25q9 11 164 18q289 7 427 23 q66 6 141 11zM562 578q25 14 27 14q11 0 29.5 -26.5t18.5 -42.5q0 -25 -32 -53.5t-54 -23.5q-27 9 -28 66q0 48 39 66z" />
<glyph unicode="&#x2000;" horiz-adv-x="924" />
<glyph unicode="&#x2001;" horiz-adv-x="1848" />
<glyph unicode="&#x2002;" horiz-adv-x="924" />
<glyph unicode="&#x2003;" horiz-adv-x="1848" />
<glyph unicode="&#x2004;" horiz-adv-x="616" />
<glyph unicode="&#x2005;" horiz-adv-x="462" />
<glyph unicode="&#x2006;" horiz-adv-x="308" />
<glyph unicode="&#x2007;" horiz-adv-x="308" />
<glyph unicode="&#x2008;" horiz-adv-x="231" />
<glyph unicode="&#x2009;" horiz-adv-x="369" />
<glyph unicode="&#x200a;" horiz-adv-x="102" />
<glyph unicode="&#x2010;" d="M601 908q57 14 78.5 12.5t39.5 -21.5q36 -34 11 -57q-20 -18 -143 -39q-68 -7 -269.5 -9t-215.5 7q-11 11 -7.5 26t19.5 26t141 16q191 5 346 39z" />
<glyph unicode="&#x2011;" d="M601 908q57 14 78.5 12.5t39.5 -21.5q36 -34 11 -57q-20 -18 -143 -39q-68 -7 -269.5 -9t-215.5 7q-11 11 -7.5 26t19.5 26t141 16q191 5 346 39z" />
<glyph unicode="&#x2012;" d="M601 908q57 14 78.5 12.5t39.5 -21.5q36 -34 11 -57q-20 -18 -143 -39q-68 -7 -269.5 -9t-215.5 7q-11 11 -7.5 26t19.5 26t141 16q191 5 346 39z" />
<glyph unicode="&#x2013;" horiz-adv-x="1222" d="M896 908q91 14 125 12.5t62 -21.5q57 -34 18 -57q-32 -18 -227 -39q-107 -7 -426.5 -9t-341.5 7q-17 11 -11.5 26t30.5 26q26 11 224 16q302 5 547 39z" />
<glyph unicode="&#x2014;" horiz-adv-x="1934" d="M781 942q59 9 387.5 9t424.5 -9q155 -14 155 -45q0 -16 -25 -39q-16 -16 -33 -18.5t-77 2.5q-548 41 -971 -11q-166 -20 -166 6q0 7 -5 28q-7 9 10 20.5t52.5 20.5t92.5 16q119 15 155 20z" />
<glyph unicode="&#x2018;" horiz-adv-x="409" d="M205 1707q61 64 61 18q0 -23 -13 -77q-20 -77 -19.5 -111.5t21.5 -82.5q18 -41 18 -51t-18 -24q-48 -36 -93 7q-16 16 -20.5 34t-4.5 66q0 148 68 221z" />
<glyph unicode="&#x2019;" horiz-adv-x="446" d="M191 1727q16 18 42 16t51 -27q18 -18 21.5 -34t-0.5 -64q-5 -71 -36 -153q-20 -48 -44.5 -85t-45 -56.5t-31.5 -12.5q-11 14 27 145q27 86 30.5 112.5t-2.5 51.5q-35 80 -12 107z" />
<glyph unicode="&#x201c;" horiz-adv-x="787" d="M257 1707q68 61 91 25q5 -11 -41 -82q-30 -46 -39 -67.5t-4 -57.5q2 -57 7 -82q9 -27 -25 -64q-20 -23 -28.5 -26.5t-28.5 10.5q-30 20 -41 62.5t0 90.5q29 118 109 191zM594 1707q27 39 39 34q18 -7 -21 -146q-20 -75 -23.5 -107t12.5 -54q9 -16 6.5 -23t-20.5 -21 q-20 -18 -52 -19t-46 15q-20 30 14 139t91 182z" />
<glyph unicode="&#x201d;" horiz-adv-x="712" d="M207 1698q5 16 32 14.5t43 -19.5q41 -41 37.5 -133t-50.5 -145q-18 -25 -67.5 -48.5t-60.5 -14.5q-5 7 32 63q36 52 44 90t-5 104q-14 71 -5 89zM471 1700q105 48 105 -82q0 -82 -37.5 -176.5t-92.5 -153.5q-57 -66 -50 -7q2 36 30 109q57 150 27 219q-28 66 18 91z" />
<glyph unicode="&#x2022;" horiz-adv-x="1934" d="M1079 912q16 14 46.5 8.5t50.5 -23.5q27 -25 21 -53q-11 -46 -60 -47t-70 43q-20 54 12 72z" />
<glyph unicode="&#x2026;" horiz-adv-x="1934" d="M1516 278q11 30 30.5 35.5t53.5 -8.5q27 -11 27 -48q0 -82 -102 -54q-23 7 -24 21.5t15 53.5zM1081 278q20 41 73.5 21.5t42.5 -62.5q-2 -25 -27 -41q-41 -20 -74 10.5t-15 71.5zM662 255q18 27 41 27q34 0 53.5 -35t-5.5 -58q-14 -14 -52 -14q-27 0 -35.5 6t-12.5 22 q-7 25 11 52z" />
<glyph unicode="&#x202f;" horiz-adv-x="369" />
<glyph unicode="&#x205f;" horiz-adv-x="462" />
<glyph unicode="&#x20ac;" horiz-adv-x="1934" d="M1099 1552q96 39 189 -9q36 -18 77 -103q34 -68 33 -92t-39 -28q-16 -2 -27.5 7t-27.5 43q-27 55 -54.5 72t-79.5 12q-46 -7 -78 -25t-68 -68q-23 -30 -53.5 -109.5t-42.5 -138.5q-5 -34 3.5 -37.5t62.5 3.5q82 9 267 9q143 0 168 -4.5t25 -27.5q0 -39 -40 -49t-185 -10 q-289 0 -335 -48q-16 -14 -16 -102v-87h98q89 2 191 18q134 23 218.5 14t84.5 -46q0 -23 -41 -33t-168 -21q-189 -16 -287 -28l-107 -13l2 -96q5 -164 59.5 -255t147.5 -91q77 0 111.5 34.5t66.5 143.5q48 157 91 61q2 -7 4 -18q16 -52 -21.5 -153.5t-89.5 -139.5 q-27 -20 -49 -25t-99 -5q-75 0 -98 4.5t-57 29.5q-41 27 -79.5 79.5t-54.5 104.5q-16 41 -32 180l-20 137l-98 9q-100 9 -107 25q-7 20 9 34t52 18q127 5 146 27q9 9 21.5 80t14.5 105q0 14 -84 13q-139 0 -139 39q0 41 132 52q93 7 105 14q14 5 43 112q82 311 255 382z" />
<glyph unicode="&#x25fc;" horiz-adv-x="1262" d="M0 1263h1263v-1263h-1263v1263z" />
</font>
</defs>
</svg>
