<?xml version="1.0" standalone="no"?>
<!DOCTYPE svg PUBLIC "-//W3C//DTD SVG 1.1//EN" "http://www.w3.org/Graphics/SVG/1.1/DTD/svg11.dtd" >
<svg xmlns="http://www.w3.org/2000/svg" xmlns:xlink="http://www.w3.org/1999/xlink" version="1.1">
<metadata></metadata>
<defs>
<font id="happyzcool-2016regular" horiz-adv-x="1024" >
<font-face units-per-em="2048" ascent="1759" descent="-289" />
<missing-glyph horiz-adv-x="500" />
<glyph horiz-adv-x="0" />
<glyph unicode="&#xd;" horiz-adv-x="679" />
<glyph unicode=" " />
<glyph unicode="!" horiz-adv-x="516" d="M61 256l218 18l26 -327l-217 -17zM100 506l136 1053l219 -33l-138 -1047z" />
<glyph unicode="&#x22;" horiz-adv-x="473" d="M41 1276v442l166 -2v-442zM266 1280v442l166 -2v-442z" />
<glyph unicode="#" horiz-adv-x="1312" d="M41 293h219l53 297l-147 -10l-12 163l190 15l47 258l162 -29l-39 -217l346 27l17 211l163 -13l-14 -186l234 18l12 -165l-258 -21l-25 -344l195 2l2 -164l-207 -2l-16 -221l-164 10l14 209l-414 -2l-41 -227l-161 30l34 195h-188zM428 295l397 2l23 332l-365 -27z" />
<glyph unicode="$" horiz-adv-x="1116" d="M41 565l244 396l80 38l217 -20l12 184l166 -10l-12 -188l313 -27l-14 -164l-310 27l-18 -297l270 -45l68 -76l18 -297l-69 -88l-322 -51l-10 -174l-164 10l8 135l-420 -70l-26 164l456 76l17 277l-445 77zM248 582l307 -52l18 285l-174 16zM694 115l209 35l-6 155 l-188 33z" />
<glyph unicode="%" horiz-adv-x="1265" d="M41 961l76 112l401 19l86 -82v-250l-43 -72l-254 -147l-117 45zM98 -76l967 1362l133 -96l-965 -1362zM240 915l71 -182l127 74v117zM670 55l41 281l55 67l289 93l106 -68l64 -414l-90 -98l-394 45zM846 115l198 -21l-32 215l-146 -47z" />
<glyph unicode="&#x26;" horiz-adv-x="1495" d="M41 987l262 217l68 17l649 -131l35 -146l-418 -342l301 -231l266 456l144 -82l-281 -477l387 -301l-102 -129l-369 287l-152 -264l-86 -41l-483 84l-65 53l-125 324l22 94l281 225l-332 258zM225 926l279 -217l311 252l-438 90zM246 283l90 -224l381 -65l135 233 l-344 269z" />
<glyph unicode="'" horiz-adv-x="247" d="M41 1276v442l166 -2v-442z" />
<glyph unicode="*" horiz-adv-x="886" d="M41 1018l70 151l256 -118l-7 245l164 2l6 -251l244 118l72 -147l-240 -115l199 -162l-103 -129l-249 199l-246 -199l-105 129l195 158z" />
<glyph unicode="+" horiz-adv-x="1228" d="M41 561l487 29l23 411l166 -6l-21 -395l482 29l10 -164l-500 -31l-26 -512l-168 8l26 494l-469 -29z" />
<glyph unicode="," horiz-adv-x="419" d="M41 -135l149 266l-137 57l62 154l223 -90l41 -117l-195 -346z" />
<glyph unicode="-" horiz-adv-x="1224" d="M41 571l1128 86l15 -168l-1131 -83z" />
<glyph unicode="." horiz-adv-x="468" d="M41 2l102 283l285 -99l-102 -284z" />
<glyph unicode="/" horiz-adv-x="2048" d="M621 -78l495 1208l152 -63l-494 -1206z" />
<glyph unicode="0" horiz-adv-x="1200" d="M41 221l231 1182l95 67l720 -122l70 -82l2 -1180l-94 -82l-954 119zM221 276l772 -96l-2 1016l-573 98z" />
<glyph unicode="1" horiz-adv-x="724" d="M41 1133l512 378l131 -71l-111 -1479l-163 12l94 1299l-363 -273z" />
<glyph unicode="2" horiz-adv-x="1300" d="M41 1196l487 334l99 -6l501 -420l9 -119l-762 -858l866 96l19 -164l-1084 -118l-67 137l849 954l-389 326l-436 -297z" />
<glyph unicode="3" horiz-adv-x="1370" d="M41 158l37 159l840 -180l204 381l-579 144l-31 145l561 436l-745 105l22 163l938 -131l41 -147l-581 -451l520 -129l51 -121l-287 -528l-90 -41z" />
<glyph unicode="4" horiz-adv-x="1470" d="M41 457l418 1054l153 -59l-370 -942l682 14l67 813l166 -14l-67 -795l333 9l7 -166l-355 -9l-35 -401l-163 12l32 387l-788 -16z" />
<glyph unicode="5" horiz-adv-x="1433" d="M41 195l37 161l928 -204l194 491l-792 84l-72 98l113 609l81 67h787v-164h-717l-86 -454l813 -86l66 -113l-258 -657l-95 -52z" />
<glyph unicode="6" horiz-adv-x="1400" d="M41 365l612 1140l146 -78l-566 -1054l625 -230l301 353l-534 227l63 154l641 -273l31 -131l-416 -481l-88 -23l-768 281z" />
<glyph unicode="7" horiz-adv-x="1159" d="M41 1290l16 164l994 -84l67 -119l-567 -1233l-150 68l519 1126z" />
<glyph unicode="8" horiz-adv-x="1363" d="M41 281l555 497l-422 332l19 139l598 262l96 -20l280 -309l-4 -119l-307 -277l467 -362l-4 -137l-461 -314l-67 -10l-713 176zM268 262l527 -131l338 231l-404 314zM387 1153l336 -262l268 242l-186 204z" />
<glyph unicode="9" horiz-adv-x="1290" d="M41 991l344 475l84 35l721 -158l59 -114l-565 -1254l-152 68l523 1161l-568 123l-254 -354l480 -228l-72 -149l-569 272z" />
<glyph unicode=":" horiz-adv-x="456" d="M41 678l72 147l284 -135l-71 -149zM53 -27l45 158l318 -88l-47 -160z" />
<glyph unicode=";" horiz-adv-x="452" d="M41 664l80 147l248 -133l-80 -148zM47 -119l176 328l-135 53l62 154l221 -90l41 -115l-219 -408z" />
<glyph unicode="&#x3c;" horiz-adv-x="1034" d="M102 809l754 399l76 -145l-596 -318l553 -235l-68 -152l-710 304z" />
<glyph unicode="=" horiz-adv-x="1271" d="M41 334l1188 20l2 -164l-1184 -22zM131 580v165h1004v-165h-1004z" />
<glyph unicode="&#x3e;" horiz-adv-x="1050" d="M102 418l607 332l-586 219l57 153l758 -280l10 -152l-766 -418z" />
<glyph unicode="?" horiz-adv-x="1181" d="M61 1260l580 311l119 -21l360 -370l-14 -150l-408 -282l33 -232l-194 -31l-45 295l45 97l360 251l-227 234l-514 -277zM432 188l164 113l178 -254l-162 -115z" />
<glyph unicode="@" horiz-adv-x="1429" d="M41 764l31 78l473 358l65 14l600 -102l70 -65l109 -578l-39 -84l-398 -254l-125 78l2 41l-223 -92l-92 18l-178 189l-17 94l181 356l100 43l272 -94l7 59l165 -16l-38 -445l208 134l-88 462l-510 89l-405 -312l63 -590l574 -100l403 164l66 -154l-428 -172l-47 -4 l-658 115l-69 72zM494 436l102 -104l250 102l12 162l-244 82z" />
<glyph unicode="A" horiz-adv-x="1562" d="M41 29l682 1491l176 2l623 -1309l-174 -84l-537 1122l-319 -700l452 78l35 -193l-586 -98l-176 -387z" />
<glyph unicode="B" horiz-adv-x="1425" d="M41 61v1352l102 94l1176 -63l65 -158l-466 -551l403 -487l-64 -158l-1107 -125zM233 170l828 92l-344 414l2 123l395 463l-881 49v-1141z" />
<glyph unicode="C" horiz-adv-x="1452" d="M41 96l139 1299l109 86l1054 -156l-26 -192l-957 141l-114 -1077l1145 122l20 -192l-1261 -135z" />
<glyph unicode="D" horiz-adv-x="1441" d="M41 109l111 1273l120 84l1020 -247l76 -91l33 -763l-74 -99l-1167 -260zM246 223l960 213l-28 611l-844 208z" />
<glyph unicode="E" horiz-adv-x="1347" d="M41 111l98 1263l99 90l1032 -32l-8 -193l-938 29l-31 -402l887 15l4 -195l-908 -14l-34 -465l1048 86l17 -193l-1162 -94z" />
<glyph unicode="F" horiz-adv-x="1306" d="M41 41l98 1317l97 88l1030 -33l-6 -192l-936 28l-35 -452l889 14l2 -190l-906 -17l-41 -577z" />
<glyph unicode="G" horiz-adv-x="1462" d="M41 90l94 1305l103 90l1112 -74l-13 -192l-1013 65l-80 -1100l975 49l-35 371l-572 25l9 194l655 -30l92 -86l53 -555l-90 -107l-1188 -57z" />
<glyph unicode="H" horiz-adv-x="1370" d="M41 39l70 1407l192 -10l-29 -549l859 76l4 479l192 -4l-12 -1407l-193 2l6 735l-864 -74l-33 -665z" />
<glyph unicode="I" horiz-adv-x="346" d="M41 39l70 1407l194 -10l-72 -1407z" />
<glyph unicode="J" horiz-adv-x="1034" d="M41 180l479 139l-28 943l-318 24l16 191l803 -56l-12 -194l-295 20l31 -995l-70 -96l-549 -160z" />
<glyph unicode="K" horiz-adv-x="1216" d="M41 -2l197 1503l192 -22l-197 -1506zM442 598l11 143l602 476l121 -152l-521 -412l494 -520l-137 -133z" />
<glyph unicode="L" horiz-adv-x="1144" d="M41 141l145 1325l193 -22l-133 -1221l858 -26l-8 -191l-963 27z" />
<glyph unicode="M" horiz-adv-x="1646" d="M41 94l231 1288l181 23l331 -715l410 723l178 -31l234 -1288l-191 -35l-186 1026l-371 -655l-172 8l-278 606l-177 -985z" />
<glyph unicode="N" horiz-adv-x="1433" d="M41 68l162 1312l172 50l825 -1047v1038h193v-1315l-172 -59l-854 1079l-136 -1081z" />
<glyph unicode="O" horiz-adv-x="1318" d="M41 127l92 1155l88 86l905 92l109 -94l43 -1257l-98 -99l-1045 13zM244 215l839 -10l-39 1055l-727 -76z" />
<glyph unicode="P" horiz-adv-x="1452" d="M41 -23l92 1442l98 88h1010l98 -86l72 -719l-92 -108l-932 -59l-12 192l833 53l-53 537h-836l-86 -1352z" />
<glyph unicode="Q" horiz-adv-x="1470" d="M41 141l90 1155l86 86l946 93l105 -93l41 -1144l121 -86l-113 -156l-170 121l-1002 -80zM244 238l661 53l-211 151l113 158l303 -219l-33 891l-760 -74z" />
<glyph unicode="R" horiz-adv-x="1445" d="M41 31l63 1310l93 93l1011 30l99 -84l86 -692l-107 -106l-162 16l281 -496l-166 -94l-346 615l-434 45l20 192l707 -74l-60 484l-833 -29l-60 -1221z" />
<glyph unicode="S" horiz-adv-x="1439" d="M41 190l1145 101l-92 416l-887 -103l-107 98l29 682l104 93l1080 -101l-17 -192l-979 90l-20 -465l860 96l105 -74l137 -606l-88 -119l-1252 -106z" />
<glyph unicode="T" horiz-adv-x="1609" d="M41 1290l8 195l1520 -55l-4 -191l-674 23l-49 -1272l-195 6l53 1272z" />
<glyph unicode="U" horiz-adv-x="1353" d="M41 1409l192 6l23 -1139l758 -57l108 1231l191 -16l-115 -1325l-104 -89l-940 68l-91 96z" />
<glyph unicode="V" horiz-adv-x="1470" d="M41 1122l172 90l479 -938l563 1188l175 -84l-646 -1362l-174 -2z" />
<glyph unicode="W" horiz-adv-x="1732" d="M41 1346l186 47l240 -949l276 879h185l250 -809l333 899l181 -67l-432 -1166l-183 6l-241 783l-287 -908l-189 5z" />
<glyph unicode="X" horiz-adv-x="1533" d="M41 158l612 604l-458 487l141 129l455 -481l561 553l135 -137l-563 -555l569 -602l-139 -133l-568 600l-610 -603z" />
<glyph unicode="Y" horiz-adv-x="1574" d="M41 1389l141 129l486 -525l-140 -131zM602 -43l12 766l33 68l758 673l129 -145l-725 -643l-14 -721z" />
<glyph unicode="Z" horiz-adv-x="1480" d="M41 184l954 1006l-893 72l19 194l1093 -92l62 -162l-920 -966l1065 92l19 -193l-1319 -115z" />
<glyph unicode="a" horiz-adv-x="1212" d="M41 94l119 469l92 74h647l-43 319l-737 -180l-47 187l841 206l119 -82l115 -849l143 -41l-51 -185l-205 58l-37 43l-845 -136zM264 193l680 108l-18 141h-598z" />
<glyph unicode="b" horiz-adv-x="1026" d="M41 121l78 1171l194 -12l-24 -344l608 -53l88 -103l-41 -540l-76 -86l-712 -136zM242 229l516 99l28 370l-510 47z" />
<glyph unicode="c" horiz-adv-x="991" d="M41 133l94 901l111 84l657 -106l-31 -191l-555 90l-73 -678l684 82l22 -192l-805 -94z" />
<glyph unicode="d" horiz-adv-x="1122" d="M41 127l94 707l111 81l602 -96l-33 459l195 12l71 -1077l-86 -102l-850 -93zM248 223l635 68l-23 332l-547 88z" />
<glyph unicode="e" horiz-adv-x="1073" d="M41 231l98 730l86 81l600 50l95 -52l174 -344l-68 -137l-637 -133l-41 186l514 111l-86 170l-459 -35l-73 -563l704 -131l-37 -189l-792 148z" />
<glyph unicode="f" horiz-adv-x="851" d="M-88 313l18 193l344 -33l43 633l56 82l305 133l76 -176l-250 -111l-37 -577l358 -33l-16 -193l-354 33l-25 -383l-192 13l24 387z" />
<glyph unicode="g" horiz-adv-x="1001" d="M35 530l119 613l104 78l567 -54l88 -90l41 -964l-80 -97l-751 -133l-35 189l672 118l-17 353l-593 -125zM252 635l481 102l-10 246l-395 39z" />
<glyph unicode="h" horiz-adv-x="1040" d="M41 39l213 1423l188 -26l-90 -613l457 107l119 -84l71 -803l-192 -18l-62 694l-423 -103l-89 -604z" />
<glyph unicode="i" horiz-adv-x="380" d="M41 39l100 813l193 -23l-101 -813zM92 1200l187 51l61 -229l-186 -51z" />
<glyph unicode="j" horiz-adv-x="534" d="M41 -125l256 143l-74 777l193 16l78 -836l-48 -92l-311 -174zM131 1221l137 133l201 -205l-139 -133z" />
<glyph unicode="k" horiz-adv-x="1019" d="M41 80l293 1325l188 -41l-291 -1325zM459 565l413 396l134 -140l-338 -321l424 -369l-127 -145l-504 440z" />
<glyph unicode="l" horiz-adv-x="448" d="M41 8l176 1237l191 -24l-175 -1239z" />
<glyph unicode="m" horiz-adv-x="1329" d="M41 92l82 854l121 84l446 -121l432 121l123 -90l43 -852l-192 -10l-39 731l-281 -76l4 -647l-190 -4l-6 653l-279 78l-72 -737z" />
<glyph unicode="n" horiz-adv-x="1030" d="M41 133l102 674l80 82l615 96l112 -90l39 -805l-194 -10l-35 698l-436 -69l-91 -605z" />
<glyph unicode="o" d="M41 215l49 703l92 88l680 28l101 -94l20 -774l-102 -98l-750 43zM242 297l546 -31l-14 572l-498 -21z" />
<glyph unicode="p" horiz-adv-x="1046" d="M53 -100l72 1210l115 90l639 -131l73 -84l66 -510l-76 -108l-549 -115l-41 186l465 101l-47 354l-461 94l-63 -1098z" />
<glyph unicode="q" horiz-adv-x="1042" d="M49 963l80 100l768 131l113 -102l-84 -1137l-193 12l74 1016l-561 -96l16 -342l404 -37l-17 -193l-489 45l-88 91z" />
<glyph unicode="r" horiz-adv-x="733" d="M41 1090l192 6l7 -252l467 221l81 -178l-542 -254l20 -619l-194 -4z" />
<glyph unicode="s" horiz-adv-x="985" d="M41 66l37 190l516 -98l151 262l-610 86l-82 106l31 396l90 88l655 51l13 -193l-570 -43l-18 -225l657 -94l72 -143l-256 -447l-100 -45z" />
<glyph unicode="t" horiz-adv-x="1189" d="M41 907l438 31l21 215l192 -18l-16 -185l461 33l12 -190l-492 -37l-47 -504l402 -115l-51 -184l-482 135l-69 102l51 551l-404 -28z" />
<glyph unicode="u" horiz-adv-x="1062" d="M41 178l49 828l193 -11l-41 -706l514 82l43 637l194 -17l-45 -669l174 -105l-100 -164l-221 131l-647 -106z" />
<glyph unicode="v" horiz-adv-x="1196" d="M41 1100l184 57l252 -817l522 725l156 -113l-635 -882l-170 26z" />
<glyph unicode="w" horiz-adv-x="1558" d="M41 1016l182 65l240 -639l209 504l176 6l213 -467l287 564l170 -86l-373 -744l-174 2l-205 447l-215 -525l-180 2z" />
<glyph unicode="x" horiz-adv-x="1259" d="M41 199l483 463l-360 274l119 154l383 -293l389 370l133 -141l-367 -348l492 -375l-115 -153l-518 393l-506 -482z" />
<glyph unicode="y" horiz-adv-x="1009" d="M45 31l346 420l-346 419l150 123l323 -391l404 490l147 -123l-874 -1061z" />
<glyph unicode="z" horiz-adv-x="1040" d="M41 1010l22 190l824 -96l61 -160l-594 -708l629 51l16 -195l-860 -65l-82 157l629 748z" />
<glyph unicode="{" horiz-adv-x="718" d="M41 735l215 127l37 443l47 69l195 86l67 -151l-149 -66l-35 -438l-41 -66l-101 -59l101 -37l53 -86l-59 -487l307 -158l-76 -143l-356 182l-43 82l55 477l-205 76z" />
<glyph unicode="}" horiz-adv-x="595" d="M41 -84l233 111l-51 422l31 75l121 97l-88 84l-25 61l4 428l-168 70l58 153l225 -88l51 -78l-4 -450l127 -123l-4 -127l-160 -127l51 -438l-45 -84l-284 -133z" />
<glyph unicode="~" horiz-adv-x="1323" d="M41 436l203 180l75 17l650 -166l235 129l78 -147l-262 -144l-62 -6l-639 166l-169 -152z" />
<glyph />
<glyph unicode="&#xa0;" />
<glyph unicode="&#xa1;" d="M231 -72l88 815h41l89 -806q8 -47 4 -96.5t-40 -89.5t-80 -40t-73 40t-29 89v88zM231 1017q0 48 33 79.5t80 31.5t80 -31.5t33 -79.5t-33 -81t-80 -33t-80 33t-33 81z" />
<glyph unicode="&#xa2;" d="M127 608q0 256 162 391q121 104 270 105q16 0 66 -8l135 385h71l-143 -402q104 -41 140 -88t32 -95t-27.5 -71.5t-60.5 -27.5t-68.5 23.5t-27.5 75.5t-29 81l-239 -666q72 -55 144.5 -59t123.5 23.5t95 80t101 164.5l31 -16q-47 -193 -151.5 -285t-212 -92t-187.5 49 l-151 -399h-66l162 432q-80 72 -125 164t-45 235zM252 589q12 -124 100 -220l240 647q-47 8 -99.5 0t-117 -63.5t-100 -147.5t-23.5 -216z" />
<glyph unicode="&#xa3;" d="M63 163.5q0 67.5 44.5 107.5t87.5 40h116q16 152 0 394h-215v96h215q-16 135 -15 223t41 188.5t128 148.5t199.5 48t175 -60.5t63.5 -112.5t-27.5 -80t-55 -28t-52.5 28t-25 88.5t-31.5 88t-99 27.5t-128 -60.5t-60.5 -176t12.5 -208t12.5 -114.5h272v-96h-272 q0 -160 -4.5 -244t-36.5 -180q168 -63 220 -80t119.5 -17t120 48.5t76.5 127.5l33 -8q-16 -160 -100 -239.5t-168 -79.5t-140.5 19.5t-199.5 131.5q-41 -80 -89.5 -115.5t-100.5 -35.5t-84 31.5t-32 99zM121 164q0 -37 19.5 -56.5t47 -19.5t63.5 31.5t52 111.5 q-25 16 -52.5 20.5t-55 0.5t-51 -27.5t-23.5 -60.5z" />
<glyph unicode="&#xa4;" horiz-adv-x="2048" d="M193 -16l247 247q-176 215 -184 496t193 506l-256 256l63 72l256 -256q201 176 501 176t507 -176l264 264l71 -74l-264 -262q193 -231 180.5 -520t-180.5 -482l242 -239l-74 -72l-239 240q-272 -184 -552 -172t-464 172l-240 -240zM360 732.5q0 -228.5 128 -396.5 t300.5 -224.5t384.5 -8.5t347 208t147 405t-160 452.5t-495.5 207.5t-487.5 -207.5t-164 -436z" />
<glyph unicode="&#xa5;" d="M55 399v72h402v145l-8 39h-394v72h369l-184 498q-41 96 -77 115.5t-91 19.5v49h385v-49q-63 -8 -88 -23.5t-25 -32t16 -49.5l193 -528l190 506q16 47 16.5 67.5t-16 40t-79.5 19.5v49h305v-49q-63 0 -88 -27.5t-72 -115.5l-193 -490h353v-72h-385v-184h385v-72h-385v-96 q0 -127 4 -154.5t24.5 -44t108.5 -16.5h22v-47h-454v47h22q96 0 117 16.5t25 44t4 154.5v96h-402z" />
<glyph unicode="&#xa6;" d="M160 -289v746h88v-746h-88zM160 831v746h88v-746h-88z" />
<glyph unicode="&#xa7;" horiz-adv-x="2048" d="M684 31.5q-4 56.5 27.5 84t64.5 19.5t52.5 -31.5t19.5 -40t-16.5 -44t8 -51t96.5 -36t160 15t84 96.5t-168 228.5t-271.5 319.5t-48 275.5t290.5 123.5q-215 215 -227.5 312.5t23.5 165t132.5 95t209 12.5t172 -59t63.5 -84t-15.5 -65t-48 -33t-56.5 8.5t-36 41t0 44 t-4 47t-100 44t-172 -23.5t-80 -120t148.5 -203.5t228.5 -199.5t136 -176.5t39.5 -196.5t-92 -155.5t-208.5 -53.5q215 -201 220 -304t-76 -162.5t-253 -52.5t-235.5 55t-67.5 104.5zM772.5 840.5q-20.5 -56.5 88 -180.5t196.5 -220q113 0 155.5 40t51 96.5t-44 155.5 t-187.5 204q-104 8 -171.5 -15.5t-88 -80z" />
<glyph unicode="&#xa8;" horiz-adv-x="2048" d="M655 1332.5q0 68.5 56.5 92t104.5 -8.5t41 -88t-48 -81t-97.5 -4t-56.5 89.5zM1184 1336.5q0 64.5 56 89t103 -16.5q55 -33 48 -85t-55 -75.5t-100 0t-52 88z" />
<glyph unicode="&#xa9;" d="M0 833q0 128 67.5 251.5t192.5 191t252 67.5t248 -67.5t188.5 -191t67.5 -251.5t-63.5 -252t-188.5 -193t-256 -69t-252 69t-188.5 193t-67.5 252zM47 832.5q0 -119.5 60.5 -228t172 -172t228.5 -63.5t228.5 63.5t172 172t60.5 228t-60.5 231.5t-172 172t-232.5 60 q-113 0 -224.5 -60t-172 -172t-60.5 -231.5zM184 828.5q0 132.5 80 224.5t172 107.5t151.5 3t96.5 -44.5t44 -15.5t7 55.5h25l16 -207h-24q-33 96 -88.5 136t-131 32t-144.5 -60t-92.5 -124t-11 -156t80 -152.5t172.5 -68.5q143 0 223 113l24 -17q-96 -143 -272 -143 q-143 0 -235.5 92t-92.5 224.5z" />
<glyph unicode="&#xaa;" d="M-8 1064q0 48 24.5 92t92 88t235.5 91q0 104 -27.5 140t-84 32t-73 -31.5t-12 -63.5t-15 -56.5t-48.5 -20.5t-48.5 20.5t-15 64.5t59.5 88t163.5 40t157 -35.5t63.5 -67.5t15 -110v-278q0 -16 8 -25h17q16 0 55 25v-49q-72 -47 -95.5 -59.5t-48 -12.5t-44 20.5 t-27.5 75.5q-63 -47 -119.5 -67.5t-104.5 -20.5t-88 36t-40 84zM135 1112q0 -33 24.5 -60.5t63.5 -27.5q25 0 52.5 12.5t68.5 34.5v225q-121 -41 -165 -89t-44 -95z" />
<glyph unicode="&#xab;" d="M63 616l386 471h63l-248 -471l248 -473h-63zM512 616l391 471h58l-240 -471l240 -473h-58z" />
<glyph unicode="&#xac;" d="M41 952v80h983v-407h-80v327h-903z" />
<glyph unicode="&#xad;" d="M80 537v151h520v-151h-520z" />
<glyph unicode="&#xae;" d="M0 828.5q0 123.5 67.5 256t200.5 195.5t260 63t248 -63t184.5 -191t59.5 -268.5t-67.5 -256t-188.5 -180.5t-252 -65t-256 69t-192.5 193t-63.5 247.5zM44 837q-3 -124 60.5 -241t175 -172t232.5 -55t236.5 55t168 172t52.5 232.5t-52.5 231.5t-168 176t-228.5 60 t-232.5 -60t-180 -167.5t-63.5 -231.5zM215 520v25q41 0 53.5 4t20.5 24q8 16 8 66v385q0 47 -4 67.5t-16.5 24.5t-53.5 4v31h281q104 0 160.5 -51t56.5 -111.5t-41 -96.5t-127 -69l160 -207q25 -47 47 -71h41v-25h-146l-206 289h-50v-217q0 -33 20.5 -40t67.5 -7v-25h-272z M399 848q88 0 121 12t56.5 48t23.5 80t-40 84t-81 40h-80v-264z" />
<glyph unicode="&#xaf;" d="M0 1616v88h1024v-88h-1024z" />
<glyph unicode="&#xb0;" horiz-adv-x="2048" d="M268 1255.5q4 96.5 52.5 148.5t120 71.5t139 4t115.5 -84t37 -172t-80 -155.5t-173 -44q-96 8 -155.5 71.5t-55.5 160zM336 1272q-8 -55 23.5 -111.5t115.5 -69t136.5 36t52.5 132t-52.5 128t-116 36t-107.5 -48.5t-52 -103z" />
<glyph unicode="&#xb1;" horiz-adv-x="2048" d="M319 -41v96h1401v-96h-1401zM319 776v96h642v631h96v-631h663v-96h-663v-553h-96v553h-642z" />
<glyph unicode="&#xb2;" d="M25 815v33q240 193 327 311q47 72 47 140.5t-44 108.5t-103 40t-99 -27.5t-65 -93.5h-47q16 96 79.5 152.5t167 56.5t168 -56.5t64.5 -124t-60.5 -163.5t-275.5 -281h185q88 0 115.5 12.5t43.5 45.5h47l-63 -154h-487z" />
<glyph unicode="&#xb3;" d="M47 864.5q0 16.5 16.5 31.5t40 15t80 -23.5t100.5 -23.5t84 40t40 88t-24 88t-76 59.5t-132 19.5v33q80 0 132 44t52 100.5t-31.5 88t-104 31.5t-136.5 -88l-33 16q33 72 89.5 112t144.5 40t139 -44t51 -107.5t-102 -145.5q72 -33 107.5 -80t35.5 -127t-84 -155.5 t-243 -75.5q-88 0 -117 23.5t-29 40z" />
<glyph unicode="&#xb4;" d="M240 1200l104 344h223l-295 -344h-32z" />
<glyph unicode="&#xb5;" d="M135 48q0 40 24.5 136.5t33 155.5t8.5 197v680h135v-578q0 -127 16.5 -154.5t60.5 -40t135 4t187 126.5v642h137v-609q0 -127 19.5 -155.5t63.5 -24.5t64.5 31.5t37.5 93.5h39q-8 -113 -63.5 -161t-136.5 -48t-117 40t-44 128q-80 -96 -155.5 -136t-143 -40t-100.5 16.5 t-64 63.5q0 -113 15.5 -216.5t12.5 -143.5t-27.5 -71.5t-56.5 -31.5t-56.5 27.5t-24.5 67.5z" />
<glyph unicode="&#xb6;" d="M-16 1137q0 113 49 176q55 96 151.5 147t255.5 51h488v-55h-127v-1745h-74v1745h-190v-1745h-72v1041q-193 8 -285 52t-144 132t-52 201z" />
<glyph unicode="&#xb7;" horiz-adv-x="2048" d="M783 727.5q1 144.5 121 208t240 -4t111.5 -207.5t-120 -195.5t-232.5 -0.5t-120 199.5z" />
<glyph unicode="&#xb8;" d="M184 -184q33 -8 69 -8.5t71.5 35.5t35.5 73t-24.5 56.5t-48.5 19.5h-39l112 176h64l-55 -80q63 -16 95 -52t32 -99.5t-59.5 -115.5t-125.5 -52h-127v47z" />
<glyph unicode="&#xb9;" d="M135 1448l209 88h33v-592q0 -55 4 -67.5t19.5 -20.5t78.5 -8v-33h-327v33q63 0 79.5 8t20.5 20.5t4 67.5v377q0 72 -4 91.5t-27.5 23.5t-72.5 -13z" />
<glyph unicode="&#xba;" d="M33 1233q0 135 80 219t215 84q121 0 200.5 -84t79.5 -205q0 -127 -88 -215t-209 -88t-199.5 80t-78.5 209zM168 1305q0 -152 72 -256q41 -55 104 -58q55 0 91 44t36 141q0 160 -72 256q-39 63 -102 63q-47 0 -88 -43t-41 -147z" />
<glyph unicode="&#xbb;" d="M63 143l240 473l-240 471h58l399 -471l-399 -473h-58zM520 143l240 473l-240 471h55l386 -471l-386 -473h-55z" />
<glyph unicode="&#xbc;" d="M55 1448l154 88h22v-592q0 -55 8.5 -75.5t71.5 -20.5v-33h-231v33q47 0 59.5 20.5t12.5 75.5v377q0 72 -4.5 91.5t-8.5 23.5t-19.5 4t-39.5 -17zM160 104l641 1432h71l-649 -1432h-63zM616 297v72l265 462h55v-454h80v-80h-80v-184h-72v184h-248zM680 377h184v319z" />
<glyph unicode="&#xbd;" d="M55 1448l146 88h30v-592q0 -55 8.5 -75.5t57.5 -20.5v-33h-234v33q55 0 67.5 16.5t12.5 79.5v377q0 72 -4 91.5t-23.5 23.5t-52.5 -13zM135 104l658 1432h63l-655 -1432h-66zM625 113v30q143 168 203.5 285t60.5 176.5t-33 99t-73 39.5t-67.5 -27.5t-43.5 -90.5h-33 q8 96 52 151t118 55q80 0 127 -55t47 -123.5t-47 -165t-209 -278.5h137q72 0 92.5 11t26.5 44h41l-47 -151h-352z" />
<glyph unicode="&#xbe;" d="M63 864.5q0 -16.5 20.5 -40t76.5 -23.5q104 0 160.5 75.5t56.5 155.5t-24.5 128t-63.5 79q63 80 63 144.5t-31.5 108.5t-92 44t-96 -40t-60.5 -112l24 -16q41 88 88 88t67.5 -31.5t20.5 -88t-35.5 -100.5t-84.5 -44v-33q80 0 115.5 -47t35.5 -107.5t-27.5 -100.5 t-59.5 -40t-63.5 23.5t-52 23.5t-29 -15t-8.5 -31.5zM201 104l614 1432h57l-608 -1432h-63zM647 297v72l250 462h55v-454h72v-80h-72v-184h-80v184h-225zM705 377h167v319z" />
<glyph unicode="&#xbf;" d="M127 220q0 99 37 175t136 184.5t128 176t37 172.5h39q-8 -113 -23.5 -180.5t-96.5 -227.5t-81 -268.5t60.5 -172t152.5 -63.5t144.5 32t52.5 72t-33 84t-33 75.5t24.5 56t56.5 24.5t67.5 -39.5t35.5 -123.5t-92 -164t-256 -80t-260 84t-96 183zM377 1119q0 40 26.5 73 t67.5 33q47 0 75.5 -33t28.5 -73t-27.5 -75.5t-71.5 -35.5t-71.5 35.5t-27.5 75.5z" />
<glyph unicode="&#xc0;" d="M8 41v47h25q33 0 56.5 19.5t31.5 68.5l311 1225l121 39l303 -1264q16 -47 40 -67.5t56 -20.5h25v-47h-344v47h31q47 0 59 27.5t-2 85.5l-82 352h-358l-72 -305q-16 -72 -1 -116t73 -44h22v-47h-295zM297 600h336l-162 664h-6zM297 1759h190l88 -286h-22z" />
<glyph unicode="&#xc1;" d="M8 41v47h25q33 0 56.5 19.5t31.5 68.5l311 1225l121 39l303 -1264q16 -47 40 -67.5t56 -20.5h25v-47h-344v47h31q47 0 59 27.5t-2 85.5l-82 352h-358l-72 -305q-16 -72 -1 -116t73 -44h22v-47h-295zM297 600h336l-162 664h-6zM385 1473l86 286h193l-256 -286h-23z" />
<glyph unicode="&#xc2;" d="M8 41v47h25q33 0 56.5 19.5t31.5 68.5l311 1225l121 39l303 -1264q16 -47 40 -67.5t56 -20.5h25v-47h-344v47h31q47 0 59 27.5t-2 85.5l-82 352h-358l-72 -305q-16 -72 -1 -116t73 -44h22v-47h-295zM231 1473l201 286h143l185 -286h-39l-234 176l-215 -176h-41zM297 600 h336l-162 664h-6z" />
<glyph unicode="&#xc3;" d="M8 41v47h25q33 0 56.5 19.5t31.5 68.5l311 1225l121 39l303 -1264q16 -47 40 -67.5t56 -20.5h25v-47h-344v47h31q47 0 59 27.5t-2 85.5l-82 352h-358l-72 -305q-16 -72 -1 -116t73 -44h22v-47h-295zM248 1552q0 113 40 156t88 43t84 -15.5t111.5 -55.5t108.5 -40t48 19.5 t32 91.5h16q0 -80 -20.5 -116t-56 -59.5t-91 -23.5t-152 55.5t-117 55.5t-35.5 -19.5t-32 -91.5h-24zM297 600h336l-162 664h-6z" />
<glyph unicode="&#xc4;" d="M8 41v47h25q33 0 56.5 19.5t31.5 68.5l311 1225l121 39l303 -1264q16 -47 40 -67.5t56 -20.5h25v-47h-344v47h31q47 0 59 27.5t-2 85.5l-82 352h-358l-72 -305q-16 -72 -1 -116t73 -44h22v-47h-295zM240 1652q0 44 31.5 75.5t72.5 31.5q47 0 80 -31.5t33 -75.5t-33 -76 t-77 -32t-75.5 32t-31.5 76zM297 600h336l-162 664h-6zM567 1652q0 44 32 75.5t73 31.5q47 0 79.5 -31.5t32.5 -75.5t-31.5 -76t-75.5 -32t-77 32t-33 76z" />
<glyph unicode="&#xc5;" d="M8 41v47h25q33 0 56.5 19.5t31.5 68.5l311 1225l121 39l303 -1264q16 -47 40 -67.5t56 -20.5h25v-47h-344v47h31q47 0 59 27.5t-2 85.5l-82 352h-358l-72 -305q-16 -72 -1 -116t73 -44h22v-47h-295zM297 600h336l-162 664h-6zM360 1607.5q0 63.5 44.5 107.5t107.5 44 t107.5 -44t44.5 -107.5t-44.5 -107.5t-107.5 -44t-107.5 44t-44.5 107.5zM399 1612q0 -43 33 -80t77 -37t75.5 37t31.5 84t-35.5 75.5t-75.5 29t-73 -32.5t-33 -76z" />
<glyph unicode="&#xc6;" d="M8 41v47q25 0 44.5 16.5t40 60.5t50.5 163l234 768q33 143 36 187t-12.5 60.5t-81.5 24.5v41h625l8 -297h-24q-8 96 -23.5 144.5t-36 63.5t-84.5 15h-184v-534h152q55 -8 75.5 23.5t20.5 166.5h33v-471h-33q0 104 -8.5 136t-27.5 48.5t-60 16.5h-152v-449q0 -96 4 -123.5 t60 -27.5h104q63 0 92 19.5t68 68.5q33 72 71 182h25l-72 -350h-567v47h14q63 0 75.5 36t12.5 165v295h-215l-71 -240q-47 -143 -56.5 -180t-1 -52.5t104.5 -23.5v-47h-240zM289 647h198v688z" />
<glyph unicode="&#xc7;" d="M72 713q0 193 68.5 352.5t188.5 251.5t252 92t199.5 -44t84 -44t27.5 23.5t28 64.5h32l25 -432h-25q-47 193 -132 275.5t-200.5 82.5t-203.5 -59t-128 -207.5t-40 -336t40 -319.5t132 -201t203.5 -69t184.5 60.5t169 220.5l31 -25q-96 -176 -197 -256q-84 -70 -199 -80 l-12 -30q41 -16 68.5 -52t27.5 -100.5t-44 -117t-132 -52.5h-71v49q16 -8 47.5 -8t63.5 36t32 72t-19.5 56.5t-40.5 20.5h-36l69 126q-258 4 -389 240q-104 168 -104 410z" />
<glyph unicode="&#xc8;" d="M47 41v47h49q41 0 56.5 16.5t15.5 47.5v1144q0 33 -16.5 48.5t-55.5 15.5h-41v49h785l88 -272l-39 -17q-63 121 -136 180.5t-161 59.5h-223q-33 0 -52.5 -16.5t-19.5 -47.5v-495h231q80 0 116 40t36 120v47h47v-471h-47v30q0 88 -36 136.5t-116 48.5h-231v-600 q0 -33 19.5 -48.5t52.5 -15.5h206q121 0 205 67.5t131 213.5l41 -17l-88 -311h-817zM231 1759h226l102 -295h-31z" />
<glyph unicode="&#xc9;" d="M47 41v47h49q41 0 56.5 16.5t15.5 47.5v1144q0 33 -16.5 48.5t-55.5 15.5h-41v49h785l88 -272l-39 -17q-63 121 -136 180.5t-161 59.5h-223q-33 0 -52.5 -16.5t-19.5 -47.5v-495h231q80 0 116 40t36 120v47h47v-471h-47v30q0 88 -36 136.5t-116 48.5h-231v-600 q0 -33 19.5 -48.5t52.5 -15.5h206q121 0 205 67.5t131 213.5l41 -17l-88 -311h-817zM416 1464l104 295h223l-294 -295h-33z" />
<glyph unicode="&#xca;" d="M47 41v47h49q41 0 56.5 16.5t15.5 47.5v1144q0 33 -16.5 48.5t-55.5 15.5h-41v49h785l88 -272l-39 -17q-63 121 -136 180.5t-161 59.5h-223q-33 0 -52.5 -16.5t-19.5 -47.5v-495h231q80 0 116 40t36 120v47h47v-471h-47v30q0 88 -36 136.5t-116 48.5h-231v-600 q0 -33 19.5 -48.5t52.5 -15.5h206q121 0 205 67.5t131 213.5l41 -17l-88 -311h-817zM215 1464l170 295h182l176 -295h-38l-240 193l-217 -193h-33z" />
<glyph unicode="&#xcb;" d="M47 41v47h49q41 0 56.5 16.5t15.5 47.5v1144q0 33 -16.5 48.5t-55.5 15.5h-41v49h785l88 -272l-39 -17q-63 121 -136 180.5t-161 59.5h-223q-33 0 -52.5 -16.5t-19.5 -47.5v-495h231q80 0 116 40t36 120v47h47v-471h-47v30q0 88 -36 136.5t-116 48.5h-231v-600 q0 -33 19.5 -48.5t52.5 -15.5h206q121 0 205 67.5t131 213.5l41 -17l-88 -311h-817zM209 1652q0 44 30.5 75.5t71.5 31.5q47 0 80 -31.5t33 -75.5t-32 -76t-76 -32t-75.5 32t-31.5 76zM537 1652q0 44 30.5 75.5t71.5 31.5q47 0 80 -31.5t33 -75.5t-32 -76t-76 -32t-75.5 32 t-31.5 76z" />
<glyph unicode="&#xcc;" d="M184 41v47h185q41 0 56 16.5t15 47.5v1144q0 33 -16 48.5t-55 15.5h-185v49h639v-49h-184q-33 0 -52.5 -16.5t-19.5 -47.5v-1144q0 -33 21 -50q18 -14 51 -14h184v-47h-639zM256 1759h223l96 -295h-30z" />
<glyph unicode="&#xcd;" d="M184 41v47h185q41 0 56 16.5t15 47.5v1144q0 33 -16 48.5t-55 15.5h-185v49h639v-49h-184q-33 0 -52.5 -16.5t-19.5 -47.5v-1144q0 -33 21 -50q18 -14 51 -14h184v-47h-639zM408 1456l104 303h223l-295 -303h-32z" />
<glyph unicode="&#xce;" d="M184 41v47h185q41 0 56 16.5t15 47.5v1144q0 33 -16 48.5t-55 15.5h-185v49h639v-49h-184q-33 0 -52.5 -16.5t-19.5 -47.5v-1144q0 -33 21 -50q18 -14 51 -14h184v-47h-639zM240 1481l184 278h184l152 -278h-33l-223 182l-232 -182h-32z" />
<glyph unicode="&#xcf;" d="M184 41v47h185q41 0 56 16.5t15 47.5v1144q0 33 -16 48.5t-55 15.5h-185v49h639v-49h-184q-33 0 -52.5 -16.5t-19.5 -47.5v-1144q0 -33 21 -50q18 -14 51 -14h184v-47h-639zM223 1652q0 44 33 75.5t76 33t76 -31.5t32.5 -77t-32 -76t-75.5 -32t-77 32t-33 76zM553 1652 q0 44 30.5 75.5t71.5 31.5q47 0 80 -31.5t33 -75.5t-31.5 -76t-76 -32t-76 32t-31.5 76z" />
<glyph unicode="&#xd0;" d="M80 41v47h47q72 -2 82 39q16 41 14 154v446h-143v74h143v375q0 127 -8 151q-25 41 -94 41h-41v47h385q201 0 304 -71.5t166.5 -231.5t63.5 -377q0 -289 -123.5 -491.5t-396.5 -202.5h-399zM352 135q88 -25 144 -14q152 0 260 164t108 442q0 272 -104.5 440t-263.5 168 q-72 8 -144 -14v-520h264v-74h-264v-592z" />
<glyph unicode="&#xd1;" d="M8 41v47h64q41 0 56 16.5t15 47.5v1144q0 33 -15 48.5t-56 15.5h-47v49h231l545 -1049h14v936q0 33 -15.5 48.5t-56.5 15.5h-63v49h319v-49h-63q-33 0 -52.5 -16.5t-19.5 -47.5v-1255h-49l-606 1192h-16v-1081q0 -33 19 -48.5t52 -15.5h64v-47h-320zM240 1552 q0 121 48 164t96 43t80 -11t103.5 -55t104.5 -44t52 23.5t36 86.5h24q0 -72 -24.5 -111.5t-60 -67.5t-91 -28t-132.5 48.5t-96.5 59.5t-48 11t-39.5 -23.5t-28 -95.5h-24z" />
<glyph unicode="&#xd2;" d="M63 727q0 311 124 503.5t325 192.5q209 0 329 -203.5t120 -492.5q0 -328 -128 -515t-321 -187q-184 0 -316.5 191.5t-132.5 510.5zM215 727q0 -344 85 -499.5t212 -155.5q135 0 216 148.5t81 506.5q0 289 -68.5 465t-228.5 176q-135 0 -216 -161t-81 -480zM289 1759h190 l88 -295h-22z" />
<glyph unicode="&#xd3;" d="M63 727q0 311 124 503.5t325 192.5q209 0 329 -203.5t120 -492.5q0 -328 -128 -515t-321 -187q-184 0 -316.5 191.5t-132.5 510.5zM215 727q0 -344 85 -499.5t212 -155.5q135 0 216 148.5t81 506.5q0 289 -68.5 465t-228.5 176q-135 0 -216 -161t-81 -480zM432 1464 l88 295h193l-256 -295h-25z" />
<glyph unicode="&#xd4;" d="M63 727q0 311 124 503.5t325 192.5q209 0 329 -203.5t120 -492.5q0 -328 -128 -515t-321 -187q-184 0 -316.5 191.5t-132.5 510.5zM215 727q0 -344 85 -499.5t212 -155.5q135 0 216 148.5t81 506.5q0 289 -68.5 465t-228.5 176q-135 0 -216 -161t-81 -480zM240 1448 l176 311h168l184 -311h-25l-247 209l-232 -209h-24z" />
<glyph unicode="&#xd5;" d="M63 727q0 311 124 503.5t325 192.5q209 0 329 -203.5t120 -492.5q0 -328 -128 -515t-321 -187q-184 0 -316.5 191.5t-132.5 510.5zM215 727q0 -344 85 -499.5t212 -155.5q135 0 216 148.5t81 506.5q0 289 -68.5 465t-228.5 176q-135 0 -216 -161t-81 -480zM248 1544 q0 121 48 168t96 47t80 -11t103.5 -59.5t104.5 -48.5t52.5 24t35.5 95h25q0 -80 -25 -124t-60.5 -67.5t-92 -23.5t-132 48t-95 59.5t-48.5 11.5t-40 -23.5t-28 -95.5h-24z" />
<glyph unicode="&#xd6;" d="M63 727q0 311 124 503.5t325 192.5q209 0 329 -203.5t120 -492.5q0 -328 -128 -515t-321 -187q-184 0 -316.5 191.5t-132.5 510.5zM215 727q0 -344 85 -499.5t212 -155.5q135 0 216 148.5t81 506.5q0 289 -68.5 465t-228.5 176q-135 0 -216 -161t-81 -480zM231 1652 q0 44 33 75.5t76 33t76 -31.5t33 -77t-32 -76t-76 -32t-77 32t-33 76zM592 1652q0 44 31.5 75.5t72.5 31.5q47 0 80 -31.5t33 -75.5t-33 -76t-77 -32t-75.5 32t-31.5 76z" />
<glyph unicode="&#xd7;" horiz-adv-x="2048" d="M369 160l575 575l-575 578l63 63l576 -575l553 575l71 -63l-561 -578l578 -567l-72 -72l-569 576l-576 -576z" />
<glyph unicode="&#xd8;" d="M63 743q0 289 117 480.5t340 199.5q168 1 281 -151l96 168l39 -39l-96 -176q63 -104 87.5 -216t33.5 -274q8 -344 -152 -567q-121 -143 -289 -143q-63 -8 -143 27.5t-146 115.5l-88 -160l-39 47l89 160q-127 209 -130 528zM215 743q0 -223 41 -415l487 848 q-63 193 -247 192q-41 0 -80 -25q-55 -33 -97 -88q-47 -72 -75.5 -212t-28.5 -300zM281 248q33 -55 71 -105q88 -63 144 -71q63 0 119.5 27.5t100.5 96t68.5 200.5t24.5 309q0 127 -8 231q-17 64 -33 168z" />
<glyph unicode="&#xd9;" d="M25 1360v49h352v-49h-41q-33 0 -52.5 -16.5t-19.5 -47.5v-936q0 -160 67.5 -216t180.5 -56q121 0 205 80t84 201v927q0 33 -16.5 48.5t-57.5 15.5h-47v49h289v-49h-49q-33 0 -52.5 -16.5t-19.5 -47.5v-927q0 -160 -107.5 -252t-244.5 -92q-143 0 -252 79.5t-109 255.5 v936q0 33 -15.5 48.5t-56.5 15.5h-38zM289 1759h190l88 -295h-22z" />
<glyph unicode="&#xda;" d="M25 1360v49h352v-49h-41q-33 0 -52.5 -16.5t-19.5 -47.5v-936q0 -160 67.5 -216t180.5 -56q121 0 205 80t84 201v927q0 33 -16.5 48.5t-57.5 15.5h-47v49h289v-49h-49q-33 0 -52.5 -16.5t-19.5 -47.5v-927q0 -160 -107.5 -252t-244.5 -92q-143 0 -252 79.5t-109 255.5 v936q0 33 -15.5 48.5t-56.5 15.5h-38zM449 1464l88 295h190l-256 -295h-22z" />
<glyph unicode="&#xdb;" d="M25 1360v49h352v-49h-41q-33 0 -52.5 -16.5t-19.5 -47.5v-936q0 -160 67.5 -216t180.5 -56q121 0 205 80t84 201v927q0 33 -16.5 48.5t-57.5 15.5h-47v49h289v-49h-49q-33 0 -52.5 -16.5t-19.5 -47.5v-927q0 -160 -107.5 -252t-244.5 -92q-143 0 -252 79.5t-109 255.5 v936q0 33 -15.5 48.5t-56.5 15.5h-38zM256 1481l184 278h152l184 -278h-24l-248 182l-223 -182h-25z" />
<glyph unicode="&#xdc;" d="M25 1360v49h352v-49h-41q-33 0 -52.5 -16.5t-19.5 -47.5v-936q0 -160 67.5 -216t180.5 -56q121 0 205 80t84 201v927q0 33 -16.5 48.5t-57.5 15.5h-47v49h289v-49h-49q-33 0 -52.5 -16.5t-19.5 -47.5v-927q0 -160 -107.5 -252t-244.5 -92q-143 0 -252 79.5t-109 255.5 v936q0 33 -15.5 48.5t-56.5 15.5h-38zM240 1652q0 44 31.5 75.5t72.5 31.5q47 0 80 -31.5t33 -75.5t-33 -76t-77 -32t-75.5 32t-31.5 76zM600 1652q0 44 32 75.5t73 31.5q47 0 78.5 -31.5t31.5 -75.5t-31.5 -76t-75.5 -32t-76 32t-32 76z" />
<glyph unicode="&#xdd;" d="M41 1360v49h350v-49h-47q-47 0 -55 -23.5t8 -72.5l215 -592h16l224 592q8 47 -11.5 71.5t-76.5 24.5h-17v49h314v-49h-25q-41 0 -73 -27.5t-54 -85.5l-250 -631v-464q0 -33 20.5 -48.5t53.5 -15.5h72v-47h-416v47h71q41 0 56.5 16.5t15.5 47.5v415l-272 705 q-16 41 -40 64.5t-65 23.5h-14zM440 1464l88 295h193l-256 -295h-25z" />
<glyph unicode="&#xde;" d="M63 41v39h33q96 0 124 40t28 161v878q0 113 -8.5 140.5t-48 48t-87.5 20.5h-41v41h504v-41h-39q-47 0 -88 -16.5t-52 -52t-11 -140.5v-63h102q152 0 224.5 -15.5t144.5 -59.5t120 -121t48 -161t-32 -151.5t-80 -111.5t-100 -71.5t-111.5 -40t-205.5 -12.5h-110v-55 q0 -135 31.5 -176t119.5 -41h39v-39h-504zM377 424h88q176 0 256 31.5t124 104.5t44 157t-33 147.5t-84 99t-99 48t-169 12.5h-127v-600z" />
<glyph unicode="&#xdf;" d="M72 47v41q63 0 87.5 12.5t37 44t12.5 119.5v705q0 240 94 336q88 104 225 104q160 0 252 -81t96.5 -200.5t-56 -191.5t-132.5 -105q135 -41 204 -148.5t69 -259t-96.5 -267t-212 -115.5t-168 47t-52.5 95t19.5 73t60.5 25t60.5 -25t23.5 -52.5t-8.5 -52t8 -40t65 -11.5 t103.5 59.5t67.5 227.5t-75.5 293t-260 113v47q127 0 191.5 60.5t56 199.5t-59.5 191t-151.5 52t-148.5 -63t-48 -240v-993h-264z" />
<glyph unicode="&#xe0;" d="M88 468q0 -179 80 -300t191.5 -144.5t208 12.5t145.5 132v-33q0 -113 110 -110h58v47q-55 16 -58 121v743h-22q-47 -64 -80 -127q-55 88 -140 111.5t-184.5 0t-204 -148.5t-104.5 -304zM223 475q0 164 73 264.5t216 104.5t201 -123v-457q-63 -135 -172 -155.5 t-176.5 15.5t-104.5 111.5t-37 239.5zM308 1280q3 55 43 67.5t80 -11.5t136 -296l-39 -8q-223 193 -220 248z" />
<glyph unicode="&#xe1;" d="M88 468q0 -179 80 -300t191.5 -144.5t208 12.5t145.5 132v-33q0 -113 110 -110h58v47q-55 16 -58 121v743h-22q-47 -64 -80 -127q-55 88 -140 111.5t-184.5 0t-204 -148.5t-104.5 -304zM223 475q0 164 73 264.5t216 104.5t201 -123v-457q-63 -135 -172 -155.5 t-176.5 15.5t-104.5 111.5t-37 239.5zM416 1068q0 44 264 253h41q-143 -272 -180 -301t-81 -12.5t-44 60.5z" />
<glyph unicode="&#xe2;" d="M80 256q0 143 124 235.5t492 133.5q8 176 -31.5 227t-172 51t-188.5 -44t-39.5 -84t0 -71.5t-56.5 -31.5t-60.5 20.5t-20.5 75.5t104.5 119.5t260 64.5t236.5 -60.5t81 -170.5v-528q0 -63 11 -76t47 -13t52.5 36t16.5 100h41q0 -113 -40 -156t-100.5 -43t-92.5 23.5 t-48 78.5q-80 -55 -148.5 -82.5t-188 -27.5t-199.5 67.5t-80 155.5zM160 1208l184 328h184l193 -328h-33l-272 215l-232 -215h-24zM215 297q0 -88 44 -148.5t128 -60.5t156.5 27.5t152.5 85.5v374q-272 -33 -376.5 -111.5t-104.5 -166.5z" />
<glyph unicode="&#xe3;" d="M80 256q0 143 124 235.5t492 133.5v96q0 80 -35.5 131t-164.5 51q-135 0 -191.5 -44t-40.5 -91q16 -33 0 -64.5t-56 -31.5t-60.5 20.5t-16.5 75.5t104.5 119.5t256 64.5t236.5 -60.5t81 -170.5v-528q0 -63 11 -76t47 -13t52.5 36t16.5 100h41q0 -113 -40 -156t-100.5 -43 t-92 23.5t-48.5 78.5q-80 -55 -148.5 -82.5t-180 -27.5t-199.5 67.5t-88 155.5zM193 1272q0 121 48 165t96 44t80 -12.5t103.5 -56.5t103 -44t52 23.5t37.5 89.5h22q0 -72 -23.5 -113t-59.5 -68.5t-92 -27.5t-132 48t-96.5 60.5t-48 12.5t-40 -25t-28.5 -96h-22zM215 281 q0 -72 44 -132.5t140 -60.5q72 0 144.5 27.5t152.5 85.5v374q-272 -33 -376.5 -107t-104.5 -187z" />
<glyph unicode="&#xe4;" d="M80 256q0 143 124 235.5t492 133.5v96q0 80 -35.5 131t-164.5 51q-135 0 -191.5 -44t-40.5 -91q16 -33 0 -64.5t-56 -31.5t-60.5 20.5t-16.5 71.5t104.5 119.5t256 68.5t236.5 -60.5t81 -170.5v-528q0 -63 11 -76t47 -13t52.5 36t16.5 100h41q0 -113 -40 -156t-100.5 -43 t-92 23.5t-48.5 78.5q-80 -55 -148.5 -82.5t-188 -27.5t-199.5 67.5t-80 155.5zM176 1379q0 44 32 77t73 33q47 0 78.5 -33t31.5 -77t-31.5 -75.5t-75.5 -31.5t-76 31.5t-32 75.5zM215 281q0 -72 44 -132.5t140 -60.5q72 0 144.5 27.5t152.5 85.5v374q-272 -33 -376.5 -107 t-104.5 -187zM520 1379q0 44 32 77t73 33q47 0 78.5 -33t31.5 -77t-31.5 -75.5t-75.5 -31.5t-76 31.5t-32 75.5z" />
<glyph unicode="&#xe5;" d="M80 256q0 143 124 235.5t492 133.5v96q0 80 -35.5 131t-168 51t-188.5 -44t-40 -91q16 -33 -4 -68.5t-60 -35.5t-59.5 28.5t-8.5 79.5t107.5 115.5t252 64.5t236.5 -60.5t81 -170.5v-528q0 -63 11 -76t47 -13t52.5 36t16.5 100h41q0 -113 -40 -156t-100.5 -43t-92 23.5 t-48.5 78.5q-80 -55 -148.5 -82.5t-184 -27.5t-199.5 67.5t-84 155.5zM215 281q0 -72 44 -132.5t140 -60.5q72 0 144.5 27.5t152.5 85.5v374q-272 -33 -376.5 -107t-104.5 -187zM248 1384.5q0 71.5 52 124t125 51t120 -48.5q55 -47 55 -118.5t-52 -123.5t-128 -52t-124 48 t-48 119.5zM311 1391.5q0 -48.5 33 -84t80 -35.5t80 35.5t28.5 88t-36 80t-75.5 29t-77 -31.5t-33 -81.5z" />
<glyph unicode="&#xe6;" d="M8 364.5q0 92.5 36 156t147.5 128t224.5 78.5v184q0 57 -44 101.5t-92.5 44.5t-80 -33t-27.5 -88t-8 -88t-52 -40t-59.5 16.5t-19.5 67.5t27.5 96t91 88t151.5 36t148.5 -44t68.5 -91q55 72 103.5 107.5t144.5 31.5t172 -100t76 -344h-488v-92q0 -20 12.5 -104.5 t59.5 -148t131 -63.5t148.5 60.5t111.5 187.5l25 -25q-25 -160 -113 -252t-179 -92t-155.5 44t-103.5 116q-104 -113 -156.5 -136.5t-124 -23.5t-124 64.5t-52.5 157zM131 436q-4 -84 37 -136t88 -52t84 20.5t109 83.5q-8 41 -20.5 121t-20.5 182q-121 -25 -197 -80 t-80 -139zM528 735h344q0 193 -48 249t-119 56q-63 0 -115.5 -60t-61.5 -245z" />
<glyph unicode="&#xe7;" d="M72 608q0 215 128 351.5t283.5 136.5t240.5 -67.5t85 -124t-24.5 -84t-68.5 -32t-72 27.5t-28 92.5t-39.5 92t-119.5 31.5t-164 -88t-96.5 -264t55 -292t204 -128t220.5 59.5t139 200.5l25 -16q-33 -184 -140.5 -268t-253.5 -89q-18 -2 -36 0l-41 -59q63 -16 95 -52 t32 -91q-8 -80 -56.5 -120t-120 -48t-135.5 -8v47q33 -8 69 -8.5t71.5 35.5t35.5 73t-24.5 56.5t-48.5 19.5h-39l106 166q-90 25 -168 106q-115 121 -114 344z" />
<glyph unicode="&#xe8;" d="M131 464q-4 216 100.5 336t216 140.5t208 -8.5t168 -121t79.5 -307h-614q-8 -152 51 -260.5t187 -119.5t212 44t117 121h47q-25 -96 -124 -180t-263 -84t-272.5 111.5t-112.5 327.5zM289 567h463q-8 168 -76 241t-152 68.5t-155.5 -77t-79.5 -232.5zM320.5 1288 q-1.5 55 51 67.5t88.5 -23t124 -283.5l-39 -9q-223 193 -224.5 248z" />
<glyph unicode="&#xe9;" d="M131 456q-4 216 100.5 335.5t216 140t208 -7t168 -120.5t79.5 -308h-614q-8 -152 51 -260.5t187 -120t212 44t117 121.5h47q-25 -96 -124 -180.5t-263 -84.5t-272.5 112t-112.5 328zM289 559h463q-8 168 -76 240.5t-152 68.5t-155.5 -76.5t-79.5 -232.5zM449 1100 q0 43 264 252h39q-143 -272 -179 -300t-80 -11.5t-44 59.5z" />
<glyph unicode="&#xea;" d="M131 456q-4 216 100.5 335.5t216 140t208 -7t168 -120.5t79.5 -308h-614q-8 -152 51 -260.5t187 -120t212 44t117 121.5h47q-25 -96 -124 -180.5t-263 -84.5t-272.5 112t-112.5 328zM193 1032q215 328 250.5 336t60 8t63.5 -16.5t248 -327.5h-39l-272 207l-273 -207h-38z M289 559h463q-8 168 -76 240.5t-152 68.5t-155.5 -76.5t-79.5 -232.5z" />
<glyph unicode="&#xeb;" d="M121 487q0 201 115.5 333t283.5 132q160 8 268.5 -104.5t108.5 -360.5h-649q0 -215 84 -307t203.5 -92t192.5 60.5t103 148.5l41 -16q-25 -88 -108.5 -172t-247.5 -84t-279.5 119.5t-115.5 342.5zM201 1299q0 44 30.5 77t71.5 33q47 0 80 -33t33 -77t-32 -75.5t-76 -31.5 t-75.5 31.5t-31.5 75.5zM248 537h512q8 176 -59.5 268t-180.5 92q-121 0 -196.5 -96t-75.5 -264zM553 1299q0 44 30.5 77t71.5 33q47 0 80 -33t33 -77t-31.5 -75.5t-76 -31.5t-76 31.5t-31.5 75.5z" />
<glyph unicode="&#xec;" d="M201 1288q0 55 51 67.5t88 -23t125 -283.5l-41 -9q-223 193 -223 248zM215 33v39q143 0 162 63v649q0 72 -121 64v33q127 25 193 63h47v-801q16 -72 159 -71v-39h-440z" />
<glyph unicode="&#xed;" d="M215 33v39q143 0 162 63v649q0 72 -121 64v33q127 25 193 63h47v-801q16 -72 159 -71v-39h-440zM319.5 1100q0.5 43 264.5 252h41q-143 -272 -180 -300t-81.5 -11.5t-44 59.5z" />
<glyph unicode="&#xee;" d="M160 1176l184 327h184l193 -327h-33l-256 217l-248 -217h-24zM209 41v47h168q41 0 56.5 16.5t15.5 47.5v663q0 33 -16.5 53.5t-55.5 20.5h-168v47h80q72 0 135 12.5t121 42.5h14v-839q0 -33 20.5 -48.5t53.5 -15.5h168v-47h-592z" />
<glyph unicode="&#xef;" d="M168 1387.5q0 44.5 31.5 76t75.5 32.5t77 -32t33 -77t-33 -75.5t-77 -31.5t-75.5 31.5t-31.5 76zM209 41v47h168q41 0 56.5 16.5t15.5 47.5v663q0 33 -16.5 53.5t-55.5 20.5h-168v47h80q72 0 135 12.5t121 42.5h14v-839q0 -33 20.5 -48.5t53.5 -15.5h168v-47h-592z M520 1396q0 44 32 75.5t73 31.5q47 0 78.5 -31.5t31.5 -75.5t-31.5 -76t-75.5 -32t-76 32t-32 76z" />
<glyph unicode="&#xf0;" d="M72 479q0 201 104.5 312.5t207.5 132t167.5 12.5t153.5 -64q-96 176 -218 295l-264 -127l-30 47l256 138q-96 88 -209 151l24 33q143 -63 248 -145l248 129l33 -58l-226 -118q193 -176 277 -336t92 -325t-44 -280.5t-164 -179t-268.5 -48.5t-272 128t-115.5 303zM201 537 q0 -135 31.5 -228.5t119.5 -144.5t193 -51q96 0 172 71.5t84 231.5q0 223 -81 352t-241 129q-96 0 -180 -88t-98 -272z" />
<glyph unicode="&#xf1;" d="M55 41v47h41q41 0 56.5 16.5t15.5 47.5v688q0 25 -8 37t-33 12h-64v47h58q41 0 75.5 8t67.5 33h17v-184q72 80 143.5 119.5t180 39.5t172 -71.5t63.5 -216.5v-512q0 -33 20.5 -48.5t50.5 -15.5h41v-47h-336v47h39q41 0 56.5 16.5t15.5 47.5v536q0 96 -40 148.5 t-115.5 52.5t-151.5 -48t-139 -136v-553q0 -33 19 -48.5t52 -15.5h39v-47h-336zM201 1288q0 121 48 168t95 47t80 -11t104.5 -59.5t103.5 -48.5t52.5 24t36.5 95h22q0 -80 -23.5 -124t-59 -67.5t-92 -19.5t-128 52.5t-88 56.5t-52.5 8t-48 -24.5t-29 -96.5h-22z" />
<glyph unicode="&#xf2;" d="M104 479q8 176 96.5 289t204 148.5t231.5 0t200 -152.5t88 -289t-99.5 -315.5t-304.5 -143.5t-312.5 143.5t-103.5 319.5zM240 471q8 -160 83.5 -267.5t144.5 -119.5t124 8.5t123.5 119.5t68.5 263t-75.5 280.5t-188 112.5t-196.5 -116.5t-84 -280.5zM304 1280 q-1 55 47 71.5t88 -23.5t128 -288l-39 -8q-223 193 -224 248z" />
<glyph unicode="&#xf3;" d="M96 487q8 176 100.5 289t208 149t231.5 4t200 -153t88 -293t-107.5 -315t-304.5 -143t-308.5 143t-107.5 319zM240 479q8 -160 83.5 -267.5t144.5 -119.5t124 8.5t123.5 119.5t68.5 263t-75.5 281t-188 112.5t-196.5 -117t-84 -280.5zM449 1091.5q0 42.5 264 251.5h39 q-143 -272 -179 -299.5t-80 -11t-44 59z" />
<glyph unicode="&#xf4;" d="M88 487q0 176 115.5 320.5t300.5 144.5q193 0 304.5 -144.5t111.5 -320.5q0 -201 -120 -331.5t-296 -130.5q-184 0 -300 136t-116 326zM215 479q0 -209 85 -308t204 -99q135 0 212 108.5t77 298.5q0 209 -84 316.5t-205 107.5q-113 0 -201 -107.5t-88 -316.5zM215 1176 l184 327h185l192 -327h-33l-264 217l-239 -217h-25z" />
<glyph unicode="&#xf5;" d="M88 487q0 176 115.5 320.5t300.5 144.5q193 0 304.5 -144.5t111.5 -320.5q0 -201 -120 -331.5t-296 -130.5q-184 0 -300 136t-116 326zM215 479q0 -209 85 -308t204 -99q135 0 212 108.5t77 298.5q0 209 -84 316.5t-205 107.5q-113 0 -201 -107.5t-88 -316.5zM223 1272 q0 121 48 169t96.5 48t80 -12.5t104.5 -60.5t104.5 -48t51 23.5t35.5 97.5h25q0 -80 -23.5 -124t-60.5 -68.5t-92 -24.5t-131 48t-96.5 60.5t-48 12.5t-40 -25t-28.5 -96h-25z" />
<glyph unicode="&#xf6;" d="M88 487q0 176 115.5 320.5t300.5 144.5q184 8 300 -132t116 -333q0 -201 -120 -331.5t-296 -130.5q-184 0 -300 136t-116 326zM193 1396q0 44 31.5 75.5t72.5 31.5q47 0 79 -31.5t32 -75.5t-32 -76t-76 -32t-75.5 32t-31.5 76zM215 479q0 -209 85 -308t204 -99 q135 0 212 108.5t77 298.5q0 209 -84 316.5t-205 107.5q-113 0 -201 -107.5t-88 -316.5zM545 1396q0 44 30.5 75.5t71.5 31.5q47 0 80 -31.5t33 -75.5t-32 -76t-76 -32t-75.5 32t-31.5 76z" />
<glyph unicode="&#xf7;" horiz-adv-x="2048" d="M289 680h1462v96h-1462v-96zM860 235.5q4 83.5 80 119.5t143.5 -8t64.5 -127t-83 -124t-144.5 7.5t-60.5 132zM860 1243q4 84 80 121t143.5 -7t64.5 -128t-83 -125t-144.5 7t-60.5 132z" />
<glyph unicode="&#xf8;" d="M55 25l129 151q-47 72 -71.5 143.5t-24.5 184t56.5 220t144.5 164t187 65t172 -20.5t136 -92l136 151l41 -47l-138 -151q88 -113 96.5 -260.5t-44 -260t-144.5 -180t-195.5 -67.5t-171 23.5t-141.5 86.5l-127 -151zM216 552q-15 -153 32 -304l473 520 q-47 88 -111.5 115.5t-148.5 12.5t-157 -103t-88 -241zM281 193q72 -88 147.5 -109t155.5 -0.5t140 109t68.5 248t-40.5 272.5z" />
<glyph unicode="&#xf9;" d="M47 928q152 0 154 -105v-592q0 -121 71.5 -163.5t191.5 -31.5t257 157v-80q0 -80 110 -80h113v63q-72 0 -92.5 23.5t-20.5 95.5v762h-247v-49q135 0 137 -97v-567q-127 -113 -235.5 -117t-141.5 29t-33 121v680h-264v-49zM304 1288q-1 55 47 71.5t88 -23t128 -287.5 l-39 -9q-223 193 -224 248z" />
<glyph unicode="&#xfa;" d="M47 928q152 0 154 -105v-592q0 -121 71.5 -163.5t191.5 -31.5t257 157v-80q0 -80 110 -80h113v63q-72 0 -92.5 23.5t-20.5 95.5v762h-247v-49q135 0 137 -97v-567q-127 -113 -235.5 -117t-141.5 29t-33 121v680h-264v-49zM440.5 1108q0.5 43 264.5 252h38 q-143 -272 -179 -300t-80 -11.5t-43.5 59.5z" />
<glyph unicode="&#xfb;" d="M41 889v47h47q47 0 87 8t81 39h16v-664q0 -113 48.5 -159.5t136.5 -46.5q96 0 163.5 48t100.5 150v504q0 33 -16.5 53.5t-57.5 20.5h-47v47h47q47 0 88 8t80 39h16v-782q0 -33 20.5 -49.5t51.5 -16.5h49v-47h-49q-41 0 -80 -12.5t-88 -34.5h-14v168q-41 -88 -121 -132 t-184 -44q-127 0 -191.5 71.5t-64.5 231.5v479q0 33 -16.5 53.5t-55.5 20.5h-47zM193 1176l184 327h182l193 -327h-31l-264 217l-242 -217h-22z" />
<glyph unicode="&#xfc;" d="M47 928q152 0 154 -105v-592q0 -121 71.5 -163.5t191.5 -31.5t257 157v-80q0 -80 110 -80h113v63q-72 0 -92.5 23.5t-20.5 95.5v762h-247v-49q135 0 137 -97v-567q-127 -113 -235.5 -117t-141.5 29t-33 121v680h-264v-49zM193 1119q0 40 19 64.5t52 33t64.5 0t47 -32 t15.5 -64.5t-36 -64.5t-67.5 -23.5t-63 23.5t-31.5 63.5zM600 1119q0 40 19.5 64.5t48 33t64.5 0t52.5 -32t16.5 -64.5t-37 -64.5t-68.5 -23.5t-63.5 23.5t-32 63.5z" />
<glyph unicode="&#xfd;" d="M80 889h33q33 0 60.5 -20.5t35.5 -53.5l270 -702q-16 -63 -43.5 -132t-47 -96.5t-48.5 -40t-52.5 27.5t-67.5 40t-64.5 -27.5t-16.5 -60.5t33 -52.5t100.5 -19.5t132 56.5t107.5 199.5l272 793q16 41 48 64.5t65 23.5h47v47h-336v-47h47q33 0 52.5 -24.5t5.5 -63.5 l-176 -537h-17l-192 545q-8 41 8 60.5t49 19.5h31v47h-336v-47zM416 1159l104 344h223l-294 -344h-33z" />
<glyph unicode="&#xfe;" d="M33 -248h22q55 0 84 16.5t41.5 40t12.5 128.5v1343q0 96 -8.5 119.5t-25 36t-44 12.5t-68.5 -16l-6 32l240 113h38v-696q55 88 132 139t169.5 55t156 -36t115.5 -128t52 -264q-8 -240 -112.5 -367.5t-220 -147t-179 4t-113.5 72.5v-281q0 -96 12.5 -119.5t40 -40 t99.5 -16.5v-33h-438v33zM319 479q0 -113 9 -143q16 -63 68.5 -107.5t155.5 -44.5t176 92.5t77 296t-73 296t-161 92.5t-128 -25t-124 -113v-344z" />
<glyph unicode="&#xff;" d="M80 889v47h336v-47h-31q-33 0 -49.5 -20.5t-7.5 -59.5l192 -545h17l176 537q16 41 -4.5 64.5t-53.5 23.5h-47v47h336v-47h-47q-33 0 -64.5 -24.5t-48.5 -63.5l-272 -793q-41 -121 -100.5 -188.5t-135 -67.5t-108.5 19.5t-33 52.5t20.5 56.5t56.5 23.5t67.5 -28t52 -28 t37 8.5t32 40t40 91t38.5 125.5l-270 702q-8 33 -37 53.5t-59 20.5h-33zM231 1396q0 44 32 75.5t73 31.5q47 0 80 -31.5t33 -75.5t-32 -76t-76 -32t-77 32t-33 76zM584 1396q0 44 31.5 75.5t72.5 31.5q47 0 80 -31.5t33 -75.5t-33 -76t-77 -32t-75.5 32t-31.5 76z" />
<glyph unicode="&#x152;" d="M88 721q0 264 80 463q88 209 272 217h504l17 -289h-33q-16 113 -27.5 140.5t-32 51t-75.5 23.5h-146v-534h96q72 0 92.5 48t20.5 150h33v-479h-33q0 127 -23.5 164t-89.5 37h-96v-592h137q55 0 80 15.5t62 64.5q35 49 57 184h33l-55 -344h-457q-168 8 -248 88t-124 239.5 t-44 352.5zM215 735q0 -193 24.5 -332t72.5 -210.5t111.5 -80t92.5 19.5t29 157v790q0 143 -4 180t-24.5 60.5t-84 19.5t-116 -67.5t-77 -212t-24.5 -324.5z" />
<glyph unicode="&#x153;" d="M88 604q0 219 84 347t188.5 136.5t155.5 -35.5t84 -116q41 88 84 124t131 36t148.5 -96.5t52.5 -327.5h-377q0 -96 24.5 -199.5t72.5 -152t100.5 -44t96.5 59.5t58 176l25 -16q-16 -193 -75.5 -281t-139.5 -88t-128 48t-73 114q-41 -80 -96 -121t-147.5 -37t-180.5 129 t-88 344zM219 636q-4 -204 48 -319.5t125 -115.5t109 71.5t36 283.5t-37 332t-92 128q-47 16 -95.5 -8.5t-69 -96t-24.5 -275.5zM639 735h264q0 113 -15.5 177.5t-40 92t-79.5 23.5t-88 -60.5t-41 -232.5z" />
<glyph unicode="&#x178;" d="M41 1360v49h350v-49h-47q-47 0 -55 -23.5t8 -72.5l215 -592h16l224 592q8 47 -11.5 71.5t-76.5 24.5h-17v49h314v-49h-25q-41 0 -73 -27.5t-54 -85.5l-250 -631v-464q0 -33 20.5 -48.5t53.5 -15.5h72v-47h-416v47h71q41 0 56.5 16.5t15.5 47.5v415l-272 705 q-16 41 -40 64.5t-65 23.5h-14zM240 1652q0 44 31.5 75.5t72.5 31.5q47 0 80 -31.5t33 -75.5t-33 -76t-77 -32t-75.5 32t-31.5 76zM600 1652q0 44 32 75.5t73 31.5q47 0 78.5 -31.5t31.5 -75.5t-31.5 -76t-75.5 -32t-76 32t-32 76z" />
<glyph unicode="&#x2c6;" d="M63 1208l185 328h184l193 -328h-33l-264 215l-240 -215h-25z" />
<glyph unicode="&#x2dc;" d="M25 1255q0 135 55 191.5t129 56.5q41 0 80 -14q41 -16 124 -68.5t124 -52.5q33 0 56 27.5t40 107.5h31q0 -88 -28 -135t-72 -80t-93 -33q-80 0 -199 72q-55 41 -79.5 53.5t-49.5 12.5q-41 0 -63 -41q-9 -17 -25 -97h-30z" />
<glyph unicode="&#x2000;" horiz-adv-x="880" />
<glyph unicode="&#x2001;" horiz-adv-x="1760" />
<glyph unicode="&#x2002;" horiz-adv-x="880" />
<glyph unicode="&#x2003;" horiz-adv-x="1760" />
<glyph unicode="&#x2004;" horiz-adv-x="586" />
<glyph unicode="&#x2005;" horiz-adv-x="440" />
<glyph unicode="&#x2006;" horiz-adv-x="293" />
<glyph unicode="&#x2007;" horiz-adv-x="293" />
<glyph unicode="&#x2008;" horiz-adv-x="220" />
<glyph unicode="&#x2009;" horiz-adv-x="352" />
<glyph unicode="&#x200a;" horiz-adv-x="97" />
<glyph unicode="&#x2010;" horiz-adv-x="1224" d="M41 571l1128 86l15 -168l-1131 -83z" />
<glyph unicode="&#x2011;" horiz-adv-x="1224" d="M41 571l1128 86l15 -168l-1131 -83z" />
<glyph unicode="&#x2012;" horiz-adv-x="1224" d="M41 571l1128 86l15 -168l-1131 -83z" />
<glyph unicode="&#x2013;" horiz-adv-x="2048" d="M647 688v96h768v-96h-768z" />
<glyph unicode="&#x2014;" horiz-adv-x="2048" d="M0 696v80h2040v-80h-2040z" />
<glyph unicode="&#x2018;" horiz-adv-x="2048" d="M1401 1292l155 350l152 -67l-129 -287l96 -57l-88 -141l-155 96z" />
<glyph unicode="&#x2019;" horiz-adv-x="2048" d="M305 1161l125 285l-94 57l86 142l158 -97l30 -102l-153 -352z" />
<glyph unicode="&#x201a;" d="M113 -143q104 33 159.5 100.5t59.5 111.5t-12.5 63.5t-48 7t-67.5 -12.5t-63.5 28.5t-27.5 81t35.5 84t95 31.5t112 -56t52.5 -155.5t-72 -187.5t-223 -137v41z" />
<glyph unicode="&#x201c;" horiz-adv-x="2048" d="M1237 1292l156 350l151 -67l-129 -287l96 -57l-88 -141l-155 96zM1546 1323l156 291l147 -76l-120 -225l90 -58l-88 -141l-156 98z" />
<glyph unicode="&#x201d;" horiz-adv-x="2048" d="M223 1200l121 221l-90 58l86 141l158 -98l26 -107l-155 -293zM530 1161l125 285l-94 57l86 142l158 -97l31 -102l-154 -352z" />
<glyph unicode="&#x201e;" d="M63 237q0 44 40 79.5t100.5 35.5t117 -56t56.5 -152.5t-68.5 -183.5t-195.5 -120v39q104 55 136 104.5t32 93.5t-25 55t-44 3t-52 -8t-65 33t-32 77zM545 241q0 48 40 79.5t99 31.5t111.5 -56t52.5 -148.5t-63.5 -180.5t-192.5 -127v39q88 47 128 96.5t40 97.5t-23.5 59 t-48 3t-52.5 -8t-59.5 33t-31.5 81z" />
<glyph unicode="&#x2022;" d="M256 815q0 104 72 177t176 73t180 -72.5t76 -177.5q0 -104 -76 -176t-180 -72t-176 73t-72 175z" />
<glyph unicode="&#x2026;" horiz-adv-x="2048" d="M209 728q0 87 80 135t159.5 -3t71.5 -139t-83.5 -125t-155.5 4q-72 41 -72 128zM864 728q0 87 80 135t160 -3t71.5 -139t-84 -125t-155.5 4q-72 41 -72 128zM1519.5 728q0.5 87 80 135t159.5 -3t73 -139t-84 -125t-157 4q-72 41 -71.5 128z" />
<glyph unicode="&#x202f;" horiz-adv-x="352" />
<glyph unicode="&#x2039;" d="M121 616l383 471h55l-240 -471l240 -473h-55z" />
<glyph unicode="&#x203a;" d="M113 143l247 473l-247 471h63l391 -471l-391 -473h-63z" />
<glyph unicode="&#x205f;" horiz-adv-x="440" />
<glyph unicode="&#x20ac;" d="M0 584l25 80h88v112h-113l25 80h96q33 240 164 396.5t362 156.5q168 0 336 -88v-297h-39q-25 319 -297 319t-344 -487h594l-25 -80h-575v-112h551l-25 -80h-526q8 -193 72 -320q88 -176 256 -176q127 0 199.5 52.5t158.5 170.5l33 -22q-88 -143 -184.5 -216t-247.5 -73 q-231 0 -361 184q-104 152 -110 400h-113z" />
<glyph unicode="&#x2122;" d="M0 1321l8 199h383l8 -199h-30q-8 72 -24.5 103.5t-63.5 31.5h-33v-575q0 -88 12 -108.5t43 -29.5v-30h-199v30q41 8 48.5 33t7.5 105v575h-39q-33 0 -56.5 -31.5t-39.5 -103.5h-25zM440 713v30q33 0 44.5 12.5t11.5 32.5v656q0 20 -12.5 28.5t-34.5 8.5v39h143l135 -568 l137 568h160v-39q-33 0 -44 -12.5t-11 -32.5v-555q0 -88 7 -108.5t48 -29.5v-30h-209v30q25 8 37 16.5t16 32t4 89.5v487l-159 -655h-17l-159 647v-479q0 -72 4 -92.5t11 -33t56 -12.5v-30h-168z" />
<glyph unicode="&#x25fc;" horiz-adv-x="1167" d="M0 0v1167h1167v-1167h-1167z" />
</font>
</defs>
</svg>
