<?xml version="1.0" standalone="no"?>
<!DOCTYPE svg PUBLIC "-//W3C//DTD SVG 1.1//EN" "http://www.w3.org/Graphics/SVG/1.1/DTD/svg11.dtd" >
<svg xmlns="http://www.w3.org/2000/svg" xmlns:xlink="http://www.w3.org/1999/xlink" version="1.1">
<metadata></metadata>
<defs>
<font id="happyzcool-2016regular" horiz-adv-x="1000" >
<font-face units-per-em="1000" ascent="859" descent="-141" />
<missing-glyph horiz-adv-x="500" />
<glyph unicode="&#xd;" horiz-adv-x="332" />
<glyph unicode=" "  horiz-adv-x="500" />
<glyph unicode="&#x09;" horiz-adv-x="500" />
<glyph unicode="&#xa0;" horiz-adv-x="500" />
<glyph unicode="!" horiz-adv-x="252" d="M30 125l106 9l13 -160l-106 -8zM49 247l66 514l107 -16l-67 -511z" />
<glyph unicode="&#x22;" horiz-adv-x="231" d="M20 623v216l81 -1v-216zM130 625v216l81 -1v-216z" />
<glyph unicode="#" horiz-adv-x="641" d="M20 143h107l26 145l-72 -5l-6 80l93 7l23 126l79 -14l-19 -106l169 13l8 103l80 -6l-7 -91l114 9l6 -81l-126 -10l-12 -168l95 1l1 -80l-101 -1l-8 -108l-80 5l7 102l-202 -1l-20 -111l-79 15l17 95h-92zM209 144l194 1l11 162l-178 -13z" />
<glyph unicode="$" horiz-adv-x="545" d="M20 276l119 193l39 19l106 -10l6 90l81 -5l-6 -92l153 -13l-7 -80l-151 13l-9 -145l132 -22l33 -37l9 -145l-34 -43l-157 -25l-5 -85l-80 5l4 66l-205 -34l-13 80l223 37l8 135l-217 38zM121 284l150 -25l9 139l-85 8zM339 56l102 17l-3 76l-92 16z" />
<glyph unicode="%" horiz-adv-x="618" d="M20 469l37 55l196 9l42 -40v-122l-21 -35l-124 -72l-57 22zM48 -37l472 665l65 -47l-471 -665zM117 447l35 -89l62 36v57zM327 27l20 137l27 33l141 45l52 -33l31 -202l-44 -48l-192 22zM413 56l97 -10l-16 105l-71 -23z" />
<glyph unicode="&#x26;" horiz-adv-x="730" d="M20 482l128 106l33 8l317 -64l17 -71l-204 -167l147 -113l130 223l70 -40l-137 -233l189 -147l-50 -63l-180 140l-74 -129l-42 -20l-236 41l-32 26l-61 158l11 46l137 110l-162 126zM110 452l136 -106l152 123l-214 44zM120 138l44 -109l186 -32l66 114l-168 131z" />
<glyph unicode="'" horiz-adv-x="121" d="M20 623v216l81 -1v-216z" />
<glyph unicode="*" horiz-adv-x="433" d="M20 497l34 74l125 -58l-3 120l80 1l3 -123l119 58l35 -72l-117 -56l97 -79l-50 -63l-122 97l-120 -97l-51 63l95 77z" />
<glyph unicode="+" horiz-adv-x="600" d="M20 274l238 14l11 201l81 -3l-10 -193l235 14l5 -80l-244 -15l-13 -250l-82 4l13 241l-229 -14z" />
<glyph unicode="," horiz-adv-x="205" d="M20 -66l73 130l-67 28l30 75l109 -44l20 -57l-95 -169z" />
<glyph unicode="-" horiz-adv-x="598" d="M20 279l551 42l7 -82l-552 -41z" />
<glyph unicode="." horiz-adv-x="229" d="M20 1l50 138l139 -48l-50 -139z" />
<glyph unicode="/" d="M303 -38l242 590l74 -31l-241 -589z" />
<glyph unicode="0" horiz-adv-x="586" d="M20 108l113 577l46 33l352 -60l34 -40l1 -576l-46 -40l-466 58zM108 135l377 -47l-1 496l-280 48z" />
<glyph unicode="1" horiz-adv-x="354" d="M20 553l250 185l64 -35l-54 -722l-80 6l46 634l-177 -133z" />
<glyph unicode="2" horiz-adv-x="635" d="M20 584l238 163l48 -3l245 -205l4 -58l-372 -419l423 47l9 -80l-529 -58l-33 67l415 466l-190 159l-213 -145z" />
<glyph unicode="3" horiz-adv-x="669" d="M20 77l18 78l410 -88l100 186l-283 70l-15 71l274 213l-364 51l11 80l458 -64l20 -72l-284 -220l254 -63l25 -59l-140 -258l-44 -20z" />
<glyph unicode="4" horiz-adv-x="718" d="M20 223l204 515l75 -29l-181 -460l333 7l33 397l81 -7l-33 -388l163 4l3 -81l-173 -4l-17 -196l-80 6l16 189l-385 -8z" />
<glyph unicode="5" horiz-adv-x="700" d="M20 95l18 79l453 -100l95 240l-387 41l-35 48l55 297l40 33h384v-80h-350l-42 -222l397 -42l32 -55l-126 -321l-46 -25z" />
<glyph unicode="6" horiz-adv-x="684" d="M20 178l299 557l71 -38l-276 -515l305 -112l147 172l-261 111l31 75l313 -133l15 -64l-203 -235l-43 -11l-375 137z" />
<glyph unicode="7" horiz-adv-x="566" d="M20 630l8 80l485 -41l33 -58l-277 -602l-73 33l253 550z" />
<glyph unicode="8" horiz-adv-x="666" d="M20 137l271 243l-206 162l9 68l292 128l47 -10l137 -151l-2 -58l-150 -135l228 -177l-2 -67l-225 -153l-33 -5l-348 86zM131 128l257 -64l165 113l-197 153zM189 563l164 -128l131 118l-91 100z" />
<glyph unicode="9" horiz-adv-x="630" d="M20 484l168 232l41 17l352 -77l29 -56l-276 -612l-74 33l255 567l-277 60l-124 -173l234 -111l-35 -73l-278 133z" />
<glyph unicode=":" horiz-adv-x="223" d="M20 331l35 72l139 -66l-35 -73zM26 -13l22 77l155 -43l-23 -78z" />
<glyph unicode=";" horiz-adv-x="221" d="M20 324l39 72l121 -65l-39 -72zM23 -58l86 160l-66 26l30 75l108 -44l20 -56l-107 -199z" />
<glyph unicode="&#x3c;" horiz-adv-x="505" d="M50 395l368 195l37 -71l-291 -155l270 -115l-33 -74l-347 148z" />
<glyph unicode="=" horiz-adv-x="621" d="M20 163l580 10l1 -80l-578 -11zM64 283v81h490v-81h-490z" />
<glyph unicode="&#x3e;" horiz-adv-x="513" d="M50 204l296 162l-286 107l28 75l370 -137l5 -74l-374 -204z" />
<glyph unicode="?" horiz-adv-x="577" d="M30 615l283 152l58 -10l176 -181l-7 -73l-199 -138l16 -113l-95 -15l-22 144l22 47l176 123l-111 114l-251 -135zM211 92l80 55l87 -124l-79 -56z" />
<glyph unicode="@" horiz-adv-x="698" d="M20 373l15 38l231 175l32 7l293 -50l34 -32l53 -282l-19 -41l-194 -124l-61 38l1 20l-109 -45l-45 9l-87 92l-8 46l88 174l49 21l133 -46l3 29l81 -8l-19 -217l102 65l-43 226l-249 43l-198 -152l31 -288l280 -49l197 80l32 -75l-209 -84l-23 -2l-321 56l-34 35zM241 213 l50 -51l122 50l6 79l-119 40z" />
<glyph unicode="A" horiz-adv-x="763" d="M20 14l333 728l86 1l304 -639l-85 -41l-262 548l-156 -342l221 38l17 -94l-286 -48l-86 -189z" />
<glyph unicode="B" horiz-adv-x="696" d="M20 30v660l50 46l574 -31l32 -77l-228 -269l197 -238l-31 -77l-541 -61zM114 83l404 45l-168 202l1 60l193 226l-430 24v-557z" />
<glyph unicode="C" horiz-adv-x="709" d="M20 47l68 634l53 42l515 -76l-13 -94l-467 69l-56 -526l559 60l10 -94l-616 -66z" />
<glyph unicode="D" horiz-adv-x="704" d="M20 53l54 622l59 41l498 -121l37 -44l16 -373l-36 -48l-570 -127zM120 109l469 104l-14 298l-412 102z" />
<glyph unicode="E" horiz-adv-x="658" d="M20 54l48 617l48 44l504 -16l-4 -94l-458 14l-15 -196l433 7l2 -95l-443 -7l-17 -227l512 42l8 -94l-567 -46z" />
<glyph unicode="F" horiz-adv-x="638" d="M20 20l48 643l47 43l503 -16l-3 -94l-457 14l-17 -221l434 7l1 -93l-442 -8l-20 -282z" />
<glyph unicode="G" horiz-adv-x="714" d="M20 44l46 637l50 44l543 -36l-6 -94l-495 32l-39 -537l476 24l-17 181l-279 12l4 95l320 -15l45 -42l26 -271l-44 -52l-580 -28z" />
<glyph unicode="H" horiz-adv-x="669" d="M20 19l34 687l94 -5l-14 -268l419 37l2 234l94 -2l-6 -687l-94 1l3 359l-422 -36l-16 -325z" />
<glyph unicode="I" horiz-adv-x="169" d="M20 19l34 687l95 -5l-35 -687z" />
<glyph unicode="J" horiz-adv-x="505" d="M20 88l234 68l-14 460l-155 12l8 93l392 -27l-6 -95l-144 10l15 -486l-34 -47l-268 -78z" />
<glyph unicode="K" horiz-adv-x="594" d="M20 -1l96 734l94 -11l-96 -735zM216 292l5 70l294 232l59 -74l-254 -201l241 -254l-67 -65z" />
<glyph unicode="L" horiz-adv-x="559" d="M20 69l71 647l94 -11l-65 -596l419 -13l-4 -93l-470 13z" />
<glyph unicode="M" horiz-adv-x="804" d="M20 46l113 629l88 11l162 -349l200 353l87 -15l114 -629l-93 -17l-91 501l-181 -320l-84 4l-136 296l-86 -481z" />
<glyph unicode="N" horiz-adv-x="700" d="M20 33l79 641l84 24l403 -511v507h94v-642l-84 -29l-417 527l-66 -528z" />
<glyph unicode="O" horiz-adv-x="644" d="M20 62l45 564l43 42l442 45l53 -46l21 -614l-48 -48l-510 6zM119 105l410 -5l-19 515l-355 -37z" />
<glyph unicode="P" horiz-adv-x="709" d="M20 -11l45 704l48 43h493l48 -42l35 -351l-45 -53l-455 -29l-6 94l407 26l-26 262h-408l-42 -660z" />
<glyph unicode="Q" horiz-adv-x="718" d="M20 69l44 564l42 42l462 45l51 -45l20 -559l59 -42l-55 -76l-83 59l-489 -39zM119 116l323 26l-103 74l55 77l148 -107l-16 435l-371 -36z" />
<glyph unicode="R" horiz-adv-x="706" d="M20 15l31 640l45 45l494 15l48 -41l42 -338l-52 -52l-79 8l137 -242l-81 -46l-169 300l-212 22l10 94l345 -36l-29 236l-407 -14l-29 -596z" />
<glyph unicode="S" horiz-adv-x="703" d="M20 93l559 49l-45 203l-433 -50l-52 48l14 333l51 45l527 -49l-8 -94l-478 44l-10 -227l420 47l51 -36l67 -296l-43 -58l-611 -52z" />
<glyph unicode="T" horiz-adv-x="786" d="M20 630l4 95l742 -27l-2 -93l-329 11l-24 -621l-95 3l26 621z" />
<glyph unicode="U" horiz-adv-x="661" d="M20 688l94 3l11 -556l370 -28l53 601l93 -8l-56 -647l-51 -43l-459 33l-44 47z" />
<glyph unicode="V" horiz-adv-x="718" d="M20 548l84 44l234 -458l275 580l85 -41l-315 -665l-85 -1z" />
<glyph unicode="W" horiz-adv-x="846" d="M20 657l91 23l117 -463l135 429h90l122 -395l163 439l88 -33l-211 -569l-89 3l-118 382l-140 -443l-92 2z" />
<glyph unicode="X" horiz-adv-x="749" d="M20 77l299 295l-224 238l69 63l222 -235l274 270l66 -67l-275 -271l278 -294l-68 -65l-277 293l-298 -294z" />
<glyph unicode="Y" horiz-adv-x="769" d="M20 678l69 63l237 -256l-68 -64zM294 -21l6 374l16 33l370 329l63 -71l-354 -314l-7 -352z" />
<glyph unicode="Z" horiz-adv-x="723" d="M20 90l466 491l-436 35l9 95l534 -45l30 -79l-449 -472l520 45l9 -94l-644 -56z" />
<glyph unicode="a" horiz-adv-x="592" d="M20 46l58 229l45 36h316l-21 156l-360 -88l-23 91l411 101l58 -40l56 -415l70 -20l-25 -90l-100 28l-18 21l-413 -66zM129 94l332 53l-9 69h-292z" />
<glyph unicode="b" horiz-adv-x="501" d="M20 59l38 572l95 -6l-12 -168l297 -26l43 -50l-20 -264l-37 -42l-348 -66zM118 112l252 48l14 181l-249 23z" />
<glyph unicode="c" horiz-adv-x="484" d="M20 65l46 440l54 41l321 -52l-15 -93l-271 44l-36 -331l334 40l11 -94l-393 -46z" />
<glyph unicode="d" horiz-adv-x="548" d="M20 62l46 345l54 40l294 -47l-16 224l95 6l35 -526l-42 -50l-415 -45zM121 109l310 33l-11 162l-267 43z" />
<glyph unicode="e" horiz-adv-x="524" d="M20 113l48 356l42 40l293 24l46 -25l85 -168l-33 -67l-311 -65l-20 91l251 54l-42 83l-224 -17l-36 -275l344 -64l-18 -92l-387 72z" />
<glyph unicode="f" horiz-adv-x="416" d="M-43 153l9 94l168 -16l21 309l27 40l149 65l37 -86l-122 -54l-18 -282l175 -16l-8 -94l-173 16l-12 -187l-94 6l12 189z" />
<glyph unicode="g" horiz-adv-x="489" d="M17 259l58 299l51 38l277 -26l43 -44l20 -471l-39 -47l-367 -65l-17 92l328 58l-8 172l-290 -61zM123 310l235 50l-5 120l-193 19z" />
<glyph unicode="h" horiz-adv-x="508" d="M20 19l104 695l92 -13l-44 -299l223 52l58 -41l35 -392l-94 -9l-30 339l-207 -50l-43 -295z" />
<glyph unicode="i" horiz-adv-x="186" d="M20 19l49 397l94 -11l-49 -397zM45 586l91 25l30 -112l-91 -25z" />
<glyph unicode="j" horiz-adv-x="261" d="M20 -61l125 70l-36 379l94 8l38 -408l-23 -45l-152 -85zM64 596l67 65l98 -100l-68 -65z" />
<glyph unicode="k" horiz-adv-x="498" d="M20 39l143 647l92 -20l-142 -647zM224 276l202 193l65 -68l-165 -157l207 -180l-62 -71l-246 215z" />
<glyph unicode="l" horiz-adv-x="219" d="M20 4l86 604l93 -12l-85 -605z" />
<glyph unicode="m" horiz-adv-x="649" d="M20 45l40 417l59 41l218 -59l211 59l60 -44l21 -416l-94 -5l-19 357l-137 -37l2 -316l-93 -2l-3 319l-136 38l-35 -360z" />
<glyph unicode="n" horiz-adv-x="503" d="M20 65l50 329l39 40l300 47l55 -44l19 -393l-95 -5l-17 341l-213 -34l-44 -295z" />
<glyph unicode="o" horiz-adv-x="500" d="M20 105l24 343l45 43l332 14l49 -46l10 -378l-50 -48l-366 21zM118 145l267 -15l-7 279l-243 -10z" />
<glyph unicode="p" horiz-adv-x="511" d="M26 -49l35 591l56 44l312 -64l36 -41l32 -249l-37 -53l-268 -56l-20 91l227 49l-23 173l-225 46l-31 -536z" />
<glyph unicode="q" horiz-adv-x="509" d="M24 470l39 49l375 64l55 -50l-41 -555l-94 6l36 496l-274 -47l8 -167l197 -18l-8 -94l-239 22l-43 44z" />
<glyph unicode="r" horiz-adv-x="358" d="M20 532l94 3l3 -123l228 108l40 -87l-265 -124l10 -302l-95 -2z" />
<glyph unicode="s" horiz-adv-x="481" d="M20 32l18 93l252 -48l74 128l-298 42l-40 52l15 193l44 43l320 25l6 -94l-278 -21l-9 -110l321 -46l35 -70l-125 -218l-49 -22z" />
<glyph unicode="t" horiz-adv-x="581" d="M20 443l214 15l10 105l94 -9l-8 -90l225 16l6 -93l-240 -18l-23 -246l196 -56l-25 -90l-235 66l-34 50l25 269l-197 -14z" />
<glyph unicode="u" horiz-adv-x="519" d="M20 87l24 404l94 -5l-20 -345l251 40l21 311l95 -8l-22 -327l85 -51l-49 -80l-108 64l-316 -52z" />
<glyph unicode="v" horiz-adv-x="584" d="M20 537l90 28l123 -399l255 354l76 -55l-310 -431l-83 13z" />
<glyph unicode="w" horiz-adv-x="761" d="M20 496l89 32l117 -312l102 246l86 3l104 -228l140 275l83 -42l-182 -363l-85 1l-100 218l-105 -256l-88 1z" />
<glyph unicode="x" horiz-adv-x="615" d="M20 97l236 226l-176 134l58 75l187 -143l190 181l65 -69l-179 -170l240 -183l-56 -75l-253 192l-247 -235z" />
<glyph unicode="y" horiz-adv-x="493" d="M22 15l169 205l-169 205l73 60l158 -191l197 239l72 -60l-427 -518z" />
<glyph unicode="z" horiz-adv-x="508" d="M20 493l11 93l402 -47l30 -78l-290 -346l307 25l8 -95l-420 -32l-40 77l307 365z" />
<glyph unicode="{" horiz-adv-x="351" d="M20 359l105 62l18 216l23 34l95 42l33 -74l-73 -32l-17 -214l-20 -32l-49 -29l49 -18l26 -42l-29 -238l150 -77l-37 -70l-174 89l-21 40l27 233l-100 37z" />
<glyph unicode="}" horiz-adv-x="291" d="M20 -41l114 54l-25 206l15 37l59 47l-43 41l-12 30l2 209l-82 34l28 75l110 -43l25 -38l-2 -220l62 -60l-2 -62l-78 -62l25 -214l-22 -41l-139 -65z" />
<glyph unicode="~" horiz-adv-x="646" d="M20 213l99 88l37 8l317 -81l115 63l38 -72l-128 -70l-30 -3l-312 81l-83 -74z" />
<glyph horiz-adv-x="500" />
<glyph unicode="&#xa1;" horiz-adv-x="500" d="M113 -35l43 398h20l43 -394q4 -23 2 -47t-19.5 -43.5t-39 -19.5t-35.5 19.5t-14 43.5v43zM113 496.5q0 23.5 16 39t39 15.5t39 -15.5t16 -39t-16 -39.5t-39 -16t-39 16t-16 39.5z" />
<glyph unicode="&#xa2;" horiz-adv-x="500" d="M62 297q0 125 79 191q59 51 132 51q8 0 32 -4l66 188h35l-70 -196q51 -20 68.5 -43t15.5 -46.5t-13.5 -35t-29.5 -13.5t-33.5 11.5t-13.5 37t-14 39.5l-117 -325q35 -27 70.5 -29t60.5 11.5t46.5 39t49.5 80.5l15 -8q-23 -94 -74 -139t-103.5 -45t-91.5 24l-74 -195h-32 l79 211q-39 35 -61 80t-22 115zM123 287.5q6 -60.5 49 -107.5l117 316q-23 4 -48.5 0t-57 -31t-49 -72t-11.5 -105.5z" />
<glyph unicode="&#xa3;" horiz-adv-x="500" d="M31 80q0 33 21.5 52.5t42.5 19.5h57q8 74 0 192h-105v47h105q-8 66 -7.5 109t20 92t62.5 72.5t97.5 23.5t85.5 -29.5t31 -55t-13.5 -39t-27 -13.5t-25.5 13.5t-12 43t-15.5 43t-48.5 13.5t-62.5 -29.5t-29.5 -86t6 -101.5t6 -56h133v-47h-133q0 -78 -2 -119t-18 -88 q82 -31 107.5 -39t58.5 -8t58.5 23.5t37.5 62.5l16 -4q-8 -78 -49 -117t-82 -39t-68.5 9.5t-97.5 64.5q-20 -39 -43.5 -56.5t-49 -17.5t-41 15.5t-15.5 48.5zM59 80q0 -18 9.5 -27.5t23 -9.5t31 15.5t25.5 54.5q-12 8 -25.5 10t-27 0t-25 -13.5t-11.5 -29.5z" />
<glyph unicode="&#xa4;" d="M94 -8l121 121q-86 105 -90 242t94 247l-125 125l31 35l125 -125q98 86 244.5 86t247.5 -86l129 129l35 -36l-129 -128q94 -113 88 -254t-88 -235l118 -117l-36 -35l-117 117q-133 -90 -269.5 -84t-226.5 84l-117 -117zM176 357.5q0 -111.5 62.5 -193.5t146.5 -109.5 t187.5 -4t169.5 101.5t72 197.5t-78 221t-242 101.5t-238 -101.5t-80 -213z" />
<glyph unicode="&#xa5;" horiz-adv-x="500" d="M27 195v35h196v71l-4 19h-192v35h180l-90 243q-20 47 -37.5 56.5t-44.5 9.5v24h188v-24q-31 -4 -43 -11.5t-12 -15.5t8 -24l94 -258l93 247q8 23 8 33t-8 19.5t-39 9.5v24h149v-24q-31 0 -43 -13.5t-35 -56.5l-94 -239h172v-35h-188v-90h188v-35h-188v-47q0 -62 2 -75.5 t12 -21.5t53 -8h11v-23h-222v23h11q47 0 57 8t12 21.5t2 75.5v47h-196z" />
<glyph unicode="&#xa6;" horiz-adv-x="500" d="M78 -141v364h43v-364h-43zM78 406v364h43v-364h-43z" />
<glyph unicode="&#xa7;" d="M334 15.5q-2 27.5 13.5 41t31.5 9.5t25.5 -15.5t9.5 -19.5t-8 -21.5t4 -25t47 -17.5t78 7.5t41 47t-82 111.5t-132.5 156t-23.5 134.5t142 60.5q-105 105 -111 152.5t11.5 80.5t64.5 46.5t102 6t84 -29t31 -41t-7.5 -31.5t-23.5 -16t-27.5 4t-17.5 20t0 21.5t-2 23 t-49 21.5t-84 -11.5t-39 -58.5t72.5 -99.5t111.5 -97.5t66.5 -86t19.5 -96t-45 -76t-102 -26q105 -98 107.5 -148.5t-37 -79.5t-123.5 -25.5t-115 27t-33 51zM377 410.5q-10 -27.5 43 -88t96 -107.5q55 0 76 19.5t25 47t-21.5 76t-91.5 99.5q-51 4 -84 -7.5t-43 -39z" />
<glyph unicode="&#xa8;" d="M320 650.5q0 33.5 27.5 45t51 -4t20 -43t-23.5 -39.5t-47.5 -2t-27.5 43.5zM578 652.5q0 31.5 27.5 43.5t50.5 -8q27 -16 23.5 -41.5t-27 -37t-49 0t-25.5 43z" />
<glyph unicode="&#xa9;" horiz-adv-x="500" d="M0 406.5q0 62.5 33 123t94 93.5t123 33t121 -33t92 -93.5t33 -123t-31 -123t-92 -94t-125 -33.5t-123 33.5t-92 94t-33 123zM23 406.5q0 -58.5 29.5 -111.5t84 -84t111.5 -31t111.5 31t84 84t29.5 111.5t-29.5 113t-84 84t-113.5 29.5q-55 0 -109.5 -29.5t-84 -84 t-29.5 -113zM90 404.5q0 64.5 39 109.5t84 52.5t74 1.5t47 -21.5t21.5 -7.5t3.5 27h12l8 -101h-12q-16 47 -43 66.5t-64 15.5t-70.5 -29.5t-45 -60.5t-5.5 -76t39 -74.5t84 -33.5q70 0 109 55l12 -8q-47 -70 -133 -70q-70 0 -115 45t-45 109.5z" />
<glyph unicode="&#xaa;" horiz-adv-x="500" d="M-4 519.5q0 23.5 12 45t45 43t115 44.5q0 51 -13.5 68.5t-41 15.5t-35.5 -15.5t-6 -31t-7.5 -27.5t-23.5 -10t-23.5 10t-7.5 31.5t29 43t80 19.5t76.5 -17.5t31 -33t7.5 -53.5v-136q0 -8 4 -12h8q8 0 27 12v-24q-35 -23 -46.5 -29t-23.5 -6t-21.5 10t-13.5 37 q-31 -23 -58.5 -33t-51 -10t-43 17.5t-19.5 41zM66 543q0 -16 12 -29.5t31 -13.5q12 0 25.5 6t33.5 17v110q-59 -20 -80.5 -43.5t-21.5 -46.5z" />
<glyph unicode="&#xab;" horiz-adv-x="500" d="M31 301l188 230h31l-121 -230l121 -231h-31zM250 301l191 230h28l-117 -230l117 -231h-28z" />
<glyph unicode="&#xac;" horiz-adv-x="500" d="M20 465v39h480v-199h-39v160h-441z" />
<glyph unicode="&#xad;" horiz-adv-x="500" d="M39 262v74h254v-74h-254z" />
<glyph unicode="&#xae;" horiz-adv-x="500" d="M0 404.5q0 60.5 33 125t98 95.5t127 31t121 -31t90 -93.5t29 -131t-33 -125t-92 -88t-123 -31.5t-125 33.5t-94 94t-31 121zM21.5 408.5q-1.5 -60.5 29.5 -117.5t85.5 -84t113.5 -27t115.5 27t82 84t25.5 113.5t-25.5 113t-82 86t-111.5 29.5t-113.5 -29.5t-88 -82 t-31 -113zM105 254v12q20 0 26 2t10 12q4 8 4 32v188q0 23 -2 33t-8 12t-26 2v15h137q51 0 78.5 -25t27.5 -54.5t-20 -47t-62 -33.5l78 -101q12 -23 23 -35h20v-12h-71l-101 141h-24v-106q0 -16 10 -19.5t33 -3.5v-12h-133zM195 414q43 0 59 6t27.5 23.5t11.5 39t-19.5 41 t-39.5 19.5h-39v-129z" />
<glyph unicode="&#xaf;" horiz-adv-x="500" d="M0 789v43h500v-43h-500z" />
<glyph unicode="&#xb0;" d="M131 613q2 47 25.5 72.5t58.5 35t68 2t56.5 -41t18 -84t-39 -76t-84.5 -21.5q-47 4 -76 35t-27 78zM164 621q-4 -27 11.5 -54.5t56.5 -33.5t66.5 17.5t25.5 64.5t-25.5 62.5t-56.5 17.5t-52.5 -23.5t-25.5 -50.5z" />
<glyph unicode="&#xb1;" d="M156 -20v47h684v-47h-684zM156 379v47h313v308h47v-308h324v-47h-324v-270h-47v270h-313z" />
<glyph unicode="&#xb2;" horiz-adv-x="500" d="M12 398v16q117 94 160 152q23 35 23 68.5t-21.5 53t-50.5 19.5t-48.5 -13.5t-31.5 -45.5h-23q8 47 39 74.5t81.5 27.5t82 -27.5t31.5 -60.5t-29.5 -80t-134.5 -137h90q43 0 56.5 6t21.5 22h23l-31 -75h-238z" />
<glyph unicode="&#xb3;" horiz-adv-x="500" d="M23 422q0 8 8 15.5t19.5 7.5t39 -11.5t49 -11.5t41 19.5t19.5 43t-11.5 43t-37 29t-64.5 9.5v16q39 0 64.5 21.5t25.5 49t-15.5 43t-51 15.5t-66.5 -43l-16 8q16 35 43.5 54.5t70.5 19.5t68 -21.5t25 -52.5t-50 -71q35 -16 52.5 -39t17.5 -62t-41 -76t-119 -37 q-43 0 -57 11.5t-14 19.5z" />
<glyph unicode="&#xb4;" horiz-adv-x="500" d="M117 586l51 168h109l-144 -168h-16z" />
<glyph unicode="&#xb5;" horiz-adv-x="500" d="M66 23.5q0 19.5 12 66.5t16 76t4 96v332h66v-282q0 -62 8 -75.5t29.5 -19.5t66 2t91.5 62v313h67v-297q0 -62 9.5 -76t31 -12t31.5 15.5t18 45.5h19q-4 -55 -31 -78.5t-66.5 -23.5t-57 19.5t-21.5 62.5q-39 -47 -76 -66.5t-70 -19.5t-49 8t-31 31q0 -55 7.5 -105.5t6 -70 t-13.5 -35t-27.5 -15.5t-27.5 13.5t-12 33z" />
<glyph unicode="&#xb6;" horiz-adv-x="500" d="M-8 555q0 55 24 86q27 47 74 72t125 25h238v-27h-62v-852h-36v852h-93v-852h-35v508q-94 4 -139 25.5t-70.5 64.5t-25.5 98z" />
<glyph unicode="&#xb7;" d="M382.5 355.5q0.5 70.5 59 101.5t117 -2t54.5 -101.5t-58.5 -95.5t-113.5 0t-58.5 97.5z" />
<glyph unicode="&#xb8;" horiz-adv-x="500" d="M90 -90q16 -4 33.5 -4t35 17.5t17.5 35.5t-12 27.5t-24 9.5h-19l55 86h31l-27 -39q31 -8 46.5 -25.5t15.5 -48.5t-29 -56.5t-61 -25.5h-62v23z" />
<glyph unicode="&#xb9;" horiz-adv-x="500" d="M66 707l102 43h16v-289q0 -27 2 -33t9.5 -10t38.5 -4v-16h-160v16q31 0 39 4t10 10t2 33v184q0 35 -2 44.5t-13.5 11.5t-35.5 -6z" />
<glyph unicode="&#xba;" horiz-adv-x="500" d="M16 602q0 66 39 107t105 41q59 0 98 -41t39 -100q0 -62 -43 -105t-102 -43t-97.5 39t-38.5 102zM82 637q0 -74 35 -125q20 -27 51 -28q27 0 44.5 21.5t17.5 68.5q0 78 -35 125q-19 31 -50 31q-23 0 -43 -21t-20 -72z" />
<glyph unicode="&#xbb;" horiz-adv-x="500" d="M31 70l117 231l-117 230h28l195 -230l-195 -231h-28zM254 70l117 231l-117 230h27l188 -230l-188 -231h-27z" />
<glyph unicode="&#xbc;" horiz-adv-x="500" d="M27 707l75 43h11v-289q0 -27 4 -37t35 -10v-16h-113v16q23 0 29 10t6 37v184q0 35 -2 44.5t-4 11.5t-9.5 2t-19.5 -8zM78 51l313 699h35l-317 -699h-31zM301 145v35l129 226h27v-222h39v-39h-39v-90h-35v90h-121zM332 184h90v156z" />
<glyph unicode="&#xbd;" horiz-adv-x="500" d="M27 707l71 43h15v-289q0 -27 4 -37t28 -10v-16h-114v16q27 0 33 8t6 39v184q0 35 -2 44.5t-11.5 11.5t-25.5 -6zM66 51l321 699h31l-320 -699h-32zM305 55v15q70 82 99.5 139t29.5 86t-16 48.5t-35.5 19.5t-33 -13.5t-21.5 -44.5h-16q4 47 25.5 74t57.5 27q39 0 62 -27 t23 -60.5t-23 -80.5t-102 -136h67q35 0 45 5.5t13 21.5h20l-23 -74h-172z" />
<glyph unicode="&#xbe;" horiz-adv-x="500" d="M31 422q0 -8 10 -19.5t37 -11.5q51 0 78.5 37t27.5 76t-12 62.5t-31 38.5q31 39 31 70.5t-15.5 53t-45 21.5t-47 -19.5t-29.5 -54.5l12 -8q20 43 43 43t33 -15.5t10 -43t-17.5 -49t-41.5 -21.5v-16q39 0 56.5 -23t17.5 -52.5t-13.5 -49t-29 -19.5t-31 11.5t-25.5 11.5 t-14 -7.5t-4 -15.5zM98 51l300 699h28l-297 -699h-31zM316 145v35l122 226h27v-222h35v-39h-35v-90h-39v90h-110zM344 184h82v156z" />
<glyph unicode="&#xbf;" horiz-adv-x="500" d="M62 107.5q0 48.5 18 85.5t66.5 90t62.5 86t18 84h19q-4 -55 -11.5 -88t-47 -111t-39.5 -131t29.5 -84t74.5 -31t70.5 15.5t25.5 35t-16 41t-16 37t12 27.5t27.5 12t33 -19.5t17.5 -60.5t-45 -80t-125 -39t-127 41t-47 89.5zM184 546.5q0 19.5 13 35.5t33 16q23 0 37 -16 t14 -35.5t-13.5 -37t-35 -17.5t-35 17.5t-13.5 37z" />
<glyph unicode="&#xc0;" horiz-adv-x="500" d="M4 20v23h12q16 0 27.5 9.5t15.5 33.5l152 598l59 19l148 -617q8 -23 19.5 -33t27.5 -10h12v-23h-168v23h15q23 0 29 13.5t-1 41.5l-40 172h-175l-35 -149q-8 -35 -0.5 -56.5t35.5 -21.5h11v-23h-144zM145 293h164l-79 324h-3zM145 859h93l43 -140h-11z" />
<glyph unicode="&#xc1;" horiz-adv-x="500" d="M4 20v23h12q16 0 27.5 9.5t15.5 33.5l152 598l59 19l148 -617q8 -23 19.5 -33t27.5 -10h12v-23h-168v23h15q23 0 29 13.5t-1 41.5l-40 172h-175l-35 -149q-8 -35 -0.5 -56.5t35.5 -21.5h11v-23h-144zM145 293h164l-79 324h-3zM188 719l42 140h94l-125 -140h-11z" />
<glyph unicode="&#xc2;" horiz-adv-x="500" d="M4 20v23h12q16 0 27.5 9.5t15.5 33.5l152 598l59 19l148 -617q8 -23 19.5 -33t27.5 -10h12v-23h-168v23h15q23 0 29 13.5t-1 41.5l-40 172h-175l-35 -149q-8 -35 -0.5 -56.5t35.5 -21.5h11v-23h-144zM113 719l98 140h70l90 -140h-19l-114 86l-105 -86h-20zM145 293h164 l-79 324h-3z" />
<glyph unicode="&#xc3;" horiz-adv-x="500" d="M4 20v23h12q16 0 27.5 9.5t15.5 33.5l152 598l59 19l148 -617q8 -23 19.5 -33t27.5 -10h12v-23h-168v23h15q23 0 29 13.5t-1 41.5l-40 172h-175l-35 -149q-8 -35 -0.5 -56.5t35.5 -21.5h11v-23h-144zM121 758q0 55 19.5 76t43 21t41 -7.5t54.5 -27t53 -19.5t23.5 9.5 t15.5 44.5h8q0 -39 -10 -56.5t-27.5 -29t-44.5 -11.5t-74 27t-57 27t-17.5 -9.5t-15.5 -44.5h-12zM145 293h164l-79 324h-3z" />
<glyph unicode="&#xc4;" horiz-adv-x="500" d="M4 20v23h12q16 0 27.5 9.5t15.5 33.5l152 598l59 19l148 -617q8 -23 19.5 -33t27.5 -10h12v-23h-168v23h15q23 0 29 13.5t-1 41.5l-40 172h-175l-35 -149q-8 -35 -0.5 -56.5t35.5 -21.5h11v-23h-144zM117 806.5q0 21.5 15.5 37t35.5 15.5q23 0 39 -15.5t16 -37t-16 -37 t-37.5 -15.5t-37 15.5t-15.5 37zM145 293h164l-79 324h-3zM277 806.5q0 21.5 15.5 37t35.5 15.5q23 0 39 -15.5t16 -37t-15.5 -37t-37 -15.5t-37.5 15.5t-16 37z" />
<glyph unicode="&#xc5;" horiz-adv-x="500" d="M4 20v23h12q16 0 27.5 9.5t15.5 33.5l152 598l59 19l148 -617q8 -23 19.5 -33t27.5 -10h12v-23h-168v23h15q23 0 29 13.5t-1 41.5l-40 172h-175l-35 -149q-8 -35 -0.5 -56.5t35.5 -21.5h11v-23h-144zM145 293h164l-79 324h-3zM176 785q0 31 21.5 52.5t52.5 21.5 t52.5 -21.5t21.5 -52.5t-21.5 -52.5t-52.5 -21.5t-52.5 21.5t-21.5 52.5zM195 787q0 -21 16 -39t37.5 -18t37 18t15.5 41t-17.5 37t-37 14t-35.5 -16t-16 -37z" />
<glyph unicode="&#xc6;" horiz-adv-x="500" d="M4 20v23q12 0 21.5 8t19.5 29.5t25 79.5l114 375q16 70 17.5 91.5t-6 29.5t-39.5 12v20h305l4 -145h-12q-4 47 -11.5 70.5t-17.5 31t-41 7.5h-90v-261h74q27 -4 37 11.5t10 81.5h16v-230h-16q0 51 -4 66.5t-13.5 23.5t-29.5 8h-74v-219q0 -47 2 -60.5t29 -13.5h51 q31 0 45 9.5t33 33.5q16 35 35 89h12l-35 -171h-277v23h7q31 0 37 17.5t6 80.5v144h-105l-35 -117q-23 -70 -27.5 -88t-0.5 -25.5t51 -11.5v-23h-117zM141 316h97v336z" />
<glyph unicode="&#xc7;" horiz-adv-x="500" d="M35 348q0 94 33.5 172t92 123t123 45t97.5 -21.5t41 -21.5t13.5 11.5t13.5 31.5h16l12 -211h-12q-23 94 -64.5 134.5t-98 40.5t-99.5 -29t-62.5 -101.5t-19.5 -164t19.5 -156t64.5 -98t99.5 -33.5t90 29.5t82.5 107.5l15 -12q-47 -86 -96 -125q-41 -34 -97 -39l-6 -15 q20 -8 33.5 -25.5t13.5 -49t-21.5 -57t-64.5 -25.5h-35v24q8 -4 23.5 -4t31 17.5t15.5 35t-9.5 27.5t-19.5 10h-18l34 62q-126 2 -190 117q-51 82 -51 200z" />
<glyph unicode="&#xc8;" horiz-adv-x="500" d="M23 20v23h24q20 0 27.5 8t7.5 23v559q0 16 -8 23.5t-27 7.5h-20v24h383l43 -133l-19 -8q-31 59 -66.5 88t-78.5 29h-109q-16 0 -25.5 -8t-9.5 -23v-242h113q39 0 56.5 19.5t17.5 58.5v23h23v-230h-23v15q0 43 -17.5 66.5t-56.5 23.5h-113v-293q0 -16 9.5 -23.5t25.5 -7.5 h101q59 0 100 33t64 104l20 -8l-43 -152h-399zM113 859h110l50 -144h-15z" />
<glyph unicode="&#xc9;" horiz-adv-x="500" d="M23 20v23h24q20 0 27.5 8t7.5 23v559q0 16 -8 23.5t-27 7.5h-20v24h383l43 -133l-19 -8q-31 59 -66.5 88t-78.5 29h-109q-16 0 -25.5 -8t-9.5 -23v-242h113q39 0 56.5 19.5t17.5 58.5v23h23v-230h-23v15q0 43 -17.5 66.5t-56.5 23.5h-113v-293q0 -16 9.5 -23.5t25.5 -7.5 h101q59 0 100 33t64 104l20 -8l-43 -152h-399zM203 715l51 144h109l-144 -144h-16z" />
<glyph unicode="&#xca;" horiz-adv-x="500" d="M23 20v23h24q20 0 27.5 8t7.5 23v559q0 16 -8 23.5t-27 7.5h-20v24h383l43 -133l-19 -8q-31 59 -66.5 88t-78.5 29h-109q-16 0 -25.5 -8t-9.5 -23v-242h113q39 0 56.5 19.5t17.5 58.5v23h23v-230h-23v15q0 43 -17.5 66.5t-56.5 23.5h-113v-293q0 -16 9.5 -23.5t25.5 -7.5 h101q59 0 100 33t64 104l20 -8l-43 -152h-399zM105 715l83 144h89l86 -144h-19l-117 94l-106 -94h-16z" />
<glyph unicode="&#xcb;" horiz-adv-x="500" d="M23 20v23h24q20 0 27.5 8t7.5 23v559q0 16 -8 23.5t-27 7.5h-20v24h383l43 -133l-19 -8q-31 59 -66.5 88t-78.5 29h-109q-16 0 -25.5 -8t-9.5 -23v-242h113q39 0 56.5 19.5t17.5 58.5v23h23v-230h-23v15q0 43 -17.5 66.5t-56.5 23.5h-113v-293q0 -16 9.5 -23.5t25.5 -7.5 h101q59 0 100 33t64 104l20 -8l-43 -152h-399zM102 806.5q0 21.5 15 37t35 15.5q23 0 39 -15.5t16 -37t-15.5 -37t-37 -15.5t-37 15.5t-15.5 37zM262 806.5q0 21.5 15 37t35 15.5q23 0 39 -15.5t16 -37t-15.5 -37t-37 -15.5t-37 15.5t-15.5 37z" />
<glyph unicode="&#xcc;" horiz-adv-x="500" d="M90 20v23h90q20 0 27.5 8t7.5 23v559q0 16 -8 23.5t-27 7.5h-90v24h312v-24h-90q-16 0 -25.5 -8t-9.5 -23v-559q0 -16 10 -24q9 -7 25 -7h90v-23h-312zM125 859h109l47 -144h-15z" />
<glyph unicode="&#xcd;" horiz-adv-x="500" d="M90 20v23h90q20 0 27.5 8t7.5 23v559q0 16 -8 23.5t-27 7.5h-90v24h312v-24h-90q-16 0 -25.5 -8t-9.5 -23v-559q0 -16 10 -24q9 -7 25 -7h90v-23h-312zM199 711l51 148h109l-144 -148h-16z" />
<glyph unicode="&#xce;" horiz-adv-x="500" d="M90 20v23h90q20 0 27.5 8t7.5 23v559q0 16 -8 23.5t-27 7.5h-90v24h312v-24h-90q-16 0 -25.5 -8t-9.5 -23v-559q0 -16 10 -24q9 -7 25 -7h90v-23h-312zM117 723l90 136h90l74 -136h-16l-109 89l-113 -89h-16z" />
<glyph unicode="&#xcf;" horiz-adv-x="500" d="M90 20v23h90q20 0 27.5 8t7.5 23v559q0 16 -8 23.5t-27 7.5h-90v24h312v-24h-90q-16 0 -25.5 -8t-9.5 -23v-559q0 -16 10 -24q9 -7 25 -7h90v-23h-312zM109 806.5q0 21.5 16 37t37 16t37 -15.5t16 -37.5t-15.5 -37t-37 -15.5t-37.5 15.5t-16 37zM270 806.5q0 21.5 15 37 t35 15.5q23 0 39 -15.5t16 -37t-15.5 -37t-37 -15.5t-37 15.5t-15.5 37z" />
<glyph unicode="&#xd0;" horiz-adv-x="500" d="M39 20v23h23q35 -1 40 19q8 20 7 75v218h-70v36h70v183q0 62 -4 74q-12 20 -46 20h-20v23h188q98 0 148.5 -35t81.5 -113t31 -184q0 -141 -60.5 -240t-193.5 -99h-195zM172 66q43 -12 70 -7q74 0 127 80t53 216q0 133 -51 215t-129 82q-35 4 -70 -7v-254h129v-36h-129 v-289z" />
<glyph unicode="&#xd1;" horiz-adv-x="500" d="M4 20v23h31q20 0 27.5 8t7.5 23v559q0 16 -7.5 23.5t-27.5 7.5h-23v24h113l266 -512h7v457q0 16 -7.5 23.5t-27.5 7.5h-31v24h156v-24h-31q-16 0 -25.5 -8t-9.5 -23v-613h-24l-296 582h-8v-528q0 -16 9.5 -23.5t25.5 -7.5h31v-23h-156zM117 758q0 59 23.5 80t47 21 t39 -5.5t50.5 -27t51 -21.5t25.5 11.5t17.5 42.5h12q0 -35 -12 -54.5t-29.5 -33t-44.5 -13.5t-64.5 23.5t-47 29t-23.5 5.5t-19.5 -11.5t-13.5 -46.5h-12z" />
<glyph unicode="&#xd2;" horiz-adv-x="500" d="M31 355q0 152 60.5 246t158.5 94q102 0 160.5 -99.5t58.5 -240.5q0 -160 -62.5 -251.5t-156.5 -91.5q-90 0 -154.5 93.5t-64.5 249.5zM105 355q0 -168 41.5 -244t103.5 -76q66 0 105.5 72.5t39.5 247.5q0 141 -33.5 227t-111.5 86q-66 0 -105.5 -78.5t-39.5 -234.5z M141 859h93l43 -144h-11z" />
<glyph unicode="&#xd3;" horiz-adv-x="500" d="M31 355q0 152 60.5 246t158.5 94q102 0 160.5 -99.5t58.5 -240.5q0 -160 -62.5 -251.5t-156.5 -91.5q-90 0 -154.5 93.5t-64.5 249.5zM105 355q0 -168 41.5 -244t103.5 -76q66 0 105.5 72.5t39.5 247.5q0 141 -33.5 227t-111.5 86q-66 0 -105.5 -78.5t-39.5 -234.5z M211 715l43 144h94l-125 -144h-12z" />
<glyph unicode="&#xd4;" horiz-adv-x="500" d="M31 355q0 152 60.5 246t158.5 94q102 0 160.5 -99.5t58.5 -240.5q0 -160 -62.5 -251.5t-156.5 -91.5q-90 0 -154.5 93.5t-64.5 249.5zM105 355q0 -168 41.5 -244t103.5 -76q66 0 105.5 72.5t39.5 247.5q0 141 -33.5 227t-111.5 86q-66 0 -105.5 -78.5t-39.5 -234.5z M117 707l86 152h82l90 -152h-12l-121 102l-113 -102h-12z" />
<glyph unicode="&#xd5;" horiz-adv-x="500" d="M31 355q0 152 60.5 246t158.5 94q102 0 160.5 -99.5t58.5 -240.5q0 -160 -62.5 -251.5t-156.5 -91.5q-90 0 -154.5 93.5t-64.5 249.5zM105 355q0 -168 41.5 -244t103.5 -76q66 0 105.5 72.5t39.5 247.5q0 141 -33.5 227t-111.5 86q-66 0 -105.5 -78.5t-39.5 -234.5z M121 754q0 59 23.5 82t47 23t39 -5.5t50.5 -29t51 -23.5t25.5 11.5t17.5 46.5h12q0 -39 -12 -60.5t-29.5 -33t-45 -11.5t-64.5 23.5t-46.5 29t-23.5 5.5t-19.5 -11.5t-13.5 -46.5h-12z" />
<glyph unicode="&#xd6;" horiz-adv-x="500" d="M31 355q0 152 60.5 246t158.5 94q102 0 160.5 -99.5t58.5 -240.5q0 -160 -62.5 -251.5t-156.5 -91.5q-90 0 -154.5 93.5t-64.5 249.5zM105 355q0 -168 41.5 -244t103.5 -76q66 0 105.5 72.5t39.5 247.5q0 141 -33.5 227t-111.5 86q-66 0 -105.5 -78.5t-39.5 -234.5z M113 806.5q0 21.5 16 37t37 16t37 -15.5t16 -37.5t-15.5 -37t-37 -15.5t-37.5 15.5t-16 37zM289 806.5q0 21.5 15.5 37t35.5 15.5q23 0 39 -15.5t16 -37t-16 -37t-37.5 -15.5t-37 15.5t-15.5 37z" />
<glyph unicode="&#xd7;" d="M180 78l281 281l-281 282l31 31l281 -281l270 281l35 -31l-274 -282l282 -277l-35 -35l-278 281l-281 -281z" />
<glyph unicode="&#xd8;" horiz-adv-x="500" d="M31 363q0 141 57 234.5t166 97.5q82 0 137 -74l47 82l19 -19l-47 -86q31 -51 43 -105.5t16 -133.5q4 -168 -74 -277q-59 -70 -141 -70q-31 -4 -70 13.5t-71 56.5l-43 -78l-19 23l43 78q-62 102 -63 258zM105 363q0 -109 20 -203l238 414q-31 94 -121 94q-20 0 -39 -12 q-27 -16 -47 -43q-23 -35 -37 -103.5t-14 -146.5zM137 121q16 -27 35 -51q43 -31 70 -35q31 0 58.5 13.5t49 47t33.5 98t12 150.5q0 62 -4 113q-8 31 -16 82z" />
<glyph unicode="&#xd9;" horiz-adv-x="500" d="M12 664v24h172v-24h-20q-16 0 -25.5 -8t-9.5 -23v-457q0 -78 33 -105.5t88 -27.5q59 0 100 39t41 98v453q0 16 -8 23.5t-28 7.5h-23v24h141v-24h-24q-16 0 -25.5 -8t-9.5 -23v-453q0 -78 -52.5 -123t-119.5 -45q-70 0 -123 39t-53 125v457q0 16 -7.5 23.5t-27.5 7.5h-19z M141 859h93l43 -144h-11z" />
<glyph unicode="&#xda;" horiz-adv-x="500" d="M12 664v24h172v-24h-20q-16 0 -25.5 -8t-9.5 -23v-457q0 -78 33 -105.5t88 -27.5q59 0 100 39t41 98v453q0 16 -8 23.5t-28 7.5h-23v24h141v-24h-24q-16 0 -25.5 -8t-9.5 -23v-453q0 -78 -52.5 -123t-119.5 -45q-70 0 -123 39t-53 125v457q0 16 -7.5 23.5t-27.5 7.5h-19z M219 715l43 144h93l-125 -144h-11z" />
<glyph unicode="&#xdb;" horiz-adv-x="500" d="M12 664v24h172v-24h-20q-16 0 -25.5 -8t-9.5 -23v-457q0 -78 33 -105.5t88 -27.5q59 0 100 39t41 98v453q0 16 -8 23.5t-28 7.5h-23v24h141v-24h-24q-16 0 -25.5 -8t-9.5 -23v-453q0 -78 -52.5 -123t-119.5 -45q-70 0 -123 39t-53 125v457q0 16 -7.5 23.5t-27.5 7.5h-19z M125 723l90 136h74l90 -136h-12l-121 89l-109 -89h-12z" />
<glyph unicode="&#xdc;" horiz-adv-x="500" d="M12 664v24h172v-24h-20q-16 0 -25.5 -8t-9.5 -23v-457q0 -78 33 -105.5t88 -27.5q59 0 100 39t41 98v453q0 16 -8 23.5t-28 7.5h-23v24h141v-24h-24q-16 0 -25.5 -8t-9.5 -23v-453q0 -78 -52.5 -123t-119.5 -45q-70 0 -123 39t-53 125v457q0 16 -7.5 23.5t-27.5 7.5h-19z M117 806.5q0 21.5 15.5 37t35.5 15.5q23 0 39 -15.5t16 -37t-16 -37t-37.5 -15.5t-37 15.5t-15.5 37zM293 806.5q0 21.5 15.5 37t35.5 15.5q23 0 38.5 -15.5t15.5 -37t-15.5 -37t-37 -15.5t-37 15.5t-15.5 37z" />
<glyph unicode="&#xdd;" horiz-adv-x="500" d="M20 664v24h171v-24h-23q-23 0 -27 -11.5t4 -35.5l105 -289h8l109 289q4 23 -5.5 35t-37.5 12h-8v24h153v-24h-12q-20 0 -35.5 -13.5t-26.5 -41.5l-122 -308v-227q0 -16 10 -23.5t26 -7.5h35v-23h-203v23h35q20 0 27.5 8t7.5 23v203l-133 344q-8 20 -19.5 31.5t-31.5 11.5 h-7zM215 715l43 144h94l-125 -144h-12z" />
<glyph unicode="&#xde;" horiz-adv-x="500" d="M31 20v19h16q47 0 60.5 19.5t13.5 78.5v429q0 55 -4 68.5t-23.5 23.5t-42.5 10h-20v20h246v-20h-19q-23 0 -43 -8t-25.5 -25.5t-5.5 -68.5v-31h50q74 0 109.5 -7.5t70.5 -29t58.5 -59t23.5 -78.5t-15.5 -74t-39 -54.5t-49 -35t-54.5 -19.5t-100 -6h-54v-27 q0 -66 15.5 -86t58.5 -20h19v-19h-246zM184 207h43q86 0 125 15.5t60.5 51t21.5 76.5t-16 72t-41 48.5t-48.5 23.5t-82.5 6h-62v-293z" />
<glyph unicode="&#xdf;" horiz-adv-x="500" d="M35 23v20q31 0 43 6t18 21.5t6 58.5v344q0 117 46 164q43 51 110 51q78 0 123 -39.5t47 -98t-27.5 -93.5t-64.5 -51q66 -20 99.5 -72.5t33.5 -126.5t-47 -130.5t-103.5 -56.5t-82 23t-25.5 46.5t9.5 35.5t29.5 12t29.5 -12t11.5 -25.5t-4 -25.5t4 -19.5t31.5 -5.5 t50.5 29t33 111t-37 143t-127 55v23q62 0 93.5 29.5t27.5 97.5t-29 93.5t-74 25.5t-72.5 -31t-23.5 -117v-485h-129z" />
<glyph unicode="&#xe0;" horiz-adv-x="500" d="M43 228.5q0 -87.5 39 -146.5t93.5 -70.5t101.5 6t71 64.5v-16q0 -55 54 -54h28v23q-27 8 -28 59v363h-11q-23 -31 -39 -62q-27 43 -68.5 54.5t-90 0t-99.5 -72.5t-51 -148.5zM109 232q0 80 35.5 129t105.5 51t98 -60v-223q-31 -66 -84 -76t-86 7.5t-51 54.5t-18 117z M150.5 625q1.5 27 21 33t39 -5.5t66.5 -144.5l-19 -4q-109 94 -107.5 121z" />
<glyph unicode="&#xe1;" horiz-adv-x="500" d="M43 228.5q0 -87.5 39 -146.5t93.5 -70.5t101.5 6t71 64.5v-16q0 -55 54 -54h28v23q-27 8 -28 59v363h-11q-23 -31 -39 -62q-27 43 -68.5 54.5t-90 0t-99.5 -72.5t-51 -148.5zM109 232q0 80 35.5 129t105.5 51t98 -60v-223q-31 -66 -84 -76t-86 7.5t-51 54.5t-18 117z M203 521.5q0 21.5 129 123.5h20q-70 -133 -88 -147t-39.5 -6t-21.5 29.5z" />
<glyph unicode="&#xe2;" horiz-adv-x="500" d="M39 125q0 70 60.5 115t240.5 65q4 86 -15.5 111t-84 25t-92 -21.5t-19.5 -41t0 -35t-27.5 -15.5t-29.5 10t-10 37t51 58.5t127 31.5t115.5 -29.5t39.5 -83.5v-258q0 -31 5.5 -37t23 -6t25.5 17.5t8 48.5h20q0 -55 -19.5 -76t-49 -21t-45 11.5t-23.5 38.5 q-39 -27 -72.5 -40.5t-92 -13.5t-97.5 33t-39 76zM78 590l90 160h90l94 -160h-16l-133 105l-113 -105h-12zM105 145q0 -43 21.5 -72.5t62.5 -29.5t76.5 13.5t74.5 41.5v183q-133 -16 -184 -54.5t-51 -81.5z" />
<glyph unicode="&#xe3;" horiz-adv-x="500" d="M39 125q0 70 60.5 115t240.5 65v47q0 39 -17.5 64t-80.5 25q-66 0 -93.5 -21.5t-19.5 -44.5q8 -16 0 -31.5t-27.5 -15.5t-29.5 10t-8 37t51 58.5t125 31.5t115.5 -29.5t39.5 -83.5v-258q0 -31 5.5 -37t23 -6t25.5 17.5t8 48.5h20q0 -55 -19.5 -76t-49 -21t-45 11.5 t-23.5 38.5q-39 -27 -72.5 -40.5t-88 -13.5t-97.5 33t-43 76zM94 621q0 59 23.5 80.5t47 21.5t39 -6t50.5 -27.5t50.5 -21.5t25.5 11.5t18 43.5h11q0 -35 -11.5 -55t-29 -33.5t-45 -13.5t-64.5 23.5t-47 29.5t-23.5 6t-19.5 -12t-14 -47h-11zM105 137q0 -35 21.5 -64.5 t68.5 -29.5q35 0 70.5 13.5t74.5 41.5v183q-133 -16 -184 -52.5t-51 -91.5z" />
<glyph unicode="&#xe4;" horiz-adv-x="500" d="M39 125q0 70 60.5 115t240.5 65v47q0 39 -17.5 64t-80.5 25q-66 0 -93.5 -21.5t-19.5 -44.5q8 -16 0 -31.5t-27.5 -15.5t-29.5 10t-8 35t51 58.5t125 33.5t115.5 -29.5t39.5 -83.5v-258q0 -31 5.5 -37t23 -6t25.5 17.5t8 48.5h20q0 -55 -19.5 -76t-49 -21t-45 11.5 t-23.5 38.5q-39 -27 -72.5 -40.5t-92 -13.5t-97.5 33t-39 76zM86 673.5q0 21.5 15.5 37.5t35.5 16q23 0 38.5 -16t15.5 -37.5t-15.5 -37t-37 -15.5t-37 15.5t-15.5 37zM105 137q0 -35 21.5 -64.5t68.5 -29.5q35 0 70.5 13.5t74.5 41.5v183q-133 -16 -184 -52.5t-51 -91.5z M254 673.5q0 21.5 15.5 37.5t35.5 16q23 0 38.5 -16t15.5 -37.5t-15.5 -37t-37 -15.5t-37 15.5t-15.5 37z" />
<glyph unicode="&#xe5;" horiz-adv-x="500" d="M39 125q0 70 60.5 115t240.5 65v47q0 39 -17.5 64t-82 25t-92 -21.5t-19.5 -44.5q8 -16 -2 -33.5t-29.5 -17.5t-29 14t-4 39t52.5 56.5t123 31.5t115.5 -29.5t39.5 -83.5v-258q0 -31 5.5 -37t23 -6t25.5 17.5t8 48.5h20q0 -55 -19.5 -76t-49 -21t-45 11.5t-23.5 38.5 q-39 -27 -72.5 -40.5t-90 -13.5t-97.5 33t-41 76zM105 137q0 -35 21.5 -64.5t68.5 -29.5q35 0 70.5 13.5t74.5 41.5v183q-133 -16 -184 -52.5t-51 -91.5zM121 676q0 35 25.5 60.5t61 25t58.5 -23.5q27 -23 27 -58t-25.5 -60.5t-62.5 -25.5t-60.5 23.5t-23.5 58.5zM152 679.5 q0 -23.5 16 -41t39 -17.5t39 17.5t14 43t-17.5 39t-37 14t-37.5 -15.5t-16 -39.5z" />
<glyph unicode="&#xe6;" horiz-adv-x="500" d="M4 178q0 45 17.5 76t72 62.5t109.5 38.5v90q0 28 -21.5 49.5t-45 21.5t-39 -16t-13.5 -43t-4 -43t-25.5 -19.5t-29 8t-9.5 33t13.5 47t44.5 43t74 17.5t72.5 -21.5t33.5 -44.5q27 35 50.5 52.5t70.5 15.5t84 -49t37 -168h-238v-45q0 -10 6 -51t29 -72t64 -31t72.5 29.5 t54.5 91.5l12 -12q-12 -78 -55 -123t-87.5 -45t-76 21.5t-50.5 56.5q-51 -55 -76.5 -66.5t-60.5 -11.5t-60.5 31.5t-25.5 76.5zM64 213q-2 -41 18 -66.5t43 -25.5t41 10t53 41q-4 20 -10 59t-10 89q-59 -12 -96 -39t-39 -68zM258 359h168q0 94 -23.5 121.5t-58.5 27.5 q-31 0 -56.5 -29.5t-29.5 -119.5z" />
<glyph unicode="&#xe7;" horiz-adv-x="500" d="M35 297q0 105 62.5 171.5t138.5 66.5t117.5 -33t41.5 -60.5t-12 -41t-33.5 -15.5t-35 13.5t-13.5 45t-19.5 45t-58.5 15.5t-80 -43t-47 -129t27 -142.5t99.5 -62.5t107.5 29t68 98l12 -8q-16 -90 -68.5 -131t-123.5 -43q-9 -1 -18 0l-20 -29q31 -8 46.5 -25.5t15.5 -44.5 q-4 -39 -27.5 -58.5t-58.5 -23.5t-66 -4v23q16 -4 33.5 -4t35 17.5t17.5 35.5t-12 27.5t-24 9.5h-19l52 81q-44 12 -82 52q-56 59 -56 168z" />
<glyph unicode="&#xe8;" horiz-adv-x="500" d="M64 226.5q-2 105.5 49 164t105.5 68.5t101.5 -4t82 -59t39 -150h-300q-4 -74 25 -127t91.5 -58.5t103.5 21.5t57 59h23q-12 -47 -60.5 -88t-128.5 -41t-133 54.5t-55 160zM141 277h226q-4 82 -37 117.5t-74 33.5t-76 -37.5t-39 -113.5zM156.5 629q-0.5 27 25 33t43 -11.5 t60.5 -138.5l-19 -4q-109 94 -109.5 121z" />
<glyph unicode="&#xe9;" horiz-adv-x="500" d="M64 222.5q-2 105.5 49 164t105.5 68.5t101.5 -3.5t82 -59t39 -150.5h-300q-4 -74 25 -127t91.5 -58.5t103.5 21.5t57 59h23q-12 -47 -60.5 -88t-128.5 -41t-133 54.5t-55 160zM141 273h226q-4 82 -37 117.5t-74 33.5t-76 -37.5t-39 -113.5zM219 537q0 21 129 123h19 q-70 -133 -87.5 -146.5t-39 -5.5t-21.5 29z" />
<glyph unicode="&#xea;" horiz-adv-x="500" d="M64 222.5q-2 105.5 49 164t105.5 68.5t101.5 -3.5t82 -59t39 -150.5h-300q-4 -74 25 -127t91.5 -58.5t103.5 21.5t57 59h23q-12 -47 -60.5 -88t-128.5 -41t-133 54.5t-55 160zM94 504q105 160 122.5 164t29.5 4t31 -8t121 -160h-19l-133 101l-133 -101h-19zM141 273h226 q-4 82 -37 117.5t-74 33.5t-76 -37.5t-39 -113.5z" />
<glyph unicode="&#xeb;" horiz-adv-x="500" d="M59 238q0 98 56.5 162.5t138.5 64.5q78 4 131 -51t53 -176h-317q0 -105 41 -150t99.5 -45t94 29.5t50.5 72.5l20 -8q-12 -43 -53 -84t-121 -41t-136.5 58.5t-56.5 167.5zM98 634.5q0 21.5 15 37.5t35 16q23 0 39 -16t16 -37.5t-15.5 -37t-37 -15.5t-37 15.5t-15.5 37z M121 262h250q4 86 -29 131t-88 45q-59 0 -96 -47t-37 -129zM270 634.5q0 21.5 15 37.5t35 16q23 0 39 -16t16 -37.5t-15.5 -37t-37 -15.5t-37 15.5t-15.5 37z" />
<glyph unicode="&#xec;" horiz-adv-x="500" d="M98 629q0 27 25 33t43 -11.5t61 -138.5l-20 -4q-109 94 -109 121zM105 16v19q70 0 79 31v317q0 35 -59 31v16q62 12 94 31h23v-391q8 -35 78 -35v-19h-215z" />
<glyph unicode="&#xed;" horiz-adv-x="500" d="M105 16v19q70 0 79 31v317q0 35 -59 31v16q62 12 94 31h23v-391q8 -35 78 -35v-19h-215zM156 537q0 21 129 123h20q-70 -133 -88 -146.5t-39.5 -5.5t-21.5 29z" />
<glyph unicode="&#xee;" horiz-adv-x="500" d="M78 574l90 160h90l94 -160h-16l-125 106l-121 -106h-12zM102 20v23h82q20 0 27.5 8t7.5 23v324q0 16 -8 26t-27 10h-82v23h39q35 0 66 6t59 21h7v-410q0 -16 10 -23.5t26 -7.5h82v-23h-289z" />
<glyph unicode="&#xef;" horiz-adv-x="500" d="M82 677.5q0 21.5 15.5 37t37 16t37.5 -15.5t16 -37.5t-16 -37t-37.5 -15.5t-37 15.5t-15.5 37zM102 20v23h82q20 0 27.5 8t7.5 23v324q0 16 -8 26t-27 10h-82v23h39q35 0 66 6t59 21h7v-410q0 -16 10 -23.5t26 -7.5h82v-23h-289zM254 681.5q0 21.5 15.5 37t35.5 15.5 q23 0 38.5 -15.5t15.5 -37t-15.5 -37t-37 -15.5t-37 15.5t-15.5 37z" />
<glyph unicode="&#xf0;" horiz-adv-x="500" d="M35 234q0 98 51 152.5t101.5 64.5t82 6t74.5 -31q-47 86 -106 144l-129 -62l-15 23l125 67q-47 43 -102 74l12 16q70 -31 121 -71l121 63l16 -28l-110 -58q94 -86 135 -164t45 -158.5t-21.5 -137t-80 -87.5t-131 -23.5t-133 62.5t-56.5 148zM98 262q0 -66 15.5 -111.5 t58.5 -70.5t94 -25q47 0 84 35t41 113q0 109 -39.5 172t-117.5 63q-47 0 -88 -43t-48 -133z" />
<glyph unicode="&#xf1;" horiz-adv-x="500" d="M27 20v23h20q20 0 27.5 8t7.5 23v336q0 12 -4 18t-16 6h-31v23h28q20 0 37 4t33 16h8v-90q35 39 70 58.5t88 19.5t84 -35t31 -106v-250q0 -16 10 -23.5t25 -7.5h20v-23h-164v23h19q20 0 27.5 8t7.5 23v262q0 47 -19.5 72.5t-56.5 25.5t-74 -23.5t-68 -66.5v-270 q0 -16 9.5 -23.5t25.5 -7.5h19v-23h-164zM98 629q0 59 23.5 82t46.5 23t39 -5.5t51 -29t50.5 -23.5t25.5 11.5t18 46.5h11q0 -39 -11.5 -60.5t-29 -33t-45 -9.5t-62.5 25.5t-43 27.5t-25.5 4t-23.5 -12t-14 -47h-11z" />
<glyph unicode="&#xf2;" horiz-adv-x="500" d="M51 234q4 86 47 141t99.5 72.5t113 0t97.5 -74.5t43 -141t-48.5 -154t-148.5 -70t-152.5 70t-50.5 156zM117 230q4 -78 41 -130.5t70.5 -58.5t60.5 4t60.5 58.5t33.5 128.5t-37 137t-92 55t-96 -57t-41 -137zM148.5 625q-0.5 27 23 35t43 -11.5t62.5 -140.5l-19 -4 q-109 94 -109.5 121z" />
<glyph unicode="&#xf3;" horiz-adv-x="500" d="M47 238q4 86 49 141t101.5 72.5t113 2t97.5 -74.5t43 -143t-52.5 -154t-148.5 -70t-150.5 70t-52.5 156zM117 234q4 -78 41 -130.5t70.5 -58.5t60.5 4t60.5 58.5t33.5 128.5t-37 137t-92 55t-96 -57t-41 -137zM219 533q0 21 129 123h19q-70 -133 -87.5 -146.5t-39 -5.5 t-21.5 29z" />
<glyph unicode="&#xf4;" horiz-adv-x="500" d="M43 238q0 86 56.5 156.5t146.5 70.5q94 0 148.5 -70.5t54.5 -156.5q0 -98 -58.5 -162t-144.5 -64q-90 0 -146.5 66.5t-56.5 159.5zM105 234q0 -102 41.5 -150.5t99.5 -48.5q66 0 103.5 53t37.5 146q0 102 -41 154.5t-100 52.5q-55 0 -98 -52.5t-43 -154.5zM105 574 l90 160h90l94 -160h-16l-129 106l-117 -106h-12z" />
<glyph unicode="&#xf5;" horiz-adv-x="500" d="M43 238q0 86 56.5 156.5t146.5 70.5q94 0 148.5 -70.5t54.5 -156.5q0 -98 -58.5 -162t-144.5 -64q-90 0 -146.5 66.5t-56.5 159.5zM105 234q0 -102 41.5 -150.5t99.5 -48.5q66 0 103.5 53t37.5 146q0 102 -41 154.5t-100 52.5q-55 0 -98 -52.5t-43 -154.5zM109 621 q0 59 23.5 82.5t47 23.5t39 -6t51 -29.5t51 -23.5t25 11.5t17.5 47.5h12q0 -39 -11.5 -60.5t-29.5 -33.5t-45 -12t-64 23.5t-47 29.5t-23.5 6t-19.5 -12t-14 -47h-12z" />
<glyph unicode="&#xf6;" horiz-adv-x="500" d="M43 238q0 86 56.5 156.5t146.5 70.5q90 4 146.5 -64.5t56.5 -162.5q0 -98 -58.5 -162t-144.5 -64q-90 0 -146.5 66.5t-56.5 159.5zM94 681.5q0 21.5 15.5 37t35.5 15.5q23 0 38.5 -15.5t15.5 -37t-15.5 -37t-37 -15.5t-37 15.5t-15.5 37zM105 234q0 -102 41.5 -150.5 t99.5 -48.5q66 0 103.5 53t37.5 146q0 102 -41 154.5t-100 52.5q-55 0 -98 -52.5t-43 -154.5zM266 681.5q0 21.5 15 37t35 15.5q23 0 39 -15.5t16 -37t-15.5 -37t-37 -15.5t-37 15.5t-15.5 37z" />
<glyph unicode="&#xf7;" d="M141 332h714v47h-714v-47zM420 115q2 41 39 58.5t70 -4t31.5 -62t-40.5 -60.5t-70.5 3.5t-29.5 64.5zM420 607q2 41 39 59t70 -3.5t31.5 -62.5t-40.5 -61t-70.5 3.5t-29.5 64.5z" />
<glyph unicode="&#xf8;" horiz-adv-x="500" d="M27 12l63 74q-23 35 -35 70t-12 90t27.5 107.5t70.5 80t91.5 31.5t84 -10t66.5 -45l66 74l20 -23l-67 -74q43 -55 47 -127t-21.5 -127t-70.5 -88t-95.5 -33t-83.5 11.5t-69 42.5l-62 -74zM105.5 269.5q-7.5 -74.5 15.5 -148.5l231 254q-23 43 -54.5 56.5t-72.5 6 t-76.5 -50.5t-43 -117.5zM137 94q35 -43 72 -53t76 0t68.5 53t33.5 121t-20 133z" />
<glyph unicode="&#xf9;" horiz-adv-x="500" d="M23 453q74 0 75 -51v-289q0 -59 35 -80t93.5 -15.5t125.5 76.5v-39q0 -39 54 -39h55v31q-35 0 -45 11.5t-10 46.5v372h-121v-24q66 0 67 -47v-277q-62 -55 -115 -57t-69 14t-16 59v332h-129v-24zM148.5 629q-0.5 27 23 35t43 -11.5t62.5 -140.5l-19 -4 q-109 94 -109.5 121z" />
<glyph unicode="&#xfa;" horiz-adv-x="500" d="M23 453q74 0 75 -51v-289q0 -59 35 -80t93.5 -15.5t125.5 76.5v-39q0 -39 54 -39h55v31q-35 0 -45 11.5t-10 46.5v372h-121v-24q66 0 67 -47v-277q-62 -55 -115 -57t-69 14t-16 59v332h-129v-24zM215 541q0 21 129 123h19q-70 -133 -87.5 -146.5t-39 -5.5t-21.5 29z" />
<glyph unicode="&#xfb;" horiz-adv-x="500" d="M20 434v23h23q23 0 42.5 4t39.5 19h8v-324q0 -55 23.5 -78t66.5 -23q47 0 80 23.5t49 73.5v246q0 16 -8 26t-28 10h-23v23h23q23 0 43 4t39 19h8v-382q0 -16 10 -24t25 -8h24v-23h-24q-20 0 -39 -6t-43 -17h-7v82q-20 -43 -59 -64.5t-90 -21.5q-62 0 -93.5 35t-31.5 113 v234q0 16 -8 26t-27 10h-23zM94 574l90 160h89l94 -160h-15l-129 106l-118 -106h-11z" />
<glyph unicode="&#xfc;" horiz-adv-x="500" d="M23 453q74 0 75 -51v-289q0 -59 35 -80t93.5 -15.5t125.5 76.5v-39q0 -39 54 -39h55v31q-35 0 -45 11.5t-10 46.5v372h-121v-24q66 0 67 -47v-277q-62 -55 -115 -57t-69 14t-16 59v332h-129v-24zM94 546.5q0 19.5 9.5 31.5t25.5 16t31.5 0t23 -15.5t7.5 -31.5 t-17.5 -31.5t-33 -11.5t-31 11.5t-15.5 31zM293 546.5q0 19.5 9.5 31.5t23.5 16t31.5 0t25.5 -15.5t8 -31.5t-18 -31.5t-33.5 -11.5t-31 11.5t-15.5 31z" />
<glyph unicode="&#xfd;" horiz-adv-x="500" d="M39 434h16q16 0 29.5 -10t17.5 -26l132 -343q-8 -31 -21.5 -64.5t-23 -47t-23.5 -19.5t-25.5 13.5t-33 19.5t-31.5 -13.5t-8 -29.5t16 -25.5t49 -9.5t64.5 27.5t52.5 97.5l133 387q8 20 23.5 31.5t31.5 11.5h23v23h-164v-23h23q16 0 25.5 -12t2.5 -31l-86 -262h-8 l-94 266q-4 20 4 29.5t24 9.5h15v23h-164v-23zM203 566l51 168h109l-144 -168h-16z" />
<glyph unicode="&#xfe;" horiz-adv-x="500" d="M16 -121h11q27 0 41 8t20 19.5t6 62.5v656q0 47 -4 58.5t-12 17.5t-21.5 6t-33.5 -8l-3 16l117 55h19v-340q27 43 64.5 68t82.5 27t76 -17.5t56.5 -62.5t25.5 -129q-4 -117 -55 -179.5t-107.5 -72t-87.5 2t-55 35.5v-137q0 -47 6 -58.5t19.5 -19.5t48.5 -8v-16h-214v16z M156 234q0 -55 4 -70q8 -31 33.5 -52.5t76 -21.5t86 45t37.5 144.5t-35.5 144.5t-78.5 45t-62.5 -12t-60.5 -55v-168z" />
<glyph unicode="&#xff;" horiz-adv-x="500" d="M39 434v23h164v-23h-15q-16 0 -24 -10t-4 -29l94 -266h8l86 262q8 20 -2 31.5t-26 11.5h-23v23h164v-23h-23q-16 0 -31.5 -12t-23.5 -31l-133 -387q-20 -59 -49 -92t-66 -33t-53 9.5t-16 25.5t10 27.5t27.5 11.5t33 -13.5t25.5 -13.5t18 4t15.5 19.5t19.5 44.5t19 61 l-132 343q-4 16 -18 26t-29 10h-16zM113 681.5q0 21.5 15.5 37t35.5 15.5q23 0 39 -15.5t16 -37t-15.5 -37t-37 -15.5t-37.5 15.5t-16 37zM285 681.5q0 21.5 15.5 37t35.5 15.5q23 0 39 -15.5t16 -37t-16 -37t-37.5 -15.5t-37 15.5t-15.5 37z" />
<glyph unicode="&#x101;" horiz-adv-x="500" d="M43 228.5q0 -87.5 39 -146.5t93.5 -70.5t101.5 6t71 64.5v-16q0 -55 54 -54h28v23q-27 8 -28 59v363h-11q-23 -31 -39 -62q-27 43 -68.5 54.5t-90 0t-99.5 -72.5t-51 -148.5zM109 232q0 80 35.5 129t105.5 51t98 -60v-223q-31 -66 -84 -76t-86 7.5t-51 54.5t-18 117z M133 539v55h226v-55h-226z" />
<glyph unicode="&#x113;" horiz-adv-x="500" d="M64 222.5q-2 105.5 49 164t105.5 68.5t101.5 -3.5t82 -59t39 -150.5h-300q-4 -74 25 -127t91.5 -58.5t103.5 21.5t57 59h23q-12 -47 -60.5 -88t-128.5 -41t-133 54.5t-55 160zM121 543v55h246v-55h-246zM141 273h226q-4 82 -37 117.5t-74 33.5t-76 -37.5t-39 -113.5z" />
<glyph unicode="&#x11b;" horiz-adv-x="500" d="M64 226.5q-2 105.5 49 164t105.5 68.5t101.5 -4t82 -59t39 -150h-300q-4 -74 25 -127t91.5 -58.5t103.5 21.5t57 59h23q-12 -47 -60.5 -88t-128.5 -41t-133 54.5t-55 160zM102 656h23l125 -90l117 90h20q-94 -137 -109.5 -144.5t-33 -7.5t-31 7.5t-111.5 144.5zM141 277 h226q-4 82 -37 117.5t-74 33.5t-76 -37.5t-39 -113.5z" />
<glyph unicode="&#x12b;" horiz-adv-x="500" d="M94 543v55h238v-55h-238zM105 16v19q70 0 79 31v317q0 35 -59 31v16q62 12 94 31h23v-391q8 -35 78 -35v-19h-215z" />
<glyph unicode="&#x144;" horiz-adv-x="500" d="M31 16v19q47 0 59 39v332q-4 32 -59 32v19q59 -4 102 16h12v-71q31 31 70 53t95.5 20t80 -39.5t19.5 -126.5v-231q8 -39 59 -43v-19h-176v19q51 0 62 39v250q4 62 -19.5 86t-64.5 16t-72 -29.5t-54 -48.5v-274q8 -39 62 -39v-19h-176zM176 537q0 21 129 123h19 q-70 -133 -87.5 -146.5t-39 -5.5t-21.5 29z" />
<glyph unicode="&#x148;" horiz-adv-x="500" d="M31 16v19q47 0 59 39v332q-4 32 -59 32v19q59 -4 102 16h12v-71q31 31 70 53t95.5 20t80 -39.5t19.5 -126.5v-231q8 -39 59 -43v-19h-176v19q51 0 62 39v250q4 62 -19.5 86t-64.5 16t-72 -29.5t-54 -48.5v-274q8 -39 62 -39v-19h-176zM105 660h24l125 -90l117 90h20 q-94 -137 -109.5 -144.5t-33.5 -7.5t-31.5 7.5t-111.5 144.5z" />
<glyph unicode="&#x14d;" horiz-adv-x="500" d="M47 234q4 86 49 141t101.5 72.5t113 2t97.5 -74.5t43 -143t-52.5 -154t-148.5 -70t-150.5 70t-52.5 156zM117 230q4 -78 41 -130.5t70.5 -58.5t60.5 4t60.5 58.5t33.5 128.5t-37 137t-92 55t-96 -57t-41 -137zM129 539v55h234v-55h-234z" />
<glyph unicode="&#x152;" horiz-adv-x="500" d="M43 352q0 129 39 226q43 102 133 106h246l8 -141h-16q-8 55 -13.5 68.5t-15.5 25t-37 11.5h-71v-261h47q35 0 45 23.5t10 73.5h16v-234h-16q0 62 -11.5 80t-43.5 18h-47v-289h67q27 0 39 7.5t30 31.5q17 24 28 90h16l-27 -168h-223q-82 4 -121 43t-60.5 117t-21.5 172z M105 359q0 -94 12 -162t35.5 -103t54.5 -39t45 9.5t14 76.5v386q0 70 -2 88t-12 29.5t-41 9.5t-56.5 -33t-37.5 -103.5t-12 -158.5z" />
<glyph unicode="&#x153;" horiz-adv-x="500" d="M43 295q0 107 41 169.5t92 66.5t76 -17.5t41 -56.5q20 43 41 60.5t64 17.5t72.5 -47t25.5 -160h-184q0 -47 12 -97.5t35.5 -74t49 -21.5t47 29t28.5 86l12 -8q-8 -94 -37 -137t-68 -43t-62.5 23.5t-35.5 55.5q-20 -39 -47 -59t-72 -18t-88 63t-43 168zM107 310.5 q-2 -99.5 23.5 -156t61 -56.5t53 35t17.5 138.5t-18 162t-45 62.5q-23 8 -46.5 -4t-33.5 -47t-12 -134.5zM312 359h129q0 55 -7.5 86.5t-19.5 45t-39 11.5t-43 -29.5t-20 -113.5z" />
<glyph unicode="&#x160;" horiz-adv-x="500" d="M39 203l23 8q27 -98 76.5 -135t111.5 -37q66 0 99.5 39t33.5 113q0 39 -37.5 76.5t-115.5 72.5q-105 47 -144 82t-39 109q0 59 49 111.5t138 52.5q39 0 74.5 -13.5t50.5 -13.5q12 0 22 6t17 21l16 -160l-19 -8q-35 82 -72.5 111.5t-95.5 29.5q-74 0 -101.5 -41t-27.5 -88 q0 -43 25 -68.5t139 -75.5q94 -39 135 -88t41 -116q0 -70 -49 -124.5t-143 -54.5q-39 0 -72 13.5t-53 13.5q-12 0 -23.5 -8t-27.5 -19zM117 859h12l129 -86l117 86h16l-94 -136h-90z" />
<glyph unicode="&#x161;" horiz-adv-x="500" d="M31 750h12l129 -102l117 102h16l-94 -160h-90zM51 70v157h15q16 -66 53 -101.5t88 -35.5q31 0 52.5 19.5t21.5 46.5q0 35 -23.5 58.5t-93.5 59t-94 62.5q-20 27 -19 70q0 55 37 92t96 37q27 0 66 -12q23 -8 31 -7q8 0 12 3.5t12 15.5h15v-152h-15q-20 74 -49 99.5 t-72 25.5q-35 0 -57 -17.5t-22 -41.5q0 -27 16 -47t63 -43l70 -35q102 -47 101 -125q0 -62 -46.5 -99.5t-105.5 -37.5q-39 0 -94 16q-16 4 -23 4q-12 0 -20 -12h-15z" />
<glyph unicode="&#x16b;" horiz-adv-x="500" d="M23 441q74 0 75 -50v-278q0 -59 35 -80t93.5 -15.5t125.5 76.5v-39q0 -39 54 -39h55v31q-35 0 -45 11.5t-10 46.5v360h-121v-24q66 0 67 -46v-266q-62 -55 -115 -57t-69 14t-16 47v332h-129v-24zM141 543v51h222v-51h-222z" />
<glyph unicode="&#x178;" horiz-adv-x="500" d="M20 664v24h171v-24h-23q-23 0 -27 -11.5t4 -35.5l105 -289h8l109 289q4 23 -5.5 35t-37.5 12h-8v24h153v-24h-12q-20 0 -35.5 -13.5t-26.5 -41.5l-122 -308v-227q0 -16 10 -23.5t26 -7.5h35v-23h-203v23h35q20 0 27.5 8t7.5 23v203l-133 344q-8 20 -19.5 31.5t-31.5 11.5 h-7zM117 806.5q0 21.5 15.5 37t35.5 15.5q23 0 39 -15.5t16 -37t-16 -37t-37.5 -15.5t-37 15.5t-15.5 37zM293 806.5q0 21.5 15.5 37t35.5 15.5q23 0 38.5 -15.5t15.5 -37t-15.5 -37t-37 -15.5t-37 15.5t-15.5 37z" />
<glyph unicode="&#x192;" horiz-adv-x="500" d="M0 -82q0 16 11.5 29.5t25.5 13.5t23.5 -10t9.5 -19.5t-5.5 -19.5t4 -13.5t23 2t27.5 29t27.5 64.5t35 142.5t68.5 332.5h-86l8 35h86q12 47 35 119t56.5 101.5t72.5 29.5q31 0 48.5 -17.5t17.5 -37t-9.5 -29.5t-23.5 -10t-23.5 12t-3.5 25.5t2 21.5t-18 8t-29.5 -18 t-21.5 -55t-25 -150h86l-8 -35h-86q-23 -129 -82 -344q-47 -168 -101 -219q-39 -43 -83 -43q-27 0 -44.5 16t-17.5 39z" />
<glyph unicode="&#x1ce;" horiz-adv-x="500" d="M43 224.5q0 -87.5 39 -146t93.5 -70.5t101.5 5.5t71 64.5v-16q0 -55 54 -54h28v23q-27 8 -28 59v363h-11q-23 -31 -39 -62q-27 43 -68.5 54.5t-90 0t-99.5 -72.5t-51 -148.5zM98 648h23l125 -89l117 89h20q-94 -137 -109.5 -144.5t-33 -7.5t-31 7.5t-111.5 144.5z M109 228.5q0 80.5 35.5 129t105.5 50.5t98 -60v-223q-31 -66 -84 -76t-86 7.5t-51 54.5t-18 117.5z" />
<glyph unicode="&#x1d0;" horiz-adv-x="500" d="M94 641h19l94 -71l94 71h15q-70 -117 -85.5 -125t-29 -8t-29.5 8t-78 125zM105 16v19q70 0 79 31v317q0 35 -59 31v16q62 12 94 31h23v-391q8 -35 78 -35v-19h-215z" />
<glyph unicode="&#x1d2;" horiz-adv-x="500" d="M47 234q4 86 49 141t101.5 72.5t113 2t97.5 -74.5t43 -143t-52.5 -154t-148.5 -70t-150.5 70t-52.5 156zM105 656h24l125 -90l117 90h20q-94 -137 -109.5 -144.5t-33.5 -7.5t-31.5 7.5t-111.5 144.5zM117 230q4 -78 41 -130.5t70.5 -58.5t60.5 4t60.5 58.5t33.5 128.5 t-37 137t-92 55t-96 -57t-41 -137z" />
<glyph unicode="&#x1d4;" horiz-adv-x="500" d="M23 453q74 0 75 -51v-289q0 -59 35 -80t93.5 -15.5t125.5 76.5v-39q0 -39 54 -39h55v31q-35 0 -45 11.5t-10 46.5v372h-121v-24q66 0 67 -47v-277q-62 -55 -115 -57t-69 14t-16 59v332h-129v-24zM105 660h24l125 -90l117 90h20q-94 -137 -109.5 -144.5t-33.5 -7.5 t-31.5 7.5t-111.5 144.5z" />
<glyph unicode="&#x1d6;" horiz-adv-x="500" d="M23 453q74 0 75 -51v-289q0 -59 35 -80t93.5 -15.5t125.5 76.5v-39q0 -39 54 -39h55v31q-35 0 -45 11.5t-10 46.5v372h-121v-24q66 0 67 -47v-277q-62 -55 -115 -57t-69 14t-16 59v332h-129v-24zM94 546.5q0 19.5 9.5 31.5t25.5 16t31.5 0t23 -15.5t7.5 -31.5 t-17.5 -31.5t-33 -11.5t-31 11.5t-15.5 31zM129 637v51h223v-51h-223zM293 546.5q0 19.5 9.5 31.5t23.5 16t31.5 0t25.5 -15.5t8 -31.5t-18 -31.5t-33.5 -11.5t-31 11.5t-15.5 31z" />
<glyph unicode="&#x1d8;" horiz-adv-x="500" d="M23 453q74 0 75 -51v-289q0 -59 35 -80t93.5 -15.5t125.5 76.5v-39q0 -39 54 -39h55v31q-35 0 -45 11.5t-10 46.5v372h-121v-24q66 0 67 -47v-277q-62 -55 -115 -57t-69 14t-16 59v332h-129v-24zM94 546.5q0 19.5 9.5 31.5t25.5 16t31.5 0t23 -15.5t7.5 -31.5 t-17.5 -31.5t-33 -11.5t-31 11.5t-15.5 31zM207 650q0 21 129 123h19q-70 -133 -87.5 -146.5t-39 -5.5t-21.5 29zM293 546.5q0 19.5 9.5 31.5t23.5 16t31.5 0t25.5 -15.5t8 -31.5t-18 -31.5t-33.5 -11.5t-31 11.5t-15.5 31z" />
<glyph unicode="&#x1da;" horiz-adv-x="500" d="M23 453q74 0 75 -51v-289q0 -59 35 -80t93.5 -15.5t125.5 76.5v-39q0 -39 54 -39h55v31q-35 0 -45 11.5t-10 46.5v372h-121v-24q66 0 67 -47v-277q-62 -55 -115 -57t-69 14t-16 59v332h-129v-24zM94 546.5q0 19.5 9.5 31.5t25.5 16t31.5 0t23 -15.5t7.5 -31.5 t-17.5 -31.5t-33 -11.5t-31 11.5t-15.5 31zM109 770h24l125 -90l117 90h20q-94 -137 -109.5 -145t-33.5 -8t-31.5 8t-111.5 145zM293 546.5q0 19.5 9.5 31.5t23.5 16t31.5 0t25.5 -15.5t8 -31.5t-18 -31.5t-33.5 -11.5t-31 11.5t-15.5 31z" />
<glyph unicode="&#x1dc;" horiz-adv-x="500" d="M23 453q74 0 75 -51v-289q0 -59 35 -80t93.5 -15.5t125.5 76.5v-39q0 -39 54 -39h55v31q-35 0 -45 11.5t-10 46.5v372h-121v-24q66 0 67 -47v-277q-62 -55 -115 -57t-69 14t-16 59v332h-129v-24zM94 546.5q0 19.5 9.5 31.5t25.5 16t31.5 0t23 -15.5t7.5 -31.5 t-17.5 -31.5t-33 -11.5t-31 11.5t-15.5 31zM154.5 736.5q1.5 25.5 25 33t41 -10t60.5 -138.5l-19 -4q-109 94 -107.5 119.5zM293 546.5q0 19.5 9.5 31.5t23.5 16t31.5 0t25.5 -15.5t8 -31.5t-18 -31.5t-33.5 -11.5t-31 11.5t-15.5 31z" />
<glyph unicode="&#x1f9;" horiz-adv-x="500" d="M31 16v19q47 0 59 39v332q-4 32 -59 32v19q59 -4 102 16h12v-71q31 31 70 53t95.5 20t80 -39.5t19.5 -126.5v-231q8 -39 59 -43v-19h-176v19q51 0 62 39v250q4 62 -19.5 86t-64.5 16t-72 -29.5t-54 -48.5v-274q8 -39 62 -39v-19h-176zM164 627q0 29 25.5 35t43 -13.5 t60.5 -140.5l-20 -4q-109 94 -109 123z" />
<glyph unicode="&#x251;" horiz-adv-x="500" d="M43 232.5q0 87.5 51 148t99.5 72.5t90 0t68.5 -55q16 31 39 63h11v-363q0 -51 28 -59v-23h-28q-55 0 -54 54v16q-23 -47 -70.5 -64.5t-102 -6t-93.5 70.5t-39 146.5zM109 236q0 -80 18 -117t51 -54.5t85.5 -8t84.5 76.5v222q-27 62 -97.5 60.5t-106 -50.5t-35.5 -129z " />
<glyph unicode="&#x261;" horiz-adv-x="500" d="M43 0q8 27 39 31t45 -23.5t-14 -54.5q23 -55 91.5 -58.5t106 37.5t37.5 154v70q-62 -66 -148.5 -60t-119.5 47t-35 115t35 123t119 64.5t149 -31.5q23 16 43 39h11v-351q0 -133 -45 -182t-132.5 -51t-126.5 21.5t-51 53t-4 56.5zM107 271.5q-2 -56.5 21.5 -93.5t57 -45 t74.5 2t88 56v118q0 70 -43 95.5t-96 13.5t-76.5 -51t-25.5 -95.5z" />
<glyph unicode="&#x2c6;" horiz-adv-x="500" d="M31 590l90 160h90l94 -160h-16l-129 105l-117 -105h-12z" />
<glyph unicode="&#x2c7;" d="M316 711l12 16l176 -106l168 109l16 -15l-184 -156z" />
<glyph unicode="&#x2c9;" d="M320 656v39h356v-39h-356z" />
<glyph unicode="&#x2ca;" d="M367 562q141 137 164.5 162.5t48.5 19.5t31 -29.5t-23 -41t-209 -122.5z" />
<glyph unicode="&#x2cb;" d="M385 695.5q2 23.5 27.5 35t50.5 -13.5t162 -166l-8 -12q-164 98 -199 115.5t-33 41z" />
<glyph unicode="&#x2d9;" d="M426 623q0 41 33 60.5t70 2t39 -64.5t-41 -64.5t-74 2.5q-27 23 -27 64z" />
<glyph unicode="&#x2dc;" horiz-adv-x="500" d="M12 613q0 66 27 93.5t63 27.5q20 0 39 -7q20 -8 60.5 -33.5t60.5 -25.5q16 0 27.5 13.5t19.5 52.5h15q0 -43 -13.5 -66t-35 -39t-45.5 -16q-39 0 -97 35q-27 20 -39 26t-24 6q-20 0 -31 -20q-4 -8 -12 -47h-15z" />
<glyph unicode="&#x391;" d="M172 86v23q51 -4 70 28l223 551l223 -508q23 -66 93 -71v-23h-191v23q70 -4 43 43l-63 153h-226l-63 -157q-20 -43 67 -39v-23h-176zM355 328h204l-102 250z" />
<glyph unicode="&#x392;" d="M234 86v23q62 -4 78 47v442q0 74 -78 66v24h243q117 4 183.5 -25.5t70 -107.5t-25.5 -113.5t-80 -46.5q47 -8 97.5 -59t33 -129t-80 -101.5t-202.5 -19.5h-239zM375 109h152q82 -4 119.5 35.5t37.5 102t-45 101.5t-119 35h-145v-274zM375 406h145q78 4 115 45t31 92 t-39 82t-104 35h-148v-254z" />
<glyph unicode="&#x393;" d="M250 82v23q62 -4 70 36v464q4 55 -62 55v24h480l4 -188h-19q-23 133 -141 164h-199v-527q23 -31 82 -28v-23h-215z" />
<glyph unicode="&#x394;" d="M238 86l250 609l270 -609h-520zM285 113h387l-199 465z" />
<glyph unicode="&#x395;" d="M207 660v24h555l8 -200h-20q-20 172 -164 176h-207v-258h141q59 20 46 157h28v-325h-28q12 129 -46 145h-141v-270h246q62 8 97.5 43.5t50.5 159.5h20l-4 -226h-578v23q101 -8 101 51v434q12 70 -105 66z" />
<glyph unicode="&#x396;" d="M250 86l387 574h-231q-47 -8 -74 -35t-55 -145h-19l8 204h468l-382 -575h261q98 20 117 192h20l-8 -215h-492z" />
<glyph unicode="&#x397;" d="M180 86v23q82 -4 93 39v477q-12 39 -93 35v24h246v-24q-82 4 -94 -35v-215h340v219q-16 35 -90 31v24h238v-24q-82 4 -90 -31v-492q8 -31 90 -28v-23h-238v23q74 -4 90 28v250h-340v-239q12 -43 90 -43v-19h-242z" />
<glyph unicode="&#x398;" d="M227 373q0 139 66.5 215t136.5 92q70 20 140.5 4t133 -86.5t70 -207t-72.5 -224.5t-199 -88t-197 78t-78 217zM293 310.5q4 -68.5 50.5 -129t97.5 -76.5q55 -16 113.5 0t103.5 70.5t47 137t-2 154.5t-56.5 138.5t-142.5 66.5t-148.5 -76t-62.5 -146.5t0 -139zM383 293 v176h23q31 -55 96 -55t96 55h23v-176h-23q-31 55 -95.5 55t-96.5 -55h-23z" />
<glyph unicode="&#x399;" d="M363 82v23q94 -4 102 36v484q-8 39 -102 35v24h270v-24q-98 4 -102 -35v-484q4 -39 102 -36v-23h-270z" />
<glyph unicode="&#x39a;" d="M195 86v23q90 -4 94 32v488q-4 35 -94 31v24h243v-24q-78 0 -90 -31v-285q258 254 287 287t-53 29v24h219v-24q-102 4 -125 -27l-196 -195l219 -286q39 -47 102 -43v-23h-219v23q78 -4 60.5 16t-201.5 273l-93 -93v-164q16 -35 90 -32v-23h-243z" />
<glyph unicode="&#x39b;" d="M227 86v23q43 -4 74 36l199 566l195 -559q16 -47 78 -47v-23h-183v23q55 -4 35 47l-141 414l-152 -421q-20 -39 51 -36v-23h-156z" />
<glyph unicode="&#x39c;" d="M141 660v24h175l192 -454l183 454h161v-24q-78 8 -79 -27v-488q0 -39 79 -36v-23h-235v23q86 -4 90 36v503l-227 -554l-218 543v-492q16 -39 74 -36v-23h-188v23q86 -4 86 36v484q0 35 -93 31z" />
<glyph unicode="&#x39d;" d="M195 86v23q90 -4 90 36v492l-19 23h-71v24h137l359 -477v418q-12 39 -78 35v24h188v-24q-74 4 -82 -35v-559l-407 536v-461q4 -35 94 -32v-23h-211z" />
<glyph unicode="&#x39e;" d="M258 246h19q12 -102 67 -98h312q55 -8 63 98h15l-4 -160h-468zM258 520l4 164h472l4 -149h-19q-8 86 -59 86h-316q-51 0 -71 -101h-15zM328 273v207h20q15 -78 113 -74h59q105 -4 121 78h19v-211h-19q-16 74 -121 71h-67q-82 0 -105 -71h-20z" />
<glyph unicode="&#x39f;" d="M230.5 387q3.5 117 62.5 195q62 78 132.5 99.5t141 4t133 -99.5t60.5 -211t-70.5 -213t-195.5 -82t-197 96t-66.5 211zM305 316.5q4 -66.5 43 -129t90 -78.5q55 -16 107.5 -4t95.5 61t48.5 135t3.5 156t-54.5 144.5t-140.5 70.5t-138.5 -74.5t-54.5 -142.5t0 -138.5z" />
<glyph unicode="&#x3a0;" d="M156 86v23q98 0 106 39v477q-8 35 -102 31v28h676v-28q-102 4 -102 -31v-473q0 -43 94 -39v-23h-262v23q98 -4 106 39v469q-16 39 -59 35h-230q-51 -4 -55 -35v-476q4 -35 90 -36v-23h-262z" />
<glyph unicode="&#x3a1;" d="M219 86v19q94 -4 101 43v454q0 62 -101 58v24h390q86 4 129 -39t39 -111.5t-56.5 -107.5t-115.5 -39h-218v-239q-4 -47 121 -43v-19h-289zM387 410h191q113 8 119 121.5t-115 128.5h-195v-250z" />
<glyph unicode="&#x3a3;" d="M211 86l301 293l-297 305h527l47 -137l-19 -4q-66 121 -161 117h-277l254 -254l-274 -261h309q102 -4 145 109h19l-35 -168h-539z" />
<glyph unicode="&#x3a4;" d="M227 500l3 184h536l4 -188h-20q-12 137 -109 164h-118v-512q8 -47 118 -43v-23h-293v23q109 -4 113 43v512h-113q-82 -39 -102 -160h-19z" />
<glyph unicode="&#x3a5;" d="M236 572.5q-2 29.5 19.5 64.5t78.5 52.5t109.5 -27.5t56.5 -139q8 121 68.5 160.5t111 23.5t68.5 -53t6 -70t-27.5 8t-58.5 48.5t-88 -14t-53 -87.5v-398q20 -35 75 -32v-23h-219v23q74 -4 82 32v394q-4 59 -47 82.5t-88 9.5t-68.5 -49t-25.5 -5.5z" />
<glyph unicode="&#x3a6;" d="M166 369q-6 92 60.5 166t238.5 70v36q0 35 -74 31v23h211v-23q-74 4 -75 -31v-36q74 4 140.5 -11.5t113.5 -66t47 -146.5t-72 -158.5t-229 -58.5v-31q-4 -39 78 -35v-24h-222v24q86 -4 82 35v31q-172 -4 -232.5 54.5t-66.5 150.5zM240 396.5q-6 -107.5 45 -158.5t180 -47 v387q-102 4 -160.5 -35t-64.5 -146.5zM527 191q102 -4 162.5 37.5t64.5 148.5t-57 156t-170 45v-387z" />
<glyph unicode="&#x3a7;" d="M164 86v23q82 -4 102 28l195 242l-184 254q-23 31 -113 27v24h254v-24q-82 4 -59 -23l153 -203l164 203q8 27 -55 23v24h199v-24q-86 4 -109 -23l-184 -227l172 -242q31 -62 121 -59v-23h-246v23q105 -4 63 32l-157 214l-183 -226q-35 -23 58 -20v-23h-191z" />
<glyph unicode="&#x3a8;" d="M148 664v20h145q0 -242 6 -299t43 -84.5t127 -23.5v336q0 51 -71 47v24h204v-24q-62 4 -71 -43v-340q90 4 123.5 21.5t53 66.5t15.5 319h136v-20l-66 -16q-4 -148 -13.5 -243.5t-70.5 -123t-178 -27.5v-102q0 -47 78 -43v-23h-218v23q70 -4 78 39v102q-125 -4 -176 27.5 t-58.5 129t-11.5 238.5z" />
<glyph unicode="&#x3a9;" d="M238 207h20l23 -62h141v54q-156 43 -175.5 178t48.5 217t142.5 101.5t150.5 -6t136.5 -111.5t33 -211t-187.5 -164v-58h145l19 62h20l-12 -121h-199v133q74 27 109.5 74t35.5 140.5t-55 166t-125 74.5t-131 -64.5t-63 -170t41 -156.5t94 -68v-129h-199z" />
<glyph unicode="&#x3b1;" d="M266 305q-4 90 39 144.5t91.5 66t89.5 -2t76 -60.5q0 43 18 56.5t45 8t2 -19.5t-29 -96v-191q-4 -94 74 -66q27 -16 -55 -35.5t-74 54.5q-35 -47 -76 -56.5t-82 4t-78 58.5t-41 135zM324 307q0 -80 23.5 -123t82 -51t113.5 82v183q0 35 -29.5 68.5t-74 31.5t-80 -56.5 t-35.5 -134.5z" />
<glyph unicode="&#x3b2;" d="M246 -8q59 -4 59 35v477q-4 86 25 136.5t78 70t105.5 12t101.5 -44.5t41 -109.5t-78 -123.5q113 -39 115 -136.5t-39 -150.5t-125 -58.5t-170 91.5v-164q-4 -39 59 -35v-23h-172v23zM359 223q70 -74 115.5 -88t90 5.5t58.5 74.5t4 115.5t-41 82t-78 15.5t-82 -12 t-35 23.5t19.5 29.5t50.5 -6t64.5 -8t55 37t17.5 92t-45 92t-119.5 11.5t-74.5 -156.5v-308z" />
<glyph unicode="&#x3b3;" d="M273 492v24h118l109 -289l125 242q12 23 -35 23v24h148v-24q-66 4 -82 -23l-140 -274q70 -141 50.5 -176t-45 -46.5t-66.5 -5.5t-52.5 58.5t58.5 150.5l-113 281q-20 39 -75 35zM441 41.5q4 -29.5 25.5 -33.5t39 2t11.5 27.5t-37 99.5q-43 -66 -39 -95.5z" />
<glyph unicode="&#x3b4;" d="M314 303q2 88 49 142.5t121 70.5q-105 62 -111 117t35 88t111.5 29t103.5 -27.5t31 -52.5t-23.5 -41t-43 5.5t-3.5 45t-46.5 41t-92 -31t21.5 -107t95.5 -84t86 -72.5t35.5 -135t-59 -136.5t-135 -52.5t-129 56.5t-47 144.5zM379 310.5q-4 -91.5 27.5 -140.5t90 -45 t89.5 51t33 121t-19.5 119t-91.5 80q-66 -8 -95.5 -51t-33.5 -134.5z" />
<glyph unicode="&#x3b5;" d="M357.5 228.5q-1.5 60.5 68.5 107.5q-59 31 -61 78t35.5 76.5t82 33t80 -14t51 -37t13.5 -35t-12 -25.5t-27.5 -6t-21.5 21.5t8 25.5t-9.5 25.5t-54.5 19.5t-56.5 -21.5t-25.5 -58.5t9.5 -56.5t31 -14t43 6t35.5 -11.5t-4 -21.5t-37.5 -11.5t-37 5.5t-33 -18t-17.5 -60.5 t25.5 -62.5t68.5 -23.5t93.5 47t25 4t-58.5 -66.5t-82 -29t-90 29.5t-42.5 93.5z" />
<glyph unicode="&#x3b6;" d="M308.5 265.5q-3.5 62.5 23.5 129t91.5 127t142.5 123.5h-109q-51 4 -78 -40h-16l32 86h214v-46q-51 -27 -132.5 -113.5t-99.5 -168.5t11.5 -111t60.5 -31t97.5 -8t88 -15.5t35.5 -27.5t12 -59t-37.5 -72t-107.5 -39t-91.5 7.5t-4 39t35 14t29.5 -11.5t58.5 -4t66 17.5 t14 47t-29 41t-68.5 13.5t-97.5 -4t-96 19.5t-45 86z" />
<glyph unicode="&#x3b7;" d="M328 477v19l117 24v-32q66 55 162 53q96 -1 100 -103v-422q-4 -23 8 -25.5t35 5.5t27 -9.5t-29 -37t-66.5 -14t-29.5 84.5v367q4 94 -68 99.5t-131 -33.5v-277q-4 -39 47 -35v-20h-156v24q59 -4 54 27v258q8 47 -70 47z" />
<glyph unicode="&#x3b8;" d="M338 398.5q-6 136.5 35 218.5t90 97.5t95.5 -7.5t74 -88t23.5 -221q-4 -152 -49 -218.5t-111 -66.5t-109 74.5t-49 211zM398 406q8 -152 25.5 -199t41 -64.5t55 -7.5t53 74t21.5 197h-196zM398 426h196q0 152 -27.5 212.5t-68.5 64.5t-68.5 -60.5t-31.5 -216.5z" />
<glyph unicode="&#x3b9;" d="M371 465v19q62 0 90 36h19v-332q-4 -51 23.5 -45.5t45 41t17.5 2t-31 -64.5t-74 -19t-39 86v277h-51z" />
<glyph unicode="&#x3ba;" d="M258 109v20q59 -4 58 31v281q4 55 -46 51v24h105v-188q51 -4 64.5 19.5t43 92t64.5 74.5t46.5 -15.5t-2 -41t-39 -8t-49 -39.5t-42.5 -90l19 -11l75 -145q16 -27 41 -21.5t42.5 29t10 -17.5t-60.5 -56.5t-76 31.5l-74 152q-27 4 -63 4v-121q0 -31 55 -31v-24h-172z" />
<glyph unicode="&#x3bb;" d="M250 109v24q35 0 50.5 7.5t156.5 324.5l-59 176q-32 51 -86 50v24h129q164 -516 180 -531.5t27.5 -11.5t33 39t21.5 4t-17.5 -68.5t-50.5 -41t-56.5 27.5t-105.5 289l-129 -270q-4 -23 39 -19v-24h-133z" />
<glyph unicode="&#x3bc;" d="M234 8q59 -4 59 27v430q4 27 -39 27v20h98v-313q12 -55 84 -54.5t115 74.5v250q0 23 -31 23v20h89v-301q-4 -59 16 -55t39.5 19.5t25 12t-23.5 -48.5t-72 -35.5t-43 60.5q-70 -74 -127 -66.5t-72 39.5v-102q0 -31 58 -27v-24h-176v24z" />
<glyph unicode="&#x3bd;" d="M320 484v24h102l109 -320l121 277q12 31 -43 27v20h121v-20q-35 4 -46 -27l-161 -371h-19l-129 359q-8 31 -55 31z" />
<glyph unicode="&#x3be;" d="M309 629l31 78h250v-47h-98q-90 -74 -84 -125t35.5 -68.5t103.5 -17.5v-35q-47 4 -98 -17.5t-66.5 -76t16 -92t94 -47t111 -23t64.5 -45t0 -78.5t-57 -68.5t-93.5 -19.5t-58.5 29.5t6 45t35 -4t46.5 -21.5t49 27.5t21.5 53t-47 35t-109 17.5t-111 56.5t-25.5 132.5 t155.5 112q-105 16 -122.5 51t6 85.5t85.5 93.5h-70q-27 4 -51 -31h-19z" />
<glyph unicode="&#x3bf;" d="M314 310.5q2 80.5 39 131t88 66.5q55 20 108 2t88 -68.5t35 -131t-47 -141t-131 -62.5t-133 60.5t-47 143zM377 305q2 -78 25 -121q27 -43 58.5 -51t68.5 2t58.5 52.5t23.5 121t-23.5 129t-87.5 54.5t-93.5 -52.5t-29.5 -134.5z" />
<glyph unicode="&#x3c0;" d="M281 430l39 86h387v-43h-90v-258q-4 -62 17.5 -56.5t53 25t10 -27.5t-78.5 -54.5t-49 74.5v297h-117v-239q4 -90 -29 -111t-68.5 -19.5t-49 19.5t-5.5 37.5t33 17.5t27 -21.5t23.5 -14t21.5 64.5v266h-27q-47 0 -74 -43h-24z" />
<glyph unicode="&#x3c1;" d="M246 4q66 -4 63 31v289q12 125 91.5 168t152 21.5t109.5 -95.5t10 -177.5t-125 -131t-180 58.5v-125q-3 -39 59 -39v-24h-180v24zM367 219q47 -78 123 -78t97.5 52.5t21.5 105.5t-11.5 111.5t-70 76t-105.5 -14t-55 -128.5v-125z" />
<glyph unicode="&#x3c3;" d="M273.5 306.5q-3.5 95.5 55 152.5t117 59t218.5 2v-47h-94q78 -59 72.5 -160.5t-56.5 -154.5t-127 -56.5t-129 53t-56.5 152zM338 316.5q-2 -78.5 25.5 -131t80 -60.5t87.5 39t43 105.5t-2 107.5t-41 84q-31 39 -85.5 29t-80 -52.5t-27.5 -121z" />
<glyph unicode="&#x3c4;" d="M328 418l27 90h317v-47h-141v-262q-4 -47 23.5 -43t55 27.5t23.5 2t-33.5 -52.5t-74.5 -27.5t-48 70.5v285h-67q-35 4 -66 -43h-16z" />
<glyph unicode="&#x3c5;" d="M312 492v24h126v-293q4 -74 46.5 -86t83.5 5.5t59 76t19.5 152.5t-18 103.5t-37 4t-37 -29t-13.5 17.5t43 54.5t74 0t49 -50.5t0 -131t-45 -148.5t-78 -74t-94 -16t-80 33t-31 115.5v184q7 59 -67 58z" />
<glyph unicode="&#x3c6;" d="M248 295q-6 92 62.5 152.5t173.5 68.5v121q4 35 -54 35v16l113 19v-187q98 -4 168 -64.5t64.5 -154.5t-68 -143t-164.5 -53v-78q-4 -31 51 -27v-23h-160v23q55 -4 50 23v82q-102 0 -166 49t-70 141zM328 316q-4 -86 39 -138.5t117 -48.5v363q-62 0 -107 -45t-49 -131z M543 129q74 0 111 45t43 131t-37 136.5t-117 54.5v-367z" />
<glyph unicode="&#x3c7;" d="M289 99.5q-8 13.5 0 29.5t25.5 17.5t33 -2t125.5 148.5q-105 168 -123 189.5t-53 25.5v19h98l117 -191l101 148q16 27 -27 24v19h125v-19q-39 0 -51 -8t-133 -188q94 -148 115.5 -173.5t37 -8t27.5 45t14 8t-10 -64.5t-45 -51t-62.5 31.5t-115.5 166.5l-117 -157 q-27 -35 -50.5 -29t-31.5 19.5z" />
<glyph unicode="&#x3c8;" d="M260 484.5q-6 7.5 29 37t70.5 14t33.5 -60.5t0 -160.5t27 -148.5t84 -41v355q4 31 -47 32v15l102 16v-418q59 0 84 47t25 154.5t4 158t54.5 56.5t74 -13.5t23.5 -29.5t-47 -2t-50.5 -37t-3.5 -154.5t-41 -154.5t-123 -45v-74q0 -31 50 -31v-20h-152v20q51 -4 47 31v74 q-74 0 -121 29.5t-47 164.5v164q0 29 -23.5 29t-35 -7.5t-17.5 0z" />
<glyph unicode="&#x3c9;" d="M219 277.5q-4 66.5 25 119t74 82t84 37t-15.5 -21.5t-80 -89.5t-19.5 -129t31.5 -103.5t70.5 -41t84 53v148h54v-148q16 -39 59 -51t80 29t43 113.5t-11.5 123t-41 72t-55 39t21.5 2t98 -62.5t52.5 -140.5t-45 -148.5t-115 -57t-113.5 57q-55 -59 -119.5 -55t-111 55 t-50.5 117.5z" />
<glyph unicode="&#x401;" d="M219 98v19q94 -4 101 35v489q4 39 -101 35v19h543v-191h-16q-16 148 -121 172h-195q-51 4 -47 -43v-211h144q51 16 47 152h20v-320h-20q0 121 -47 144h-144v-242q-4 -39 39 -39h211q117 16 125 203h15v-222h-554zM342 750q-10 27 13.5 46.5t51 2t15.5 -48.5 q-8 -27 -39 -27t-41 27zM595.5 750q-9.5 27 14 46.5t51 2t15.5 -48.5q-8 -27 -39.5 -27t-41 27z" />
<glyph unicode="&#x410;" d="M191 94v19q62 -8 86 55l207 535l223 -512q27 -66 43 -72t47 -6v-19h-192v19q16 0 41.5 2t1.5 49l-54 137h-239l-54 -137q-23 -51 10 -51h56v-19h-176zM363 324h223l-113 281z" />
<glyph unicode="&#x411;" d="M242 102v19q55 -4 67 24v503q-8 31 -63 32v19h481l3 -183h-15q-20 145 -125 164h-164q-62 8 -55 -51v-207h168q137 -4 182 -60.5t35 -123t-68.5 -103.5t-160.5 -33h-285zM371 121h117q117 -4 158.5 39t37.5 109.5t-55 99.5t-145 33h-113v-281z" />
<glyph unicode="&#x412;" d="M227 102v15q62 -4 82 31v504q-4 31 -82 32v15h246q133 4 191.5 -25t70 -99.5t-27.5 -109.5t-82 -47q55 -12 101.5 -49t43 -113t-68 -117t-240.5 -37h-234zM371 145q-4 -27 35 -24h82q113 0 164 45t39.5 117t-72 95.5t-139.5 19.5h-109v-253zM371 418h109q74 0 123 23.5 t59 93.5t-31 107.5t-131 37.5h-98q-27 4 -31 -20v-242z" />
<glyph unicode="&#x413;" d="M250 98v19q70 -4 70 31v508q0 27 -62 28v15h480l4 -179h-15q-23 125 -110 160h-195q-39 0 -39 -28v-504q-4 -35 86 -31v-19h-219z" />
<glyph unicode="&#x414;" d="M184 -27l7 156h82q51 90 70.5 217t27.5 283q0 39 -35 39h-66v31h523v-35q-82 8 -90 -31v-469q8 -31 55 -35h43l4 -160h-12q-35 117 -90 129h-426q-47 -12 -78 -125h-15zM316 129h282q47 -8 43 51v457q4 27 -39 31h-153q-43 0 -39 -31q-8 -160 -29.5 -293t-64.5 -215z" />
<glyph unicode="&#x415;" d="M207 102v19q102 -4 109 35v489q4 39 -109 35v19h559v-191h-12q-23 148 -133 172h-195q-51 4 -47 -43v-211h144q51 16 47 152h20v-320h-20q0 121 -47 144h-144v-242q-4 -39 39 -39h211q117 16 144 203h12v-222h-578z" />
<glyph unicode="&#x416;" d="M109 191.5q-4 50.5 21.5 17.5t41.5 -37t25.5 19.5t23 78t51 101.5t130.5 55q-74 4 -109 66.5t-70 159.5q-23 -27 -47 -17t-29.5 33t21.5 41t54.5 0t33.5 -41t29.5 -87.5t54.5 -102t109 -44.5h24v207q1 35 -35 35h-51v23h226v-23h-51q-35 0 -35 -35v-207h28q90 8 123 70 t46.5 117t39 76.5t58.5 0t11.5 -57t-63.5 0.5q-27 -82 -60.5 -142.5t-111.5 -72.5q94 -12 134.5 -64.5t52.5 -99.5t21.5 -74.5t25.5 -23.5t23.5 47t25 -11.5t-5.5 -80t-52.5 -23.5t-55 29t-41 109t-47 127t-109.5 49h-43v-254q8 -27 86 -23v-24h-226v20q70 -4 86 27v254h-55 q-59 -8 -88 -37t-41 -80t-27.5 -109.5t-54.5 -72t-66.5 8t-31.5 72z" />
<glyph unicode="&#x417;" d="M287 230.5q-2 31.5 31.5 39t47 -21.5t-14 -46.5t15.5 -47t113.5 -29.5t117.5 43t43 111.5t-64.5 99.5t-185.5 27v16q141 -4 185.5 31t44.5 92t-35 96t-90 37t-98 -35.5t-78 -154.5h-11v211h15q12 -86 39.5 -56.5t80 49t105.5 8t94 -47t43 -96t-27.5 -91.5t-103.5 -51 q82 -20 117 -55t35 -85.5t-31 -91.5t-93.5 -62.5t-117.5 -18t-100 25t-60.5 47t-17.5 57z" />
<glyph unicode="&#x418;" d="M164 98v19q82 0 90 35v489q-8 39 -90 39v19h250v-19q-86 0 -90 -39v-434l348 438v19q-16 16 -90 16v19h246v-19q-86 0 -90 -32v-484q4 -47 90 -47v-19h-246v19q78 0 90 47v438l-348 -430v-24q8 -31 90 -31v-19h-250z" />
<glyph unicode="&#x419;" d="M168 98v19q82 0 90 35v489q-8 39 -90 39v19h250v-19q-86 0 -90 -39v-434l348 438v19q-16 16 -90 16v19h246v-19q-86 0 -90 -32v-484q4 -47 90 -47v-19h-246v19q78 0 90 47v438l-348 -430v-24q8 -31 90 -31v-19h-250zM389 773.5q-2 27.5 21.5 35t39 -6t11.5 -29 t-13.5 -23.5t17.5 -17.5t58.5 2t17.5 23.5t-8 31.5t33 19.5q27 4 37 -21.5t-19 -53t-80 -31.5t-82 19.5t-33 51z" />
<glyph unicode="&#x41a;" d="M215 102v19q70 -4 78 35v492q-8 31 -78 32v19h223v-19q-82 0 -83 -28v-226h32q39 12 86 39t54.5 103.5t58.5 103.5t78 21.5t39 -27t-1.5 -43t-43 -20t-37.5 25t-31.5 8t-39 -105.5t-124.5 -113q74 -4 126.5 -17.5t76 -64.5t21.5 -115.5t21.5 -60.5t29.5 49t19.5 19.5 t17.5 -58.5t-19.5 -56.5t-66.5 -16t-58.5 41t-23.5 123.5t-43 109.5t-80 27t-92 7.5v-250q9 -35 83 -35v-19h-223z" />
<glyph unicode="&#x41b;" d="M176 166q-4 25 9.5 46.5t37 21.5t35.5 -25t-13.5 -43t3.5 -31.5t54.5 2t49 54.5t43 127t19.5 327q4 31 -27 35h-59v19h496v-19q-78 4 -86 -35v-481q-4 -35 74 -31v-20h-222v20q82 -4 86 35v477q4 35 -35 35h-161q-39 0 -35 -39q0 -242 -21.5 -346t-68 -150.5t-87.5 -44.5 t-64.5 21.5t-27.5 44.5z" />
<glyph unicode="&#x41c;" d="M145 102v19q78 0 85 39v492q0 27 -85 28v19h175l180 -480l191 480h161v-19q-82 -1 -82 -32v-484q-8 -43 78 -43v-19h-239v19q94 0 90 43v481l-222 -551l-223 570v-504q16 -39 82 -39v-19h-191z" />
<glyph unicode="&#x41d;" d="M168 102v19q82 0 90 35v489q-8 35 -90 35v19h246v-19q-82 0 -86 -32v-222h336v215q-8 39 -90 39v19h250v-19q-86 0 -94 -35v-489q8 -35 94 -35v-19h-250v19q82 0 90 39v246h-336v-254q4 -31 102 -31v-19h-262z" />
<glyph unicode="&#x41e;" d="M223 396.5q0 115.5 62.5 193.5t138.5 99.5t152 0t136.5 -99.5t60.5 -203t-82 -207t-203 -80t-193 91.5t-72 205zM293 395q4 -113 54.5 -183.5t101.5 -84.5t100 0t101.5 84t52.5 185.5t-45 185.5t-101.5 89.5t-113 0t-103.5 -89.5t-47 -187z" />
<glyph unicode="&#x41f;" d="M160 102v19q94 -4 98 31v489q-4 39 -94 39v19h668v-19q-102 -8 -102 -35v-497q4 -23 90 -23v-23h-258v19q94 0 106 27v489q4 35 -43 43h-262q-43 -4 -39 -39v-489q8 -31 90 -27v-23h-254z" />
<glyph unicode="&#x420;" d="M211 680v19h316q129 4 191.5 -31t60.5 -117t-72 -119t-184 -34h-136v-242q-4 -43 125 -39v-19h-293v19q94 -4 101 35v485q0 43 -109 43zM387 418h129q160 4 173.5 101.5t-43 131t-126.5 29.5h-133v-262z" />
<glyph unicode="&#x421;" d="M248 398.5q2 140.5 68.5 213t136.5 84t107.5 2t66.5 -27.5t72 -53l28 86l15 -4v-234h-15q-39 117 -84 160t-125 49t-141 -76t-61 -199.5t41 -182t111.5 -78t135 14t94 78t39 48.5t-16 -54.5t-86 -89.5t-156 -33.5t-164 80t-66.5 217z" />
<glyph unicode="&#x422;" d="M223 500l4 199h543l3 -199h-11q-23 152 -141 180h-94v-516q16 -43 114 -43v-19h-289v19q105 0 113 43v516h-90q-133 -59 -137 -180h-15z" />
<glyph unicode="&#x423;" d="M195 680v19h219l-4 -19q-86 0 -62 -24l160 -344l160 336q8 31 -39 32v19h164v-19q-82 4 -98 -35q-223 -477 -261.5 -512t-87.5 -37t-78.5 33t-29.5 62.5t17.5 45t45 7.5t25.5 -39t-37 -45q23 -39 56.5 -39t59 21.5t64.5 99.5l-192 406q-20 31 -82 32z" />
<glyph unicode="&#x424;" d="M170 402.5q2 93.5 64.5 148t234.5 70.5v27q4 31 -24 32h-54v19h211v-19h-43q-31 0 -32 -32v-27q148 -4 228.5 -62.5t80.5 -154t-80.5 -156t-228.5 -72.5v-28q0 -31 28 -31h54v-19h-218v19h50q27 0 28 31v28q-152 12 -226.5 72.5t-72.5 154zM242 396.5q4 -76.5 61 -129 t166 -60.5v391q-113 -8 -172 -66.5t-55 -135zM527 203q90 0 158.5 53t70.5 140.5t-60.5 140.5t-168.5 65v-399z" />
<glyph unicode="&#x425;" d="M160 109v24q70 0 113 47l188 218l-156 219q-39 55 -117 55v19h265v-19q-98 0 -66 -39l129 -176l136 160q47 55 -50 55v19h226v-19q-82 0 -160 -90l-133 -160l156 -211q62 -78 145 -78v-24h-289v24q105 0 74 43l-137 191l-168 -195q-39 -39 71 -39v-24h-227z" />
<glyph unicode="&#x426;" d="M168 102v19q82 -4 86 47v473q8 43 -78 43v19h226v-19q-86 4 -86 -43v-520h356v520q0 43 -94 43v19h238v-19q-86 0 -86 -43v-485q0 -35 51 -39h43v-148h-19q0 117 -94 133h-543z" />
<glyph unicode="&#x427;" d="M168 680v19h250v-19h-55q-39 -4 -35 -43v-176q12 -70 117.5 -84t218.5 41v215q-12 47 -94 47v19h254v-19q-101 4 -97 -43v-477q0 -43 93 -39v-19h-254v19q90 -4 98 43v223q-94 -39 -144.5 -51t-123 -6t-103.5 33.5t-35 81.5v184q-4 51 -43 51h-47z" />
<glyph unicode="&#x428;" d="M47 676v23h234v-23q-82 0 -90 -43v-469q8 -35 55 -39h168q43 4 55 39v481q-12 31 -82 31v23h226v-23q-86 0 -78 -31v-481q-4 -35 35 -39h176q39 4 47 43v477q-8 31 -90 31v23h246v-23q-90 0 -90 -31v-481q-4 -43 82 -43v-23h-890v23q78 0 74 39v477q4 39 -78 39z" />
<glyph unicode="&#x429;" d="M47 680v19h234v-19q-82 0 -86 -39v-481q-4 -35 51 -35h172q47 0 47 51v461q0 43 -86 43v19h226l4 -19q-82 0 -82 -32v-472q0 -55 47 -51h176q51 0 51 35v481q0 39 -74 39v19h207v-19q-62 0 -71 -39v-485q0 -43 71 -39v-156h-16q-20 78 -57 109.5t-103 31.5h-692v19 q66 -4 63 47v473q-4 39 -82 39z" />
<glyph unicode="&#x42a;" d="M160 523v176h395v-19q-102 4 -102 -39v-223h117q145 4 203.5 -39t60.5 -119t-60.5 -119t-199.5 -39h-269v19q82 -4 86 35v481q0 43 -47 43h-90q-74 -59 -70 -157h-24zM453 156q4 -39 47 -35h82q66 -4 125 29.5t57 101.5t-43 105.5t-159 37.5h-109v-239z" />
<glyph unicode="&#x42b;" d="M109 680v19h262v-19q-109 4 -109 -32v-242h129q129 4 191.5 -37t62.5 -117t-66.5 -115t-211.5 -35h-254v19q74 0 82 27v497q0 35 -86 35zM262 156q0 -35 43 -35h86q74 -4 124.5 31.5t52.5 97.5t-44.5 99.5t-144.5 37.5h-117v-231zM637 102v19q98 -4 97 31v496 q0 31 -86 32v19h223v-19q-74 -1 -70 -32v-496q0 -35 78 -31v-19h-242z" />
<glyph unicode="&#x42c;" d="M223 684v19h257v-19q-105 0 -101 -39v-223h144q125 0 182 -41t59 -117t-57 -121t-191 -41h-289v19q98 0 97 43v484q-12 35 -101 36zM379 121h152q78 -4 121 37t41 107.5t-54.5 101.5t-142.5 35h-117v-281z" />
<glyph unicode="&#x42d;" d="M281 492v207h20l11 -82q31 43 70.5 62.5t125.5 15.5t156 -82t70 -214.5t-72 -215t-164 -78.5t-127 14t-60.5 41.5t-25.5 58.5t31.5 39t49 -11.5t2 -45t17.5 -47t97.5 -17.5t125 60.5t60.5 193.5h-230v27h230q-4 129 -58.5 189.5t-125 64.5t-123 -41t-60.5 -139h-20z" />
<glyph unicode="&#x42e;" d="M90 102v19q70 -4 70 35v485q8 39 -70 39v19h203v-19q-78 4 -70 -39v-223h113q0 113 62.5 187.5t144.5 90t164 -2t138.5 -92t56.5 -197.5t-72 -214.5t-203 -93.5t-205 70t-86 232h-113v-242q-4 -39 70 -35v-19h-203zM398.5 388.5q7.5 -138.5 66 -199t105.5 -68.5 q47 -4 107.5 4t113.5 94t51 195t-49 185.5t-164 80.5t-177.5 -74.5t-53 -217z" />
<glyph unicode="&#x42f;" d="M224.5 158q5.5 45 19.5 16t25.5 -39t29 -4t31.5 58.5t49 87.5t70 71q-117 31 -150 70t-39 109.5t54.5 123t212.5 48.5h223v-19q-70 4 -70 -39v-477q-4 -47 39 -43h43v-19h-231v19q90 -4 86 39v188h-129q-39 -31 -62.5 -74.5t-27 -84.5t-23.5 -74t-62.5 -37t-68 15.5 t-20 64.5zM344 511.5q4 -70.5 45 -105.5t91 -35h137v270q0 39 -39 39h-94q-74 -8 -109 -53t-31 -115.5z" />
<glyph unicode="&#x430;" d="M328 199q0 43 47 88t164 65v58q0 59 -49 64.5t-66.5 -6t-9.5 -25t8 -25.5t-10 -21.5t-25.5 -9.5t-27 11.5t-8 37t35 49t78.5 27.5t84 -23.5t33 -86.5v-195q0 -66 21.5 -66t52.5 66l12 -8q-23 -102 -74 -99.5t-55 64.5q-55 -66 -107.5 -66t-78 29t-25.5 72zM387 201 q0 -41 27 -54.5t45 -8t80 52.5v137q-82 -16 -117 -51t-35 -76z" />
<glyph unicode="&#x431;" d="M316 367q4 137 53 203.5t144.5 72t119 27.5t27.5 18q-12 -86 -115.5 -84.5t-146.5 -47t-39 -118.5q12 16 49 47t103.5 31t117.5 -59t51 -148.5t-49 -148t-131 -58.5t-135 64t-49 201zM359 307q0 -80 37.5 -125t64.5 -57q31 -8 68 0t64.5 49t27.5 123t-31 138.5 t-95.5 56.5t-100 -52.5t-35.5 -132.5z" />
<glyph unicode="&#x432;" d="M293 102v19q43 0 55 31v348q-4 31 -55 31v20h176q113 4 164 -13.5t51 -96t-86 -101.5q66 -12 89.5 -51t12 -88t-56.5 -76t-194 -23h-156zM414 121h90q66 4 93.5 25.5t31.5 78t-33 80t-92 19.5h-90v-203zM414 348h78q105 -8 117 56.5t-9.5 95.5t-91.5 27h-94v-179z" />
<glyph unicode="&#x433;" d="M309 488v24h379l3 -137h-19q-16 82 -74 113h-129q-35 -12 -43 -43v-297q16 -27 74 -23v-23h-184v19q47 0 55 43v285q-12 39 -62 39z" />
<glyph unicode="&#x434;" d="M277 -27v152h39q31 0 43 23q43 90 43 313q0 31 -66 27v24h363v-24q-62 4 -62 -31v-309q0 -27 35 -23h47v-152h-16q-16 105 -94 129h-234q-74 -31 -78 -129h-20zM387 148q-12 -23 19 -23h133q39 -4 39 23v301q4 35 -31 39h-90q-27 0 -27 -31q-8 -227 -43 -309z" />
<glyph unicode="&#x435;" d="M326 308.5q-2 97.5 47 152.5t99.5 64.5t93.5 -4t76.5 -54.5t37.5 -139h-282q-4 -70 23.5 -119t86 -55t96 19.5t52.5 56.5h24q-16 -47 -59 -84t-119 -37t-125 51t-51 148.5zM398 355h211q-4 78 -35 109.5t-68 31.5t-70.5 -33.5t-37.5 -107.5z" />
<glyph unicode="&#x436;" d="M219 172q59 -59 82 19.5t109 120.5q-78 12 -109 149q-27 -20 -45 -6t-16 31.5t21.5 23.5t39 -2t23.5 -27.5t25.5 -64.5t45 -68.5t70.5 -23.5v137q0 31 -67 27v24h196v-24q-55 4 -67 -27v-137q47 4 74.5 23.5t47 70.5t23.5 68.5t23.5 25.5t41 -6t11.5 -35.5t-45 -13.5 q-35 -137 -129 -145q35 -4 70.5 -44.5t53 -99.5t72.5 -4q8 -16 -10 -43t-45 -29t-50.5 17.5t-35.5 72t-29.5 88t-72.5 35.5v-164q20 -31 67 -28v-19h-196v19q59 0 67 32v160q-43 0 -68.5 -33.5t-41 -90t-39 -74t-47 -11.5t-43 37t-7.5 39z" />
<glyph unicode="&#x437;" d="M332 209q4 25 31.5 31t37 -19.5t-29.5 -48.5q23 -31 54.5 -49t80.5 -12t70.5 31.5t25 70.5t-25.5 70.5t-135 21.5v19q78 -4 107.5 19.5t33.5 64.5t-19.5 68.5t-64.5 19.5t-86 -41t-53 -92h-11v149h11l16 -59q43 39 68.5 51t43 15.5t52.5 0t68.5 -33t31.5 -72.5t-18 -64.5 t-47 -33.5q43 -8 66.5 -39t21.5 -70t-21.5 -66.5t-60.5 -43t-101.5 -11.5t-92 27.5t-45 47t-9.5 48.5z" />
<glyph unicode="&#x438;" d="M273 94v19q59 0 63 28v316q-4 35 -51 35v20h149v-20q-35 0 -39 -27v-266l214 258q4 39 -50 35v20h156v-20q-51 0 -51 -35v-309q8 -35 59 -35v-19h-168v19q51 0 54 32v269l-214 -250q-4 -59 58 -51v-19h-180z" />
<glyph unicode="&#x439;" d="M273 129v23q43 -4 51 28v281q-12 31 -51 31v20h168v-20q-62 4 -62 -27v-266l230 246q8 47 -54 47v20h164v-20q-51 0 -55 -31v-281q4 -27 55 -28v-23h-176v23q55 0 66 28v234l-230 -242q-4 -23 62 -20v-23h-168zM396.5 625q5.5 16 25 16t29.5 -14t-10 -37q51 -43 114 0 q-16 20 -6 35.5t31.5 9.5t23 -23.5t-8 -29.5t-35 -23.5t-64.5 -13.5t-62.5 11.5t-33 33t-4 35.5z" />
<glyph unicode="&#x43a;" d="M277 94v19q55 0 63 35v313q-8 31 -63 31v20h168v-20q-51 0 -50 -31v-121h70q59 0 76.5 56.5t33 84t43 37t47 -6t15.5 -39t-33.5 -29.5t-41.5 41q-27 -43 -40.5 -89.5t-48.5 -66.5q55 -16 68.5 -72.5t23 -91.5t31 -35t53 43t23.5 4t-33.5 -62.5t-72.5 -17.5t-54.5 88 t-25 101.5t-56.5 30.5h-78v-171q8 -31 62 -32v-19h-180z" />
<glyph unicode="&#x43b;" d="M273.5 152.5q3.5 15.5 25 23.5t37.5 -10t0 -41q55 -4 74 86l12 250q4 35 -67 31v20h364v-20q-62 0 -63 -35v-309q8 -35 55 -35v-19h-160v19q39 0 51 24v320q0 31 -32 31h-93q-27 0 -28 -27l-11 -231q-8 -78 -33.5 -103t-59 -29t-49 1.5t-21 21.5t-2 31.5z" />
<glyph unicode="&#x43c;" d="M238 492v20h102l160 -336l148 336h94v-20q-39 0 -39 -23v-317q4 -35 51 -39v-19h-156v19q55 -4 50 35v301l-164 -367l-160 344v-293q8 -20 55 -20v-19h-129v19q43 0 51 20v328q0 31 -63 31z" />
<glyph unicode="&#x43d;" d="M242 39v23q62 0 70 36v324q-8 31 -70 31v24h203v-24q-66 0 -74 -31v-149h254v153q-8 27 -74 27v24h207v-24q-66 0 -74 -31v-328q8 -32 74 -32v-23h-207v23q66 0 74 36v148h-254v-148q8 -36 74 -36v-23h-203z" />
<glyph unicode="&#x43e;" d="M307 297q-2 90 44.5 146.5t93.5 70t96 2t94 -62t45 -148.5q4 -98 -47 -158.5t-141 -62.5t-136.5 60.5t-48.5 152.5zM363 289q4 -90 35.5 -129t62.5 -51t70 2t64.5 61t27.5 129t-33 138.5t-93.5 56.5t-98 -58.5t-35.5 -148.5z" />
<glyph unicode="&#x43f;" d="M273 94v23q43 0 51 28v308q-8 35 -51 35v24h450v-24q-66 0 -63 -31v-309q4 -31 51 -31v-23h-164v23q51 -4 58 24v316q0 31 -27 31h-172q-27 -4 -27 -27v-316q8 -27 62 -28v-23h-168z" />
<glyph unicode="&#x440;" d="M297 -4h43q31 0 31 27v415q-4 20 -17.5 25.5t-44.5 5.5v15l101 20h16v-35q70 59 136.5 51t109.5 -66.5t41 -158.5t-53 -148.5t-113 -54.5t-121 72v-141q0 -27 27 -27h51v-23h-207v23zM426 191q59 -66 107.5 -68t80 33t35 121t-18 141t-66 70.5t-138.5 -39.5v-258z" />
<glyph unicode="&#x441;" d="M324 303q0 92 49 148.5t98 68t86 4t68 -33t37 -60.5t-5.5 -49t-35 -14t-29.5 25.5t11.5 37t-2 37t-68.5 31.5t-97.5 -43t-52.5 -137t27 -142.5t86 -58.5t88 23.5t49 58.5q20 35 29.5 35t-12 -52.5t-68.5 -78t-111.5 -15.5t-105.5 66.5t-41 148.5z" />
<glyph unicode="&#x442;" d="M305 375v137h386v-141h-19q-20 94 -102 117h-50v-332q8 -39 70 -39v-23h-195v23q66 0 74 35v336h-51q-82 -23 -94 -113h-19z" />
<glyph unicode="&#x443;" d="M238 516v19h200v-19q-66 0 -59 -20l133 -289l144 289q12 23 -66 24v19h164v-19q-59 0 -63 -16l-230 -453q-51 -102 -84 -119.5t-62.5 -7.5t-41 27.5t-13.5 41t11.5 35t33 9.5t25.5 -25.5t-29 -38.5q23 -27 54.5 -21.5t121.5 193.5l-165 347q-12 23 -74 24z" />
<glyph unicode="&#x444;" d="M217 307q-2 88 50.5 150.5t107.5 64.5t94 -57v199q0 27 -63 27v16l106 16h15v-258q43 62 94 56.5t100 -62.5t47 -154.5t-43 -158t-94 -62.5t-104 64v-121q0 -23 28 -23h39v-24h-188v24h32q31 0 31 27v114q-55 -66 -106 -60.5t-97.5 70t-48.5 152.5zM291 314.5 q2 -91.5 23.5 -150.5t64.5 -54.5t90 70.5v250q-31 55 -76 64.5t-74.5 -39.5t-27.5 -140.5zM527 184q27 -47 66.5 -68.5t67 15.5t33 146.5t-18 168t-68.5 54.5t-80 -70v-246z" />
<glyph unicode="&#x445;" d="M250 94v19q51 -4 78 32l141 164l-121 160q-12 23 -86 19v24h207v-20q-74 4 -43 -31l86 -109l105 121q20 23 -35 19v20h148v-20q-59 4 -82 -27l-121 -133l145 -187q23 -31 70 -28v-23h-180v19q62 0 32 32l-106 140l-136 -152q-27 -23 58 -20v-19h-160z" />
<glyph unicode="&#x446;" d="M266 488v24h175v-24q-59 0 -58 -35v-301q-4 -31 47 -35h121q51 4 51 35v309q-4 27 -63 27v24h168v-24q-43 0 -51 -23v-313q-4 -47 71 -43v-144h-16q-16 121 -121 129h-313v23q43 0 51 35v301q-8 35 -62 35z" />
<glyph unicode="&#x447;" d="M277 527v24h149v-24q-27 0 -43 -27q-4 -137 11.5 -172t80 -29.5t130.5 25.5v172q0 35 -50 35v20h156v-20q-43 0 -43 -35v-336q-4 -47 51 -43v-23h-184v23q70 -4 70 39v149q-94 -35 -162 -43t-93.5 27t-21.5 207q-4 31 -51 31z" />
<glyph unicode="&#x448;" d="M148 102v19q66 -4 75 39v301q-4 43 -71 39v20h176v-20q-31 0 -51 -27v-301q0 -43 47 -47h90q66 -4 63 47v297q-8 31 -51 31v20h160v-20q-35 0 -55 -31v-301q-7 -47 63 -43h82q66 -4 66 47v289q-20 39 -62 39v20h168v-20q-43 0 -51 -39v-313q8 -27 51 -27v-19h-700z" />
<glyph unicode="&#x449;" d="M145 94v19q51 0 62 35v301q0 39 -62 39v24h179v-24q-55 0 -58 -39v-297q-4 -35 43 -35h113q51 8 51 39v305q-20 27 -55 27v24h160v-24q-31 0 -51 -27v-301q-4 -39 47 -43h121q43 4 39 47v281q0 47 -58 43v24h176v-24q-66 4 -63 -35v-297q-4 -51 63 -47l3 -144h-19 q-16 129 -141 129h-550z" />
<glyph unicode="&#x44a;" d="M242 375l4 137h274v-20q-43 4 -51 -31v-133h86q98 4 148.5 -27t48.5 -93.5t-54.5 -90t-150.5 -23.5h-195v19q62 0 62 28v308q-4 35 -35 39h-47q-62 -20 -70 -113h-20zM469 152q-4 -35 39 -35h58q47 0 80.5 15.5t37.5 72.5t-31.5 78.5t-101.5 21.5h-82v-153z" />
<glyph unicode="&#x44b;" d="M207 94v19q59 0 66 39v305q-8 35 -54 35v20h160v-20q-39 0 -51 -35v-137h94q74 8 123 -19.5t53 -88t-35.5 -89.5t-148.5 -29h-207zM328 121h82q47 -4 88 17.5t41 74.5t-43 70.5t-90 13.5h-78v-176zM609 94v19q47 0 55 35v301q-8 43 -55 43v20h168v-20q-55 0 -58 -43v-301 q4 -35 66 -35v-19h-176z" />
<glyph unicode="&#x44c;" d="M301 488v24h187v-24q-59 0 -62 -31v-141h113q51 4 101.5 -21t52.5 -84t-39 -90t-181 -27h-164v19q54 1 62 32v312q-8 31 -70 31zM426 117h82q74 0 101.5 23.5t25.5 72.5t-39 66.5t-96 13.5h-74v-176z" />
<glyph unicode="&#x44d;" d="M324 207.5q4 19.5 17.5 27t29.5 -2t16 -29t-28 -27.5q43 -62 102 -68t101.5 39t50.5 150h-152v27h152q0 74 -31 119t-72 53t-78 -21.5t-88 -119.5h-16l8 161l19 -4l4 -71q35 43 72.5 62.5t90 16t101.5 -60.5t49 -152.5t-55 -158t-123 -64.5t-103.5 25.5t-53 53t-13.5 45z " />
<glyph unicode="&#x44e;" d="M211 94v23q51 0 55 31v305q-4 39 -51 39v20h156v-20q-51 0 -51 -39v-137h94q4 74 37 129t90 70.5t107.5 0t93.5 -68t43 -146.5t-52.5 -156.5t-134.5 -60.5t-127 53t-57 156h-94v-148q0 -27 59 -28v-23h-168zM471 293q2 -82 31 -127t60 -57q31 -8 64.5 -2t68.5 59t35 137 t-41 144.5t-99.5 56.5t-89.5 -66.5t-29 -144.5z" />
<glyph unicode="&#x44f;" d="M279.5 156.5q-13.5 27.5 15.5 0t56.5 -35.5t35.5 76t66 112q-43 8 -66.5 27t-25.5 62t37.5 80.5t144.5 33.5h160v-20q-51 0 -51 -39v-308q8 -39 63 -40v-19h-172v19q55 0 62 36v160h-85q-62 -12 -68.5 -72.5t-14 -103.5t-48.5 -47t-68.5 23.5t-41 55zM418 398.5 q0 -35.5 31 -57t82 -17.5h74v164h-82q-62 0 -83.5 -27t-21.5 -62.5z" />
<glyph unicode="&#x451;" d="M318 289.5q-2 101.5 47 156t100 64.5t94 -2t76 -54.5t37 -144.5h-281q-4 -70 23 -121t86 -57t96 21.5t52 54.5h24q-12 -47 -57 -84t-121 -37t-125 51t-51 152.5zM391 340h211q-4 78 -35.5 111t-68.5 31t-70 -35t-37 -107zM398 564.5q0 13.5 6 21.5t16 12t21.5 0t17.5 -12 t6 -24q0 -12 -12 -19.5t-23.5 -7.5t-21.5 8t-10 21.5zM539 564.5q0 13.5 6 21.5t17.5 12t23.5 0t15.5 -12t3.5 -24q0 -12 -9.5 -19.5t-23 -7.5t-23.5 8t-10 21.5z" />
<glyph unicode="&#x2000;" horiz-adv-x="436" />
<glyph unicode="&#x2001;" horiz-adv-x="873" />
<glyph unicode="&#x2002;" horiz-adv-x="436" />
<glyph unicode="&#x2003;" horiz-adv-x="873" />
<glyph unicode="&#x2004;" horiz-adv-x="291" />
<glyph unicode="&#x2005;" horiz-adv-x="218" />
<glyph unicode="&#x2006;" horiz-adv-x="145" />
<glyph unicode="&#x2007;" horiz-adv-x="145" />
<glyph unicode="&#x2008;" horiz-adv-x="109" />
<glyph unicode="&#x2009;" horiz-adv-x="174" />
<glyph unicode="&#x200a;" horiz-adv-x="48" />
<glyph unicode="&#x2010;" d="M375 324v67h270v-67h-270z" />
<glyph unicode="&#x2011;" horiz-adv-x="598" d="M20 279l551 42l7 -82l-552 -41z" />
<glyph unicode="&#x2012;" horiz-adv-x="598" d="M20 279l551 42l7 -82l-552 -41z" />
<glyph unicode="&#x2013;" d="M316 336v47h375v-47h-375z" />
<glyph unicode="&#x2014;" d="M0 340v39h996v-39h-996z" />
<glyph unicode="&#x2015;" d="M129 336v47h738v-47h-738z" />
<glyph unicode="&#x2016;" d="M387 -62v839h39v-839h-39zM570 -62v839h39v-839h-39z" />
<glyph unicode="&#x2018;" d="M684 631l76 171l74 -33l-63 -140l47 -28l-43 -69l-76 47z" />
<glyph unicode="&#x2019;" d="M149 567l61 139l-46 28l42 69l77 -47l15 -50l-75 -172z" />
<glyph unicode="&#x201a;" horiz-adv-x="500" d="M55 -70q51 16 78 49t29 54.5t-6 31t-23.5 3.5t-33 -6t-31 14t-13.5 39.5t17.5 41t46.5 15.5t54.5 -27.5t25.5 -76t-35 -91.5t-109 -67v20z" />
<glyph unicode="&#x201c;" d="M604 631l76 171l74 -33l-63 -140l47 -28l-43 -69l-76 47zM755 646l76 142l72 -37l-59 -110l44 -28l-43 -69l-76 48z" />
<glyph unicode="&#x201d;" d="M109 586l59 108l-44 28l42 69l77 -48l13 -52l-76 -143zM259 567l61 139l-46 28l42 69l77 -47l15 -50l-75 -172z" />
<glyph unicode="&#x201e;" horiz-adv-x="500" d="M31 115.5q0 21.5 19.5 39t49 17.5t57 -27.5t27.5 -74.5t-33.5 -89.5t-95.5 -58.5v19q51 27 66.5 51t15.5 45.5t-12 27t-21.5 1.5t-25.5 -4t-31.5 16t-15.5 37.5zM266 117.5q0 23.5 19.5 39t48.5 15.5t54.5 -27.5t25.5 -72.5t-31 -88t-94 -62v19q43 23 62.5 47t19.5 47.5 t-11.5 29t-23.5 1.5t-25.5 -4t-29 16t-15.5 39.5z" />
<glyph unicode="&#x2020;" horiz-adv-x="500" d="M51 521.5q0 21.5 13.5 35t31 13.5t25.5 -2t51 -25q31 -12 66 -12q-8 43 -19 71q-23 62 -23.5 93.5t15.5 49t37.5 17.5t37 -19.5t15.5 -39t-4 -37.5t-21.5 -61t-17.5 -74q31 0 70 15.5t49 19.5t27.5 4t31 -13.5t13.5 -35t-13.5 -35t-35 -13.5t-68.5 23q-35 12 -74 16 q0 -43 11.5 -68.5t35.5 -45.5q-31 -78 -41 -164t-12 -175.5t-2 -187.5h-20q0 98 -1.5 187.5t-7.5 175.5q-5 86 -33 164q27 20 36.5 43.5t13.5 70.5q-31 -4 -66 -16q-51 -23 -72.5 -23t-35 13.5t-13.5 35z" />
<glyph unicode="&#x2021;" horiz-adv-x="500" d="M66 562.5q0 19.5 14 31t33.5 11.5t54.5 -15.5t70 -19.5q0 20 -4 35.5t-19.5 56.5t-15.5 58.5t15.5 33.5t35.5 16t33.5 -14t13.5 -35.5t-2 -31t-17.5 -45t-19.5 -74.5q23 0 33 4t41 17.5t52.5 13.5t35.5 -11.5t14 -31t-14 -31t-35.5 -11.5t-52.5 13.5t-41 15.5t-33 2 q4 -31 13.5 -47t33.5 -35q-23 -35 -35 -71t-12 -86q0 -51 11.5 -84t35.5 -68q-23 -23 -33 -39t-14 -47q39 8 62 20q43 16 64.5 15.5t35.5 -12t14 -31t-14 -31.5t-33.5 -12t-50.5 14t-78 22q12 -51 25.5 -80.5t11.5 -58.5t-15.5 -43t-31.5 -14t-31.5 16t-11.5 43t15.5 64 t17.5 73q-47 -8 -76 -22t-48.5 -14t-31.5 12t-12 31.5t12 31t33.5 11.5t50.5 -11.5t72 -19.5q-4 31 -11.5 47t-35.5 35q23 27 35 64.5t12 84.5q0 55 -7.5 88t-39.5 72q23 20 33 35.5t14 46.5q-35 -4 -68 -17.5t-54.5 -13.5t-35.5 11.5t-14 31z" />
<glyph unicode="&#x2022;" horiz-adv-x="500" d="M125 398q0 51 35 86.5t86 35.5t88 -35.5t37 -86.5t-37 -86t-88 -35t-86 35.5t-35 85.5z" />
<glyph unicode="&#x2025;" d="M242.5 361q-0.5 41 33 60.5t70.5 2t39 -64.5t-41 -64.5t-74 2.5q-27 23 -27.5 64zM617.5 361q-0.5 41 33 60.5t70.5 2t39 -64.5t-41 -64.5t-74 2.5q-27 23 -27.5 64z" />
<glyph unicode="&#x2026;" d="M102 355.5q0 42.5 39 66t78 -1.5t35 -68t-41 -61t-76 2q-35 20 -35 62.5zM422 355.5q0 42.5 39 66t78 -1.5t35 -68t-41 -61t-76 2q-35 20 -35 62.5zM742 355.5q0 42.5 39 66t78 -1.5t35.5 -68t-41 -61t-76.5 2q-35 20 -35 62.5z" />
<glyph unicode="&#x202f;" horiz-adv-x="174" />
<glyph unicode="&#x2030;" d="M70 558.5q0 58.5 19.5 105.5t64.5 65t84 -2q43 -20 57 -63t14 -103.5t-19.5 -109.5t-57 -62.5t-78.5 0t-62.5 62.5t-21.5 107.5zM90 8l570 765l28 -19l-571 -766zM117 562.5q0 -70.5 19.5 -109.5t56.5 -39t53 39t16 109.5t-16 107.5t-53 37t-56.5 -37t-19.5 -107.5z M383 148.5q0 58.5 19.5 105.5t64.5 64.5t84 -2.5q43 -20 56.5 -62.5t13.5 -103t-19.5 -109.5t-56.5 -62.5t-78 0t-62.5 62.5t-21.5 107.5zM430 152.5q0 -70.5 19.5 -109.5t56.5 -39t53 39t15.5 109.5t-16 107.5t-52.5 37t-56.5 -37t-19.5 -107.5zM703 148.5 q0 58.5 19.5 105.5t64.5 64.5t84 -2.5q43 -20 56.5 -62.5t13.5 -103t-19.5 -109.5t-56.5 -62.5t-78 0t-62.5 62.5t-21.5 107.5zM750 152.5q0 -70.5 19.5 -109.5t56.5 -39t53 39t16 109.5t-16 107.5t-53 37t-56.5 -37t-19.5 -107.5z" />
<glyph unicode="&#x2032;" d="M180 424q0 10 27 138.5t31 162t21.5 41t37.5 0t8 -42.5q-8 -35 -59 -162t-58.5 -137t-7.5 0z" />
<glyph unicode="&#x2033;" d="M186 453q-2 8 23 123t29 148.5t16 43t37.5 -2t9.5 -42.5q-12 -31 -55 -140.5t-50.5 -123.5t-9.5 -6zM344 439.5q0 9.5 31 127t37 150.5t23.5 41t39 -8t5.5 -47q-12 -31 -66.5 -142.5t-62 -121t-7.5 0z" />
<glyph unicode="&#x2035;" d="M416 765.5q14 19.5 39 15.5t35 -41t45 -236l-19 -4q-82 180 -98 213t-2 52.5z" />
<glyph unicode="&#x2039;" horiz-adv-x="500" d="M59 301l187 230h27l-117 -230l117 -231h-27z" />
<glyph unicode="&#x203a;" horiz-adv-x="500" d="M55 70l121 231l-121 230h31l191 -230l-191 -231h-31z" />
<glyph unicode="&#x203b;" d="M125 684l35 27l340 -313l336 321l35 -28l-344 -324l352 -332l-31 -31l-348 332l-336 -324l-31 27l336 328zM152 359q0 -39 33.5 -56.5t66.5 0t33 56.5t-33 55t-64.5 2t-35.5 -57zM434 86q0 -39 33 -56.5t66 0t33 56.5t-33 54.5t-64 2t-35 -56.5zM434 648q0 -39 33 -56.5 t66 0t33 57t-33 55t-64 1.5t-35 -57zM719 359q0 -39 33 -56.5t66.5 0t33.5 56.5t-33.5 55t-64.5 2t-35 -57z" />
<glyph unicode="&#x205f;" horiz-adv-x="218" />
<glyph unicode="&#x20ac;" horiz-adv-x="500" d="M0 285l12 39h43v55h-55l12 39h47q16 117 80 193.5t177 76.5q82 0 164 -43v-145h-19q-12 156 -145 156t-168 -238h290l-12 -39h-281v-55h269l-12 -39h-257q4 -94 35 -156q43 -86 125 -86q62 0 97.5 25.5t77.5 83.5l16 -11q-43 -70 -90 -105.5t-121 -35.5q-113 0 -176 90 q-51 74 -54 195h-55z" />
<glyph unicode="&#x2103;" d="M115.5 637q-1.5 39 21.5 62q27 23 50.5 29t53 -3.5t43 -37t7.5 -62.5t-31.5 -54.5t-60.5 -17.5t-58.5 23.5t-25 60.5zM152 633q4 -35 31.5 -45t50.5 2q23 16 21.5 55t-27 50.5t-53 -8t-23.5 -54.5zM301 336q-8 148 56.5 244t142.5 119.5t142.5 9.5t109.5 -41t72 -55v47 h31v-211h-31v71q-16 74 -88 121t-165.5 31t-148.5 -96t-53 -216.5t53 -215t133 -92t152 18t107.5 76t43 33t-31.5 -60.5t-111 -88t-172 -27t-166 98t-76 234z" />
<glyph unicode="&#x2105;" d="M174 462.5q-10 64.5 15.5 127t76 101.5t105.5 29.5t78.5 -41t6 -56.5t-47 -13.5t-18 41t-17.5 35t-60.5 -25.5t-55 -91.5t-13.5 -103.5t43 -56.5t54.5 -14t60.5 19.5l8 -12q-47 -47 -92 -50.5t-89.5 21.5t-54.5 89.5zM316 -27l309 773h43l-305 -773h-47zM527 191 q20 78 72.5 117.5t93.5 37.5t68.5 -23.5t39 -68.5t-13.5 -121t-66 -101.5t-72.5 -29.5t-60.5 8t-55 58.5t-6 122.5zM578 103.5q4 -48.5 20 -64.5q20 -16 51 -8t54.5 31.5t46.5 80t21.5 101.5t-27 62.5t-45 13.5t-49 -27t-53 -82t-19.5 -107.5z" />
<glyph unicode="&#x2109;" d="M74 641q0 43 27.5 68t55 29t60.5 -5.5t50.5 -37t9.5 -66.5q-4 -39 -35 -60.5t-72 -19.5t-68.5 25.5t-27.5 66.5zM115 635q6 -37 37 -49t58.5 5.5t27.5 55t-33 51t-64.5 -6t-25.5 -56.5zM289 715v23h543l16 -164h-20q-51 121 -148 141h-160q-47 4 -47 -55v-222h136 q51 8 59 93h23v-219h-23q-8 94 -63 102h-132v-305q8 -35 82 -39v-23h-231v23q70 0 82 39v563q-4 47 -117 43z" />
<glyph unicode="&#x2116;" d="M66 59v27q78 4 79 59v453q0 66 -75 62v28h137l309 -493v422q0 39 -78 39v28h187v-28q-70 0 -70 -35v-566h-32l-339 547v-454q0 -62 82 -62v-27h-200zM625 55v54h289v-54h-289zM641 324.5q0 58.5 21.5 105.5t66 64.5t83.5 -2.5q43 -20 59 -62.5t16 -103t-21.5 -107.5 t-58.5 -62.5t-78 0t-64.5 62.5t-23.5 105.5zM691 328q0 -70 19.5 -109t56.5 -39t53 39t16 109t-15.5 107.5t-53 37.5t-57 -37.5t-19.5 -107.5z" />
<glyph unicode="&#x2121;" d="M172 711l4 47h191l4 -47h-12q-8 31 -19 31h-35q-23 0 -20 -15v-153q0 -20 35 -19v-12h-101v12q35 4 31 19v153q4 12 -12 11h-27q-23 0 -31 -27h-8zM398 543v12q31 -4 28 23v152q4 16 -28 12v16h172l4 -51h-8q-16 39 -31 35h-74v-78h70q12 -4 16 31h12v-78h-12 q-4 31 -16 31h-70v-70q-4 -23 23 -19h55q27 -4 43 43l12 -4l-16 -55h-180zM613 543v12q35 0 32 23v149q4 20 -32 15v16h98v-16q-35 4 -31 -15v-149q-4 -23 39 -19h39q20 -4 51 46h11l-23 -62h-184z" />
<glyph unicode="&#x2122;" horiz-adv-x="500" d="M0 645l4 97h187l4 -97h-15q-4 35 -12 50.5t-31 15.5h-16v-281q0 -43 6 -53t21 -14v-15h-97v15q20 4 23.5 16t3.5 51v281h-19q-16 0 -27.5 -15.5t-19.5 -50.5h-12zM215 348v15q16 0 21.5 6t5.5 16v320q0 10 -6 14t-17 4v19h70l66 -277l67 277h78v-19q-16 0 -21.5 -6 t-5.5 -16v-271q0 -43 3.5 -53t23.5 -14v-15h-102v15q12 4 18 8t8 15.5t2 43.5v238l-78 -320h-8l-78 316v-234q0 -35 2 -45t5.5 -16t27.5 -6v-15h-82z" />
<glyph unicode="&#x2160;" d="M363 -4q105 -4 98 47v621q0 51 -98 51v19h274v-19q-102 0 -98 -51v-621q-4 -51 98 -47v-19h-274v19z" />
<glyph unicode="&#x2161;" d="M211 0q102 -4 98 43v625q4 47 -98 47v19h262v-19q-86 0 -86 -43v-629q-4 -43 86 -43v-20h-262v20zM531 0q90 -4 86 43v629q8 47 -86 43v19h262v-19q-102 0 -98 -43v-629q-4 -47 98 -43v-20h-262v20z" />
<glyph unicode="&#x2162;" d="M35 0q94 -4 98 39v637q4 39 -98 39v19h277v-19q-106 0 -101 -39v-633q-5 -47 101 -43v-20h-277v20zM352 0q105 -4 105 31v641q0 43 -105 43v19h289v-19q-114 0 -106 -39v-641q0 -35 106 -35v-20h-289v20zM680 0q102 -4 101 39v637q0 39 -101 39v19h281v-19 q-102 4 -102 -39v-637q0 -43 102 -39v-20h-281v20z" />
<glyph unicode="&#x2163;" d="M78 0q102 0 98 43v629q4 47 -78 43v19h230v-19q-78 0 -74 -43v-629q-4 -47 101 -43v-20h-277v20zM332 715v19h223v-19q-90 4 -71 -39l172 -641l160 633q12 51 -62 47v19h168v-19q-66 0 -74 -43l-180 -692h-66l-196 708q-8 31 -74 27z" />
<glyph unicode="&#x2164;" d="M152 715v19h243v-19q-78 -4 -67 -39l188 -598l195 602q4 35 -98 35v19h231v-19q-94 -4 -102 -35l-222 -700h-51l-223 700q-8 35 -94 35z" />
<glyph unicode="&#x2165;" d="M43 715v19h254v-19q-90 0 -82 -31l156 -637h16l164 644q4 20 -82 24v19h191v-19q-70 0 -74 -20l-184 -715h-82l-179 696q-8 35 -98 39zM621 0q121 -4 121 39v645q0 31 -78 31v19h270v-19q-122 0 -114 -35v-641q0 -39 114 -39v-20h-313v20z" />
<glyph unicode="&#x2166;" d="M43 715v19h211v-19q-70 0 -66 -31l140 -637h8l144 637q4 31 -66 31v19h332v-19q-66 4 -62 -31v-653q-4 -35 62 -31v-20h-211v20q82 0 78 35v649q3 33 -47 31q-51 0 -54 -31l-160 -704h-75l-160 704q-4 31 -74 31zM750 0q74 0 66 35v645q4 35 -66 35v19h199v-19 q-66 4 -62 -35v-649q-4 -35 62 -35v-16h-199v20z" />
<glyph unicode="&#x2167;" d="M35 715v19h172v-19q-47 -3 -39 -27l125 -641h4l125 641q4 27 -47 27v19h125v-19q-35 1 -39 -27l-145 -708h-78l-144 708q-4 23 -59 27zM473 0q74 -4 66 35v653q8 27 -35 27v19h144v-19q-39 0 -39 -27v-653q0 -35 47 -35v-20h-183v20zM652 715v19h153v-19q-47 0 -43 -27 v-657q-4 -35 43 -31v-20h-145v20q39 -4 31 31v657q8 31 -39 27zM809 0q39 -4 35 35v653q4 27 -35 27v19h148v-19q-51 4 -43 -27v-657q-8 -35 43 -31v-20h-148v20z" />
<glyph unicode="&#x2168;" d="M74 -4q105 0 98 35v645q8 39 -98 39v19h262v-19q-94 0 -86 -35v-653q-8 -31 86 -31v-19h-262v19zM352 715v19h207v-19q-90 0 -71 -35l149 -278l164 289q8 23 -74 24v19h203v-19q-74 1 -94 -27l-184 -317l203 -348q23 -23 75 -27v-19h-227v19q86 0 70 31l-160 278 l-160 -278q-11 -27 63 -31v-19h-161v19q47 0 63 27l176 313l-188 355q-20 27 -54 24z" />
<glyph unicode="&#x2169;" d="M172 715v19h262v-19q-82 -3 -79 -27l153 -282l168 266q20 43 -74 43v19h207v-19q-74 1 -90 -27l-196 -313l200 -348q16 -27 109 -27v-20h-262v20q78 -4 75 23l-161 286l-175 -286q-8 -19 78 -23v-20h-203v20q78 4 105 43l176 293l-184 340q-23 35 -109 39z" />
<glyph unicode="&#x216a;" d="M86 0q66 0 78 23l191 325l-187 343q-12 23 -78 24v19h234v-19q-82 1 -70 -27l148 -278l164 270q16 35 -50 35v19h152v-19q-51 1 -66 -27l-188 -305l195 -360q12 -27 59 -23v-20h-211v20q66 -4 66 31l-152 285l-172 -289q-11 -31 59 -27v-20h-172v20zM688 0q74 0 74 27 v653q0 35 -74 35v19h234v-19q-94 0 -86 -39v-649q0 -27 82 -27v-20h-230v20z" />
<glyph unicode="&#x216b;" d="M39 -4q66 0 78 16l176 324l-176 352q-12 27 -78 27v19h231v-19q-86 1 -71 -27l141 -282l160 285q8 23 -51 24v19h137v-19q-43 0 -55 -24l-179 -316l183 -363q16 -16 51 -16v-19h-188v19q66 -4 51 31l-140 278l-161 -293q-7 -16 63 -16v-19h-172v19zM602 -4q51 -4 46 24 v668q4 27 -46 27v19h171v-19q-50 0 -46 -27v-668q-4 -23 46 -24v-19h-171v19zM777 -4q51 0 47 24v668q4 27 -47 27v19h176v-19q-55 0 -51 -31v-657q-4 -31 55 -31v-19h-180v19z" />
<glyph unicode="&#x2170;" d="M391 62v20q109 0 101 47v328q8 31 -86 31v20h153v-387q0 -39 97 -39v-20h-265zM455 682q-2 33 27.5 46.5t54.5 2t27 -45t-25.5 -47t-54.5 -1.5t-29 45z" />
<glyph unicode="&#x2171;" d="M223 62v20q102 0 97 43v332q4 31 -90 31v20h157v-391q-4 -39 93 -35v-20h-257zM279.5 680q-2.5 31 27 46.5t57 2t27.5 -45t-27.5 -45t-54.5 -1.5t-29.5 43zM531 62v20q102 0 98 43v332q4 31 -90 31v20h156v-391q-4 -39 94 -35v-20h-258zM588 682q-2 33 27.5 46.5t56.5 -2 t27 -45t-27.5 -45t-54.5 -3.5q-27 16 -29 49z" />
<glyph unicode="&#x2172;" d="M39 59v19q117 0 113 47v324q4 35 -90 35v20h157v-387q-5 -39 93 -39v-19h-273zM111.5 672q-2.5 31 27 46.5t57 0t25.5 -44.5t-27.5 -41t-52.5 -4q-27 12 -29.5 43zM375 59v19q102 0 98 47v328q4 31 -90 31v20h156v-387q-4 -43 94 -39v-19h-258zM449.5 674 q-4.5 29 25 46.5t57 4t27.5 -45t-27.5 -45t-54.5 -1.5q-23 12 -27.5 41zM688 59v19q102 0 97 43v336q4 27 -90 27v20h157v-387q-4 -39 105 -39v-19h-269zM752 678q-2 33 27.5 48.5t56.5 0t27 -47t-27.5 -45t-54.5 -1.5t-29 45z" />
<glyph unicode="&#x2173;" d="M113 62v20q102 0 98 39v324q4 43 -90 43v20h156v-387q-4 -43 94 -39v-20h-258zM170 682q-2 33 27.5 46.5t56.5 0t27 -43t-25.5 -43t-56.5 -5.5q-27 12 -29 45zM371 488v20h203v-20q-78 0 -54 -43l132 -285l141 297q8 35 -59 31v20h164v-20q-62 4 -74 -27l-191 -402 l-184 382q-31 51 -78 47z" />
<glyph unicode="&#x2174;" d="M199 492v20h203v-20q-78 0 -54 -43l132 -285l141 293q3 39 -59 35v20h165v-20q-59 0 -75 -31l-191 -399l-184 379q-31 55 -78 51z" />
<glyph unicode="&#x2175;" d="M105 488v20h204v-20q-78 4 -51 -47l129 -285l136 297q4 39 -54 35v20h164v-20q-59 4 -74 -27l-192 -402l-183 379q-23 51 -79 50zM656 62v20q98 0 94 47v316q4 35 -86 39v24h152v-387q-4 -39 75 -39v-20h-235zM709 682q-2 33 25.5 46.5t54.5 -2t27 -45t-27.5 -43 t-54.5 -1.5q-23 12 -25 45z" />
<glyph unicode="&#x2176;" d="M39 492v20h199v-20q-70 4 -47 -43l121 -277l129 285q4 35 -50 35v20h152v-20q-59 0 -70 -31l-180 -399l-172 379q-27 55 -82 51zM539 62v20q94 0 90 47v312q4 51 -70 51v20h132v-391q-4 -39 59 -39q66 4 62 47v328q4 35 -78 35v20h141v-391q-4 -39 82 -39v-20h-418z M586 682q0 33 27.5 44.5t52.5 -2t25 -43t-25.5 -43t-52.5 -1.5t-27 45zM773.5 682q-0.5 33 27 44.5t53 -2t25.5 -43t-25.5 -43t-52.5 -1.5t-27.5 45z" />
<glyph unicode="&#x2177;" d="M39 504v19h176v-19q-62 4 -43 -43l105 -277l118 289q0 31 -47 31v19h117v-19q-35 4 -43 -31l-160 -399l-157 379q-16 51 -66 51zM445 74v20q82 -4 78 47v332q4 31 -43 31v19h98v-390q-4 -39 47 -39q51 4 47 43v328q4 39 -55 39v19h113v-394q-4 -35 55 -35q51 0 47 43v332 q4 35 -55 35v19h114v-390q0 -39 66 -39v-20h-512zM479 682q-2 29 21 40.5t44.5 -2t19.5 -39t-19.5 -35t-40.5 -1.5t-25 37zM642.5 684q-1.5 27 22 38.5t44.5 0t21 -39t-21.5 -37t-44.5 -1.5q-20 12 -21.5 39zM803 682q-2 29 21.5 40.5t45 -2t21.5 -39t-20 -35t-43 -1.5 t-25 37z" />
<glyph unicode="&#x2178;" d="M86 62v20q102 4 98 43v324q4 39 -90 39v20h156v-391q-4 -35 94 -35v-20h-258zM143 680q-2 31 27 44.5t56.5 0t27.5 -43t-27.5 -43t-54.5 -1.5t-29 43zM379 62v20q55 -4 101 35l145 156l-125 172q-39 43 -102 43v20h215v-20q-62 0 -47 -31l98 -141l129 149q-4 23 -63 23 v20h184v-20q-70 0 -90 -23l-144 -168l121 -160q43 -59 117 -55v-20h-230v20q62 -4 54 27l-101 145l-133 -145q-20 -31 51 -27v-20h-180z" />
<glyph unicode="&#x2179;" d="M242 62v20q55 -4 106 39l140 152l-129 172q-35 39 -97 43v20h215v-20q-62 0 -47 -35l101 -133l117 137q4 31 -54 31v20h183v-20q-55 0 -86 -23l-148 -168l121 -156q51 -62 117 -59v-20h-230v20q62 -4 54 31l-101 141l-129 -141q-23 -35 47 -31v-20h-180z" />
<glyph unicode="&#x2190;" d="M82 359l336 121v-11l-66 -90h562v-47h-562l66 -86v-12z" />
<glyph unicode="&#x2191;" d="M375 438l129 332l117 -336h-12l-89 66v-555h-47v555l-86 -62h-12z" />
<glyph unicode="&#x2192;" d="M82 332v47h566l-66 90v11l336 -125l-336 -125v12l66 90h-566z" />
<glyph unicode="&#x2193;" d="M371 273h12l90 -66v563h47v-563l85 66h12l-117 -335z" />
<glyph unicode="&#x2196;" d="M156 652q-4 16 12 12l266 -55v-11l-145 -24l547 -531l-31 -35l-543 535l-32 -152h-11z" />
<glyph unicode="&#x2197;" d="M145 27l527 535l-152 32v11l261 63q16 4 12 -12l-55 -265h-11l-24 140l-523 -535z" />
<glyph unicode="&#x2198;" d="M141 664l31 27l523 -523l28 152h11l59 -261q4 -20 -12 -16l-265 62l4 12l144 24z" />
<glyph unicode="&#x2199;" d="M148 4l63 277h12l19 -160l531 535l32 -31l-535 -531l148 -28v-11l-258 -63q-16 -4 -12 12z" />
<glyph unicode="&#x2208;" d="M188 357q0 127 68 197.5t182 70.5h367v-47h-340q-117 0 -168 -50.5t-55 -144.5h563v-47h-563q4 -94 55 -146.5t168 -52.5h340v-47h-367q-113 0 -181.5 70t-68.5 197z" />
<glyph unicode="&#x220f;" d="M109 680v39h778v-39h-39q-82 0 -82 -106v-500q0 -59 105 -54v-40h-262v40q94 -4 94 50v532q0 78 -90 78h-242q-78 0 -78 -75v-535q0 -51 90 -50v-40h-254v40q102 -4 101 50v500q0 109 -82 110h-39z" />
<glyph unicode="&#x2211;" d="M152 719h610l39 -180h-12q-74 141 -180 141h-347l226 -348l-226 -293h367q90 0 160 113h12l-35 -175h-606l258 335z" />
<glyph unicode="&#x2215;" d="M254 -74l406 879l39 -16l-406 -879z" />
<glyph unicode="&#x221a;" d="M285 223l102 101l160 -203l199 609l39 -27l-230 -707l-192 266l-58 -59z" />
<glyph unicode="&#x221d;" d="M111 367.5q2 62.5 55 97.5t103.5 43t97.5 -2t82 -33.5t86 -74.5q78 82 187.5 102t156.5 -20l-8 -15q-59 12 -117.5 2t-105 -31.5t-89.5 -72.5q55 -62 103.5 -83.5t97.5 -21.5t115 12l4 -20q-94 -39 -182 -23.5t-162 101.5q-27 -43 -82 -76t-137 -33t-144.5 43 t-60.5 105.5zM158 375q-6 -39 29.5 -72t94 -43t117 9.5t109.5 93.5q-27 39 -82 78t-117.5 35.5t-103.5 -33t-47 -68.5z" />
<glyph unicode="&#x221e;" d="M115 349.5q-2 72.5 55 113.5t109.5 43t105 -16t111.5 -80q35 47 84 72.5t121 25.5t129 -41t57 -113.5t-60.5 -111.5t-162.5 -33q-102 5 -168 103q-35 -59 -88 -84t-117 -25t-119 37t-57 109.5zM164 353.5q0 -33.5 27.5 -64.5t82 -37t107.5 13.5t92 93.5q-35 55 -88 82.5 t-105.5 19.5t-84 -41t-31.5 -66.5zM520 359q39 -70 91.5 -91.5t111 -13.5t86 41t27.5 66.5t-33 66.5t-88 39t-107.5 -21.5t-87.5 -86.5z" />
<glyph unicode="&#x221f;" d="M148 51v656h43v-617h684v-39h-727z" />
<glyph unicode="&#x2220;" d="M125 -4l750 711l27 -31l-679 -641h621v-39h-719z" />
<glyph unicode="&#x2223;" d="M465 -94v903h43v-903h-43z" />
<glyph unicode="&#x2225;" d="M152 23l364 688l35 -20l-363 -687zM438 20l367 691l35 -20l-363 -687z" />
<glyph unicode="&#x2227;" d="M137 -27l363 789h8l355 -797l-39 -16l-320 727l-336 -723z" />
<glyph unicode="&#x2228;" d="M125 703l31 20l348 -688l336 684l35 -16l-363 -750h-12z" />
<glyph unicode="&#x2229;" d="M223 47v391q0 109 78 169.5t197 60.5t197 -60.5t78 -154.5v-406h-46v402q0 66 -59 119t-170 53t-169.5 -52.5t-58.5 -130.5v-391h-47z" />
<glyph unicode="&#x222a;" d="M223 262v398h47v-394q0 -66 58.5 -119t166 -53t166 52.5t58.5 130.5v383h47v-383q0 -109 -78.5 -169.5t-193.5 -60.5t-193 60.5t-78 154.5z" />
<glyph unicode="&#x222b;" d="M305 19.5q-4 23.5 17.5 37t43 0t9.5 -35t27 -25.5t53 90t21.5 170t7.5 152t6 144.5t26 119.5q20 55 66.5 74.5t83.5 3.5t45 -47t-15.5 -44.5t-41 0t-13.5 31t0 29t-35.5 2t-51 -58.5t-23.5 -113.5t-4 -146.5t-7.5 -160t-25 -173.5t-78.5 -103.5t-84 11.5t-27 43z" />
<glyph unicode="&#x222e;" d="M320.5 3.5q-11.5 23.5 6 43t43 10t21.5 -33t17.5 -19.5t37 33t31.5 166q-43 4 -82.5 37t-49 92t27.5 115.5t119 64.5q0 90 10 144.5t37 80t56.5 29.5t53 -6t35 -23.5t15.5 -35t-13.5 -37.5t-41 -2t-11.5 35.5t-4 33t-41.5 0t-35 -43t-13.5 -76.5t-4 -99 q109 -16 136.5 -90t-11.5 -142.5t-140 -80.5q-8 -70 -20 -124.5t-39 -80t-52.5 -27.5t-51 5.5t-37 31zM388 365q-6 -88 92 -123q4 102 12 231q-98 -20 -104 -108zM523 242q66 8 94 53t12 105.5t-94 72.5q-4 -114 -12 -231z" />
<glyph unicode="&#x2234;" d="M180 121q0 43 41 74.5t89.5 0t37 -90t-58.5 -70.5t-78 15.5t-31 70.5zM410 598q0 43 41 74t90 0t37.5 -89.5t-58.5 -70.5t-78.5 15.5t-31.5 70.5zM645 121q0 43 41 74.5t89.5 0t37 -90t-58.5 -70.5t-78 15.5t-31 70.5z" />
<glyph unicode="&#x2235;" d="M180 598q0 43 41 74t89.5 0t37 -89.5t-58.5 -70.5t-78 15.5t-31 70.5zM410 117q0 43 41 74.5t90 0t37.5 -90t-58.5 -70.5t-78.5 15.5t-31.5 70.5zM645 598q0 43 41 74t89.5 0t37 -89.5t-58.5 -70.5t-78 15.5t-31 70.5z" />
<glyph unicode="&#x2236;" d="M424 119q2 41 39 58.5t70 -4t31 -62t-41 -60.5t-70 3.5t-29 64.5zM428 607q2 41 39 57t70 -3.5t31 -60.5t-41 -61q-39 -16 -70 5.5t-29 62.5z" />
<glyph unicode="&#x2237;" d="M182 115q2 45 37 64.5t68 0t33 -62.5q4 -43 -31 -66.5t-72 -2t-35 66.5zM186 600q2 45 37 64.5t68 0t33 -62.5q4 -43 -31 -66.5t-72 -2t-35 66.5zM670 119q2 45 37 64.5t68.5 0t33.5 -62.5q4 -43 -31.5 -66.5t-72.5 -2t-35 66.5zM670 600q2 45 37 64.5t68.5 0t33.5 -62.5 q4 -43 -31.5 -66.5t-72.5 -2t-35 66.5z" />
<glyph unicode="&#x223d;" d="M109 363.5q0 62.5 51 105.5t125 43v-39q-51 0 -90 -31.5t-39 -78.5t39 -78t98 -31t107.5 43t80 90t80 84t130.5 39t137 -41t53 -107.5t-56.5 -105.5t-121.5 -41v39q43 0 84 29t47 76t-39 80.5t-115.5 29.5t-115 -51t-78 -92t-80.5 -78t-123 -33t-125 43t-49 105.5z" />
<glyph unicode="&#x2248;" d="M113 211v47q59 59 113.5 84t115 13.5t152.5 -64.5t148.5 -72.5t115 10t129.5 91.5v-47q-43 -47 -105.5 -78t-131 -17.5t-137 56.5t-131 70.5t-119 10t-150.5 -103.5zM113 398v47q59 59 113.5 84.5t115 13.5t152.5 -64.5t148.5 -72t115 9.5t129.5 92v-47 q-43 -47 -105.5 -78t-131 -17.5t-137 56.5t-131 70.5t-119 9.5t-150.5 -104z" />
<glyph unicode="&#x224c;" d="M113 39v39h770v-39h-770zM113 468.5q0 62.5 51 105.5t125 43v-39q-51 0 -90 -31t-39 -78t39 -78.5t97.5 -31.5t107.5 43t80.5 90t80 84t130.5 39t137 -41t53 -107.5t-57 -105.5t-121 -41v39q43 0 84 29.5t47 76.5t-39 80t-115.5 29t-115.5 -50.5t-78 -91.5t-80 -78.5 t-123 -33.5t-125 43t-49 105.5zM117 211v39h770v-39h-770z" />
<glyph unicode="&#x2252;" d="M188 293v39h624v-39h-624zM188 430v39h624v-39h-624zM191 611.5q0 33.5 27.5 49t59 -0.5t27.5 -51q0 -31 -29.5 -44.5t-57 0t-27.5 47zM688 158q0 33 27 49t58.5 0t27.5 -51q0 -31 -29.5 -44.5t-56.5 0t-27 46.5z" />
<glyph unicode="&#x2260;" d="M109 230v40h309l117 175h-426v39h450l152 223l35 -16l-141 -207h282v-39h-305l-117 -175h422v-40h-449l-145 -214l-35 15l133 199h-282z" />
<glyph unicode="&#x2261;" d="M113 180v39h774v-39h-774zM113 340v39h774v-39h-774zM113 500v39h774v-39h-774z" />
<glyph unicode="&#x2264;" d="M109 242l12 35l766 -257l-12 -36zM109 453v20l762 257l16 -35l-688 -234l688 -234l-12 -36z" />
<glyph unicode="&#x2265;" d="M137 254l664 215l-656 230l15 35l727 -257v-20l-735 -242zM152 31l727 246l12 -35l-727 -250z" />
<glyph unicode="&#x2266;" d="M180 508v15l613 145v-43l-488 -109l496 -118v-46zM191 98v39h614v-39h-614zM191 238v39h614v-39h-614z" />
<glyph unicode="&#x2267;" d="M184 86v39h628v-39h-628zM184 215v39h628v-39h-628zM184 336v43l519 109l-508 137v43l617 -172v-19z" />
<glyph unicode="&#x226e;" d="M109 344v23l336 113v270h39v-258l403 137v-35l-403 -137v-195l399 -137v-43l-399 137v-246h-39v257zM176 355l269 -85v179z" />
<glyph unicode="&#x226f;" d="M113 86v39l399 137v195l-395 133v43l395 -137v246h39v-258l336 -109v-27l-336 -114v-265h-39v254zM551 273l269 86l-269 86v-172z" />
<glyph unicode="&#x2295;" d="M266 332q-4 113 72 189.5t185.5 74.5t178 -78.5t64.5 -180t-69 -171.5t-174 -72t-181 60.5t-76 177.5zM310.5 332.5q1.5 -93.5 60.5 -148.5q59 -51 148.5 -49t142.5 62.5t57 142.5t-49 146.5t-144.5 70t-154 -62.5t-61 -161.5zM336 324v43h160v149h47v-149h156v-43h-156 v-156h-47v156h-160z" />
<glyph unicode="&#x2299;" d="M115 343.5q-6 148.5 80 250t203.5 131t224.5 -5.5t183.5 -133t72.5 -240.5t-82 -236t-189.5 -123t-219 -0.5t-189.5 119q-78 90 -84 238.5zM158 359.5q-2 -132.5 74.5 -222.5t174 -113.5t193 4t168 119t68.5 220.5t-78 211t-166 107.5t-187.5 -2t-170 -109.5 t-76.5 -214.5zM420 367q6 43 49 58.5t76 -11.5t25 -66q-4 -39 -45 -57t-76 7.5t-29 68.5z" />
<glyph unicode="&#x22a5;" d="M141 -4v39h336v680h39v-680h343v-39h-718z" />
<glyph unicode="&#x22bf;" d="M176 27l644 661v-661h-644zM262 62h519v532z" />
<glyph unicode="&#x2312;" d="M90 297q20 102 101.5 185.5t197 117t234.5 -5.5t191.5 -119t95.5 -182h-43q-35 121 -142.5 201t-226.5 80t-226.5 -80t-138.5 -197h-43z" />
<glyph unicode="&#x2460;" d="M37 339.5q-2 183.5 99.5 305t232.5 156.5t260 3.5t234.5 -154.5t101.5 -304.5t-121.5 -310t-320.5 -140.5q-199 -12 -341.5 124.5t-144.5 320zM70 351.5q4 -171.5 107.5 -281t223 -137t242.5 12t209 156.5t78 287t-135 289t-305 113t-301 -137t-119 -302.5zM367 78h266 v24q-102 -4 -102 39v488h-19q-59 -51 -145 -51v-19q102 0 102 -36v-382q0 -43 -102 -39v-24z" />
<glyph unicode="&#x2461;" d="M33 339.5q-2 183.5 99.5 305t232.5 156.5t260 3.5t234.5 -154.5t101.5 -304.5t-121 -310t-320 -140.5q-199 -12 -342 124.5t-145 320zM66 351.5q4 -171.5 107.5 -281t223 -137t242.5 12t209 156.5t78 287t-135 289t-304.5 113t-301 -137t-119.5 -302.5zM285 82h418 l16 152h-16l-47 -101h-324q117 94 197 154.5t117.5 117t19.5 119t-86 93.5t-142.5 19.5t-111.5 -60.5t-37 -86t19.5 -50.5t41 -6t27.5 27t-8 33.5t-27.5 16t14 47t105.5 48.5t113 -43t21.5 -103.5t-82 -125t-228.5 -197v-55z" />
<glyph unicode="&#x2462;" d="M33 339.5q-2 183.5 99.5 305t232.5 156.5t260 3.5t234.5 -154.5t101.5 -304.5t-121 -310t-320 -140.5q-199 -12 -342 124.5t-145 320zM66 351.5q4 -171.5 107.5 -281t223 -137t242.5 12t209 156.5t78 287t-135 289t-304.5 113t-301 -137t-119.5 -302.5zM281.5 199 q11.5 -39 58.5 -78t142.5 -43t150.5 37t70.5 92t-23.5 99.5t-160 60.5q137 23 158 88t-18 109.5t-109.5 60.5t-133 -2t-97.5 -66.5t-17.5 -76t49 -23.5t35.5 35t-19.5 37t-4 31.5t82 35t113 -13.5t52.5 -93.5t-58.5 -92t-157.5 -17.5v-24q148 4 195 -37t47 -87.5t-41 -82 t-119.5 -37.5t-117.5 35.5t-21.5 45t25.5 29t-19.5 37t-50.5 -2t-11.5 -56.5z" />
<glyph unicode="&#x2463;" d="M33 339.5q-2 183.5 99.5 305t232.5 156.5t260 3.5t234.5 -154.5t101.5 -304.5t-121 -310t-320 -140.5q-199 -12 -342 124.5t-145 320zM66 351.5q4 -171.5 107.5 -281t223 -137t242.5 12t209 156.5t78 287t-135 289t-304.5 113t-301 -137t-119.5 -302.5zM254 223h250v-86 q0 -35 -90 -35v-20h242v20q-82 0 -82 31v90h117v27h-117v395h-62l-258 -403v-19zM297 250l207 320v-320h-207z" />
<glyph unicode="&#x2464;" d="M33 339.5q-2 183.5 99.5 305t232.5 156.5t260 3.5t234.5 -154.5t101.5 -304.5t-121 -310t-320 -140.5q-199 -12 -342 124.5t-145 320zM66 351.5q4 -171.5 107.5 -281t223 -137t242.5 12t209 156.5t78 287t-135 289t-304.5 113t-301 -137t-119.5 -302.5zM291 195 q14 -39 64.5 -74t142.5 -39t160.5 60.5t54.5 164t-131 144.5t-238 -49l8 184q66 -8 148 -8t125 13.5t49 49t-39 16t-94 -25.5t-92 -4t-129 18l-11 -286h27q35 43 99.5 66.5t131 -5.5t80 -119t-43 -143t-129 -45t-105.5 37.5t-17.5 35t21.5 31t-21.5 39.5t-51 -4t-9.5 -57z " />
<glyph unicode="&#x2465;" d="M33 339.5q-2 183.5 99.5 305t232.5 156.5t260 3.5t234.5 -154.5t101.5 -304.5t-121 -310t-320 -140.5q-199 -12 -342 124.5t-145 320zM66 351.5q4 -171.5 107.5 -281t223 -137t242.5 12t209 156.5t78 287t-135 289t-304.5 113t-301 -137t-119.5 -302.5zM281 314.5 q4 -87.5 41 -156t133 -82.5t164.5 35t78 127t-41.5 133t-138.5 62.5t-165.5 -70.5q4 129 43 185.5t101.5 66.5t103.5 -17.5t11.5 -45t-16 -46.5t43 -31t43 21.5t2 56.5t-54.5 60.5t-111.5 29.5t-129 -41t-86 -121.5t-21.5 -166zM348 301q39 78 91.5 99.5t113 2t80 -76 t-5.5 -131t-80 -88t-100 0t-72 52.5t-27 141z" />
<glyph unicode="&#x2466;" d="M33 339.5q-2 183.5 99.5 305t232.5 156.5t260 3.5t234.5 -154.5t101.5 -304.5t-121 -310t-320 -140.5q-199 -12 -342 124.5t-145 320zM66 351.5q4 -171.5 107.5 -281t223 -137t242.5 12t209 156.5t78 287t-135 289t-304.5 113t-301 -137t-119.5 -302.5zM289 469h8l43 109 h344q-94 -86 -127.5 -133t-64.5 -132.5t-39 -142.5t11.5 -76.5t39 -13.5t16 49t12 125t56.5 172t131 152v59h-422z" />
<glyph unicode="&#x2467;" d="M33 336q-2 187 99.5 308.5t232.5 156.5t260 3.5t234.5 -154.5t101.5 -304.5t-121 -310.5t-316 -140.5t-344 121.5t-147 320zM66 351.5q4 -171.5 107.5 -281t223 -137t242.5 12t209 156.5t78 287t-135 289t-304.5 113t-301 -137t-119.5 -302.5zM279.5 189.5 q9.5 -52.5 72 -90t146.5 -35.5t142.5 39.5t66.5 88t-27 95.5t-133 61q94 27 111.5 89.5t-2 103.5t-51 64.5t-72.5 31.5t-88 -4t-82 -49t-41 -80t19.5 -88t99.5 -64q-102 -20 -136.5 -65t-25 -97.5zM340 207q4 51 31 84t117 45q102 -12 137 -60.5t19.5 -97.5t-58.5 -72.5 t-107.5 -19.5t-103.5 37t-35 84zM369 525.5q14 48.5 66.5 74t99.5 10t66.5 -52.5t19.5 -72.5t-25.5 -69t-107.5 -56.5q-86 35 -109.5 76.5t-9.5 90z" />
<glyph unicode="&#x2468;" d="M33 339.5q-2 183.5 99.5 305t232.5 156.5t260 3.5t234.5 -154.5t101.5 -304.5t-121 -310t-320 -140.5q-199 -12 -342 124.5t-145 320zM66 351.5q4 -171.5 107.5 -281t223 -137t242.5 12t209 156.5t78 287t-135 289t-304.5 113t-301 -137t-119.5 -302.5zM281.5 476.5 q-11.5 -97.5 58.5 -154t144.5 -51t109.5 32.5q33 26 35 29q0 1 -2 -48q-2 -51 -21.5 -95.5t-64.5 -66t-97.5 -20t-70.5 17.5t2 29.5t6 43t-47 23.5t-37.5 -35.5t15.5 -56.5q23 -27 68.5 -41t88.5 -12t82 14t76 51t52.5 93.5t17.5 121t-3.5 117.5t-45 101.5t-119.5 66 t-158 -23.5t-89.5 -136.5zM350 461q2 78 41 117t105 37t97.5 -54.5t33.5 -105.5t-13.5 -78t-49 -52.5t-90 -27.5t-91.5 43t-33 121z" />
<glyph unicode="&#x2469;" d="M33 339.5q-2 183.5 99.5 305t232.5 156.5t260 3.5t234.5 -154.5t101.5 -304.5t-121 -310t-320 -140.5q-199 -12 -342 124.5t-145 320zM66 351.5q4 -171.5 107.5 -281t223 -137t242.5 12t209 156.5t78 287t-135 289t-304.5 113t-301 -137t-119.5 -302.5zM258 82v20 q74 0 74 31v410q8 31 -74 31v16q70 0 109 51h16v-504q0 -35 70 -35v-20h-195zM500 424q4 76 31.5 136.5t70.5 72.5q47 12 87.5 -13.5t58.5 -86t20 -141t-8 -158.5t-51 -119t-92 -33t-80 62.5t-35 129t-2 150.5zM553 303q2 -80 21 -129t39 -61q23 -12 45 2t37.5 64.5 t15.5 120.5v139q0 69 -21.5 119.5t-56.5 48.5t-54.5 -52.5t-23.5 -111t-2 -140.5z" />
<glyph unicode="&#x2474;" d="M41 355.5q-2 85.5 37 175.5t89.5 140.5t70.5 62.5t22 6t-39 -52.5t-84 -144.5t-41 -187.5t39 -177.5t82 -143t43 -64.5t-49 31.5t-82 92t-60.5 113.5t-27.5 148zM367 66v20q105 0 102 55v461q1 31 -31 31h-47v15q70 -4 121 51h19v-558q0 -55 94 -55v-20h-258zM736 742 q-2 12 39 -21t80.5 -80t68.5 -121.5t29 -170t-39 -177.5t-78 -121.5t-66 -62.5t-31.5 -17t31 48.5t86 144.5t43 211t-43 183.5t-76.5 123t-43 60.5z" />
<glyph unicode="&#x2475;" d="M41 355.5q-2 85.5 37 175.5t89.5 140.5t70.5 62.5t22 6t-39 -52.5t-84 -144.5t-41 -187.5t39 -177.5t82 -143t43 -64.5t-49 31.5t-82 92t-60.5 113.5t-27.5 148zM340 62v43q168 242 213 312.5t41 143t-39 92t-70.5 15.5t-55 -31.5t-17.5 -41t15.5 -17.5t17.5 -23.5 t-13.5 -35t-43 -13.5t-35 33t12 76t64.5 68.5t105.5 15.5t99.5 -52.5t29 -95.5t-25.5 -88t-89.5 -123t-174 -227h219l47 86h11l-23 -137h-289zM736 742q-2 12 39 -21t80.5 -80t68.5 -121.5t29 -170t-39 -177.5t-78 -121.5t-66 -62.5t-31.5 -17t31 48.5t86 144.5t43 211 t-43 183.5t-76.5 123t-43 60.5z" />
<glyph unicode="&#x2476;" d="M41 355.5q-2 85.5 37 175.5t89.5 140.5t70.5 62.5t22 6t-39 -52.5t-84 -144.5t-41 -187.5t39 -177.5t82 -143t43 -64.5t-49 31.5t-82 92t-60.5 113.5t-27.5 148zM340 174q-8 37 9.5 52.5t41 8t27.5 -21.5t-2 -25.5t-17.5 -17.5t14 -41t80 -33t83.5 45t27.5 103.5 t-44.5 101.5t-141 49v15q62 0 109 41t47 113.5t-41 96t-82 4t-45 -43t10 -33.5t8 -31.5t-29.5 -23.5t-37 21.5t4 62.5t60.5 64.5t107.5 16t93.5 -66.5t2 -127.5t-117 -97.5l-4 -4q86 -20 129 -70.5t33 -118.5t-58.5 -103.5t-113 -35.5t-105.5 31.5t-49 68.5zM736 742 q-2 12 39 -21t80.5 -80t68.5 -121.5t29 -170t-39 -177.5t-78 -121.5t-66 -62.5t-31.5 -17t31 48.5t86 144.5t43 211t-43 183.5t-76.5 123t-43 60.5z" />
<glyph unicode="&#x2477;" d="M41 355.5q-2 85.5 37 175.5t89.5 140.5t70.5 62.5t22 6t-39 -52.5t-84 -144.5t-41 -187.5t39 -177.5t82 -143t43 -64.5t-49 31.5t-82 92t-60.5 113.5t-27.5 148zM324 223h196v-110q0 -27 -79 -27v-20h207v20q-74 0 -74 23v114h82v19h-82v457h-23l-227 -453v-23zM363 242 l157 317v-317h-157zM736 742q-2 12 39 -21t80.5 -80t68.5 -121.5t29 -170t-39 -177.5t-78 -121.5t-66 -62.5t-31.5 -17t31 48.5t86 144.5t43 211t-43 183.5t-76.5 123t-43 60.5z" />
<glyph unicode="&#x2478;" d="M41 355.5q-2 85.5 37 175.5t89.5 140.5t70.5 62.5t22 6t-39 -52.5t-84 -144.5t-41 -187.5t39 -177.5t82 -143t43 -64.5t-49 31.5t-82 92t-60.5 113.5t-27.5 148zM342 168q10 -39 43 -70.5t107 -31.5t123 62.5t41 162.5t-66.5 144.5t-111 33t-68 -25t-12.5 17.5l4 191 q86 -12 131 -9.5t78.5 6t43 37t-35.5 19.5t-109.5 -15.5t-130.5 9.5l-8 -336h8q78 102 142.5 74.5t72.5 -133t-19.5 -156t-76.5 -58.5t-78 29t-11.5 45t17.5 33.5t-27.5 35t-47 -8t-9.5 -56.5zM736 742q-2 12 39 -21t80.5 -80t68.5 -121.5t29 -170t-39 -177.5t-78 -121.5 t-66 -62.5t-31.5 -17t31 48.5t86 144.5t43 211t-43 183.5t-76.5 123t-43 60.5z" />
<glyph unicode="&#x2479;" d="M41 355.5q-2 85.5 37 175.5t89.5 140.5t70.5 62.5t22 6t-39 -52.5t-84 -144.5t-41 -187.5t39 -177.5t82 -143t43 -64.5t-49 31.5t-82 92t-60.5 113.5t-27.5 148zM332 291q-4 107 9.5 201t62.5 150.5t105.5 58.5t90 -23.5t39.5 -45t2 -37t-25.5 -25.5t-41 6t-12 43 t-21.5 45t-64.5 2t-62.5 -74.5t-23 -212.5q55 70 121 70t105 -54.5t39 -136.5t-39 -139t-121 -57t-121 61t-43 168zM398 236.5q4 -60.5 27.5 -99.5t57 -49t66.5 13.5t41 103.5t-6 138.5t-55 74.5t-82 -15.5t-49 -70.5q-4 -35 0 -95.5zM736 742q-2 12 39 -21t80.5 -80 t68.5 -121.5t29 -170t-39 -177.5t-78 -121.5t-66 -62.5t-31.5 -17t31 48.5t86 144.5t43 211t-43 183.5t-76.5 123t-43 60.5z" />
<glyph unicode="&#x247a;" d="M41 355.5q-2 85.5 37 175.5t89.5 140.5t70.5 62.5t22 6t-39 -52.5t-84 -144.5t-41 -187.5t39 -177.5t82 -143t43 -64.5t-49 31.5t-82 92t-60.5 113.5t-27.5 148zM338 553q-6 2 1.5 43t15.5 103h301v-35q-47 -82 -91.5 -175.5t-62.5 -189.5t-18 -154.5t-17.5 -70.5t-41 8 t-15.5 74.5t41 150t72 170t90 175.5h-222q-23 -47 -35 -74t-18 -25zM736 742q-2 12 39 -21t80.5 -80t68.5 -121.5t29 -170t-39 -177.5t-78 -121.5t-66 -62.5t-31.5 -17t31 48.5t86 144.5t43 211t-43 183.5t-76.5 123t-43 60.5z" />
<glyph unicode="&#x247b;" d="M41 355.5q-2 85.5 37 175.5t89.5 140.5t70.5 62.5q23 16 25.5 10t-42.5 -56.5t-86 -146.5t-39 -185.5t39 -177.5t82 -143t43 -64.5t-49 31.5t-82 92t-60.5 113.5t-27.5 148zM338 203.5q6 -62.5 47 -100t107.5 -37.5t113 43t52.5 100t-23.5 106t-111.5 76 q78 35 101.5 95.5t10 105.5t-44.5 68.5t-60.5 31t-64.5 0t-66.5 -39t-39 -86t15.5 -99.5t90 -80q-70 -31 -101.5 -76t-25.5 -107.5zM391 211q0 47 21.5 86t83.5 82q78 -47 92 -84t8 -86t-33.5 -84t-72.5 -35t-72 37t-27 84zM412 582q10 47 47 74.5t74 0t47 -70.5t-6 -90 t-78 -94q-62 39 -78 86t-6 94zM728.5 758q-1.5 12 43 -23.5t84 -88t68.5 -127t29 -170t-39 -177.5t-78 -121.5t-66 -62.5t-31.5 -17t31 48.5t86 144.5t43 211t-43 181.5t-80.5 131t-46.5 70.5z" />
<glyph unicode="&#x247c;" d="M41 355.5q-2 85.5 37 175.5t89.5 140.5t70.5 62.5t22 6t-39 -52.5t-84 -144.5t-41 -187.5t39 -177.5t82 -143t43 -64.5t-49 31.5t-82 92t-60.5 113.5t-27.5 148zM340 519.5q8 85.5 54.5 134.5t113 47t103.5 -47t45 -115t6 -152t-11.5 -150.5t-33 -100t-53 -47 t-76.5 -19.5t-82 16q-31 20 -42.5 45t-8 42.5t23 25.5t39.5 -3.5t20 -27.5t-12 -23.5t-6 -23.5t41 -21.5t70 10t49 54.5t18 92t4 82t-8 19.5t-39.5 -25.5t-82 -14t-95.5 59t-37 142.5zM395 496q0 -70 35 -113t70 -39t60.5 27.5t33.5 56.5t6 95.5t-23.5 107.5t-70.5 47 t-80 -53t-31 -129zM736 742q-2 12 39 -21t80.5 -80t68.5 -121.5t29 -170t-39 -177.5t-78 -121.5t-66 -62.5t-31.5 -17t31 48.5t86 144.5t43 211t-43 183.5t-76.5 123t-43 60.5z" />
<glyph unicode="&#x247d;" d="M41 355.5q-2 85.5 37 175.5t89.5 140.5t70.5 62.5t22 6t-39 -52.5t-84 -144.5t-41 -187.5t39 -177.5t82 -143t43 -64.5t-49 31.5t-82 92t-60.5 113.5t-27.5 148zM254 74v20q70 0 70 35v476q0 27 -70 28v19q62 -4 105 47h16v-574q-8 -31 66 -31v-20h-187zM486.5 277.5 q9.5 -101.5 44.5 -148.5t86 -51t94 41t51 140.5t2 189.5t-25.5 150.5t-62.5 76.5q-39 23 -74.5 15.5t-70.5 -50.5t-44.5 -152.5t0 -211zM541 304.5q-2 74.5 0 170t27.5 144.5t62.5 45t52.5 -49t19.5 -138.5t2 -171.5t-14 -121.5t-39 -66.5q-23 -23 -52.5 -5.5t-43 68 t-15.5 125zM736 742q-2 12 39 -21t80.5 -80t68.5 -121.5t29 -170t-39 -177.5t-78 -121.5t-66 -62.5t-31.5 -17t31 48.5t86 144.5t43 211t-43 183.5t-76.5 123t-43 60.5z" />
<glyph unicode="&#x247e;" d="M41 355.5q-2 85.5 37 175.5t89.5 140.5t70.5 62.5t22 6t-39 -52.5t-84 -144.5t-41 -187.5t39 -177.5t82 -143t43 -64.5t-49 31.5t-82 92t-60.5 113.5t-27.5 148zM254 641q74 0 74 -32v-488q0 -31 -70 -31v-20h191v20q-70 0 -66 31v594h-20q-43 -59 -109 -55v-19zM551 641 q78 0 74 -32v-488q0 -31 -70 -31v-20h191v20q-70 0 -66 31v594h-20q-43 -59 -109 -55v-19zM736 742q-2 12 39 -21t80.5 -80t68.5 -121.5t29 -170t-39 -177.5t-78 -121.5t-66 -62.5t-31.5 -17t31 48.5t86 144.5t43 211t-43 183.5t-76.5 123t-43 60.5z" />
<glyph unicode="&#x247f;" d="M41 355.5q-2 85.5 37 175.5t89.5 140.5t70.5 62.5t22 6t-39 -52.5t-84 -144.5t-41 -187.5t39 -177.5t82 -143t43 -64.5t-49 31.5t-82 92t-60.5 113.5t-27.5 148zM254 641q74 0 74 -32v-484q0 -35 -70 -35v-20h191v20q-70 0 -70 31v594h-16q-43 -59 -109 -55v-19zM500 70 h230l28 137h-16l-47 -94h-156q70 137 127 242.5t74.5 142.5t25 84t-17.5 88t-84 49t-96 -15.5t-54.5 -68.5t-9.5 -76.5t33 -33.5t37 12t8 31.5t-19.5 21.5t-11.5 31t19.5 48.5t43 25.5t54.5 -11.5t29 -78t-35 -152.5t-162 -344v-39zM736 742q-2 12 39 -21t80.5 -80 t68.5 -121.5t29 -170t-39 -177.5t-78 -121.5t-66 -62.5t-31.5 -17t31 48.5t86 144.5t43 211t-43 183.5t-76.5 123t-43 60.5z" />
<glyph unicode="&#x2480;" d="M41 355.5q-2 85.5 37 175.5t89.5 140.5t70.5 62.5t22 6t-39 -52.5t-84 -144.5t-41 -187.5t39 -177.5t82 -143t43 -64.5t-49 31.5t-82 92t-60.5 113.5t-27.5 148zM254 641v19q66 -4 109 55h16v-594q0 -31 70 -31v-20h-191v20q74 0 70 31v488q4 31 -74 32zM496 162 q-8 29 8 47t39 8t23 -25.5t-13.5 -25.5t6 -39t60.5 -27t64.5 45t23.5 101.5t-27.5 105t-120.5 54.5v20q62 -4 97 33t35 117t-33 101.5t-66 4t-39 -47t9.5 -37t9.5 -29t-25.5 -25.5t-35 17.5t2 66.5t53 70.5t88 11.5t80 -70.5t4 -127t-113.5 -93.5v-4q78 -20 111.5 -74.5 t25.5 -119t-47 -105.5t-94 -41t-86 29.5t-39 58.5zM736 742q-2 12 39 -21t80.5 -80t68.5 -121.5t29 -170t-39 -177.5t-78 -121.5t-66 -62.5t-31.5 -17t31 48.5t86 144.5t43 211t-43 183.5t-76.5 123t-43 60.5z" />
<glyph unicode="&#x2481;" d="M41 355.5q-2 85.5 37 175.5t89.5 140.5t70.5 62.5t22 6t-39 -52.5t-84 -144.5t-41 -187.5t39 -177.5t82 -143t43 -64.5t-49 31.5t-82 92t-60.5 113.5t-27.5 148zM254 641v19q66 -4 109 55h16v-594q-4 -31 70 -31v-20h-191v20q70 0 70 31v488q4 31 -74 32zM480 227v27 l196 465h19v-465h63v-27h-63v-110q0 -27 55 -27v-20h-156v20q55 0 54 27v110h-168zM512 254h136v320zM736 742q-2 12 39 -21t80.5 -80t68.5 -121.5t29 -170t-39 -177.5t-78 -121.5t-66 -62.5t-31.5 -17t31 48.5t86 144.5t43 211t-43 183.5t-76.5 123t-43 60.5z" />
<glyph unicode="&#x2482;" d="M41 355.5q-2 85.5 37 175.5t89.5 140.5t70.5 62.5t22 6t-39 -52.5t-84 -144.5t-41 -187.5t39 -177.5t82 -143t43 -64.5t-49 31.5t-82 92t-60.5 113.5t-27.5 148zM254 641v19q66 0 105 55h20v-594q-4 -31 70 -31v-20h-191v20q74 0 70 31v488q0 31 -74 32zM498 156.5 q-10 31.5 9.5 47t43 3.5t21.5 -29.5t-13.5 -29t2 -33t58.5 -19.5t66.5 52.5t17.5 156t-43 123t-72 -4t-57 -64.5h-8l8 364q59 -16 102 -14t66.5 13.5t15.5 -19.5t-39 -35t-56.5 -2t-60.5 6l-8 -246q74 66 142.5 25t72.5 -152t-35.5 -168t-102 -61t-91.5 25.5t-39 61z M736 742q-2 12 39 -21t80.5 -80t68.5 -121.5t29 -170t-39 -177.5t-78 -121.5t-66 -62.5t-31.5 -17t31 48.5t86 144.5t43 211t-43 183.5t-76.5 123t-43 60.5z" />
<glyph unicode="&#x2483;" d="M41 355.5q-2 85.5 37 175.5t89.5 140.5t70.5 62.5t22 6t-39 -52.5t-84 -144.5t-41 -187.5t39 -177.5t82 -143t43 -64.5t-49 31.5t-82 92t-60.5 113.5t-27.5 148zM254 641v15q66 0 109 59h16v-594q0 -31 70 -31v-20h-191v20q70 0 70 31v488q0 31 -74 32zM496 314.5 q0 99.5 10 185.5t45 142.5t82 66.5t78 -19.5t35 -64.5t-19.5 -45t-41 9.5t0 37.5t0 45t-54.5 15.5t-60.5 -81.5t-23.5 -211q43 55 93.5 49t82 -57t29.5 -133t-37 -135t-99.5 -49t-92 74.5t-27.5 170zM547 301q4 -105 19.5 -152t41 -59t53 13.5t33 103.5t-4 136.5t-41 76.5 t-58.5 -13.5t-43 -105.5zM736 742q-2 12 39 -21t80.5 -80t68.5 -121.5t29 -170t-39 -177.5t-78 -121.5t-66 -62.5t-31.5 -17t31 48.5t86 144.5t43 211t-43 183.5t-76.5 123t-43 60.5z" />
<glyph unicode="&#x2484;" d="M41 355.5q-2 85.5 37 175.5t89.5 140.5t70.5 62.5t22 6t-39 -52.5t-84 -144.5t-41 -187.5t39 -177.5t82 -143t43 -64.5t-49 31.5t-82 92t-60.5 113.5t-27.5 148zM254 633v19q66 -4 109 55h16v-594q0 -31 70 -31v-20h-191v20q70 0 70 31v489q0 31 -74 31zM492 559l20 148 h234v-51q-31 -59 -62.5 -137t-56.5 -177.5t-27 -189.5t-21.5 -91.5t-35.5 23.5t0 87.5t37.5 139t50.5 144.5t84 205h-164l-47 -101h-12zM736 742q-2 12 39 -21t80.5 -80t68.5 -121.5t29 -170t-39 -177.5t-78 -121.5t-66 -62.5t-31.5 -17t31 48.5t86 144.5t43 211t-43 183.5 t-76.5 123t-43 60.5z" />
<glyph unicode="&#x2485;" d="M41 355.5q-2 85.5 37 175.5t89.5 140.5t70.5 62.5t22 6t-39 -52.5t-84 -144.5t-41 -187.5t39 -177.5t82 -143t43 -64.5t-49 31.5t-82 92t-60.5 113.5t-27.5 148zM254 641v15q66 0 109 59h16v-594q0 -31 70 -31v-20h-191v20q74 0 70 31v488q0 31 -74 32zM492 218.5 q0 54.5 19.5 103.5t86.5 84q-55 23 -76.5 74t-15.5 104t35 88t58.5 43t49 0t45 -31.5t39 -76t-4.5 -117t-80 -84.5q62 -23 86 -81.5t16 -123t-45 -100t-88 -33.5t-88 49t-37 101.5zM543 240q0 -45 15.5 -88t47 -56.5t58.5 18t33 82t-3.5 99t-64.5 107.5q-59 -47 -72.5 -82 t-13.5 -80zM558.5 600q-7.5 -41 2 -86t60.5 -104q43 35 55 64.5t12 74.5t-8 84t-39.5 56.5t-53 -15.5t-29 -74zM736 742q-2 12 39 -21t80.5 -80t68.5 -121.5t29 -170t-39 -177.5t-78 -121.5t-66 -62.5t-31.5 -17t31 48.5t86 144.5t43 211t-43 183.5t-76.5 123t-43 60.5z" />
<glyph unicode="&#x2486;" d="M41 355.5q-2 85.5 37 175.5t89.5 140.5t70.5 62.5t22 6t-39 -52.5t-84 -144.5t-41 -187.5t39 -177.5t82 -143t43 -64.5t-49 31.5t-82 92t-60.5 113.5t-27.5 148zM254 641v19q66 -4 109 55h16v-594q-4 -31 70 -31v-20h-191v20q70 0 70 31v488q4 31 -74 32zM494 527.5 q2 89.5 41 138.5t97.5 47t90 -53t31.5 -129v-158q0 -80 -2 -127t-17.5 -88t-41 -62.5t-66.5 -25t-72 19.5t-41 50.5t-0.5 45t33 17.5t31.5 -17.5t-5.5 -31t-8 -31.5t33 -29.5t59 12t39 76t9.5 91.5t2 70.5t-4 21.5t-31 -27.5t-68.5 -15.5t-76.5 59t-33 146.5zM539 508 q4 -70 29.5 -115t56.5 -41.5t52.5 29t23.5 59t2 96t-19.5 109t-60.5 45t-62.5 -54.5t-21.5 -127zM736 742q-2 12 39 -21t80.5 -80t68.5 -121.5t29 -170t-39 -177.5t-78 -121.5t-66 -62.5t-31.5 -17t31 48.5t86 144.5t43 211t-43 183.5t-76.5 123t-43 60.5z" />
<glyph unicode="&#x2487;" d="M41 355.5q-2 85.5 37 175.5t89.5 140.5t70.5 62.5t22 6t-39 -52.5t-84 -144.5t-41 -187.5t39 -177.5t82 -143t43 -64.5t-49 31.5t-82 92t-60.5 113.5t-27.5 148zM238 70v51q125 246 156.5 322.5t35.5 139t-21.5 93.5t-57 23t-45 -37t-13.5 -48.5t11.5 -21.5t15.5 -19.5 t-7.5 -29.5t-35 -8t-27.5 33.5t9.5 68.5t47 64.5t84 19.5t78 -45t18 -88t-27.5 -86t-68.5 -129t-132.5 -260h160l39 90h12l-20 -133h-211zM512 307q4 -84 33 -162.5t80 -80.5t82 70.5t37 133t6 158t-19.5 170t-50.5 95.5q-27 27 -70.5 17.5t-68.5 -93.5t-29 -154t0 -154z M560.5 347.5q-1.5 66.5 2 140.5t21.5 142.5t49 68.5t46.5 -66.5t15.5 -148.5v-154q0 -72 -11.5 -134.5t-31.5 -93.5t-45 -8t-35 105t-11.5 148.5zM736 742q-2 12 39 -21t80.5 -80t68.5 -121.5t29 -170t-39 -177.5t-78 -121.5t-66 -62.5t-31.5 -17t31 48.5t86 144.5t43 211 t-43 183.5t-76.5 123t-43 60.5z" />
<glyph unicode="&#x2488;" d="M375 656v16q102 0 160 58h16v-585q-4 -39 94 -40v-19h-250v19q90 0 93 36v480q0 39 -113 35zM830 138.5q-2 21.5 8 39t31.5 27.5t45 2t35 -29.5t7.5 -44.5q-4 -20 -23.5 -35.5t-45 -13.5t-41 17.5t-17.5 37z" />
<glyph unicode="&#x2489;" d="M320 78v51q199 223 252 297t55 150t-43 103.5t-90 19.5t-68.5 -31t-27 -37t14 -23.5t21.5 -29t-14 -39t-51 -14t-41 44.5t19.5 76.5t82 62.5t129 15.5t115.5 -50.5t41 -96t-27.5 -97.5t-105.5 -121t-211 -226.5h262l55 78h11l-27 -133h-352zM830 138.5q-2 21.5 8 39 t31.5 27.5t45 2t35 -29.5t7.5 -44.5q-4 -20 -23.5 -35.5t-45 -13.5t-41 17.5t-17.5 37z" />
<glyph unicode="&#x248a;" d="M334 185.5q-6 37.5 17.5 53t47 7.5t29.5 -29.5t0 -33t-10 -23.5t23.5 -31.5t88 -19.5t101.5 45t33 111.5t-58.5 101.5t-175.5 47v12q70 4 130.5 39t60.5 113t-54.5 103.5t-99.5 2t-39 -35t11.5 -27.5t-4 -35.5t-37 -23t-45 18t2 58.5t76 66t127 19.5t113.5 -56.5 t21.5 -121t-142.5 -121v-4q105 -16 150 -66.5t39 -119t-68.5 -113.5t-152 -45t-134.5 35t-51 72.5zM826 138.5q-2 21.5 8 39t31.5 27.5t45 2t35 -29.5t7.5 -44.5q-4 -20 -23.5 -35.5t-45 -13.5t-41 17.5t-17.5 37z" />
<glyph unicode="&#x248b;" d="M289 227v35l328 461h20v-465h105v-31h-105v-94q0 -43 101 -39v-24h-277v24q97 0 101 43v90h-273zM328 258h234v328zM830 138.5q-2 21.5 8 39t31.5 27.5t45 2t35 -29.5t7.5 -44.5q-4 -20 -23.5 -35.5t-45 -13.5t-41 17.5t-17.5 37z" />
<glyph unicode="&#x248c;" d="M318 183.5q-2 35.5 19.5 49t49 4t29.5 -31t-8 -35.5t15.5 -41t88 -23.5t94 58.5t27.5 148.5t-80 134.5t-174 -60h-20l12 347q121 -20 195.5 -15.5t115.5 14t29 -21.5t-57 -37t-95.5 -6t-148.5 12l-8 -239q109 86 209 29.5t102 -168t-56.5 -166t-142.5 -58.5t-139 33 t-57 72.5zM830 142.5q-2 21.5 8 39t31.5 27.5t45 2t35 -29.5t7.5 -44.5q-4 -20 -23.5 -35.5t-45 -13.5t-41 17.5t-17.5 37z" />
<glyph unicode="&#x248d;" d="M330 353.5q2 126.5 25.5 201t70.5 115.5t111.5 43t109 -21.5t54.5 -55t-13.5 -53t-53 -7.5t-19.5 45t-27 49t-82 -7.5t-70.5 -82.5t-25.5 -174q62 62 138.5 60.5t125.5 -58t45 -142.5t-59 -141t-150.5 -49t-138.5 78.5t-41 199zM410 340q-4 -113 17.5 -166t60.5 -68.5 t86 12t62.5 103.5t0 134.5t-62.5 76t-94 -9.5t-70 -82zM830 142.5q-2 21.5 8 39t31.5 27.5t45 2t35 -29.5t7.5 -44.5q-4 -20 -23.5 -35.5t-45 -13.5t-41 17.5t-17.5 37z" />
<glyph unicode="&#x248e;" d="M308.5 551q-7.5 4 4 43t31.5 129h386v-63q-102 -94 -144.5 -174t-52.5 -158t-10 -152t-13.5 -90t-44.5 9.5t-27.5 88t33 150.5t74.5 166t135 168h-293q-27 -39 -49 -80t-29.5 -37zM830 138.5q-2 21.5 8 39t31.5 27.5t45 2t35 -29.5t7.5 -44.5q-4 -20 -23.5 -35.5 t-45 -13.5t-41 17.5t-17.5 37z" />
<glyph unicode="&#x248f;" d="M312.5 203q-11.5 55 21.5 107.5t111 99.5q-59 27 -90 78t-21 102t51 86t84 44.5t84 2t78 -35t48.5 -84t-21.5 -103.5t-99 -78q86 -43 123 -96t21.5 -113.5t-62.5 -97.5t-123.5 -43t-135 35t-70 96zM355.5 234.5q-3.5 -50.5 45 -90t99.5 -43t90 27.5t41 78t-31.5 90 t-115.5 90q-51 -23 -88 -62.5t-40.5 -90zM412 611q-10 -45 8 -84t96 -82q86 31 109 88t-2 100t-70 62.5t-88 -10t-53 -74.5zM830 142.5q-2 21.5 8 39t31.5 27.5t45 2t35 -29.5t7.5 -44.5q-4 -20 -23.5 -35.5t-45 -13.5t-41 17.5t-17.5 37z" />
<glyph unicode="&#x2490;" d="M334 525.5q2 91.5 53 142.5t133 55t130.5 -41t56.5 -113.5t6 -174t-13.5 -160t-35 -84t-61 -47t-80.5 -21.5t-87.5 9.5t-68 45t-14 59t41 27.5t41 -19.5t2 -37.5t0 -29.5t35 -19.5t72.5 6t66.5 47t25.5 76t4 145q-20 -27 -55 -45t-93.5 -16t-109.5 53t-49 142.5zM395 500 q8 -82 48.5 -113.5t87.5 -23.5t76.5 31.5t31.5 54.5t0 80t-21.5 104t-82 58.5t-103.5 -51t-37 -140.5zM830 142.5q-2 21.5 8 39t31.5 27.5t45 2t35 -29.5t7.5 -44.5q-4 -20 -23.5 -35.5t-45 -13.5t-41 17.5t-17.5 37z" />
<glyph unicode="&#x2491;" d="M133 648v20q90 -4 137 55h19v-594q0 -31 82 -31v-20h-223v20q86 -4 82 35v480q4 39 -97 35zM432 486.5q2 95.5 39 154t89.5 76t99.5 -5.5t74.5 -80t31.5 -152.5t-6 -195t-57 -154.5t-109.5 -53t-107.5 51t-50.5 156.5t-3.5 203zM496 336q0 -86 17.5 -146.5t51 -78.5 t64.5 2q35 23 52.5 80t17.5 149v162q0 70 -25.5 130.5t-72 60.5t-76 -56.5t-29.5 -136.5v-166zM830 138.5q-2 21.5 8 39t31.5 27.5t45 2t35 -29.5t7.5 -44.5q-4 -20 -23.5 -35.5t-45 -13.5t-41 17.5t-17.5 37z" />
<glyph unicode="&#x2492;" d="M133 648v20q90 -4 140 55h16v-594q-4 -31 82 -31v-20h-223v20q82 0 82 35v480q4 39 -97 35zM477 648v20q90 -4 140 55h16v-594q0 -31 82 -31v-20h-223v20q82 0 82 35v480q0 35 -97 35zM830 138.5q-2 21.5 8 39t31.5 27.5t45 2t35 -29.5t7.5 -44.5q-4 -20 -23.5 -35.5 t-45 -13.5t-41 17.5t-17.5 37z" />
<glyph unicode="&#x2493;" d="M133 648v20q90 -4 137 55h19v-590q-4 -35 82 -35v-20h-223v20q86 0 82 35v480q4 35 -97 35zM441 78v67q121 164 178 249.5t70.5 148t-14 111.5t-76 47t-72 -41t-10 -47t19.5 -25.5t-7.5 -33t-35 -17.5t-35.5 15.5t-12 43t29.5 64.5t80 58.5t123 -5.5t84 -101.5 t-27.5 -137t-113 -144.5t-154 -193h219l50 97h12l-20 -156h-289zM830 138.5q-2 21.5 8 39t31.5 27.5t45 2t35 -29.5t7.5 -44.5q-4 -20 -23.5 -35.5t-45 -13.5t-41 17.5t-17.5 37z" />
<glyph unicode="&#x2494;" d="M133 648v20q90 -4 140 55h20v-590q-8 -39 78 -35v-20h-223v20q86 -4 86 35v480q0 39 -101 35zM435.5 178q-5.5 33 12 52.5t45 9.5t27.5 -33t-18 -33t7.5 -37.5t78.5 -27.5t78 45t25 103.5t-37 103.5t-138 57v12q59 4 103.5 41t48.5 107t-41 95.5t-84 4t-37 -33 t17.5 -23.5t7.5 -37t-37 -27t-41 23t6 64.5t60.5 62.5t101.5 11.5t94 -64t11.5 -127t-148.5 -101.5q98 -12 145 -68.5t37 -125t-51 -107.5t-111.5 -43t-113.5 29.5t-48.5 66.5zM830 138.5q-2 21.5 8 39t31.5 27.5t45 2t35 -29.5t7.5 -44.5q-4 -20 -23.5 -35.5t-45 -13.5 t-41 17.5t-17.5 37z" />
<glyph unicode="&#x2495;" d="M133 648v20q90 -4 140 55h20v-590q0 -35 78 -35v-20h-223v20q86 0 86 35v480q0 35 -101 35zM398 230v20l317 473h8v-465h70v-28h-70v-105q0 -39 70 -35v-20h-227v20q90 -4 90 35v105h-258zM434 258h222v328zM830 141q-2 23 11.5 42.5t33.5 25.5t39.5 -2t31 -23.5 t11.5 -37t-15.5 -41t-42.5 -19.5t-47 16t-22 39z" />
<glyph unicode="&#x2496;" d="M133 656v20q90 0 140 54h16v-593q0 -31 82 -32v-19h-223v19q86 -4 82 36v484q4 35 -97 31zM439.5 172q-9.5 35 8 54.5t43 11.5t31 -27.5t-10 -39t12 -44.5t76 -19.5t72 62.5t18 152.5t-72 128.5t-137.5 -68h-15l12 351q51 -16 88 -17.5t80 0.5t70 13.5t23 -15.5t-31 -37 t-76 -8t-119 10l-12 -235q98 74 178 15.5t80 -156t-43 -158t-113.5 -64.5t-111.5 25.5t-50.5 64.5zM828 148q4 23 15.5 39t31.5 22t39.5 -2t31 -25.5t9.5 -41t-19.5 -41t-45 -15.5t-45 21.5t-17.5 42.5z" />
<glyph unicode="&#x2497;" d="M133 648v20q90 -4 140 55h16v-590q4 -35 82 -35v-20h-223v20q86 0 82 39v480q4 31 -97 31zM437.5 304.5q-3.5 101.5 8 201t62.5 158.5t107.5 57t89.5 -25.5t39 -57t-17.5 -49t-47 2t-9.5 43t-17.5 49t-66.5 6t-62.5 -84t-23.5 -195.5q47 66 111.5 60.5t101.5 -56.5 t35 -138.5t-51 -146.5t-121 -51t-103.5 66.5t-35 160zM496 340q4 -137 21.5 -178t51 -54.5t66.5 10t44.5 105.5t0 138.5t-48.5 74t-76 -9.5t-59 -86zM830 138.5q-2 21.5 8 39t31.5 27.5t45 2t35 -29.5t7.5 -44.5q-4 -20 -23.5 -35.5t-45 -13.5t-41 17.5t-17.5 37z" />
<glyph unicode="&#x2498;" d="M133 648v20q90 -4 140 55h20v-586q-4 -39 78 -39v-20h-223v20q86 0 86 39v476q0 35 -101 35zM439.5 553q-9.5 2 4 45t25.5 125h281v-47q-43 -82 -78 -168t-51 -180t-16 -162t-13.5 -82t-35 0t-17.5 80t35 164t60.5 172t72.5 168h-203q-23 -39 -39 -78t-25.5 -37z M830 138.5q-2 21.5 8 39t31.5 27.5t45 2t35 -29.5t7.5 -44.5q-4 -20 -23.5 -35.5t-45 -13.5t-41 17.5t-17.5 37z" />
<glyph unicode="&#x2499;" d="M133 648v20q90 -4 140 55h16v-586q-4 -39 82 -39v-20h-223v20q82 0 82 39v476q0 39 -97 35zM435.5 220.5q-5.5 64.5 25.5 111.5t101 78q-66 35 -89.5 82t-15.5 103.5t39 90t66.5 41t64.5 0t60.5 -33t45 -72.5t-6 -109.5t-105.5 -97.5q82 -27 111.5 -78t23.5 -109.5 t-53 -103.5t-113.5 -45t-107.5 39t-46.5 103.5zM488 228.5q0 -48.5 27.5 -86t72.5 -37.5t72.5 35.5t33 86t-8 89.5t-91.5 86q-62 -43 -84 -84t-22 -89.5zM510 611q-10 -49 6 -95.5t78 -89.5q62 51 78 97.5t6 91.5t-47 72.5t-74 0t-47 -76.5zM830 138.5q-2 21.5 8 39 t31.5 27.5t45 2t35 -29.5t7.5 -44.5q-4 -20 -23.5 -35.5t-45 -13.5t-41 17.5t-17.5 37z" />
<glyph unicode="&#x249a;" d="M133 648v20q90 -4 137 55h19v-590q4 -35 82 -35v-20h-223v20q86 0 82 39v472q0 39 -97 39zM445 527.5q4 93.5 49 146.5t113.5 49t103.5 -53t37 -109.5t2 -164t-10 -166t-27.5 -90t-46.5 -43t-68 -19.5t-72.5 8t-55 45t-11.5 60.5t37 23.5t31 -27.5t-7.5 -27.5t-4 -23.5 t37 -31t66.5 4t53 60.5t19.5 94t3.5 131q-16 -23 -45 -45t-79.5 -18t-90 53t-35.5 142.5zM500 504q4 -86 33 -121t66.5 -27.5t57 31t29 57t7.5 96t-27 111t-70 44.5t-72.5 -54.5t-23.5 -136.5zM828 146.5q0 25.5 13.5 41t33.5 21.5t39.5 -2t31 -25.5t7.5 -40.5 q0 -23 -19.5 -41t-43 -16t-43 19.5t-19.5 43z" />
<glyph unicode="&#x249b;" d="M94 78v39q164 250 207 318.5t45 144.5t-29.5 103.5t-72.5 17.5t-58.5 -35t-17.5 -39t13.5 -18t19.5 -23.5t-9.5 -37t-43 -13.5t-33.5 37t15.5 72.5t59 64.5t100 19.5t95.5 -50.5t25 -101.5t-31.5 -96t-82 -119.5t-167.5 -232h215l51 94h7l-27 -145h-281zM443 295 q-2 100 0 193.5t35 156t84 74.5q51 16 94 -7.5t68.5 -82.5t25.5 -150.5t-2 -185.5t-39 -152.5t-107.5 -60.5t-113.5 56.5t-45 158.5zM496 340q0 -86 16 -143t47 -84q35 -23 72 2.5t50.5 82t13.5 136.5v162q0 82 -27 142.5t-72 62.5t-72.5 -62.5t-27.5 -138.5v-160z M830 138.5q-2 21.5 8 39t31.5 27.5t45 2t35 -29.5t7.5 -44.5q-4 -20 -23.5 -35.5t-45 -13.5t-41 17.5t-17.5 37z" />
<glyph unicode="&#x2500;" d="M0 320v75h996v-75h-996z" />
<glyph unicode="&#x2501;" d="M0 297v121h996v-121h-996z" />
<glyph unicode="&#x2502;" d="M461 -141v996h74v-996h-74z" />
<glyph unicode="&#x2503;" d="M438 -141v996h121v-996h-121z" />
<glyph unicode="&#x2504;" d="M0 320v75h242v-75h-242zM371 320v75h246v-75h-246zM746 320v75h250v-75h-250z" />
<glyph unicode="&#x2505;" d="M0 297v121h246v-121h-246zM375 297v121h246v-121h-246zM750 297v121h246v-121h-246z" />
<glyph unicode="&#x2506;" d="M461 105h74v-246h-74v246zM461 234v246h74v-246h-74zM461 609v246h74v-246h-74z" />
<glyph unicode="&#x2507;" d="M438 105h121v-246h-121v246zM438 234v246h121v-246h-121zM438 609v246h121v-246h-121z" />
<glyph unicode="&#x2508;" d="M0 320v75h207v-75h-207zM266 320v75h207v-75h-207zM523 320v75h207v-75h-207zM789 320v75h207v-75h-207z" />
<glyph unicode="&#x2509;" d="M0 297v121h207v-121h-207zM266 297v121h207v-121h-207zM523 297v121h207v-121h-207zM789 297v121h207v-121h-207z" />
<glyph unicode="&#x250a;" d="M461 66h74v-207h-74v207zM461 125v207h74v-207h-74zM461 383v207h74v-207h-74zM461 648v207h74v-207h-74z" />
<glyph unicode="&#x250b;" d="M438 66h121v-207h-121v207zM438 125v207h121v-207h-121zM438 383v207h121v-207h-121zM438 648v207h121v-207h-121z" />
<glyph unicode="&#x250c;" d="M461 -141v536h535v-75h-461v-461h-74z" />
<glyph unicode="&#x250d;" d="M461 -141v559h535v-121h-461v-438h-74z" />
<glyph unicode="&#x250e;" d="M438 -141v536h558v-75h-437v-461h-121z" />
<glyph unicode="&#x250f;" d="M438 -141v559h558v-121h-437v-438h-121z" />
<glyph unicode="&#x2510;" d="M0 320v75h535v-536h-74v461h-461z" />
<glyph unicode="&#x2511;" d="M0 297v121h535v-559h-74v438h-461z" />
<glyph unicode="&#x2512;" d="M0 320v75h559v-536h-121v461h-438z" />
<glyph unicode="&#x2513;" d="M0 297v121h559v-559h-121v438h-438z" />
<glyph unicode="&#x2514;" d="M461 320v535h74v-460h461v-75h-535z" />
<glyph unicode="&#x2515;" d="M461 297v558h74v-437h461v-121h-535z" />
<glyph unicode="&#x2516;" d="M438 320v535h121v-460h437v-75h-558z" />
<glyph unicode="&#x2517;" d="M438 297v558h121v-437h437v-121h-558z" />
<glyph unicode="&#x2518;" d="M0 320v75h461v460h74v-535h-535z" />
<glyph unicode="&#x2519;" d="M0 297v121h461v437h74v-558h-535z" />
<glyph unicode="&#x251a;" d="M0 320v75h438v460h121v-535h-559z" />
<glyph unicode="&#x251b;" d="M0 297v121h438v437h121v-558h-559z" />
<glyph unicode="&#x251c;" d="M461 -141v996h74v-460h461v-75h-461v-461h-74z" />
<glyph unicode="&#x251d;" d="M461 -141v996h74v-437h461v-121h-461v-438h-74z" />
<glyph unicode="&#x251e;" d="M438 320v535h121v-460h437v-75h-461v-461h-74v461h-23z" />
<glyph unicode="&#x251f;" d="M438 -141v532h23v464h74v-460h461v-75h-437v-461h-121z" />
<glyph unicode="&#x2520;" d="M438 -141v996h121v-460h437v-75h-437v-461h-121z" />
<glyph unicode="&#x2521;" d="M438 297v558h121v-437h437v-121h-461v-438h-74v438h-23z" />
<glyph unicode="&#x2522;" d="M438 -141v555h23v441h74v-437h461v-121h-437v-438h-121z" />
<glyph unicode="&#x2523;" d="M438 -141v996h121v-437h437v-121h-437v-438h-121z" />
<glyph unicode="&#x2524;" d="M0 320v75h461v460h74v-996h-74v461h-461z" />
<glyph unicode="&#x2525;" d="M0 297v121h461v437h74v-996h-74v438h-461z" />
<glyph unicode="&#x2526;" d="M0 320v75h438v460h121v-535h-24v-461h-74v461h-461z" />
<glyph unicode="&#x2527;" d="M0 320v75h461v460h74v-460h24v-536h-121v461h-438z" />
<glyph unicode="&#x2528;" d="M0 320v75h438v460h121v-996h-121v461h-438z" />
<glyph unicode="&#x2529;" d="M0 297v121h438v437h121v-558h-24v-438h-74v438h-461z" />
<glyph unicode="&#x252a;" d="M0 297v121h461v437h74v-441h24v-555h-121v438h-438z" />
<glyph unicode="&#x252b;" d="M0 297v121h438v437h121v-996h-121v438h-438z" />
<glyph unicode="&#x252c;" d="M0 320v75h996v-75h-461v-461h-74v461h-461z" />
<glyph unicode="&#x252d;" d="M0 297v121h535v-23h461v-75h-461v-461h-74v438h-461z" />
<glyph unicode="&#x252e;" d="M0 320v75h461v23h535v-121h-461v-438h-74v461h-461z" />
<glyph unicode="&#x252f;" d="M0 297v121h996v-121h-461v-438h-74v438h-461z" />
<glyph unicode="&#x2530;" d="M0 320v75h996v-75h-437v-461h-121v461h-438z" />
<glyph unicode="&#x2531;" d="M0 297v121h559v-23h437v-75h-437v-461h-121v438h-438z" />
<glyph unicode="&#x2532;" d="M0 320v75h438v23h558v-121h-437v-438h-121v461h-438z" />
<glyph unicode="&#x2533;" d="M0 297v121h996v-121h-437v-438h-121v438h-438z" />
<glyph unicode="&#x2534;" d="M0 320v75h461v460h74v-460h461v-75h-996z" />
<glyph unicode="&#x2535;" d="M0 297v121h461v437h74v-460h461v-75h-461v-23h-535z" />
<glyph unicode="&#x2536;" d="M0 320v75h461v460h74v-437h461v-121h-531v23h-465z" />
<glyph unicode="&#x2537;" d="M0 297v121h461v437h74v-437h461v-121h-996z" />
<glyph unicode="&#x2538;" d="M0 320v75h438v460h121v-460h437v-75h-996z" />
<glyph unicode="&#x2539;" d="M0 297v121h438v437h121v-460h437v-75h-437v-23h-559z" />
<glyph unicode="&#x253a;" d="M0 320v75h438v460h121v-437h437v-121h-558v23h-438z" />
<glyph unicode="&#x253b;" d="M0 297v121h438v437h121v-437h437v-121h-996z" />
<glyph unicode="&#x253c;" d="M0 320v75h461v460h74v-460h461v-75h-461v-461h-74v461h-461z" />
<glyph unicode="&#x253d;" d="M0 297v121h461v437h74v-460h461v-75h-461v-461h-74v438h-461z" />
<glyph unicode="&#x253e;" d="M0 320v75h461v460h74v-437h461v-121h-461v-438h-74v461h-461z" />
<glyph unicode="&#x253f;" d="M0 297v121h461v437h74v-437h461v-121h-461v-438h-74v438h-461z" />
<glyph unicode="&#x2540;" d="M0 320v75h438v460h121v-460h437v-75h-461v-461h-74v461h-461z" />
<glyph unicode="&#x2541;" d="M0 320v75h461v460h74v-460h461v-75h-437v-461h-121v461h-438z" />
<glyph unicode="&#x2542;" d="M0 320v75h438v460h121v-460h437v-75h-437v-461h-121v461h-438z" />
<glyph unicode="&#x2543;" d="M0 297v121h438v437h121v-460h437v-75h-461v-461h-74v438h-461z" />
<glyph unicode="&#x2544;" d="M0 320v75h438v460h121v-437h437v-121h-461v-438h-74v461h-461z" />
<glyph unicode="&#x2545;" d="M0 297v121h461v437h74v-460h461v-75h-437v-461h-121v438h-438z" />
<glyph unicode="&#x2546;" d="M0 320v75h461v460h74v-437h461v-121h-437v-438h-121v461h-438z" />
<glyph unicode="&#x2547;" d="M0 297v121h438v437h121v-437h437v-121h-461v-438h-74v438h-461z" />
<glyph unicode="&#x2548;" d="M0 297v121h461v437h74v-437h461v-121h-437v-438h-121v438h-438z" />
<glyph unicode="&#x2549;" d="M0 297v121h438v437h121v-460h437v-75h-437v-461h-121v438h-438z" />
<glyph unicode="&#x254a;" d="M0 320v75h438v460h121v-437h437v-121h-437v-438h-121v461h-438z" />
<glyph unicode="&#x254b;" d="M0 297v121h438v437h121v-437h437v-121h-437v-438h-121v438h-438z" />
<glyph unicode="&#x2550;" d="M0 293v43h996v-43h-996zM0 379v43h996v-43h-996z" />
<glyph unicode="&#x2551;" d="M434 -141v996h43v-996h-43zM520 -141v996h42v-996h-42z" />
<glyph unicode="&#x2552;" d="M477 -141v563h519v-43h-476v-43h476v-43h-476v-434h-43z" />
<glyph unicode="&#x2553;" d="M434 -141v520h562v-43h-434v-477h-42v477h-43v-477h-43z" />
<glyph unicode="&#x2554;" d="M434 -141v563h562v-43h-519v-520h-43zM520 -141v477h476v-43h-434v-434h-42z" />
<glyph unicode="&#x2555;" d="M0 293v43h477v43h-477v43h520v-563h-43v434h-477z" />
<glyph unicode="&#x2556;" d="M0 336v43h562v-520h-42v477h-43v-477h-43v477h-434z" />
<glyph unicode="&#x2557;" d="M0 297v43h477v-481h-43v438h-434zM0 379v43h562v-563h-42v520h-520z" />
<glyph unicode="&#x2558;" d="M477 293v562h43v-433h476v-43h-476v-43h476v-43h-519z" />
<glyph unicode="&#x2559;" d="M434 336v519h43v-476h43v476h42v-476h434v-43h-562z" />
<glyph unicode="&#x255a;" d="M434 293v562h43v-519h519v-43h-562zM520 379v476h42v-433h434v-43h-476z" />
<glyph unicode="&#x255b;" d="M0 293v43h477v43h-477v43h477v433h43v-562h-520z" />
<glyph unicode="&#x255c;" d="M0 336v43h434v476h43v-476h43v476h42v-519h-562z" />
<glyph unicode="&#x255d;" d="M0 293v43h520v519h42v-562h-562zM0 379v43h434v433h43v-476h-477z" />
<glyph unicode="&#x255e;" d="M477 -141v996h43v-433h476v-43h-476v-43h476v-43h-476v-434h-43z" />
<glyph unicode="&#x255f;" d="M434 -141v996h43v-996h-43zM520 -141v996h42v-476h434v-43h-434v-477h-42z" />
<glyph unicode="&#x2560;" d="M434 -141v996h43v-996h-43zM520 -141v477h476v-43h-434v-434h-42zM520 379v476h42v-433h434v-43h-476z" />
<glyph unicode="&#x2561;" d="M0 293v43h477v43h-477v43h477v433h43v-996h-43v434h-477z" />
<glyph unicode="&#x2562;" d="M0 336v43h434v476h43v-996h-43v477h-434zM520 -141v996h42v-996h-42z" />
<glyph unicode="&#x2563;" d="M0 293v43h477v-477h-43v434h-434zM0 379v43h434v433h43v-476h-477zM520 -141v996h42v-996h-42z" />
<glyph unicode="&#x2564;" d="M0 293v43h996v-43h-476v-434h-43v434h-477zM0 379v43h996v-43h-996z" />
<glyph unicode="&#x2565;" d="M0 336v43h996v-43h-434v-477h-42v477h-43v-477h-43v477h-434z" />
<glyph unicode="&#x2566;" d="M0 293v43h477v-477h-43v434h-434zM0 379v43h996v-43h-996zM520 -141v477h476v-43h-434v-434h-42z" />
<glyph unicode="&#x2567;" d="M0 293v43h996v-43h-996zM0 379v43h477v433h43v-433h476v-43h-996z" />
<glyph unicode="&#x2568;" d="M0 336v43h434v476h43v-476h43v476h42v-476h434v-43h-996z" />
<glyph unicode="&#x2569;" d="M0 293v43h996v-43h-996zM0 379v43h434v433h43v-476h-477zM520 379v476h42v-433h434v-43h-476z" />
<glyph unicode="&#x256a;" d="M0 293v43h477v43h-477v43h477v433h43v-433h476v-43h-476v-43h476v-43h-476v-434h-43v434h-477z" />
<glyph unicode="&#x256b;" d="M0 336v43h434v476h43v-476h43v476h42v-476h434v-43h-434v-477h-42v477h-43v-477h-43v477h-434z" />
<glyph unicode="&#x256c;" d="M0 293v43h477v-477h-43v434h-434zM0 379v43h434v433h43v-476h-477zM520 -141v477h476v-43h-434v-434h-42zM520 379v476h42v-433h434v-43h-476z" />
<glyph unicode="&#x256d;" d="M477 -141q-4 121 31 219t115 170t170 103.5t203 27.5v-43q-121 4 -199 -25.5t-146.5 -96t-101.5 -150.5t-29 -205h-43z" />
<glyph unicode="&#x256e;" d="M0 336v43q121 4 220.5 -37t172 -121t100 -162t27.5 -200h-47q0 117 -31.5 197.5t-94 147t-144.5 101.5t-203 31z" />
<glyph unicode="&#x256f;" d="M0 336v43q117 -4 195 27.5t140.5 86t102 138t39.5 224.5h43q0 -141 -37.5 -232.5t-111.5 -158t-170 -99.5t-201 -29z" />
<glyph unicode="&#x2570;" d="M477 855h43q-4 -90 21 -183.5t103.5 -171.5t162.5 -101.5t189 -19.5v-43q-113 0 -191 19.5t-166 92t-127 177.5t-35 230z" />
<glyph unicode="&#x2571;" d="M4 -109l961 961l27 -28l-961 -961z" />
<glyph unicode="&#x2572;" d="M4 824l31 28l957 -957l-27 -32z" />
<glyph unicode="&#x2573;" d="M4 -109l469 461l-469 472l27 28l469 -469l461 469l31 -28l-465 -469l465 -457l-27 -35l-465 461l-473 -461z" />
<glyph unicode="&#x2581;" d="M31 8h934v-117h-934v117z" />
<glyph unicode="&#x2582;" d="M31 -109v234h934v-234h-934z" />
<glyph unicode="&#x2583;" d="M31 -109v351h934v-351h-934z" />
<glyph unicode="&#x2584;" d="M31 -109v468h934v-468h-934z" />
<glyph unicode="&#x2585;" d="M31 -109v586h934v-586h-934z" />
<glyph unicode="&#x2586;" d="M31 -109v703h934v-703h-934z" />
<glyph unicode="&#x2587;" d="M31 -109v820h934v-820h-934z" />
<glyph unicode="&#x2588;" d="M31 -109v933h934v-933h-934z" />
<glyph unicode="&#x2589;" d="M31 -109v933h817v-933h-817z" />
<glyph unicode="&#x258a;" d="M31 -109v933h699v-933h-699z" />
<glyph unicode="&#x258b;" d="M31 -109v933h582v-933h-582z" />
<glyph unicode="&#x258c;" d="M31 -109v933h465v-933h-465z" />
<glyph unicode="&#x258d;" d="M31 -109v933h348v-933h-348z" />
<glyph unicode="&#x258e;" d="M31 -109v933h231v-933h-231z" />
<glyph unicode="&#x258f;" d="M31 -109v933h114v-933h-114z" />
<glyph unicode="&#x2593;" d="M82 -43v203h98v67h-98v199h98v66h-98v199h98v67h-98v66h832v-933h-98v66h-97v-66h-117v66h-98v-66h-113v66h-98v-66h-113v66h-98zM188 27h97v67h-97v-67zM188 293h97v66h-97v-66zM188 559h97v66h-97v-66zM293 160h98v67h-98v-67zM293 426h98v66h-98v-66zM293 691h98v67 h-98v-67zM398 27h98v67h-98v-67zM398 293h98v66h-98v-66zM398 559h98v66h-98v-66zM504 160h98v67h-98v-67zM504 426h98v66h-98v-66zM504 691h98v67h-98v-67zM609 27h98v67h-98v-67zM609 293h98v66h-98v-66zM609 559h98v66h-98v-66zM719 160h97v67h-97v-67zM719 426h97v66 h-97v-66zM719 691h97v67h-97v-67z" />
<glyph unicode="&#x2594;" d="M31 707v117h934v-117h-934z" />
<glyph unicode="&#x2595;" d="M848 -109v933h117v-933h-117z" />
<glyph unicode="&#x25a0;" d="M141 0v711h714v-711h-714z" />
<glyph unicode="&#x25a1;" d="M141 0v715h714v-715h-714zM180 39h636v637h-636v-637z" />
<glyph unicode="&#x25b2;" d="M74 -8l422 766l426 -766h-848z" />
<glyph unicode="&#x25b3;" d="M70 -8l426 762l426 -762h-852zM141 31h711l-356 641z" />
<glyph unicode="&#x25bc;" d="M121 727h758l-395 -633z" />
<glyph unicode="&#x25bd;" d="M109 730h782l-395 -644zM168 699l328 -543l328 543h-656z" />
<glyph unicode="&#x25c6;" d="M105 355l395 395l391 -387l-399 -398z" />
<glyph unicode="&#x25c7;" d="M105 359l395 391l391 -391l-391 -394zM160 359l340 -336l332 336l-332 336z" />
<glyph unicode="&#x25cb;" d="M125 355.5q0 164.5 105.5 269.5t269.5 105t267.5 -105t103.5 -269.5t-103.5 -268t-268 -103.5t-269.5 102q-105 105 -105 269.5zM176 355.5q0 -148.5 91.5 -238.5t232.5 -90t230.5 90t89.5 238.5t-89.5 240.5t-230.5 92t-232.5 -92t-91.5 -240.5z" />
<glyph unicode="&#x25ce;" d="M125 359q0 164 105.5 269.5t269.5 105.5t267.5 -105.5t103.5 -269.5t-103.5 -267.5t-268 -103.5t-269.5 102q-105 105 -105 269zM176 359.5q0 -148.5 91.5 -238.5t232.5 -90t230.5 90t89.5 238.5t-89.5 240t-230.5 91.5t-232.5 -91.5t-91.5 -240zM250 361.5 q0 107.5 70.5 177.5t177.5 70t173.5 -70t66.5 -177.5t-66.5 -174t-174 -66t-177.5 66.5t-70 173.5zM297 361q0 -88 56.5 -144.5t142.5 -56.5q90 0 144.5 56.5t54.5 144.5t-54.5 146.5t-142.5 58.5t-144.5 -58.5t-56.5 -146.5z" />
<glyph unicode="&#x25cf;" d="M125 359q0 164 105.5 269.5t269.5 105.5t267.5 -105.5t103.5 -269.5t-103.5 -267.5t-268 -103.5t-269.5 102q-105 105 -105 269z" />
<glyph unicode="&#x25e2;" d="M176 47l722 723v-723h-722z" />
<glyph unicode="&#x25e3;" d="M176 47v723l722 -723h-722z" />
<glyph unicode="&#x25e4;" d="M176 47v723h722z" />
<glyph unicode="&#x25e5;" d="M176 770h722v-723z" />
<glyph unicode="&#x25fc;" horiz-adv-x="570" d="M0 0v570h570v-570h-570z" />
<glyph unicode="&#x2605;" d="M55 457h332l113 328l109 -328h332l-261 -195l109 -328l-293 211l-285 -207l105 324z" />
<glyph unicode="&#x2606;" d="M55 457h332l113 328l109 -328h332l-261 -195l109 -328l-293 211l-285 -207l105 324zM152 426l203 -153l-85 -253l226 168l227 -165l-86 250l207 153h-262l-82 246l-90 -246h-258z" />
<glyph unicode="&#x2609;" d="M254 359.5q-4 113.5 72 189.5t185.5 74t178 -78t64.5 -179.5t-68.5 -172t-173.5 -72.5t-181.5 60.5t-76.5 178zM298.5 359.5q1.5 -93.5 60.5 -148.5q59 -51 149 -49t142.5 62.5t56.5 142.5t-49 146.5t-144.5 70.5t-154 -62.5t-61 -162zM465 375q0 23 21.5 33t39 -2 t13.5 -35q0 -23 -19.5 -31t-37 2t-17.5 33z" />
<glyph unicode="&#x2640;" d="M191 230v40h286v105q-74 8 -127 64.5t-45.5 142.5t68.5 133t133 45t128.5 -53t60.5 -133t-46.5 -136.5t-132.5 -62.5v-105h289v-40h-289v-261h-39v261h-286zM348 574q-4 -70 41 -115t109 -45t105.5 43t41.5 105.5t-37.5 107.5t-98 47t-107 -35.5t-54.5 -107.5z" />
<glyph unicode="&#x2642;" d="M305 146q-4 84 44.5 137t127.5 61v211q-51 -27 -137 -86l-20 8q125 121 172 300h12q47 -180 172 -300l-20 -8q-90 59 -140 86v-211q78 -8 130.5 -64.5t45 -142.5t-68.5 -133t-135 -45t-126.5 52.5t-56.5 134.5zM348 154.5q0 -60.5 39 -103.5t99.5 -45t107.5 35.5 t51 103.5q4 70 -39.5 115t-109.5 45t-107 -45t-41 -105.5z" />
<glyph unicode="&#x2ff0;" d="M121 0h70v-23h-70v23zM121 47v66h27v-66h-27zM121 164v66h27v-66h-27zM121 277v67h27v-67h-27zM121 387v66h27v-66h-27zM121 496v70h27v-70h-27zM121 605v71h27v-71h-27zM121 719v23h70v-23h-70zM234 0h71v-23h-71v23zM238 719v23h71v-23h-71zM352 0h70v-23h-70v23z M355 719v23h71v-23h-71zM473 0h70v-23h-70v23zM473 719v23h70v-23h-70zM488 47v66h32v-66h-32zM488 164v66h32v-66h-32zM488 277v67h32v-67h-32zM488 395v66h32v-66h-32zM488 508v66h32v-66h-32zM488 617v67h32v-67h-32zM586 719v23h70v-23h-70zM590 0h70v-23h-70v23z M699 719v23h71v-23h-71zM703 0h70v-23h-70v23zM812 0h71v-23h-71v23zM812 719v23h71v-23h-71zM855 51v66h28v-66h-28zM855 168v66h28v-66h-28zM855 281v67h28v-67h-28zM855 395v66h28v-66h-28zM855 504v66h28v-66h-28zM855 609v71h28v-71h-28z" />
<glyph unicode="&#x2ff1;" d="M121 0h70v-23h-70v23zM121 51v66h27v-66h-27zM121 168v66h27v-66h-27zM121 281v67h27v-67h-27zM121 395v66h27v-66h-27zM121 504v66h27v-66h-27zM121 609v71h27v-71h-27zM121 719v23h70v-23h-70zM180 348v27h70v-27h-70zM238 0h71v-23h-71v23zM238 719v23h71v-23h-71z M297 348v27h70v-27h-70zM355 0h71v-23h-71v23zM355 719v23h71v-23h-71zM410 348v27h74v-27h-74zM473 0h70v-23h-70v23zM473 719v23h70v-23h-70zM527 348v27h71v-27h-71zM586 0h70v-23h-70v23zM586 719v23h70v-23h-70zM641 348v27h70v-27h-70zM699 0h71v-23h-71v23zM699 719 v23h71v-23h-71zM754 348v27h70v-27h-70zM812 0h71v-23h-71v23zM812 719v23h71v-23h-71zM855 47v66h28v-66h-28zM855 164v66h28v-66h-28zM855 277v67h28v-67h-28zM855 391v66h28v-66h-28zM855 500v66h28v-66h-28zM855 605v71h28v-71h-28z" />
<glyph unicode="&#x2ff2;" d="M121 -4h70v-23h-70v23zM121 39v70h27v-70h-27zM121 156v67h27v-67h-27zM121 270v66h27v-66h-27zM121 383v66h27v-66h-27zM121 492v70h27v-70h-27zM121 602v66h27v-66h-27zM121 715v23h70v-23h-70zM238 -4h71v-23h-71v23zM238 715v23h71v-23h-71zM355 -4h71v-23h-71v23z M355 715v23h71v-23h-71zM367 43v66h28v-66h-28zM367 160v67h28v-67h-28zM367 273v67h28v-67h-28zM367 387v66h28v-66h-28zM367 496v66h28v-66h-28zM367 602v70h28v-70h-28zM473 -4h70v-23h-70v23zM473 715v23h70v-23h-70zM586 -4h70v-23h-70v23zM586 715v23h70v-23h-70z M613 39v70h28v-70h-28zM613 156v67h28v-67h-28zM613 270v66h28v-66h-28zM613 383v66h28v-66h-28zM613 492v70h28v-70h-28zM613 602v66h28v-66h-28zM699 -4h71v-23h-71v23zM699 715v23h71v-23h-71zM812 -4h71v-23h-71v23zM812 715v23h71v-23h-71zM855 47v66h28v-66h-28z M855 164v66h28v-66h-28zM855 277v67h28v-67h-28zM855 391v66h28v-66h-28zM855 500v66h28v-66h-28zM855 605v71h28v-71h-28z" />
<glyph unicode="&#x2ff3;" d="M121 -4h70v-23h-70v23zM121 43v66h27v-66h-27zM121 160v67h27v-67h-27zM121 273v67h27v-67h-27zM121 387v66h27v-66h-27zM121 496v66h27v-66h-27zM121 602v70h27v-70h-27zM121 715v23h70v-23h-70zM180 219v27h70v-27h-70zM180 465v27h70v-27h-70zM238 -4h71v-23h-71v23z M238 715v23h71v-23h-71zM297 219v27h70v-27h-70zM297 465v27h70v-27h-70zM355 -4h71v-23h-71v23zM355 715v23h71v-23h-71zM410 219v27h74v-27h-74zM410 465v27h74v-27h-74zM473 -4h70v-23h-70v23zM473 715v23h70v-23h-70zM527 219v27h71v-27h-71zM527 465v27h71v-27h-71z M586 -4h70v-23h-70v23zM586 715v23h70v-23h-70zM641 219v27h70v-27h-70zM641 465v27h70v-27h-70zM699 -4h71v-23h-71v23zM699 715v23h71v-23h-71zM754 219v27h70v-27h-70zM754 465v27h70v-27h-70zM812 -4h71v-23h-71v23zM812 715v23h71v-23h-71zM855 39v70h28v-70h-28z M855 156v67h28v-67h-28zM855 270v66h28v-66h-28zM855 383v66h28v-66h-28zM855 492v70h28v-70h-28zM855 602v66h28v-66h-28z" />
<glyph unicode="&#x2ff4;" d="M133 -4h70v-23h-70v23zM133 39v70h27v-70h-27zM133 156v67h27v-67h-27zM133 270v66h27v-66h-27zM133 383v66h27v-66h-27zM133 492v70h27v-70h-27zM133 602v66h27v-66h-27zM133 715v23h70v-23h-70zM250 -4h70v-23h-70v23zM250 715v23h70v-23h-70zM301 137v23h70v-23h-70z M301 191v63h27v-63h-27zM301 289v59h27v-59h-27zM301 379v62h27v-62h-27zM301 469v58h27v-58h-27zM301 551v23h70v-23h-70zM367 -4h71v-23h-71v23zM367 715v23h71v-23h-71zM422 137v23h74v-23h-74zM422 551v23h74v-23h-74zM484 -4h71v-23h-71v23zM484 715v23h71v-23h-71z M547 137v23h70v-23h-70zM547 551v23h70v-23h-70zM598 -4h70v-23h-70v23zM598 715v23h70v-23h-70zM668 137v23h70v-23h-70zM668 551v23h70v-23h-70zM711 -4h70v-23h-70v23zM711 191v63h27v-63h-27zM711 289v59h27v-59h-27zM711 379v62h27v-62h-27zM711 469v58h27v-58h-27z M711 715v23h70v-23h-70zM824 -4h71v-23h-71v23zM824 715v23h71v-23h-71zM867 39v70h28v-70h-28zM867 156v67h28v-67h-28zM867 270v66h28v-66h-28zM867 383v66h28v-66h-28zM867 492v70h28v-70h-28zM867 602v66h28v-66h-28z" />
<glyph unicode="&#x2ff5;" d="M121 0h70v-23h-70v23zM121 43v70h27v-70h-27zM121 160v67h27v-67h-27zM121 273v67h27v-67h-27zM121 387v66h27v-66h-27zM121 496v70h27v-70h-27zM121 605v67h27v-67h-27zM121 719v23h70v-23h-70zM238 0h71v-23h-71v23zM238 719v23h71v-23h-71zM328 31v55h27v-55h-27z M328 133v58h27v-58h-27zM328 230v63h27v-63h-27zM328 332v59h27v-59h-27zM328 430v58h27v-58h-27zM328 516v23h59v-23h-59zM355 0h71v-23h-71v23zM355 719v23h71v-23h-71zM422 516v23h62v-23h-62zM473 0h70v-23h-70v23zM473 719v23h70v-23h-70zM523 516v23h55v-23h-55z M586 0h70v-23h-70v23zM586 719v23h70v-23h-70zM617 516v23h59v-23h-59zM648 39v59h28v-59h-28zM648 145v54h28v-54h-28zM648 242v59h28v-59h-28zM648 340v58h28v-58h-28zM648 438v54h28v-54h-28zM699 0h71v-23h-71v23zM699 719v23h71v-23h-71zM812 0h71v-23h-71v23zM812 719 v23h71v-23h-71zM855 43v70h28v-70h-28zM855 160v67h28v-67h-28zM855 273v67h28v-67h-28zM855 387v66h28v-66h-28zM855 496v70h28v-70h-28zM855 605v67h28v-67h-28z" />
<glyph unicode="&#x2ff6;" d="M125 -4h70v-23h-70v23zM125 39v70h27v-70h-27zM125 156v67h27v-67h-27zM125 270v66h27v-66h-27zM125 383v66h27v-66h-27zM125 492v70h27v-70h-27zM125 602v66h27v-66h-27zM125 715v23h70v-23h-70zM242 -4h70v-23h-70v23zM242 715v23h70v-23h-70zM336 176v66h27v-66h-27z M336 289v66h27v-66h-27zM336 402v67h27v-67h-27zM336 512v66h27v-66h-27zM336 617v67h27v-67h-27zM359 -4h71v-23h-71v23zM359 715v23h71v-23h-71zM375 176v23h47v-23h-47zM453 176v23h43v-23h-43zM477 -4h70v-23h-70v23zM477 715v23h70v-23h-70zM527 176v23h43v-23h-43z M590 -4h70v-23h-70v23zM590 715v23h70v-23h-70zM602 176v23h43v-23h-43zM652 176v66h28v-66h-28zM652 289v66h28v-66h-28zM652 402v67h28v-67h-28zM652 512v66h28v-66h-28zM652 617v67h28v-67h-28zM703 -4h70v-23h-70v23zM703 715v23h70v-23h-70zM816 -4h71v-23h-71v23z M816 715v23h71v-23h-71zM859 43v66h28v-66h-28zM859 160v67h28v-67h-28zM859 273v67h28v-67h-28zM859 387v66h28v-66h-28zM859 496v66h28v-66h-28zM859 602v70h28v-70h-28z" />
<glyph unicode="&#x2ff7;" d="M117 -4h71v-23h-71v23zM117 43v66h28v-66h-28zM117 160v67h28v-67h-28zM117 273v67h28v-67h-28zM117 387v66h28v-66h-28zM117 496v66h28v-66h-28zM117 602v70h28v-70h-28zM117 715v23h71v-23h-71zM234 -4h71v-23h-71v23zM234 715v23h71v-23h-71zM328 180v23h55v-23h-55z M328 227v58h27v-58h-27zM328 328v55h27v-55h-27zM328 426v58h27v-58h-27zM328 504v23h55v-23h-55zM352 -4h70v-23h-70v23zM352 715v23h70v-23h-70zM418 180v23h59v-23h-59zM418 504v23h59v-23h-59zM469 -4h70v-23h-70v23zM469 715v23h70v-23h-70zM508 504v23h51v-23h-51z M512 180v23h58v-23h-58zM582 -4h70v-23h-70v23zM582 715v23h70v-23h-70zM594 504v23h54v-23h-54zM602 180v23h50v-23h-50zM680 504v23h58v-23h-58zM688 180v23h58v-23h-58zM695 -4h71v-23h-71v23zM695 715v23h71v-23h-71zM770 504v23h54v-23h-54zM773 180v23h55v-23h-55z M809 -4h70v-23h-70v23zM809 715v23h70v-23h-70zM852 39v70h27v-70h-27zM852 156v67h27v-67h-27zM852 270v66h27v-66h-27zM852 383v66h27v-66h-27zM852 492v70h27v-70h-27zM852 602v66h27v-66h-27z" />
<glyph unicode="&#x2ff8;" d="M117 -4h71v-23h-71v23zM117 39v70h28v-70h-28zM117 156v67h28v-67h-28zM117 270v66h28v-66h-28zM117 383v66h28v-66h-28zM117 492v70h28v-70h-28zM117 602v66h28v-66h-28zM117 715v23h71v-23h-71zM234 -4h71v-23h-71v23zM234 715v23h71v-23h-71zM328 23v63h27v-63h-27z M328 133v55h27v-55h-27zM328 230v63h27v-63h-27zM328 336v59h27v-59h-27zM328 422v66h27v-66h-27zM328 512v23h51v-23h-51zM352 -4h70v-23h-70v23zM352 715v23h70v-23h-70zM410 512v23h59v-23h-59zM469 -4h70v-23h-70v23zM469 715v23h70v-23h-70zM504 512v23h55v-23h-55z M582 -4h70v-23h-70v23zM582 715v23h70v-23h-70zM594 512v23h54v-23h-54zM676 512v23h62v-23h-62zM695 -4h71v-23h-71v23zM695 715v23h71v-23h-71zM773 512v23h47v-23h-47zM809 -4h70v-23h-70v23zM809 715v23h70v-23h-70zM852 43v66h27v-66h-27zM852 160v67h27v-67h-27z M852 273v67h27v-67h-27zM852 387v66h27v-66h-27zM852 496v66h27v-66h-27zM852 602v70h27v-70h-27z" />
<glyph unicode="&#x2ff9;" d="M117 0h71v-23h-71v23zM117 43v70h28v-70h-28zM117 160v67h28v-67h-28zM117 273v67h28v-67h-28zM117 387v66h28v-66h-28zM117 496v70h28v-70h-28zM117 605v67h28v-67h-28zM117 719v23h71v-23h-71zM168 520v23h66v-23h-66zM234 0h71v-23h-71v23zM234 719v23h71v-23h-71z M277 520v23h67v-23h-67zM352 0h70v-23h-70v23zM352 719v23h70v-23h-70zM391 520v23h66v-23h-66zM469 0h70v-23h-70v23zM469 719v23h70v-23h-70zM496 520v23h66v-23h-66zM582 0h70v-23h-70v23zM582 719v23h70v-23h-70zM605 520v23h67v-23h-67zM645 23v59h27v-59h-27zM645 129 v59h27v-59h-27zM645 227v62h27v-62h-27zM645 332v59h27v-59h-27zM645 430v62h27v-62h-27zM695 0h71v-23h-71v23zM695 719v23h71v-23h-71zM809 0h70v-23h-70v23zM809 719v23h70v-23h-70zM852 43v70h27v-70h-27zM852 160v67h27v-67h-27zM852 273v67h27v-67h-27zM852 387v66h27 v-66h-27zM852 496v70h27v-70h-27zM852 605v67h27v-67h-27z" />
<glyph unicode="&#x2ffa;" d="M129 4h70v-24h-70v24zM129 47v70h27v-70h-27zM129 164v66h27v-66h-27zM129 277v67h27v-67h-27zM129 391v66h27v-66h-27zM129 500v70h27v-70h-27zM129 609v67h27v-67h-27zM129 723v23h70v-23h-70zM246 4h70v-24h-70v24zM246 723v23h70v-23h-70zM336 184v23h55v-23h-55z M336 230v63h27v-63h-27zM336 336v59h27v-59h-27zM336 438v58h27v-58h-27zM336 535v63h27v-63h-27zM336 633v62h27v-62h-27zM363 4h71v-24h-71v24zM363 723v23h71v-23h-71zM426 184v23h54v-23h-54zM480 4h71v-24h-71v24zM480 723v23h71v-23h-71zM516 184v23h54v-23h-54z M594 4h70v-24h-70v24zM594 723v23h70v-23h-70zM605 184v23h51v-23h-51zM688 184v23h58v-23h-58zM707 4h70v-24h-70v24zM707 723v23h70v-23h-70zM777 184v23h55v-23h-55zM820 4h71v-24h-71v24zM820 723v23h71v-23h-71zM863 51v66h28v-66h-28zM863 168v66h28v-66h-28zM863 281 v67h28v-67h-28zM863 395v66h28v-66h-28zM863 504v66h28v-66h-28zM863 609v71h28v-71h-28z" />
<glyph unicode="&#x2ffb;" d="M133 152v28h47v-28h-47zM133 199v63h27v-63h-27zM133 305v62h27v-62h-27zM133 410v63h27v-63h-27zM133 512v62h27v-62h-27zM133 609v67h27v-67h-27zM133 699v24h51v-24h-51zM219 152v28h58v-28h-58zM219 699v24h54v-24h-54zM297 -8v24h55v-24h-55zM297 31v47h31v-47h-31z M297 94v51h31v-51h-31zM297 195v55h31v-55h-31zM297 285v55h31v-55h-31zM297 375v59h31v-59h-31zM297 465v58h31v-58h-31zM297 535v27h47v-27h-47zM309 152v28h54v-28h-54zM309 699v24h54v-24h-54zM375 535v27h47v-27h-47zM387 -8v24h54v-24h-54zM395 699v24h50v-24h-50z M398 152v28h47v-28h-47zM449 535v27h51v-27h-51zM477 -8v24h50v-24h-50zM480 152v28h47v-28h-47zM480 699v24h51v-24h-51zM523 535v27h51v-27h-51zM559 -8v24h54v-24h-54zM559 152v28h58v-28h-58zM562 699v24h55v-24h-55zM598 535v27h50v-27h-50zM645 -8v24h54v-24h-54z M648 699v24h55v-24h-55zM652 152v28h51v-28h-51zM672 195v67h31v-67h-31zM672 305v66h31v-66h-31zM672 410v63h31v-63h-31zM672 516v62h31v-62h-31zM672 617v63h31v-63h-31zM715 535v27h58v-27h-58zM730 -8v24h55v-24h-55zM805 535v27h62v-27h-62zM816 -8v24h51v-24h-51z M840 35v63h27v-63h-27zM840 145v58h27v-58h-27zM840 246v59h27v-59h-27zM840 348v62h27v-62h-27zM840 449v63h27v-63h-27z" />
<glyph unicode="&#x3000;" />
<glyph unicode="&#x3001;" d="M109 199l4 12q90 -20 139 -49t70.5 -52.5t27 -62.5t-23.5 -62.5t-64.5 60.5t-152.5 154z" />
<glyph unicode="&#x3002;" d="M324 1l50 138l139 -48l-50 -139z" />
<glyph unicode="&#x3003;" d="M330 168q-10 8 15.5 82t53 156t35 103.5t27.5 25.5q23 4 35 -7.5t8 -27.5t-43 -98t-80 -162t-51 -72zM498 168q-10 8 15.5 82t53 156t35 103.5t27.5 25.5q23 4 35 -7.5t8 -27.5t-43 -98t-80 -162t-51 -72z" />
<glyph unicode="&#x3005;" d="M256 379q-2 4 13.5 21.5t50.5 70t66.5 129t23.5 111.5t17.5 25.5t45 -25.5t6 -33.5t-83.5 -154.5q125 8 197 20t97.5 35.5t43 3.5t27.5 -37.5t-10 -29t-60.5 -84t-134.5 -236.5q78 -59 82 -90t-14 -58t-39.5 10t-56.5 82t-87.5 93.5t-11.5 33t103 -54.5q90 168 153 320 q-121 -12 -166 -23.5t-70.5 -27t-60.5 23.5q-66 -86 -97.5 -107.5t-33.5 -17.5z" />
<glyph unicode="&#x3006;" d="M188 189.5q0 72.5 23 199.5t126.5 175.5t213.5 -76.5q66 78 93.5 123t14 70.5t-49.5 60.5l8 8q16 4 55 -13.5t72 -43t19.5 -45t-37 -51t-128.5 -156.5q66 -70 35 -109t-47 -27.5t-39 78.5q-203 -227 -242 -264t-70.5 -60.5t-39 17.5t-7.5 113.5zM230 187.5 q0 -23.5 23.5 -13.5t250.5 260q-43 62 -84 74t-74.5 -2t-66.5 -62.5t-41 -140.5t-8 -115.5z" />
<glyph unicode="&#x3007;" d="M107 348q-2 160 109.5 275t285.5 115t283 -121q109 -117 105.5 -279t-113 -261.5t-279.5 -99.5t-279.5 105.5t-111.5 265.5zM176 352q0 -141 95.5 -244.5t232.5 -101.5t228.5 103.5t89.5 242t-97.5 246t-226 105.5t-228.5 -105q-94 -105 -94 -246z" />
<glyph unicode="&#x300a;" d="M476 362l153 333l74 -33l-144 -315l174 -314l-72 -38l-183 330zM643 341v39l163 317l73 -37l-155 -298l172 -306l-70 -40z" />
<glyph unicode="&#x300b;" d="M88 57l173 306l-155 298l72 37l164 -317l-1 -39l-183 -325zM271 56l174 313l-144 315l74 34l151 -334l-1 -36l-183 -331z" />
<glyph unicode="&#x300c;" d="M617 -66v851h238v-39h-199v-812h-39z" />
<glyph unicode="&#x300d;" d="M141 -31h199v816h39v-855h-238v39z" />
<glyph unicode="&#x300e;" d="M605 -70v855h250v-121h-132v-734h-118zM645 -31h39v734h132v43h-171v-777z" />
<glyph unicode="&#x300f;" d="M141 51h129v734h117v-855h-246v121zM180 12v-43h168v777h-39v-734h-129z" />
<glyph unicode="&#x3010;" d="M492 -66v847h363q-199 -215 -206.5 -416t203.5 -431h-360z" />
<glyph unicode="&#x3011;" d="M137 -66q191 223 199 420t-195 427h351v-847h-355z" />
<glyph unicode="&#x3012;" d="M117 422v62h762v-62h-344v-461h-66v461h-352zM117 637v66h762v-66h-762z" />
<glyph unicode="&#x3013;" d="M78 -23v261h840v-261h-840zM78 477v261h840v-261h-840z" />
<glyph unicode="&#x3014;" d="M652 102v507l153 161l27 -24l-141 -144v-493l137 -140l-31 -20z" />
<glyph unicode="&#x3015;" d="M160 -23l137 148v484l-133 137l27 24l145 -149v-508l-148 -160z" />
<glyph unicode="&#x3016;" d="M473 -66v847h414q-86 -78 -148.5 -171.5t-82 -172t0 -158.5t74 -168t160.5 -177h-418zM512 -27h277q-59 59 -111.5 152.5t-66 187t33 203t148.5 226.5h-281v-769z" />
<glyph unicode="&#x3017;" d="M109 781h411v-840h-407q86 78 144.5 172t78 172t0 154.5t-70 164t-156.5 177.5zM207 -20h273v762h-273q62 -59 111 -152.5t63 -183.5t-29 -199t-145 -227z" />
<glyph unicode="&#x301d;" d="M524 737q-16 29 1.5 44.5t41 13.5t31 -25.5t62.5 -242.5l-15 -7q-105 188 -121 217zM687.5 783.5q15.5 17.5 39 15.5t33 -29.5t60.5 -246.5l-15 -7q-98 188 -115.5 219t-2 48.5z" />
<glyph unicode="&#x301e;" d="M102 523q70 195 76 221t31 33.5t41 -14t-2 -48.5t-131 -195zM242 531q78 195 86 220.5t35.5 27.5t37 -15.5t-4 -43t-138.5 -197.5z" />
<glyph unicode="&#x3021;" d="M453 8v785q0 27 31.5 15.5t51 -25t19.5 -19.5t-43 -26v-703q0 -20 -27.5 -35.5t-31.5 8.5z" />
<glyph unicode="&#x3022;" d="M332 94v594q-4 27 27.5 17t51 -23.5t17.5 -19t-37 -17.5v-516q4 -16 -25.5 -33.5t-33.5 -1.5zM605 -59v817q-4 35 29.5 25t51 -21.5t17.5 -19.5t-39 -19v-746q4 -23 -27.5 -41t-31.5 5z" />
<glyph unicode="&#x3023;" d="M199 -66v816q-4 27 31.5 15.5t53 -21.5t17.5 -15.5t-43 -25.5v-738q0 -16 -27.5 -31.5t-31.5 0.5zM465 -23v664q-4 31 21.5 23t47 -19.5t21.5 -17.5t-32 -22v-597q0 -23 -27 -37t-31 6zM727 -66v843q-4 35 35 21.5t52.5 -21t13.5 -13.5t-43 -26v-769q0 -23 -27.5 -39 t-30.5 4z" />
<glyph unicode="&#x3024;" d="M154 131q-6 6 80 52.5t146.5 107.5t127.5 166q-180 117 -250 148.5t-62.5 37t37 0t90 -29t216.5 -105.5q59 109 78.5 171.5t17.5 103.5t25.5 29.5t58.5 -41t5.5 -45t-58.5 -87.5t-80 -162q51 -27 80 -53t48.5 -49t19.5 -62.5t-15.5 -55t-54.5 51t-109 117.5 q-113 -164 -199 -215t-141 -68.5t-61 -11.5z" />
<glyph unicode="&#x3025;" d="M185.5 517.5q-13.5 21.5 21.5 33t87.5 62.5t60.5 188l90 -47q-31 -102 -175 -219q129 -4 226 -15q43 27 78 56t60.5 66.5t16 70.5t14 23.5t68 -29t25 -29.5t-44.5 -37.5t-62.5 -58.5t-115.5 -70q78 -16 129 -92t45 -215t-64.5 -187.5t-144.5 -54.5t-152.5 39t-82 121 t-5.5 140.5t52.5 121t132.5 107.5q-74 12 -132.5 6t-76 -15.5t-27.5 2t-23.5 33zM328 164q12 -102 76.5 -139t121 -21t86 62.5t27.5 173.5t-43 181.5t-100 62.5q-102 -47 -141 -132.5t-27 -187.5z" />
<glyph unicode="&#x3026;" d="M54.5 404.5q-7.5 21.5 9.5 21.5h377v242q-8 31 27.5 21.5t57 -27t17.5 -27.5t-31 -26v-183h308q35 31 43 31t31.5 -19.5t43 -43t-27.5 -23.5h-668q-94 -8 -121 -13.5t-43 10t-23.5 37z" />
<glyph unicode="&#x3027;" d="M96 216.5q-6 21.5 9 21.5h692q35 31 41 31.5t27.5 -19.5t39 -43t-25.5 -23h-613q-86 -8 -109.5 -14t-39 9.5t-21.5 37zM99.5 455.5q-5.5 21.5 10.5 21.5h328v218q-8 31 25 21.5t52.5 -27t15.5 -27.5t-27 -25v-160h297q35 31 41 31t27.5 -19.5t39 -43t-25.5 -23.5h-613 q-86 -8 -109.5 -14t-39.5 10t-21.5 37.5z" />
<glyph unicode="&#x3028;" d="M56.5 576.5q-5.5 21.5 9.5 21.5h368v164q-4 55 27 45t50.5 -27.5t15.5 -27.5t-27 -25v-129h320q35 31 41 31t27.5 -19.5t39 -43t-25.5 -23.5h-675q-86 -8 -109.5 -14t-39.5 10t-21.5 37.5zM64.5 158.5q-5.5 21.5 9.5 21.5h703q35 31 41 31t29.5 -19.5t41 -43t-29.5 -23.5 h-621q-86 -8 -109.5 -14t-41 10t-23 37.5zM125 365.5q-8 21.5 11 21.5h602q35 31 41 31t27.5 -19.5t37 -43t-19.5 -23.5h-539q-74 -4 -95.5 -12t-39 8t-25.5 37.5z" />
<glyph unicode="&#x3029;" d="M55 -59q121 31 242 103.5t223 221.5q-102 145 -309 257l-82 -101l-12 12q78 117 129 300l8 75q55 -31 101 -59q-43 -35 -78 -113h461l59 54l78 -86h-180q-31 -215 -90 -328q51 -59 82.5 -129t-7.5 -115t-51 -4t-23.5 84t-46.5 102q-199 -266 -500 -285zM223 539 q219 -74 336 -211q47 105 66 277h-363z" />
<glyph unicode="&#x3041;" d="M273.5 300.5q3.5 54.5 37 97.5t91.5 79q4 51 12 105q-47 -4 -62.5 6t-15.5 19.5t17.5 9.5t72.5 4q16 70 17.5 89.5t-8 35.5t19.5 10t45 -17.5t0 -29.5t-39 -84q59 16 88 31.5t41 7.5t12 -19.5t-23.5 -21.5t-59 -17.5t-66.5 -15.5q-15 -62 -15 -102q23 8 74 16q4 27 -2 41 t9.5 12t27.5 -16t0 -37q62 0 97.5 -13.5t60.5 -47t23.5 -84t-35 -93.5t-94 -68.5t-7.5 11.5t72.5 74t17.5 76t-19.5 62.5t-45 39.5t-82.5 16q-23 -70 -70 -141q20 -27 17.5 -43t-18 -23.5t-30.5 27.5q-47 -59 -76.5 -74.5t-58.5 4t-25.5 74zM312.5 330q-3.5 -29 2 -43 t31 -12t76.5 57q-20 54 -20 113q-47 -35 -66.5 -60.5t-23 -54.5zM438 457q0 -51 11 -98q32 44 59 118q-42 -4 -70 -20z" />
<glyph unicode="&#x3042;" d="M223 199.5q0 58.5 39 109t117 97.5q0 55 16 141q-62 -4 -78 4t-24 23.5t29 13.5t88 2q20 78 20 101.5t-8 49t19.5 17.5t49 -25.5t0 -43t-41.5 -95.5q66 16 95.5 31.5t47 23t25.5 -14t-21.5 -39t-157.5 -44.5q-16 -66 -20 -129q39 16 94 23q0 20 -6 43.5t15.5 21.5t33 -14 t8 -19.5t-7.5 -27.5q47 4 101.5 -11.5t89.5 -60.5t33 -109.5t-52.5 -121t-119 -80t-4 21.5t86 78t27.5 68.5t-2 74.5t-51 74t-117 35q-35 -105 -98 -191q35 -39 25.5 -55t-23 -14t-33.5 41q-66 -74 -105.5 -93.5t-64.5 8t-25 86zM271.5 181.5q9.5 -17.5 44.5 -12t90 64.5 q-20 59 -27 141q-55 -39 -76.5 -70.5t-31 -68.5t0 -54.5zM418 387q4 -70 16 -121q55 82 74 148q-55 -4 -90 -27z" />
<glyph unicode="&#x3043;" d="M281 570q-20 39 9.5 27.5t51 -41t0 -49t-25.5 -54.5t-4 -91.5t31.5 -103.5t68.5 17.5t64.5 109.5t8 -12t-35 -105.5t-17.5 -80t-43 -21.5t-74.5 66.5t-31.5 129t10 123t-12 85.5zM570 527q20 4 53 -9.5t64.5 -45t35.5 -70.5t-15.5 -54.5t-37.5 -2t-57 19.5t-2 14t45 25.5 t-13.5 52.5t-55 50.5t-17.5 19.5z" />
<glyph unicode="&#x3044;" d="M246 645q-20 43 9.5 29t53 -43t2 -50.5t-27.5 -100t0 -135t35.5 -103.5t68.5 17.5t74 113.5t11.5 -7.5t-41 -107.5t-23.5 -84t-47 -23.5t-78 82t-35 172t10 150.5t-12 90zM590 586q23 8 60.5 -6t74.5 -51t44.5 -84t-8 -76t-41 -3.5t-76 31t-3.5 17.5t52.5 29.5t-20 62.5 t-66 60.5t-17.5 19.5z" />
<glyph unicode="&#x3045;" d="M353.5 432q29.5 2 51 9.5t68.5 39t86 31.5t58.5 -33.5t17.5 -107.5t-39 -134.5t-82 -96t-70.5 -43t25.5 35.5q51 47 86 105.5t39 123t-6 91.5t-45 25.5t-78 -39t-60.5 -51t-49 14t-2 29.5zM418 664q-20 27 7.5 11.5t51 -25t49 -21.5t27.5 -33.5t-25.5 -17.5t-58.5 -9.5 t-19.5 4t11.5 27t-11.5 23.5t-31.5 41z" />
<glyph unicode="&#x3046;" d="M330 412q-37 33 0 37t62.5 16t86 49t103.5 35t66.5 -43t17.5 -133t-49 -168t-90 -115t-86 -53t16 29q59 43 109.5 137t54.5 166t-7.5 107.5t-58.5 31.5t-96 -49t-70.5 -62.5t-58.5 15.5zM395 715q-20 35 11.5 15.5t60.5 -29.5t56.5 -21.5t31.5 -39t-29.5 -21.5 t-70.5 -11.5t-23.5 4t19.5 31t-15 25.5t-41 47z" />
<glyph unicode="&#x3047;" d="M305 154.5q0 17.5 15.5 45t103.5 131t84 117t-29.5 9.5t-49 -27.5t-41 -19.5t-33 21.5t-2 19.5t49 6t66.5 29.5t58.5 19.5t51 -19.5t-19.5 -45t-98 -117.5q23 -4 42.5 -13.5t25.5 -29t6 -41t2 -37t19.5 -17.5t41 0t43 9.5t37 7.5t21.5 -25.5t-23.5 -29t-82 -5.5t-76 13.5 t-19.5 50.5t0 52.5t-27.5 29.5t-52.5 -29t-50.5 -84t-43 -41t-19.5 19.5zM410 645q-16 27 9.5 11.5t49 -21.5t49 -18t27.5 -33.5t-25.5 -17.5t-58.5 -9.5t-19.5 4t17.5 25.5t-11.5 22t-37.5 37z" />
<glyph unicode="&#x3048;" d="M244 89.5q-6 23.5 23.5 62.5t137 170t103.5 146.5t-25.5 17.5t-62.5 -31t-60.5 -29t-39 23.5t7.5 23.5t60.5 7.5t70.5 39t72 25.5t58.5 -27.5t-17.5 -43t-111 -142.5q47 -16 60.5 -33.5t17.5 -39t2 -48.5t0 -46.5t47 -21.5t76 9.5t48.5 7.5t27.5 -27.5t-23 -31 t-101.5 -7.5t-94 15.5t-25.5 69.5v63q0 8 -12 32q-10 23 -46 23q-74 -113 -103.5 -170t-57 -59t-33.5 21.5zM398 703q-20 35 11.5 15.5t61 -29t57 -21.5t31 -39t-29.5 -21.5t-70 -12t-23.5 4t19.5 31.5t-15.5 25.5t-41.5 46.5z" />
<glyph unicode="&#x3049;" d="M238 230.5q4 15.5 27.5 25.5t53 35t64.5 57v121q-59 -12 -70.5 -14t-27 6t-25.5 23.5t27 9.5t96 10q4 90 -19.5 125t9.5 27t50.5 -21.5t6 -29t-13.5 -35.5l-6 -58q39 8 60.5 19.5t41 0t10 -23.5t-43 -20t-68.5 -15v-106q59 39 100 53t88 12t88 -37.5t35 -92t-47 -84 t-94 -33t-80 -1.5t-37 13.5t17.5 11.5t80 10t82 31t27.5 72t-37 68.5t-94 10t-129 -64.5q0 -66 2 -93.5t-2 -55t-23.5 -39t-25.5 12t-52 62.5q-31 -16 -53 -12t-18 19.5zM320 234q16 -12 37.5 -17.5t23.5 20t2 75.5q-36 -44 -63 -78zM627 541.5q-33 9.5 2 13.5t86 -12 t72.5 -51t-10 -33t-68.5 -15.5t-17.5 9.5t14 41t-25.5 26t-53 21.5z" />
<glyph unicode="&#x304a;" d="M176 191.5q0 15.5 29 29t66.5 45t76.5 70.5v152q-47 -12 -74.5 -15.5t-43 4t-25.5 25.5t23.5 14t119.5 15q4 105 -14 140.5t9.5 29.5t55 -23.5t6 -43t-21.5 -91.5q35 12 62.5 31.5t51 2t5.5 -31.5t-43 -23.5t-76 -25.5v-133q70 55 132.5 76.5t123 10t103.5 -54.5 t31.5 -104t-58.5 -90t-98 -39t-94 -4t-50.5 21.5t23.5 10t80 0t92 33t49 82t-43 92t-127 21.5t-164 -90q0 -78 6 -113t4 -64.5t-25.5 -45t-29.5 2.5t-76 80q-31 -16 -58.5 -14t-27.5 17.5zM273 195q20 -16 47.5 -17.5t27.5 23.5v88q-40 -51 -75 -94zM648.5 584 q-39.5 10 3.5 14t96 -10t82 -43t33 -60.5t-33 -19.5t-78 -4t-13.5 15.5t13.5 52.5t-41 33q-23 12 -62.5 22z" />
<glyph unicode="&#x304b;" d="M211 453q23 0 58 -5.5t137 17.5q51 133 41.5 178t11.5 39t48.5 -29.5t18 -31.5t-29 -39t-47.5 -102q51 12 72.5 24t49 -7.5t31 -37.5t3.5 -33.5t-11.5 -82t-39 -136.5t-72 -89.5t-50.5 13.5t-27.5 62.5t15.5 8t47 -23.5t35 31t44.5 107.5t14 115.5t-23 43t-107.5 -30 q-86 -203 -119.5 -261.5t-57 -70t-41 6t21.5 50.5t82 109t75 155q-39 -16 -70.5 -27.5t-47 -23.5t-50.5 29t-12 41zM707 508q-16 16 21.5 2t80.5 -61t27 -103.5t-43 -25t-68 51t2 13.5t43 23.5t-21.5 56.5t-41.5 43z" />
<glyph unicode="&#x304c;" d="M191.5 128.5q-11.5 23.5 21.5 57t78 119.5t76 164q-70 -20 -101.5 -33.5t-58.5 21.5t-2 31t60.5 -4t117.5 20q43 121 25.5 160t17.5 27.5t54.5 -31t-2 -41t-56.5 -107.5q62 16 81.5 29.5t47 -6t33.5 -39t6 -35.5t-14 -78.5t-58.5 -144.5t-78 -103.5t-41 16t-19.5 64.5 t11.5 5.5t35.5 -23.5t43 37t56.5 111.5t25.5 109.5t-19.5 45t-125.5 -20q-90 -203 -123 -271t-56.5 -86t-35 5.5zM629 547q90 -20 136.5 -61t41 -89.5t-35 -23.5t-64.5 25t-6 14t29 31.5t-21 43t-80 60.5zM672 660q20 4 43 0t42.5 -13.5t21.5 -29t-11.5 -27.5t-37 17.5 t-51 37t-7.5 15.5zM715 719q20 4 43 0t42.5 -14t21.5 -29.5t-11.5 -27t-37 17.5t-51 37t-7.5 16z" />
<glyph unicode="&#x304d;" d="M246 548.5q-8 17.5 31 17.5t157 16q-47 59 -92 72.5t-6 29t58.5 11.5t29 -21t56.5 -76q43 16 61 27.5t37.5 9.5t23 -19.5t-93.5 -56.5l54 -75q43 20 59 31.5t39.5 15.5t35 -11.5t-29.5 -35t-76 -35.5q74 -90 89.5 -109.5t8 -46.5t-27 -11.5t-51 23t-115.5 0t-123 -35 t-33 -64.5t43 -58.5t84 -25.5t88 -2t64.5 6t41 -11.5t-16 -31.5t-96 -14t-125 16t-99.5 49t-33 84t62.5 82t140.5 41t129 4l-66 90q-55 -20 -127.5 -35.5t-115 -13.5t-52.5 25.5t29 21.5t105.5 5.5t132.5 31.5l-58 78q-39 -16 -103.5 -21.5t-88 0t-31.5 23z" />
<glyph unicode="&#x304e;" d="M203 521.5q-8 17.5 31 17.5t157 16q-47 59 -92 72.5t-6 29t58.5 11.5t29.5 -21.5t57 -76.5q43 16 60.5 27.5t37 9.5t23 -19.5t-93.5 -56.5l55 -74q43 20 58.5 31.5t39 15.5t35 -11.5t-29.5 -35t-76 -35.5q74 -90 89.5 -109.5t8 -47t-27 -11.5t-51 23.5t-115.5 0t-123 -35 t-33 -64.5t43 -58.5t84 -25.5t88 -2t64.5 6t41 -12t-16 -31.5t-96 -13.5t-125 15.5t-99.5 49t-33 84t62.5 82t140.5 41t129 3.5l-66 90q-55 -20 -127.5 -35.5t-115 -13.5t-52.5 25.5t29 21.5t105.5 6t132.5 31l-58 79q-39 -16 -103.5 -22t-88 0t-31.5 23.5zM621 645 q16 4 39.5 0t41 -16t21.5 -29.5t-10 -31t-35.5 17.5t-47 45t-9.5 14zM695 707q20 4 41.5 0t41 -13.5t21.5 -29t-12 -29.5t-37 17.5t-49 39t-6 15.5z" />
<glyph unicode="&#x304f;" d="M324 345.5q0 21.5 41 74.5t103.5 139t50.5 117t4 31q20 0 55 -25.5t27.5 -45t-134.5 -148.5t-125 -142.5t89.5 -66t140.5 -105.5t49 -90t-29.5 -39t-41 31t-52.5 86t-107.5 107.5t-70.5 76z" />
<glyph unicode="&#x3050;" d="M283 345.5q-2 25.5 37 82t86 141t43 115.5q0 35 15.5 33t43 -27.5t20 -43t-58.5 -70.5t-105.5 -127t-56.5 -93.5t74 -78t128.5 -111.5t45 -86t-29 -33t-35 35t-51 88t-96 101.5t-60.5 74zM621 605q20 0 41.5 -5.5t39 -17.5t17.5 -29.5t-14 -27t-33.5 17.5t-45 46.5 t-5.5 15.5zM680 688q27 0 48.5 -8t37 -20t15.5 -27.5t-15.5 -25t-37 21.5t-46.5 45t-2 14z" />
<glyph unicode="&#x3051;" d="M242 310.5q-4 80.5 17.5 168t22 138.5t-19.5 82q-16 35 23 15.5t53 -41t-6 -64.5t-37.5 -119t-17.5 -134.5t10 -99.5t33.5 11.5t52.5 95.5t4 -31t-33 -119t-8 -70.5t-23.5 -21.5t-45 56.5t-25.5 133zM470.5 488.5q-25.5 27.5 13.5 23.5t121 4q-4 105 -7.5 132.5 t-19.5 54.5t9.5 21.5t55 -19.5t17.5 -45t-12 -137q66 12 88 24t47.5 -6t11.5 -27.5t-51 -15.5t-96 -14q0 -86 -1.5 -156t-33 -146.5t-103.5 -127t-13.5 14t80 125t25 127t3.5 156.5q-59 -8 -84 -12t-50.5 23.5z" />
<glyph unicode="&#x3052;" d="M180 295q-4 80 15.5 168t25.5 137t-10 76q-12 27 19.5 13.5t49 -45t-4 -62.5t-41 -107.5t-19.5 -135t9.5 -99.5t35 12t53 96t2 -31.5t-29.5 -119.5t0 -66.5t-17.5 -17.5t-52.5 53t-35 129zM398.5 484.5q-27.5 27.5 15.5 23.5t133 8q0 102 -6 131t-19.5 56t15.5 21.5 t56.5 -21t12 -43t-11.5 -137.5q66 8 93.5 20t53 -7.5t13.5 -31.5t-55 -16t-105 -11q-4 -211 -47 -297t-121 -131t-6 15.5t99.5 148.5t27.5 256q-62 -8 -91.5 -10t-57 25.5zM675.5 636.5q-19.5 19.5 0.5 15.5q23 -4 38.5 -11.5t31.5 -21.5t14 -31.5t-19.5 -27t-31.5 23.5 t-33.5 52.5zM738 715q20 4 41.5 -2t39 -15.5t19.5 -25.5t-13.5 -29.5t-37 16t-45.5 43t-4 13.5z" />
<glyph unicode="&#x3053;" d="M266 254q-4 59 7.5 51t21.5 -51t51 -66.5t117 -23.5t142.5 10t99.5 17.5t33 -19.5t-35 -45t-134.5 -23.5t-170 12t-97.5 48.5t-35 90zM371 664q-8 16 13.5 6t74.5 -23.5t98 -15.5t70 6t46.5 -6t25.5 -35.5t-25 -23.5t-66.5 -9.5t-72.5 -23.5t-15.5 9.5t8 31.5t-47 15.5 t-68.5 31t-41 37.5z" />
<glyph unicode="&#x3054;" d="M215 246q0 82 11.5 64.5t17.5 -74t49 -86t119 -29.5t146.5 15.5t100 23.5t35 -23.5t-31.5 -49t-148.5 -23t-174 12t-93.5 52.5t-31 117zM314.5 597.5q-13.5 11.5 53 -2t109.5 -13.5t70 8t46.5 -4t19.5 -33.5t-31 -23.5t-66.5 -11.5t-64.5 -21.5t-15.5 4t27.5 25.5 t-5.5 15.5t-53 15.5t-56.5 17.5q-20 12 -33.5 23.5zM594 660q20 4 43 0t42.5 -13.5t21.5 -29t-11.5 -27.5t-37 17.5t-51 37t-7.5 15.5zM703 691q20 4 43.5 0.5t43 -13.5t21 -29.5t-12 -27.5t-37 17.5t-51 37t-7.5 15.5z" />
<glyph unicode="&#x3055;" d="M221 515.5q-6 15.5 39 10.5q46 -6 178 21q-47 39 -76.5 64.5t-41 56.5t19.5 45t64.5 8t13.5 -14t-39.5 -17.5t0 -35.5t105.5 -92q66 31 70.5 43t-5.5 26t17.5 4t47 -8t15.5 -17.5t-33.5 -39t-83.5 -39.5q125 -98 154 -125t25.5 -62t-27 -23.5t-72.5 23t-111.5 19.5 t-117 -25t-58.5 -91.5t41 -88t91.5 -29.5t95.5 8t74.5 11.5t33 -18t-31.5 -35t-142.5 -11.5t-158 58.5t-37 125t80 99.5t136.5 25.5t137 -17.5l-148 141q-160 -35 -187.5 -35.5t-45 9.5t-23.5 25.5z" />
<glyph unicode="&#x3056;" d="M201 504q-6 16 39 10t178 21q-47 39 -76.5 64.5t-41 57t20 45t64.5 7.5t13.5 -13.5t-39 -17.5t0 -35.5t105.5 -91.5q66 31 70 42.5t-5.5 25.5t17.5 4t46.5 -8t15.5 -17.5t-33 -39t-84 -38.5q125 -98 154.5 -125.5t25.5 -62.5t-27.5 -23.5t-72.5 23.5t-111.5 19.5 t-117 -25.5t-58.5 -91.5t41 -88t92 -29.5t95.5 8t74 12t33.5 -17.5t-31 -35.5t-142.5 -12t-158.5 59t-37 125t80.5 99.5t136.5 25.5t136 -18l-148 141q-160 -35 -187.5 -35t-45 9.5t-23.5 25.5zM652 660q20 0 41.5 -6t39 -17.5t19.5 -29t-11.5 -27.5t-33 19.5t-45.5 45 t-10 15.5zM758 680q20 4 43 0t42.5 -14t21.5 -29.5t-11.5 -27t-37 17.5t-51 37t-7.5 16z" />
<glyph unicode="&#x3057;" d="M324 688q-12 27 19.5 23t61 -21.5t8 -35t-25.5 -156.5t-4 -219t19.5 -105.5t64.5 -13.5t115 53t136.5 113t47 29t-78 -107t-142.5 -107t-127 -31.5t-60.5 46.5t-17.5 109.5t2 217t0 162.5t-18 43z" />
<glyph unicode="&#x3058;" d="M305 684q-12 27 19 23t60.5 -21.5t8 -35t-25.5 -156.5t-4 -219t19.5 -105t64.5 -13.5t115.5 52.5t137 113.5t47 29.5t-78.5 -107.5t-143 -107.5t-127 -31.5t-60.5 47t-17.5 109.5t2 216.5t0.5 162.5t-17.5 43zM504 613q20 0 41 -7.5t37 -23.5t12 -37.5t-18 -31 t-27.5 27.5t-39 56.5t-5.5 15.5zM590 648q20 4 43 -1.5t42.5 -19.5t23.5 -33.5t-11.5 -35t-37 21.5t-51 52.5t-9.5 15.5z" />
<glyph unicode="&#x3059;" d="M201 504q-29 39 23.5 25.5t298.5 9.5q0 62 -3.5 103.5t-33 70.5t11.5 25t60.5 -15.5t10 -39t-2.5 -140.5q43 4 94 10t90 15.5t62.5 -18t-6 -29t-86 -1.5t-158.5 -8v-94q23 -55 19.5 -107.5t-17 -105.5t-56.5 -99.5t-78 -60.5t-8 11.5t64 76.5t41 137q-27 -20 -54.5 -22 t-51 21.5t-25 76t35.5 82t91 13.5v67q-98 -12 -158 -18t-97.5 -15.5t-66.5 29.5zM428 367.5q-2 -27.5 4 -53t33 -35t58 29.5q4 47 0 86q-35 35 -64 17.5t-31 -45z" />
<glyph unicode="&#x305a;" d="M158.5 504q-29.5 39 23 25.5t298.5 9.5q0 62 -3.5 103.5t-33 70.5t11.5 25t60.5 -15.5t10 -39t-5.5 -140.5q47 4 97.5 10t89.5 15.5t62.5 -18t-6 -29t-86 -1.5t-157.5 -8v-94q23 -55 19 -107.5t-17.5 -105.5t-56.5 -99.5t-78 -60.5t-8 11.5t64 76.5t41 137 q-27 -20 -54.5 -22t-51 21.5t-25 76t35.5 82t91 13.5v67q-98 -12 -158 -18t-97 -15.5t-66.5 29.5zM385 367.5q-2 -27.5 4 -53t33 -35t58 29.5q4 47 0 86q-35 35 -64 17.5t-31 -45zM656 660q20 0 41.5 -4t39 -15.5t17.5 -29t-13.5 -25.5t-31.5 15.5t-45.5 41t-7.5 17.5z M750 699q20 0 41 -4t39 -15.5t18 -29t-14 -25.5t-31.5 15.5t-45 41t-7.5 17.5z" />
<glyph unicode="&#x305b;" d="M183.5 377q-27.5 25 6 25t64.5 4t101 24q0 47 -3.5 68.5t-27 52.5t9.5 29t60.5 -17.5t19.5 -41t-8 -80.5l180 43q0 156 -29.5 185.5t2 29.5t66.5 -13.5t23.5 -33t-15.5 -156.5q51 8 86 21.5t62.5 -10t-10 -29t-64.5 -9.5t-74 -12q0 -133 -29.5 -168t-45 -9.5t-45 45 t2 13.5t41 -4t17.5 29.5t12 85.5q-109 -23 -184 -43q-4 -168 17.5 -203t82 -31t111.5 15.5t74.5 15.5t25.5 -21.5t-41 -37t-131 -15.5t-127 17.5t-49 90t-10 158.5q-74 -20 -85.5 -30t-35 -11.5t-51 23.5z" />
<glyph unicode="&#x305c;" d="M183.5 396.5q-35.5 37.5 2 35.5t68.5 0t101 17q-4 94 -29 121.5t8 25.5t60.5 -18t17.5 -41t-10 -76l184 35q-4 152 -33.5 181.5t2 29.5t68.5 -13.5t23.5 -33t-13.5 -152.5q59 12 92 21.5t62 -16t-12 -29.5t-68 -5.5t-74 -9.5q4 -133 -27.5 -168t-47 -8t-45 46.5t2 14 t43 -3.5t17.5 29t10 82q-109 -20 -184 -35q-4 -172 17.5 -207t82 -31.5t111.5 15.5t74.5 16t25.5 -21.5t-41 -37.5t-131 -15.5t-127 18t-49 89.5t-10 162q-86 -23 -111 -39t-60.5 21.5zM684 652q23 0 52.5 -17.5t31.5 -37t-16 -29t-29.5 19.5t-35 48.5t-3.5 15.5zM773 691 q23 0 51 -15.5t31.5 -31t-14 -29t-27 11.5t-37 46.5t-4.5 17.5z" />
<glyph unicode="&#x305d;" d="M187.5 377q35.5 2 78.5 6t97.5 54.5t119 117t74 94t-6 29.5t-60.5 -15.5t-74 -35.5t-50.5 -10t-43 33.5t15.5 21.5t64.5 -2t68.5 11.5t66 27.5t45 14t47 -31.5t31 -47t-33 -35t-90 -54.5t-209 -164q31 12 132.5 35t166 46.5t86 15.5t37.5 -31t-31 -23t-145 -16 q-66 -70 -91.5 -115t-27.5 -86t25.5 -72.5t103.5 -35.5t78 -37t-56.5 -33t-121 31.5t-64.5 103.5t27.5 121t75.5 115q-86 -16 -146.5 -35.5t-101.5 -44.5t-82 10t-5.5 37z" />
<glyph unicode="&#x305e;" d="M199.5 391q19.5 4 50.5 7.5t86 54.5t119.5 117.5t74 93.5t-6 29t-60.5 -15.5t-74.5 -35t-51 -9.5t-43 33t16 21.5t64.5 -1.5t68 11.5t66.5 27t45 13.5t47 -31t31.5 -46.5t-33.5 -35.5t-92 -59t-210.5 -160q35 12 156 39.5t189.5 51t90 15.5t37 -31.5t-31.5 -23.5 t-195 -23q-62 -70 -87.5 -115.5t-27.5 -86.5t25 -72t103.5 -35t84 -37t-56.5 -33t-126.5 31t-64.5 103.5t27 121t76 115.5q-82 -16 -138.5 -35.5t-84 -41t-60.5 8t-13.5 33.5zM695 625q20 0 41.5 -4t39 -15.5t17.5 -29t-13.5 -25.5t-31.5 15.5t-45.5 41t-7.5 17.5zM797 660 q20 0 41 -4t39 -15.5t18 -29t-14 -25.5t-31.5 15.5t-45 41t-7.5 17.5z" />
<glyph unicode="&#x305f;" d="M217 127q-2 25 17.5 52.5t48.5 90t76 214.5q-31 -8 -44.5 -7.5t-29 10t-23.5 27t29 13.5t88 8q16 47 21.5 88t-8 70.5t23.5 19.5t56.5 -25.5t2 -27t-48.5 -109.5q55 16 76 31.5t46.5 -0.5t8 -31.5t-56.5 -31t-94 -27.5q-47 -148 -72 -216.5t-41 -107.5t-45 -52.5 t-31 11.5zM437 150.5q-8 25.5 4 60.5q16 39 18 6t10 -54.5t64.5 -25.5t107 2t76 11.5t33.5 -20t-25.5 -37t-105.5 -11.5t-107 10t-51 21.5t-24 37zM574 496q35 4 74 0q39 0 78.5 -21.5t49 -50.5t-29.5 -27.5t-88 -14t-25.5 4t35.5 31.5t8 19.5t-23.5 17.5t-66.5 23.5 t-12 17.5z" />
<glyph unicode="&#x3060;" d="M193 134.5q-2 25.5 17.5 53t49 90t76.5 214.5q-31 -8 -45 -8t-29.5 10t-23.5 27.5t29.5 13.5t87.5 8q16 47 22 88t-8 70t23.5 19.5t57 -25t1.5 -27t-49 -113.5q62 16 86 31.5t45.5 1.5t13.5 -29.5t-58.5 -31t-105.5 -27.5q-47 -148 -72.5 -216.5t-41 -107.5t-45 -53 t-31.5 11.5zM426 158.5q-8 25.5 4 60.5q16 39 17.5 5.5t9.5 -55t64.5 -25t107.5 2t76 11.5t33 -19.5t-25 -37t-105.5 -11.5t-107.5 9.5t-50.5 21.5t-23.5 37.5zM578 502q31 6 70 2q39 0 78.5 -15.5t51 -43t-27.5 -27.5t-86 -19.5t-25.5 2t29.5 33t6 19.5t-21.5 14 t-62.5 17.5t-12 17.5zM668 633q20 0 41 -4t39 -15.5t18 -29.5t-14 -25.5t-31.5 16t-45 41t-7.5 17.5zM773 660q20 0 41.5 -4t39 -15.5t17.5 -29t-13.5 -25.5t-31 15.5t-45.5 41t-8 17.5z" />
<glyph unicode="&#x3061;" d="M252 517.5q-10 13.5 21.5 11.5t117.5 14q12 98 9.5 127t-12 54.5t20 14t50.5 -33t5.5 -35.5t-38.5 -115q55 16 70.5 21.5t44.5 21t52.5 -8t-48.5 -43t-127 -34.5l-39 -192q66 59 117 84.5t111.5 27.5t109.5 -43t43 -117.5t-51 -125t-103.5 -74t-101.5 -21.5t0 13.5t82 33 t76 64.5t43 92t-19.5 90t-84 52.5t-129 -37.5t-94 -107.5t-43 -54.5t-33 23.5t19.5 72.5t61 211q-35 -16 -58.5 -21.5t-43 8t-29.5 27z" />
<glyph unicode="&#x3062;" d="M224.5 527.5q-9.5 19.5 27.5 15.5t107 4q23 105 19.5 128.5t-13.5 51t21.5 15.5t53 -33t4 -33t-45.5 -121q62 12 82 21.5t49.5 17.5t49 -15.5t-43 -35.5t-144.5 -27l-63 -204q78 62 129 80t111.5 16t113 -49t37 -113t-56.5 -105t-109.5 -60.5t-111.5 -16t-5.5 11.5 t76.5 19.5t84 49t56.5 84t-6 91.5t-80 59t-135 -23.5t-105.5 -98t-50.5 -56.5t-29.5 17.5t23.5 64.5t82.5 225q-35 -4 -58.5 -12t-41.5 2t-27.5 29.5zM629 617q20 0 41 -4t39 -15.5t18 -29t-14 -25.5t-31.5 15.5t-45 41t-7.5 17.5zM730 660q20 0 41.5 -4t39 -15.5t17.5 -29 t-13.5 -25.5t-31 15.5t-45.5 41t-8 17.5z" />
<glyph unicode="&#x3063;" d="M238 472.5q-39 50.5 4 33t137 19.5t158.5 49t107.5 -8t78 -64.5t15.5 -107t-70.5 -97.5t-137 -58.5t-115 -14t41 23.5t142.5 51t90 91.5t-12 92t-72.5 49t-123 -12t-132.5 -47t-62.5 -37t-49 37z" />
<glyph unicode="&#x3064;" d="M185.5 470.5q-48.5 56.5 6 41t164 25.5t183.5 52.5t125 -11.5q55 -20 96 -74.5t19.5 -128.5t-86 -119t-162 -70.5t-133 -15.5t52.5 27.5t172 62.5t101.5 111.5t-15.5 111t-84 62t-150.5 -13.5t-160 -60.5t-70.5 -43t-58.5 43z" />
<glyph unicode="&#x3065;" d="M174 431.5q49 -56.5 58.5 -43t70 43t160 60.5t150.5 13.5t84 -62.5t15.5 -111t-101.5 -111t-171.5 -62.5t-52.5 -27.5t132.5 15.5t162 70.5t86 119t-19.5 128.5t-96 74.5q-51 23 -125 11.5t-183.5 -52.5t-164 -25.5t-5.5 -41zM672 648q20 0 41 -3.5t39 -15.5t18 -29.5 t-14 -25.5t-31.5 15.5t-45 41t-7.5 17.5zM730 730q20 0 41.5 -3.5t39 -15.5t17.5 -29.5t-13.5 -25.5t-31 15.5t-45.5 41t-8 17.5z" />
<glyph unicode="&#x3066;" d="M197.5 531.5q-17.5 23.5 33 11.5t193 27t189.5 53t72.5 23.5t49 2t35 -27t-58.5 -27.5t-99.5 -18t-78.5 -45t-80 -103.5t-27 -127t43 -87.5t82 -37t91.5 -2t66.5 -17.5t-13.5 -35.5t-100 -6t-127 39.5t-78 107.5t21.5 156t139 148q-211 -51 -242.5 -74t-62.5 -3.5 t-48.5 43z" />
<glyph unicode="&#x3067;" d="M166 515.5q-18 23.5 33 12t197.5 27.5t189.5 52.5t68.5 23.5t49 2t35 -27.5t-59 -27.5t-99.5 -17.5t-78 -45t-80 -103.5t-27.5 -126.5t43 -88t82 -37.5t91.5 -2t66.5 -17.5t-13.5 -35t-99.5 -6t-127 39t-78 107.5t21.5 156.5t139 148.5q-211 -51 -242.5 -74.5t-62.5 -4 t-49 43zM621 492q20 0 41.5 -4t39 -15.5t17.5 -29t-14 -25.5t-31.5 15.5t-45 41t-7.5 17.5zM711 520q20 0 41 -4t39 -16t18 -29.5t-14 -25t-31.5 15.5t-45 41t-7.5 18z" />
<glyph unicode="&#x3068;" d="M293 285q16 70 148 137q-20 31 -21.5 132.5t-23 131t13.5 23.5t64.5 -19.5t14 -41t-20 -90t11.5 -117.5q70 23 88 31t31.5 31.5t35 0t27.5 -44.5t-35 -25t-103.5 -18t-129 -57t-70.5 -95.5t23.5 -74t98 -23.5t150.5 13.5t107 17.5t33 -27t-42.5 -41t-134.5 -14t-148.5 10 t-98 51t-19.5 109z" />
<glyph unicode="&#x3069;" d="M273.5 271.5q15.5 76.5 148.5 146.5q-20 90 -22 172t-23.5 113t14 25.5t64.5 -21.5t13.5 -45t-19.5 -74t12 -150q70 27 87.5 34.5t31.5 33t35.5 0t27 -48.5t-35.5 -27t-103.5 -18t-128.5 -60.5t-70 -103.5t23 -80t97.5 -25t150.5 13.5t107.5 19.5t33.5 -29.5t-43 -45 t-135 -13.5t-148.5 9.5t-97.5 54.5t-19.5 119.5zM652 559q20 0 41.5 -4t39 -18t17.5 -33.5t-13.5 -27t-31 18t-45.5 45t-8 19.5zM723 637q20 0 41 -4t38.5 -16t17.5 -31.5t-13.5 -27t-31 18t-45 43t-7.5 17.5z" />
<glyph unicode="&#x306a;" d="M215 326q-4 37 19.5 51t49 53t52.5 105q-51 -8 -74.5 4t-9.5 23.5t39 11.5t64 8q23 78 21.5 99.5t-5.5 37t21.5 6t45 -23t0 -37t-35.5 -70.5q47 12 72.5 27.5t47 11.5t27.5 -19.5t-37 -33.5t-125 -33q-51 -121 -86 -178t-58.5 -68.5t-27.5 25.5zM338 148.5 q-2 39.5 47 76.5t142 37q-12 94 -6 131t55 62t74.5 39t19.5 31.5t-19.5 31t10 6t58.5 -25t21.5 -37.5t-60.5 -23.5t-88 -29t-35.5 -72.5t17.5 -113q62 -8 99.5 -23.5t31.5 -45t-31.5 -19.5t-45 19.5t-54.5 25.5q0 -94 -25.5 -123.5t-76 -33t-91.5 21.5t-43 64.5zM365 140.5 q6 -23.5 31.5 -35t54.5 -15.5t58.5 21t21.5 123q-66 4 -103 -13.5t-53 -37t-10 -43z" />
<glyph unicode="&#x306b;" d="M234 359q0 82 18 156.5t18 107.5t-8.5 58.5t11.5 21.5t45.5 -33t6 -52.5t-39 -101.5t-17.5 -141t19.5 -98t23 4t15.5 62.5t8 -50.5t15.5 -109.5t-17.5 -27.5t-66.5 64.5t-31.5 138.5zM424 297q-2 43 7.5 62.5t11.5 -4t4 -53t35.5 -37t84 -5.5t95.5 9.5t80 15.5t35 -23.5 t-66 -43t-142.5 -9.5t-109.5 23.5t-35 64.5zM469 609.5q8 15.5 54.5 31t93.5 19.5q51 4 78.5 -9.5t35 -43t-27.5 -27.5t-86 -17.5t-13.5 13.5t16 41t-53 4t-68.5 -15.5t-29 4z" />
<glyph unicode="&#x306c;" d="M197 226.5q2 78.5 73 179.5q-16 105 -18 134.5t-15.5 55t13.5 25.5t46.5 -17.5t3.5 -41.5q-15 -22 -3 -124q51 62 117 113q8 59 8 88t-15.5 60t39 6t37 -52.5t-29.5 -82.5q109 62 185.5 50.5t102 -70t23.5 -134.5t-26 -135q20 -12 43.5 -27.5t29 -44.5t-17.5 -41 t-29 17.5t-41 52.5q-43 -78 -102 -87.5t-82 6t-29 50.5t27 58.5t74 29.5t84 -2q20 62 16 142.5t-27.5 117.5t-90 37t-144.5 -47q-20 -129 -58 -266q23 -16 17 -41t-41 -9q-55 -102 -113.5 -90.5t-56.5 90zM228 234.5q6 -62.5 49 -56.5t71 68q-40 39 -71 133 q-55 -82 -49 -144.5zM305 410q31 -86 62 -125q35 130 43 235q-66 -47 -105 -110zM527 215q4 -35 47 -35t68.5 21.5t37.5 52.5q-43 20 -100 8t-53 -47z" />
<glyph unicode="&#x306d;" d="M203 248.5q0 21.5 31.5 50.5t93.5 107q4 82 8 141q-43 -16 -58.5 -18t-35 21.5t9.5 21.5t84 10q4 94 -15.5 127t11.5 27t54.5 -23.5t10 -35t-25.5 -83.5q51 23 72.5 9.5t-27.5 -35t-49 -119.5q168 188 221 201.5t88 -2t50.5 -60.5t11.5 -160.5t-27 -177.5 q74 -39 82 -54.5t-7.5 -33t-41.5 3.5q-24 22 -56 41q-27 -35 -60.5 -52.5t-74.5 -15.5t-62.5 19.5t-19.5 44.5t33 48.5t72 21.5t92 -11q27 90 25 185.5t-13.5 136.5t-50.5 41t-80 -31.5t-92 -87.5t-90 -115q0 -66 4 -127t0 -92t-17.5 -39t-21.5 31t-29.5 76t4 21.5 t21.5 78.5q-47 -62 -62.5 -93.5t-39 -25.5t-23.5 27.5zM496 209q-16 -37 52.5 -42.5t103.5 60.5q-35 23 -87.5 21t-68.5 -39z" />
<glyph unicode="&#x306e;" d="M223 439q4 84 76 150.5t142.5 80.5t121 8t103.5 -33.5t88 -88t31 -140.5t-50.5 -152.5t-121 -99.5t-123.5 -27t41 29t141 99.5t56.5 152.5t-47 158t-169.5 72q31 -31 13.5 -62t-58.5 -113t-74.5 -154.5t-68.5 -80.5t-70 54.5t-31 146.5zM258 441.5q-4 -66.5 19.5 -105.5 t35 -41t23.5 9.5t78 140.5t68 151t-2 49q-98 -12 -158 -74.5t-64 -129z" />
<glyph unicode="&#x306f;" d="M236 349.5q2 91.5 27.5 172t12 123.5t17.5 25t46.5 -41.5t-2 -35t-44.5 -80t-27 -150.5t31 -156q23 74 52.5 129t4 -43t-19.5 -137t-25.5 -23.5t-53 70.5t-19.5 146.5zM433.5 201q-7.5 -33 19.5 -56.5t82 -17.5t80.5 27.5t36.5 68.5q47 -16 86 -45.5t49 -25.5t12 21.5 t-31.5 39t-111.5 41.5q-4 98 -11 246q35 8 76 15.5t60.5 21.5t-4 25.5t-52.5 0t-80 -23.5q0 43 7.5 72.5t-14 43t-52.5 21.5t-13.5 -17.5t27 -49t9.5 -78.5q-70 -8 -119 -6t-35 -15.5t39.5 -21.5t118.5 8q8 -141 8 -234q-82 16 -131 -6t-56.5 -55zM463 191.5q2 23.5 35 39 t58.5 13.5t60.5 -10q-8 -59 -52.5 -74t-74 -3.5t-27.5 35z" />
<glyph unicode="&#x3070;" d="M201 334q2 92 27.5 172t12 123t17.5 25.5t46.5 -41t-2 -35.5t-45 -80t-27 -150.5t31.5 -156.5q23 74 52.5 129t4 -42.5t-19.5 -136.5t-25.5 -23.5t-53 70t-19.5 146.5zM375 185.5q-8 -33.5 19.5 -57t76.5 -17.5t80 27.5t43 68.5q47 -16 86 -45t48.5 -25t11.5 25.5t-31 41 t-111 38.5q-4 94 -12 242q35 8 76 16t60.5 21.5t-4 25.5t-52.5 0t-80 -24q0 43 8 72.5t-13.5 43t-53 21.5t-14 -17.5t27.5 -49t10 -77.5q-70 -8 -119 -6t-35.5 -15.5t39 -21.5t119.5 7q7 -141 7 -230q-82 12 -130.5 -9.5t-56.5 -55zM404 175.5q2 23.5 35.5 39t59 14 t60.5 -9.5q-8 -59 -53 -74.5t-74.5 -4t-27.5 35zM664 672q20 0 41.5 -4t39 -15.5t17.5 -29.5t-14 -25.5t-31.5 16t-45 41t-7.5 17.5zM734 734q20 0 41.5 -3.5t39 -15.5t17.5 -29.5t-13.5 -25.5t-31 15.5t-45.5 41t-8 17.5z" />
<glyph unicode="&#x3071;" d="M201 338q2 96 27.5 180t12 128.5t17.5 27t46.5 -43t-2 -37t-45 -82t-27 -156.5t31.5 -164q23 78 52.5 135t4 -44.5t-19.5 -142.5t-25.5 -25.5t-53 72t-19.5 152.5zM398.5 183.5q-7.5 -35.5 19.5 -58.5t82 -17.5t80 27t37 72.5q47 -16 86 -47t54.5 -29t15.5 23.5t-39 45 t-113 42.5q-4 98 -8 254q31 8 72.5 16t61 23.5t-4 27t-53 0t-76.5 -23.5q-4 43 4 74.5t-13.5 45t-52.5 21.5t-13.5 -17.5t27 -51t13.5 -80.5q-74 -12 -123 -10t-35 -15.5t39 -21.5t123 8q4 -148 4 -242q-86 12 -133 -9.5t-54.5 -57zM428 173.5q2 25.5 35 41t58.5 14 t60.5 -9.5q-8 -62 -53 -78t-74 -4.5t-27 37zM687.5 707q0.5 27 16 45t35 21.5t39 -2t35 -21.5t13.5 -45t-19.5 -46.5t-48.5 -18t-51 19.5t-19.5 47zM711 707q0 -27 23 -39t45 0t22 39t-23.5 39t-45 0t-21.5 -39z" />
<glyph unicode="&#x3072;" d="M199 599.5q-8 17.5 33 13.5t82 10t57 33.5t33.5 5.5t27 -41t-17.5 -41t-95.5 -94t-74.5 -164t31 -132.5t101.5 -56.5t109.5 27t74.5 113.5t39 185.5t-4 136.5t-19.5 53t19.5 27.5t35.5 -10t17.5 -41t37 -66t60.5 -70.5t29 -55t-23.5 -21.5t-42.5 35t-76 92 q-16 -203 -47 -287t-88 -121t-123 -37t-125 50.5t-49 168t170 285.5q-62 -16 -93.5 -27.5t-51 0t-27.5 29z" />
<glyph unicode="&#x3073;" d="M195.5 584q7.5 -18 27 -29.5t51 0t93.5 27.5q-160 -168 -169.5 -285t49 -168t125 -51t123 37t87.5 121t47 287q55 -59 76.5 -92t43 -34.5t23 21.5t-29.5 54.5t-60.5 70.5t-37 66.5t-17.5 41t-35.5 9.5t-19.5 -27.5t19.5 -52.5t4 -136.5t-39 -185.5t-74 -113.5t-109 -27.5 t-102 57t-31.5 133t74.5 164t96 93.5t17.5 41t-27.5 41t-33 -6t-56.5 -33t-82 -9.5t-33.5 -14zM687.5 632.5q-23.5 23.5 3.5 15.5q31 -8 49 -19.5t25.5 -25t2 -29t-17.5 -19.5t-25.5 25t-37 52.5zM742 711q20 0 41.5 -6t37 -17.5t19.5 -29t-12 -29.5t-35.5 21.5t-45 49 t-5.5 11.5z" />
<glyph unicode="&#x3074;" d="M191.5 584q7.5 -18 27 -29.5t51 0t93.5 27.5q-160 -168 -169.5 -285t49 -168t125 -51t123 37t87.5 121t47 287q55 -59 76.5 -92t43 -34.5t23.5 21.5t-29.5 54.5t-61 70.5t-37 66.5t-17.5 41t-35.5 9.5t-19.5 -27.5t20 -52.5t4 -136.5t-39.5 -185.5t-74 -113.5t-109 -27.5 t-102 57t-31.5 133t74.5 164t96 93.5t17.5 41t-27.5 41t-33 -6t-56.5 -33t-82 -9.5t-33.5 -14zM687.5 645q0.5 27 16 44.5t35 21.5t39 -2t35 -21.5t13.5 -45t-19.5 -47t-48.5 -17.5t-51 20t-19.5 47zM711 644.5q0 -27.5 23 -39.5t45 0t22 39.5t-23.5 39t-45 0t-21.5 -39z " />
<glyph unicode="&#x3075;" d="M125 179.5q8 23.5 25.5 4t76.5 15.5q145 129 242 164q-35 31 -62.5 64.5t-19.5 72.5t39 72t21.5 35t-39 35.5t-29.5 47t37 -8t80 -31t43 -39t-25.5 -29.5t-62.5 -29.5t-29 -60.5t27.5 -52.5t70.5 -60.5q164 16 226.5 -43t44.5 -109.5t-51 -29t-76 19.5t-21.5 9.5t45 23.5 t15.5 39t-51 52.5t-117 17.5q43 -39 41 -103.5t-33 -101.5t-66.5 -43t-82 14t-62.5 31.5t-4 11.5t47 -6t70 -6t63 47q23 86 -28 141q-121 -43 -199 -145q-55 -66 -86 -72t-54.5 11.5t-15.5 41z" />
<glyph unicode="&#x3076;" d="M140.5 179.5q7.5 23.5 25.5 4t76 15.5q145 129 242 164q-35 31 -62 64.5t-19.5 72.5t39 72t21.5 35t-39 35.5t-29 47t37 -8t80 -31t43 -39t-25.5 -29.5t-62.5 -29.5t-29.5 -60.5t27 -52.5t70.5 -60.5q164 16 226.5 -43t45 -109.5t-50.5 -29t-76 19.5t-21.5 9.5t45 23.5 t15.5 39t-51 52.5t-117 17.5q43 -39 41 -103.5t-33.5 -101.5t-66.5 -43t-82 14t-62.5 31.5t-4 11.5t47 -6t70.5 -6t62 47q23 86 -27 141q-121 -43 -199 -145q-55 -66 -86 -72t-54.5 11.5t-16 41zM633 645q23 0 44.5 -8t39 -20t17.5 -29.5t-13.5 -25t-31 16t-48.5 47t-8 19.5 zM719 703q27 0 48.5 -7.5t37 -19.5t15.5 -29.5t-13.5 -25.5t-31 15.5t-50.5 47t-6 19.5z" />
<glyph unicode="&#x3077;" d="M133 187.5q8 23.5 25.5 4t75.5 15.5q145 129 243 164q-35 31 -62.5 64.5t-20 72.5t39 72t21.5 35t-39 35.5t-29 47t37 -8t80 -31.5t43 -39t-25.5 -29t-62.5 -29.5t-29 -60.5t27 -52.5t70 -60.5q164 16 226.5 -43t45 -109.5t-50.5 -29t-76 19.5t-21.5 9.5t45 23.5t15.5 39 t-51 52.5t-117 17.5q43 -39 41 -103.5t-33 -101.5t-66.5 -43t-82.5 13.5t-62.5 31.5t-3.5 12t47 -6t70 -6t63 47q23 86 -28 141q-121 -43 -199 -145q-55 -66 -86 -72t-54.5 11.5t-15.5 41zM636.5 645q0.5 27 16 44.5t35 21.5t39 -2t35 -21.5t13.5 -45t-19.5 -47t-48.5 -17.5 t-51 20t-19.5 47zM660.5 644.5q0.5 -27.5 23.5 -39.5t44.5 0t21.5 39.5t-23.5 39t-45 0t-21 -39z" />
<glyph unicode="&#x3078;" d="M162 375q-2 12 35 8t102 66t88 78t40.5 -1.5t68.5 -45t123 -64.5t142.5 -41t76.5 -45t-45 -33t-137 43t-148.5 91.5t-95.5 58.5t-86 -68t-86 -82t-54.5 9.5t-23.5 25.5z" />
<glyph unicode="&#x3079;" d="M158 351.5q-2 11.5 35 7.5t102 66.5t88 78.5t40.5 -2t68.5 -45t123.5 -64.5t142.5 -41t76 -45t-45 -33.5t-137 43t-148.5 92t-95.5 59t-85.5 -68.5t-86 -82.5t-55 10t-23.5 25.5zM605 590q31 0 57 -8t43.5 -19.5t17.5 -29t-14 -29.5t-35.5 15.5t-58.5 49t-10 21.5z M684 664q31 0 62 -8t45 -19.5t14 -29t-14 -25.5t-35.5 15.5t-62 45t-9.5 21.5z" />
<glyph unicode="&#x307a;" d="M143 336q-2 12 35 8t101.5 66t87.5 78t41 -1.5t68.5 -45t123 -64.5t142.5 -41t76 -45t-44.5 -33t-136.5 43t-148.5 91.5t-96 58.5t-86 -68t-85.5 -82t-54.5 9.5t-23.5 25.5zM589.5 621q0.5 27 16 45t35 21.5t39 -2t35 -21.5t14 -45t-19.5 -46.5t-49 -18t-51 19.5 t-19.5 47zM613.5 621q0.5 -27 23.5 -39t44.5 0t21.5 39t-23.5 39t-45 0t-21 -39z" />
<glyph unicode="&#x307b;" d="M221 299q-6 80 9.5 154t33 125t6 84t19.5 15.5t45 -41t-7.5 -41t-45 -87.5t-25.5 -164t45 -160q23 82 44.5 134.5t10 -23.5t-11.5 -109.5t5.5 -62.5t-23.5 -19.5t-64 62.5t-41 133zM418 191q12 39 61 65t115 14q0 117 -4 214q-55 -12 -82.5 -17.5t-47 6t-25 31t27.5 10 t123 9.5q0 74 -16 110q-59 -8 -76 -4t-27 17.5t27 19.5t74 10t76.5 17.5t61 7.5t21.5 -19.5t-25.5 -23.5t-88.5 -21q27 -23 21.5 -47t-5.5 -59q51 12 78 23.5t46.5 -4t-17.5 -31t-107 -27.5q4 -113 4 -230q59 -20 92 -45.5t33 -47t-14 -37t-43 21.5t-72 57 q-4 -43 -35.5 -70.5t-80 -27.5t-78 19.5t-17.5 58.5zM445.5 189.5q-19.5 -37.5 37 -45t80 12t27.5 70.5q-31 20 -78 10t-66.5 -47.5z" />
<glyph unicode="&#x307c;" d="M193.5 299q-5.5 80 10 154t31 129t-2 92t19.5 15.5t52.5 -49t-6 -45t-45 -87.5t-25.5 -164t49 -160q20 82 41.5 134.5t11.5 -23.5t-12 -109.5t4 -64.5t-23 -19.5t-64.5 64.5t-41 133zM367 176q12 39 63 64.5t113 13.5q0 117 -4 215q-55 -12 -82 -18t-46.5 6t-25.5 31.5 t27 9.5t123 10q0 74 -15 109q-59 -8 -76.5 -4t-27.5 18t27 19.5t74.5 9.5t76.5 17.5t60.5 8t21.5 -19.5t-26 -24q-26 -9 -88 -21q43 -27 27.5 -43t-11.5 -62q51 12 78.5 23.5t47 -4t-18 -31.5t-107.5 -27q4 -113 4 -231q59 -20 92 -45t33 -46.5t-13.5 -37t-43 21.5t-72.5 56 q-8 -43 -37 -70t-78 -27t-78.5 19.5t-17.5 58.5zM394.5 174q-19.5 -37 33 -47t80 13.5t31.5 70.5q-31 20 -78 10t-66.5 -47zM691.5 605.5q-23.5 23.5 3.5 15.5t45 -19.5t27.5 -19.5t9.5 -25.5t-15.5 -31t-31 21.5t-39 58.5zM754 668q20 0 41 -6t40.5 -17.5t19.5 -29 t-17.5 -27.5t-29 15.5t-41 45t-13.5 19.5z" />
<glyph unicode="&#x307d;" d="M166 303q-6 80 9.5 154t31.5 129t-1.5 92t19.5 15.5t52.5 -49t-6 -45t-45 -88t-25.5 -164t49 -159.5q20 82 41 134.5t11.5 -23.5t-11.5 -109.5t4 -64.5t-23.5 -19.5t-64.5 64.5t-41 133zM363.5 187.5q11.5 39.5 62.5 65t113 13.5q0 117 -4 214q-55 -12 -82 -17.5t-46.5 6 t-25.5 31.5t27 10t123 10q0 74 -15 109q-59 -8 -76.5 -4t-27.5 17.5t27.5 19.5t74.5 10t76 17.5t60.5 7.5t21.5 -19.5t-25.5 -23t-87.5 -21.5q43 -27 27 -43t-12 -63q51 12 78.5 23.5t47 -4t-17.5 -31t-108 -27.5q4 -113 4 -230q59 -20 92 -45t33 -46.5t-13.5 -37.5 t-43 21.5t-72.5 56.5q-8 -43 -37 -70.5t-78 -27.5t-78 19.5t-17.5 59zM390.5 185.5q-19.5 -37.5 33.5 -47t80 14t31 70.5q-31 20 -78 10t-66.5 -47.5zM691 645q0 27 16 44.5t35.5 21.5t39 -2t35 -21.5t13.5 -45t-19.5 -47t-48.5 -17.5t-51 20t-20 47zM715 644.5 q0 -27.5 23 -39.5t45 0t22 39.5t-23.5 39t-45 0t-21.5 -39z" />
<glyph unicode="&#x307e;" d="M258 175.5q12 27.5 62.5 51t156.5 11.5q-1 86 3 129q-66 -8 -107 -2t-49 39.5t11.5 17.5t57 -16t87.5 8v113q-113 -8 -160 -2t-58.5 25.5t37.5 15.5t178 8v76q0 38 -31.5 63t1.5 25t56.5 -13.5t21.5 -35t-3.5 -53t-1.5 -58.5q23 4 58 12t60.5 17.5t37.5 -16t-47 -39 t-109 -21.5l-4 -113q59 12 82 23.5t46.5 -8t4 -29t-58.5 -17.5t-74 -12q-4 -62 -4 -148q59 -8 105.5 -33.5t44.5 -55t-27.5 -25.5t-47 25.5t-79.5 49.5q-12 -51 -55 -72.5t-88 -21.5t-82 27t-25 54.5zM297 138.5q31 -17.5 60.5 -17.5t68.5 13.5t43 64.5q-51 16 -94 12 t-76 -29.5t-2 -43z" />
<glyph unicode="&#x307f;" d="M193.5 285q5.5 43 62 88t135.5 61q43 90 82 211q-51 -12 -78.5 -16t-49 4t-31 27.5t29.5 15.5t82 9.5t58.5 25.5t29 2t25.5 -25.5t-17 -43.5q-30 -26 -100 -206q121 0 183 -20q31 94 0 111.5t-38.5 29t51 6t62.5 -41t-28 -121.5q78 -31 105.5 -58.5t31.5 -45t-6 -33 t-51 21.5t-99 68q-35 -78 -76 -138.5t-96 -99.5t-8 17.5t80.5 117.5t56.5 123q-59 27 -176 35q-47 -125 -76 -160t-68.5 -41t-60.5 13.5t-15.5 62.5zM232.5 271.5q13.5 -25.5 43 -21.5t53 39t54.5 121q-82 -27 -123 -70t-27.5 -68.5z" />
<glyph unicode="&#x3080;" d="M203.5 576.5q-15.5 17.5 15.5 15.5t113 -2q0 78 -17.5 105.5t13.5 19.5t54.5 -23.5t10 -31t-17.5 -58.5q39 8 60.5 23.5t43 5.5t25.5 -23.5t-45 -29.5t-92 -23q-8 -31 -15 -78q51 -16 39 -31.5t-29.5 -39t-31.5 -68.5t-21.5 -86t8 -64.5t129 -25.5t131 13.5t17.5 111.5 v158q0 63 31 84.5t66.5 19.5t66.5 -31.5t31 -64.5t-25.5 -33t-68.5 -4t-7.5 15.5t31.5 51t-33.5 35t-51 -14t-25.5 -66t21.5 -132.5t29.5 -125t-74 -55t-170 -12t-117.5 23.5t-25.5 60.5t4 92q-39 12 -52.5 33.5t-9.5 52.5t31 60.5t78 41.5l8 74q-62 -4 -87.5 2t-41 23.5z M248 355.5q14 -19.5 49 -19.5q23 62 31 117q-59 -4 -76.5 -41t-3.5 -56.5z" />
</font>
</defs>
</svg>
